<?xml version="1.0" encoding="utf-8"?>
<!-- Generator: Adobe Illustrator 16.0.0, SVG Export Plug-In . SVG Version: 6.00 Build 0)  -->
<!DOCTYPE svg PUBLIC "-//W3C//DTD SVG 1.1//EN" "http://www.w3.org/Graphics/SVG/1.1/DTD/svg11.dtd">
<svg version="1.1" id="Layer_1" xmlns="http://www.w3.org/2000/svg" xmlns:xlink="http://www.w3.org/1999/xlink" x="0px" y="0px"
	 width="368.276px" height="120.689px" viewBox="0 0 368.276 120.689" enable-background="new 0 0 368.276 120.689"
	 xml:space="preserve">
<path fill-rule="evenodd" clip-rule="evenodd" fill="none" stroke="#050505" stroke-width="3" stroke-miterlimit="10" d="
	M70.21,87.755c0,16.715-10.646,30.264-23.779,30.264H29.675c-13.133,0-23.779-13.549-23.779-30.264V38.287
	c0-16.713,10.646-30.262,23.779-30.262h16.756c13.133,0,23.779,13.549,23.779,30.262V87.755z"/>
<g>
	<path fill-rule="evenodd" clip-rule="evenodd" d="M13.371,41.118c0.115-5.806,2.82-12.03,8.309-17.008
		c0.156-0.141,0.324-0.266,0.481-0.405c0.419-0.372,0.87-0.502,1.373-0.179c0.499,0.322,0.544,0.805,0.433,1.334
		c-0.234,1.127-0.521,2.246-0.686,3.383c-1.733,12.044,5.828,23.747,17.457,26.999c4.93,1.377,9.784,1.05,14.542-0.815
		c0.118-0.045,0.232-0.096,0.349-0.143c0.495-0.193,0.957-0.164,1.318,0.261c0.371,0.439,0.385,0.953,0.047,1.393
		c-1.139,1.472-2.182,3.046-3.49,4.353c-4.866,4.855-10.787,7.225-17.668,6.852c-7.332-0.396-13.172-3.729-17.563-9.556
		C14.938,53.163,13.369,48.185,13.371,41.118z M21.121,27.768c-0.242,0.277-0.354,0.398-0.46,0.525
		c-5.812,6.981-6.812,17.156-2.476,25.184c6.588,12.195,21.926,15.249,32.521,6.458c0.843-0.697,1.562-1.544,2.432-2.413
		c-9.118,2.009-17.09-0.009-23.772-6.329C22.708,44.894,20.164,37.003,21.121,27.768z"/>
</g>
<g>
	<path fill-rule="evenodd" clip-rule="evenodd" d="M47.58,27.386c3.728-0.007,6.668,2.921,6.699,6.666
		c0.03,3.754-3.123,6.919-6.866,6.893c-3.671-0.026-6.672-3.071-6.653-6.749C40.779,30.432,43.824,27.392,47.58,27.386z"/>
	<path fill-rule="evenodd" clip-rule="evenodd" d="M62.171,28.547c-0.154,0.144-0.391,0.5-0.719,0.647
		c-1.59,0.717-3.206,1.37-4.805,2.063c-0.559,0.242-1.03,0.165-1.283-0.389c-0.263-0.577-0.068-1.052,0.545-1.313
		c1.605-0.681,3.203-1.381,4.818-2.03C61.542,27.198,62.184,27.575,62.171,28.547z"/>
	<path fill-rule="evenodd" clip-rule="evenodd" d="M54.224,20.125c-0.131,0.392-0.189,0.605-0.273,0.81
		c-0.619,1.5-1.252,2.996-1.861,4.502c-0.264,0.652-0.672,1.063-1.385,0.744c-0.684-0.305-0.59-0.881-0.342-1.463
		c0.659-1.555,1.27-3.131,1.996-4.652c0.156-0.327,0.707-0.607,1.095-0.631C53.706,19.418,53.991,19.901,54.224,20.125z"/>
	<path fill-rule="evenodd" clip-rule="evenodd" d="M56.129,36.306c0.474,0.147,0.749,0.223,1.019,0.316
		c1.473,0.518,2.943,1.038,4.415,1.558c0.625,0.222,1.015,0.636,0.753,1.307c-0.246,0.627-0.799,0.646-1.373,0.44
		c-1.621-0.575-3.26-1.108-4.852-1.755c-0.338-0.137-0.681-0.68-0.696-1.049C55.383,36.848,55.894,36.55,56.129,36.306z"/>
	<path fill-rule="evenodd" clip-rule="evenodd" d="M33.439,28.114c1.541,0.547,2.891,1.023,4.24,1.505
		c0.48,0.171,1.033,0.256,1.41,0.559c0.275,0.222,0.506,0.797,0.406,1.099c-0.091,0.271-0.729,0.616-1.002,0.532
		c-1.82-0.567-3.622-1.207-5.393-1.919c-0.256-0.104-0.463-0.742-0.402-1.085C32.75,28.519,33.22,28.304,33.439,28.114z"/>
	<path fill-rule="evenodd" clip-rule="evenodd" d="M44.828,42.655c-0.13,0.373-0.182,0.555-0.255,0.729
		c-0.632,1.531-1.273,3.061-1.901,4.593c-0.246,0.604-0.617,1.007-1.31,0.716c-0.647-0.27-0.647-0.811-0.418-1.367
		c0.665-1.622,1.307-3.252,2.046-4.84c0.143-0.308,0.695-0.627,1.021-0.591C44.324,41.93,44.588,42.415,44.828,42.655z"/>
	<path fill-rule="evenodd" clip-rule="evenodd" d="M40.506,20.327c0.296-0.295,0.521-0.711,0.796-0.75
		c0.334-0.045,0.922,0.133,1.039,0.384c0.818,1.757,1.576,3.546,2.268,5.358c0.089,0.236-0.242,0.798-0.523,0.961
		c-0.229,0.133-0.896,0.001-0.99-0.194C42.205,24.228,41.394,22.329,40.506,20.327z"/>
	<path fill-rule="evenodd" clip-rule="evenodd" d="M54.229,47.927c-0.141,0.163-0.351,0.629-0.603,0.653
		c-0.368,0.036-0.99-0.14-1.115-0.407c-0.797-1.693-1.521-3.423-2.176-5.177c-0.109-0.289,0.15-0.941,0.417-1.081
		c0.268-0.139,1.004,0.044,1.116,0.283c0.823,1.749,1.541,3.548,2.292,5.332C54.185,47.587,54.183,47.654,54.229,47.927z"/>
	<path fill-rule="evenodd" clip-rule="evenodd" d="M33.613,40.899c-0.176-0.163-0.621-0.387-0.678-0.686
		c-0.061-0.314,0.159-0.9,0.416-1.02c1.701-0.785,3.43-1.512,5.186-2.162c0.295-0.109,0.947,0.139,1.094,0.406
		c0.143,0.262-0.037,1.008-0.272,1.119c-1.751,0.818-3.553,1.531-5.339,2.276C33.962,40.859,33.894,40.856,33.613,40.899z"/>
</g>
<path fill-rule="evenodd" clip-rule="evenodd" fill="none" stroke="#050505" stroke-width="3" stroke-miterlimit="10" d="
	M6.52,83.601c0,0,23.917-3.09,30.885,6.183c0,0,13.933-11.416,32.741-3.338"/>
<path fill-rule="evenodd" clip-rule="evenodd" fill="none" stroke="#050505" stroke-width="3" stroke-miterlimit="10" d="
	M38.068,89.783c0,0-0.796,22.184,0,28.235"/>
<g>
	<g>
		<path fill="#050505" d="M45.512,96.018c4.924-3.544,11.363-4.112,16.987-2.131c1.83,0.645,2.609-2.254,0.798-2.893
			c-6.298-2.22-13.777-1.542-19.298,2.434C42.444,94.547,43.939,97.15,45.512,96.018L45.512,96.018z"/>
	</g>
</g>
<g>
	<g>
		<path fill="#050505" d="M45.816,105.083c3.672-2.921,9.939-3.862,14.972-1.896c1.804,0.705,2.579-2.196,0.798-2.893
			c-5.969-2.333-12.848-1.345-17.891,2.667C42.181,104.166,44.319,106.274,45.816,105.083L45.816,105.083z"/>
	</g>
</g>
<g>
	<g>
		<path fill="#050505" d="M31.383,93.396c-5.484-3.948-12.913-4.622-19.168-2.417c-1.812,0.639-1.032,3.537,0.798,2.893
			c5.581-1.967,11.97-1.402,16.857,2.114C31.443,97.118,32.938,94.515,31.383,93.396L31.383,93.396z"/>
	</g>
</g>
<g>
	<g>
		<path fill="#050505" d="M31.687,102.863c-5.011-3.985-11.844-4.969-17.774-2.651c-1.781,0.696-1.007,3.598,0.798,2.893
			c4.995-1.952,11.22-1.012,14.855,1.88C31.063,106.176,33.201,104.067,31.687,102.863L31.687,102.863z"/>
	</g>
</g>
<path d="M123.677,59.642c1.164,1.102,1.895,2.104,2.199,2.989s0.371,2.05,0.211,3.491c-0.117,0.94-0.475,1.826-1.084,2.658
	c-0.607,0.832-1.271,1.306-1.994,1.414c-0.834,0.114-1.564,0.155-2.199,0.129c-0.643-0.034-1.266-0.17-1.875-0.421
	c-0.607-0.249-1.217-0.621-1.826-1.122s-1.252-1.164-1.914-1.995c-0.555-0.718-1.285-1.646-2.199-2.78
	c-0.92-1.137-1.791-2.26-2.623-3.368c-0.887,1.387-1.719,2.63-2.49,3.74c-0.777,1.108-1.469,1.994-2.076,2.657
	c-1.449,1.665-2.869,2.748-4.283,3.242c-1.414,0.5-3.092,0.67-5.031,0.5c-0.611-0.055-1.328-0.21-2.16-0.453
	c-0.832-0.251-1.664-0.541-2.496-0.873c-0.832-0.338-1.59-0.684-2.287-1.041c-0.688-0.359-1.176-0.649-1.453-0.874
	c0.832-0.054,1.719-0.385,2.66-1c0.945-0.609,1.777-1.272,2.494-1.989c1.164-1.11,2.367-2.455,3.619-4.032
	c1.246-1.583,2.449-3.327,3.613-5.243c1.162-1.907,2.258-3.93,3.287-6.067c1.021-2.132,1.895-4.276,2.619-6.44
	c0.438-1.271,0.689-2.258,0.742-2.949c0.055-0.696-0.223-1.293-0.83-1.785c-0.611-0.556-0.996-0.974-1.164-1.253
	c-0.162-0.277-0.197-0.662-0.082-1.164c0.109-0.493,0.426-1.177,0.953-2.035c0.529-0.858,0.988-1.508,1.373-1.955
	c0.447-0.494,0.873-0.771,1.293-0.825c0.414-0.054,1.008,0.054,1.787,0.331c0.385,0.107,0.871,0.278,1.453,0.494
	c0.582,0.223,1.205,0.487,1.867,0.791c0.67,0.306,1.305,0.636,1.916,1.001c0.607,0.358,1.135,0.73,1.576,1.123
	c1.217,1.11,1.771,2.449,1.662,4.033c-0.107,1.576-0.445,3.415-0.994,5.525c-0.668,2.551-1.691,5.264-3.078,8.146
	c0.555,0.447,1.26,1.009,2.117,1.705c0.859,0.69,1.732,1.414,2.619,2.158c0.885,0.751,1.705,1.44,2.455,2.075
	C122.798,58.822,123.339,59.304,123.677,59.642z M149.365,15.744c1.217,0.946,2.238,1.847,3.07,2.706s1.482,1.76,1.955,2.699
	c0.467,0.946,0.791,1.982,0.953,3.118c0.17,1.137,0.25,2.481,0.25,4.031c-0.053,1.888-0.08,4.02-0.08,6.399c0,2.381,0,4.852,0,7.401
	c0,2.551-0.014,5.127-0.041,7.731c-0.033,2.605-0.041,5.068-0.041,7.395c0,2.328-0.02,4.479-0.047,6.44
	c-0.027,1.968-0.041,3.593-0.041,4.864c-0.107,4.322-0.873,8.231-2.285,11.724c-1.414,3.489-3.613,6.872-6.609,10.141
	c-0.217-2.22-0.744-4.71-1.576-7.482c-0.387-1.271-0.664-2.645-0.832-4.112c-0.162-1.468-0.305-2.896-0.412-4.283
	c-0.115-2.103-0.17-4.6-0.17-7.482c0-2.882,0.055-5.899,0.17-9.058c-1.557-0.114-3.08-0.114-4.574,0
	c0,1.327-0.012,2.551-0.041,3.652c-0.033,1.11-0.074,2.085-0.129,2.917c-0.107,1.772-0.305,3.666-0.58,5.689
	c-0.277,2.023-0.807,3.728-1.576,5.114c-1.002,1.826-2.051,3.625-3.16,5.405c-1.109,1.771-2.049,3.32-2.826,4.654
	c-0.387-1.111-0.766-2.314-1.123-3.62c-0.359-1.298-0.678-2.646-0.955-4.032c-0.277-1.38-0.502-2.767-0.67-4.153
	c-0.162-1.387-0.244-2.686-0.244-3.909c0-2.544,0.041-5.265,0.121-8.146c0.082-2.883,0.156-5.805,0.211-8.768
	c0.055-2.962,0.094-5.845,0.123-8.646c0.025-2.801,0.012-5.391-0.043-7.772c-0.053-1.056-0.135-1.954-0.25-2.699
	c-0.107-0.751-0.264-1.414-0.453-1.994c-0.195-0.584-0.434-1.11-0.709-1.586c-0.279-0.465-0.609-0.951-0.994-1.452
	c-0.617-0.779-0.873-1.604-0.793-2.496c0.082-0.88,0.678-1.854,1.787-2.91c1.332-1.217,2.395-1.907,3.199-2.076
	c0.805-0.162,1.846,0.276,3.119,1.333c1.217,0.993,2.217,1.927,2.99,2.778c0.777,0.867,1.385,1.767,1.832,2.708
	c0.439,0.939,0.744,1.98,0.914,3.117c0.168,1.137,0.25,2.449,0.25,3.944c0.055,1.888,0.08,3.884,0.08,5.987s0,4.215,0,6.318
	c0.779,0,1.592,0,2.457,0c0.852,0,1.67,0.027,2.449,0.081c0.107-3.437,0.209-6.676,0.291-9.728c0.08-3.044,0.066-5.621-0.041-7.726
	c-0.115-2.111-0.318-3.728-0.623-4.865c-0.305-1.136-0.846-2.178-1.623-3.117c-0.887-1.049-1.217-1.969-0.994-2.74
	c0.217-0.779,0.912-1.719,2.076-2.827c1.219-1.163,2.26-1.801,3.119-1.915C147.105,14.39,148.14,14.804,149.365,15.744z"/>
<path d="M222.181,50.204c0,1.94,0,3.951,0,6.027s-0.014,4.12-0.041,6.109c-0.027,1.995-0.055,3.896-0.08,5.695
	c-0.035,1.799-0.074,3.396-0.129,4.783c-0.107,1.881-0.65,3.931-1.617,6.149c-0.975,2.218-2.205,4.295-3.701,6.236
	c0.939,0.055,1.672,0.277,2.199,0.663c0.527,0.387,1.123,1.056,1.793,1.996c0.609,0.832,0.953,1.65,1.035,2.448
	c0.082,0.806-0.041,1.928-0.373,3.37c-0.115,1.386-0.223,2.733-0.332,4.032c-0.113,1.305-0.275,2.474-0.498,3.529
	c-0.334,1.773-0.807,3.228-1.416,4.364c-0.607,1.136-1.244,2.151-1.906,3.037c-0.67,0.887-1.334,1.719-1.996,2.489
	c-0.67,0.778-1.197,1.719-1.582,2.827c-0.387-0.384-0.818-0.927-1.287-1.615c-0.473-0.698-0.932-1.455-1.373-2.287
	c-0.447-0.832-0.832-1.705-1.164-2.618c-0.33-0.92-0.527-1.766-0.582-2.537c-0.113-1.664-0.195-3.091-0.25-4.281
	s-0.115-2.7-0.168-4.533c-0.941,0.115-2.381,0.183-4.322,0.21c-1.936,0.028-4.045,0.04-6.313,0.04c-2.273,0-4.506,0-6.697,0
	c-2.186,0-3.979-0.025-5.357-0.081c-1.773-0.054-3.41-0.357-4.904-0.913c-1.496-0.555-3.078-1.388-4.744-2.496
	c-0.717-0.44-1.189-0.913-1.412-1.414c-0.217-0.501-0.189-1.299,0.088-2.407c0.107-0.447,0.318-0.981,0.621-1.623
	c0.305-0.637,0.598-1.233,0.875-1.788c0.385-0.717,0.791-1.122,1.203-1.203c0.42-0.081,1.014-0.014,1.785,0.209
	c0.609,0.163,1.373,0.319,2.287,0.454c0.914,0.142,1.859,0.265,2.826,0.371c0.969,0.116,1.957,0.197,2.949,0.251
	c1.002,0.062,1.889,0.088,2.66,0.088c1.719,0,3.635-0.014,5.736-0.047c2.111-0.027,4.242-0.056,6.406-0.082
	c2.158-0.026,4.248-0.067,6.271-0.121c2.023-0.055,3.754-0.143,5.195-0.251c-0.494-1.271-1.068-2.456-1.703-3.529
	c-0.639-1.084-1.09-2.314-1.367-3.701c-0.117-0.447-0.184-0.859-0.211-1.245c-0.025-0.392-0.068-0.805-0.129-1.252l-3.732,0.25
	c-1.447,0.116-2.652-0.054-3.619-0.501c-0.969-0.438-1.928-0.967-2.869-1.575l-0.25-0.169v0.42c-0.107,0.939-0.398,1.73-0.873,2.366
	c-0.473,0.637-1.008,1.259-1.617,1.868c-0.615,0.615-1.211,1.108-1.791,1.501c-0.584,0.387-1.178,0.609-1.787,0.663
	c-0.277,0-0.662-0.081-1.162-0.25c-0.502-0.17-0.996-0.413-1.496-0.751c-1.057,0-2.26,0-3.619,0c-1.355,0-2.74,0-4.154,0
	s-2.828,0.034-4.24,0.089c-1.416,0.054-2.699,0.107-3.863,0.162c-0.887,0.886-1.746,1.331-2.578,1.331
	c-0.447,0-0.953-0.127-1.535-0.371c-0.582-0.25-1.123-0.582-1.623-1.001c-0.502-0.412-0.928-0.886-1.285-1.414
	c-0.367-0.521-0.576-1.09-0.631-1.705c-0.053-0.275-0.08-0.859-0.08-1.745c0-0.887,0-1.935,0-3.158c0-1.219,0.014-2.531,0.041-3.944
	c0.025-1.415,0.053-2.788,0.086-4.121c0.027-1.324,0.041-2.542,0.041-3.652c0-1.108,0-1.968,0-2.576
	c0-0.941-0.041-1.611-0.127-1.996c-0.082-0.386-0.318-0.833-0.705-1.333c-0.393-0.494-0.682-0.954-0.871-1.366
	c-0.197-0.42-0.156-0.873,0.121-1.373c0.168-0.331,0.461-0.677,0.873-1.043c0.418-0.357,0.857-0.717,1.33-1.082
	c0.469-0.358,0.93-0.676,1.375-0.954c0.439-0.277,0.771-0.467,0.996-0.582c0.939-0.5,1.953-0.412,3.037,0.251
	c1.074,0.662,2,1.441,2.779,2.327c0.385,0.445,0.777,1.001,1.162,1.665c0.387,0.663,0.637,1.468,0.752,2.407
	c0,0.223,0.014,0.473,0.041,0.751c0.025,0.277,0.041,0.609,0.041,0.995l4.572-0.251c1.664-0.108,2.938,0.196,3.824,0.921
	c0.885,0.717,1.662,1.63,2.324,2.739c0-1.109,0-2.117,0-3.031c0-0.919-0.025-1.651-0.08-2.205c-0.107-1.941-0.607-3.518-1.494-4.742
	c-0.225-0.271-0.408-0.622-0.543-1.034c-0.141-0.421-0.066-0.928,0.211-1.535c0.16-0.278,0.439-0.582,0.83-0.921
	c0.389-0.331,0.826-0.663,1.328-0.994c0.5-0.332,0.986-0.637,1.453-0.914c0.473-0.278,0.873-0.501,1.205-0.67
	c0.609-0.331,1.164-0.386,1.664-0.162s0.939,0.474,1.332,0.744c0.887,0.724,1.666,1.387,2.328,1.996
	c0.662,0.614,1.203,1.264,1.615,1.955c0.42,0.696,0.738,1.468,0.961,2.326c0.217,0.859,0.332,1.901,0.332,3.118
	c0.162-0.053,0.441-0.081,0.832-0.081l9.309-0.5c0-0.332,0.014-0.662,0.041-0.994c0.027-0.338,0.039-0.67,0.039-1.001
	c0.055-0.886,0.076-1.624,0.043-2.206c-0.029-0.582-0.123-1.117-0.293-1.617c-0.162-0.5-0.385-1-0.662-1.494
	c-0.277-0.5-0.664-1.11-1.164-1.834c-0.607-0.939-0.953-1.616-1.035-2.036c-0.088-0.412,0.123-0.925,0.623-1.535
	c0.162-0.169,0.385-0.4,0.662-0.711c0.279-0.298,0.584-0.589,0.914-0.872c0.33-0.271,0.648-0.534,0.955-0.784
	c0.303-0.25,0.541-0.434,0.709-0.542c0.941-0.501,1.623-0.766,2.037-0.791c0.412-0.026,1.041,0.264,1.865,0.873
	c1.164,0.832,2.084,1.555,2.748,2.165c0.664,0.608,1.299,1.325,1.914,2.158c0.887,1.108,1.467,2.34,1.746,3.699
	C222.046,46.537,222.181,48.208,222.181,50.204z M178.791,70.323c1.604,0,3.391,0.013,5.359,0.041
	c1.969,0.026,3.672-0.015,5.113-0.123c0-1.277,0.014-2.617,0.041-4.032c0.027-1.412,0.039-2.785,0.039-4.112
	c-0.609,0.608-1.535,1.177-2.779,1.698c-1.252,0.528-2.402,0.846-3.451,0.96c-0.391,0-0.973,0-1.744,0
	c-0.779,0-1.637-0.027-2.578-0.088C178.9,66.886,178.9,68.773,178.791,70.323z M203.978,66.169c0.717-0.053,1.648-0.102,2.787-0.129
	c1.127-0.026,2.285-0.04,3.449-0.04c0-0.554,0.014-1.109,0.041-1.664c0.025-0.548,0.039-1.13,0.039-1.745
	c-0.662,0.061-1.359,0.087-2.076,0.087c-0.725,0-1.441,0-2.164,0c-0.941-0.054-1.908-0.29-2.91-0.71
	c-0.994-0.412-1.941-0.927-2.828-1.535c0,0.994-0.012,2.009-0.039,3.031c-0.027,1.027-0.041,2.035-0.041,3.037
	c0.717-0.115,1.414-0.197,2.076-0.25C202.982,66.197,203.531,66.169,203.978,66.169z"/>
<path fill="#7D7D7D" d="M251.181,53.101c-0.994,0.385-2.299,0.445-3.902,0.162c-4.105-0.609-7.191-2.159-9.275-4.656
	c-2.076-2.488-3.111-5.621-3.111-9.389c0-1.609,0.344-3.2,1.035-4.783c0.697-1.575,1.623-3.043,2.787-4.402
	c1.164-1.36,2.477-2.524,3.951-3.492c1.467-0.967,2.949-1.623,4.443-1.954c0.277-0.609,0.73-1.05,1.373-1.326
	c0.637-0.276,1.232-0.474,1.787-0.589c0.5-0.054,1.068-0.054,1.705,0c0.635,0.062,1.285,0.155,1.955,0.299
	c0.662,0.135,1.313,0.318,1.947,0.533c0.637,0.223,1.178,0.42,1.625,0.582c1.662,0.67,3.199,1.475,4.611,2.414
	c1.414,0.941,2.646,2.05,3.701,3.323c1.049,1.277,1.867,2.76,2.449,4.45c0.582,1.692,0.846,3.64,0.791,5.858
	c-0.055,1.827-0.514,3.518-1.373,5.073c-0.859,1.55-1.98,2.896-3.361,4.033c-1.389,1.136-2.982,2.036-4.783,2.699
	c-1.799,0.663-3.646,1.055-5.527,1.164c-0.5,0.053-0.988,0.066-1.455,0.04C252.082,53.112,251.628,53.101,251.181,53.101z
	 M292.082,82.445c0.941,0.94,1.217,1.732,0.834,2.367c-0.395,0.636-1.002,1.313-1.834,2.036c-0.941,0.832-1.84,1.468-2.699,1.908
	c-0.859,0.447-1.732,0.777-2.619,1.002c-0.885,0.223-1.846,0.357-2.867,0.413c-1.029,0.053-2.178,0.088-3.449,0.088
	c-0.611,0-1.76-0.015-3.451-0.049c-1.691-0.027-3.506-0.054-5.445-0.081c-1.941-0.025-3.783-0.067-5.527-0.121
	c-1.746-0.056-2.977-0.088-3.701-0.088c-1.107-0.056-2.076-0.123-2.908-0.203c-0.832-0.089-1.576-0.251-2.246-0.502
	c-0.662-0.249-1.299-0.621-1.908-1.122c-0.607-0.501-1.252-1.19-1.914-2.076c-1.271-1.61-2.328-3.16-3.158-4.655
	c-0.834-1.493-1.666-2.827-2.49-3.99c-0.447-0.61-1.043-1.083-1.793-1.415c-0.744-0.331-1.508-0.743-2.285-1.245
	c-0.664-0.445-1.109-0.912-1.326-1.412c-0.277-0.609-0.408-1.218-0.373-1.827c0.027-0.609,0.258-1.137,0.703-1.583
	c0.439-0.439,1.096-0.845,1.957-1.204c0.857-0.359,1.73-0.677,2.617-0.953c1.049-0.339,1.934-0.582,2.658-0.751
	c0.715-0.17,1.332-0.251,1.826-0.251c0.5,0,0.947,0.129,1.334,0.371c0.385,0.251,0.75,0.658,1.08,1.213l0.082,0.081
	c1.217,0.054,2.789,0.067,4.695,0.039c1.914-0.025,3.91-0.053,5.986-0.081c2.078-0.027,4.086-0.067,6.027-0.127
	c1.941-0.055,3.572-0.082,4.904-0.082l0.162-3.491c-1.771-0.054-3.691-0.107-5.777-0.168c-2.076-0.056-4.152-0.082-6.23-0.082
	c-2.076,0-4.084,0-6.025,0s-3.66,0-5.156,0c-0.555,0-1.029-0.013-1.414-0.041c-0.385-0.026-0.779-0.094-1.162-0.21
	c-0.387-0.106-0.793-0.276-1.205-0.499c-0.412-0.218-0.926-0.549-1.535-0.995c-0.615-0.439-1.137-0.886-1.584-1.333
	c-0.439-0.438-0.689-0.913-0.744-1.407c-0.061-0.5-0.014-1.002,0.123-1.5c0.135-0.494,0.486-1.05,1.041-1.658
	c0.385-0.447,0.744-0.751,1.076-0.921c0.338-0.162,0.682-0.243,1.041-0.243c0.357,0,0.766,0.067,1.205,0.203
	c0.447,0.143,1.029,0.29,1.744,0.46c1.551,0.332,3.275,0.581,5.156,0.744c2.434,0.223,4.836,0.29,7.189,0.209
	c2.355-0.081,4.473-0.148,6.359-0.209c0.662,0,1.496-0.028,2.496-0.081c0.996-0.056,2.023-0.123,3.072-0.211
	c1.055-0.081,2.084-0.161,3.078-0.243c0.994-0.088,1.854-0.155,2.576-0.209c-0.83-1.549-1.609-3.241-2.326-5.073
	c-0.723-1.827-0.975-4.047-0.752-6.651c0.055-1.047,0.115-2.299,0.17-3.739c0.055-1.441,0.107-2.896,0.162-4.364
	s0.102-2.868,0.129-4.194c0.027-1.332,0.066-2.414,0.121-3.247c0.055-0.886,0.09-1.63,0.09-2.24c0-0.607-0.076-1.163-0.211-1.662
	c-0.143-0.501-0.346-1.016-0.623-1.537c-0.277-0.527-0.643-1.123-1.082-1.791c-0.607-0.941-0.939-1.618-1.002-2.037
	c-0.053-0.412,0.143-0.926,0.588-1.535c0.164-0.17,0.414-0.399,0.746-0.711c0.33-0.298,0.689-0.609,1.082-0.913
	c0.385-0.304,0.744-0.567,1.084-0.785c0.33-0.223,0.58-0.392,0.742-0.501c0.941-0.499,1.623-0.764,2.037-0.791
	c0.418-0.026,1.041,0.264,1.873,0.873c1.164,0.831,1.982,1.555,2.449,2.164c0.473,0.609,1.016,1.326,1.623,2.159
	c0.887,1.108,1.51,2.34,1.867,3.7c0.359,1.359,0.486,3.029,0.379,5.025c-0.115,2.611-0.154,5.364-0.129,8.273
	c0.027,2.91-0.068,5.777-0.291,8.605c-0.107,1.771-0.621,3.741-1.535,5.899c-0.912,2.165-2.09,4.16-3.531,5.987
	c1.271,0.723,2.295,1.576,3.07,2.576c0.279,0.386,0.582,0.805,0.914,1.245c0.34,0.447,0.5,0.859,0.5,1.252
	c0,0.607-0.357,1.495-1.082,2.657c-0.107,0.278-0.303,0.833-0.582,1.665c-0.275,0.825-0.568,1.697-0.871,2.618
	c-0.305,0.914-0.582,1.76-0.832,2.529c-0.244,0.779-0.4,1.253-0.455,1.414c-0.33,1.056-1.027,1.705-2.076,1.956
	c-1.055,0.249-2.049,0.405-2.998,0.459c-0.275,0-0.953,0-2.035,0c-1.076,0-2.285-0.013-3.613-0.04
	c-1.33-0.034-2.656-0.074-3.99-0.129c-1.334-0.054-2.354-0.108-3.078-0.162c-0.832-0.061-2.09-0.089-3.781-0.089
	c-1.689,0-3.584-0.025-5.695-0.08l1.832,2.577c0.832,0.995,1.705,1.59,2.619,1.785c0.912,0.197,1.92,0.346,3.029,0.462
	c0.502,0.053,1.361,0.107,2.578,0.161c1.219,0.055,2.537,0.094,3.949,0.129c1.416,0.027,2.801,0.04,4.154,0.04
	c1.359,0,2.457,0,3.289,0c0.887,0,1.881-0.08,2.99-0.249c1.109-0.17,2.104-0.359,2.988-0.582c0.889-0.225,1.637-0.306,2.246-0.251
	c0.611,0.054,1.178,0.223,1.705,0.501c0.529,0.276,1.057,0.649,1.584,1.122C290.818,81.207,291.419,81.775,292.082,82.445z
	 M245.533,38.968c0,1.888,0.467,3.268,1.408,4.153c0.945,0.887,2.164,1.469,3.658,1.746c0.887,0,1.828-0.163,2.828-0.494
	c1.273-0.446,2.354-1.219,3.24-2.327c0.887-1.11,1.307-2.301,1.246-3.579c-0.055-1.271-0.664-2.367-1.826-3.281
	c-1.164-0.913-2.383-1.596-3.66-2.036c-0.387-0.115-0.732-0.236-1.035-0.378c-0.305-0.137-0.568-0.345-0.793-0.623
	c-0.662,0.17-1.318,0.527-1.953,1.082c-0.637,0.556-1.178,1.164-1.617,1.827c-0.447,0.67-0.807,1.347-1.082,2.036
	C245.667,37.791,245.533,38.413,245.533,38.968z"/>
<path fill="#7D7D7D" d="M294.992,86.213c2.379-0.607,4.668-1.468,6.852-2.578c2.191-1.108,4.174-2.468,5.945-4.072
	c3.662-3.327,6.873-6.953,9.641-10.891c2.775-3.938,4.959-8.063,6.568-12.386c-0.885,0.054-1.824,0.114-2.826,0.17
	c-0.994,0.053-1.996,0.094-2.99,0.12c-0.994,0.027-1.955,0.041-2.867,0.041c-0.914,0-1.707,0-2.369,0
	c-0.777-0.055-1.48-0.135-2.117-0.249c-0.643-0.109-1.32-0.332-2.043-0.664c-0.549-0.277-1.137-0.648-1.744-1.124
	c-0.609-0.466-1.191-0.968-1.746-1.494c-0.555-0.527-1.023-1.055-1.414-1.583c-0.387-0.521-0.664-0.981-0.826-1.366
	c-0.223-0.501-0.143-1.001,0.244-1.495c0.447-0.555,1.137-1.178,2.084-1.874c0.939-0.69,1.631-1.097,2.076-1.204
	c0.439-0.108,0.873-0.095,1.285,0.04c0.42,0.142,0.873,0.318,1.375,0.541c0.445,0.162,0.953,0.278,1.535,0.333
	c0.58,0.054,1.096,0.08,1.541,0.08c0.832,0,1.922-0.041,3.281-0.121c1.361-0.081,2.746-0.169,4.162-0.251
	c1.406-0.081,2.738-0.169,3.984-0.25c1.25-0.081,2.205-0.148,2.867-0.209c0.777-0.108,1.557-0.292,2.326-0.535
	c0.779-0.251,1.557-0.318,2.328-0.21c0.777,0.108,1.516,0.372,2.205,0.792c0.689,0.412,1.293,0.846,1.785,1.284
	c1.334,1.164,2.051,2.355,2.164,3.572c0.057,0.833-0.086,1.502-0.418,1.996c-0.332,0.5-0.582,1.055-0.744,1.664
	c-0.832,2.827-1.834,5.669-2.998,8.524c-1.162,2.854-2.475,5.62-3.943,8.307c-1.475,2.692-3.078,5.256-4.822,7.69
	c-1.746,2.443-3.619,4.656-5.609,6.65c-1.664,1.664-3.326,2.815-4.992,3.45c-1.664,0.637-3.355,1.069-5.066,1.292
	c-0.947,0.108-1.779,0.123-2.498,0.041c-0.723-0.088-1.385-0.236-1.994-0.46s-1.191-0.502-1.746-0.832
	c-0.555-0.331-1.162-0.717-1.824-1.163c-0.672-0.385-1.307-0.677-1.916-0.872c-0.609-0.19-1.191-0.319-1.744-0.373
	c-0.555-0.054-1.084-0.095-1.576-0.128C295.904,86.39,295.431,86.322,294.992,86.213z M350.41,117.487
	c-0.582-0.453-1.082-1.217-1.504-2.293c-0.432-1.076-0.758-2.328-0.98-3.754c-0.229-1.436-0.426-3.011-0.588-4.729
	c-0.162-1.725-0.279-3.523-0.338-5.418c-0.189-4.093-0.266-8.659-0.189-13.7c0.061-5.039,0.189-10.147,0.385-15.309
	c0.191-5.175,0.359-10.249,0.48-15.221c0.129-4.979,0.129-9.41,0-13.313c0-0.975-0.061-1.746-0.184-2.287
	c-0.141-0.561-0.316-1.047-0.547-1.474c-0.229-0.414-0.48-0.84-0.771-1.26c-0.291-0.433-0.607-0.926-0.926-1.522
	c-0.461-0.771-0.785-1.346-0.975-1.697c-0.203-0.365-0.203-0.832,0-1.414c0.189-0.649,0.596-1.245,1.219-1.759
	c0.613-0.521,1.318-0.974,2.096-1.366c0.779-0.398,1.609-0.697,2.482-0.927c0.881-0.23,1.705-0.372,2.49-0.434
	c1.428-0.135,2.535,0.19,3.309,0.962c0.852,0.852,1.686,1.711,2.496,2.597c0.813,0.88,1.447,1.732,1.893,2.585
	c0.455,0.845,0.766,1.643,0.934,2.388c0.156,0.751,0.252,1.61,0.252,2.585c0.061,2.861,0.088,6.026,0.088,9.504
	c0,3.483,0,7.055,0,10.729c0,3.68-0.014,7.354-0.049,11.026c-0.025,3.674-0.061,7.089-0.094,10.242
	c-0.041,3.151-0.088,5.966-0.148,8.436c-0.068,2.468-0.129,4.362-0.189,5.663c-0.074,0.904-0.277,2.19-0.637,3.849
	c-0.357,1.656-1.07,3.227-2.104,4.728c-1.881,2.47-3.639,4.763-5.264,6.874C351.423,113.889,350.537,115.797,350.41,117.487z"/>
<g>
	<path fill="#939393" d="M254.177,109.268c0.143,0.183,0.225,0.331,0.266,0.44c0.039,0.108,0.014,0.277-0.082,0.5
		c-0.08,0.156-0.162,0.278-0.271,0.366c-0.107,0.087-0.242,0.115-0.404,0.087c-0.209-0.033-0.432-0.061-0.668-0.082
		c-0.24-0.019-0.469-0.025-0.672-0.025l-0.041,0.183c-0.053,0.21-0.154,0.474-0.311,0.784c-0.148,0.318-0.332,0.596-0.541,0.847
		c0.365,0.249,0.65,0.574,0.852,0.98c0.203,0.399,0.299,0.852,0.285,1.359c-0.027,0.371-0.115,0.703-0.285,0.994
		c-0.176,0.291-0.404,0.534-0.703,0.725c-0.297,0.196-0.643,0.345-1.035,0.447c-0.393,0.1-0.813,0.148-1.264,0.148
		c-0.434,0-0.861-0.056-1.279-0.169c-0.418-0.116-0.799-0.286-1.117-0.494c-0.176-0.056-0.33-0.143-0.473-0.271
		c-0.141-0.121-0.258-0.264-0.359-0.412c-0.102-0.156-0.182-0.318-0.242-0.501c-0.063-0.184-0.096-0.351-0.109-0.521
		c-0.025-0.4,0.041-0.751,0.217-1.069c0.182-0.311,0.432-0.581,0.766-0.798c0.33-0.225,0.709-0.4,1.154-0.535
		c0.447-0.135,0.908-0.223,1.4-0.271c0.076-0.046,0.156-0.073,0.258-0.088c0.096-0.013,0.176-0.019,0.236-0.019
		c0.379,0,0.727,0.054,1.029,0.162c-0.096-0.21-0.162-0.427-0.217-0.637c-0.047-0.209-0.086-0.432-0.113-0.662
		c-0.117,0.062-0.266,0.121-0.441,0.182c-0.162,0.062-0.346,0.116-0.529,0.17c-0.188,0.047-0.371,0.088-0.561,0.122
		c-0.188,0.033-0.371,0.061-0.533,0.081c-0.189,0.014-0.441,0.04-0.758,0.067c-0.326,0.027-0.67,0.047-1.027,0.067
		c-0.367,0.021-0.705,0.027-1.043,0.021c-0.33-0.006-0.588-0.027-0.771-0.074c-0.217-0.048-0.371-0.136-0.467-0.258
		c-0.102-0.127-0.154-0.316-0.168-0.574c-0.014-0.324,0.066-0.535,0.23-0.636c0-0.306-0.008-0.642-0.021-1.009
		c-0.014-0.365-0.033-0.683-0.047-0.96c-0.137-0.081-0.203-0.183-0.211-0.292c-0.025-0.208-0.025-0.426,0-0.642
		c0.027-0.216,0.102-0.399,0.225-0.534c0.154-0.184,0.324-0.251,0.514-0.196c0.23,0.067,0.541,0.095,0.941,0.095
		c0.113,0,0.283,0,0.492-0.007c0.203,0,0.428-0.008,0.656-0.021c0.23-0.008,0.453-0.021,0.684-0.04
		c0.217-0.015,0.406-0.041,0.549-0.069c0.195-0.033,0.357-0.033,0.506,0.009c0.143,0.04,0.277,0.142,0.408,0.297
		c0.039,0.047,0.078,0.107,0.127,0.184c0.047,0.074,0.088,0.147,0.129,0.229c0.041,0.088,0.08,0.169,0.107,0.243
		c0.027,0.081,0.039,0.148,0.055,0.203c0.006,0.073-0.016,0.147-0.055,0.224c-0.053,0.074-0.107,0.135-0.189,0.188
		c-0.082,0.06-0.162,0.102-0.258,0.136c-0.094,0.033-0.174,0.047-0.262,0.047c-0.318-0.021-0.684-0.027-1.117-0.027
		c-0.439,0-0.865,0.007-1.293,0.014c0.008,0.271,0.016,0.562,0.021,0.887c0,0.324,0,0.623-0.021,0.887
		c0.381-0.021,0.752-0.035,1.131-0.048c0.379-0.014,0.725-0.026,1.027-0.047c0.299-0.021,0.623-0.041,0.975-0.056
		c0.352-0.02,0.664-0.053,0.939-0.1c0-0.177,0.008-0.38,0.014-0.61c0.008-0.229,0.021-0.466,0.035-0.702
		c0.014-0.244,0.025-0.481,0.039-0.724c0.016-0.238,0.027-0.454,0.043-0.65c0-0.149,0.006-0.271,0-0.365
		c0-0.102-0.016-0.189-0.047-0.271c-0.027-0.081-0.063-0.169-0.109-0.249c-0.049-0.082-0.115-0.184-0.197-0.305
		c-0.102-0.156-0.162-0.271-0.176-0.339c-0.014-0.074,0.027-0.155,0.107-0.257c0.027-0.026,0.068-0.067,0.123-0.122
		c0.055-0.047,0.121-0.094,0.182-0.141c0.061-0.049,0.131-0.088,0.184-0.137c0.053-0.039,0.094-0.067,0.123-0.088
		c0.154-0.081,0.27-0.128,0.336-0.128c0.068-0.007,0.176,0.04,0.318,0.142c0.189,0.142,0.346,0.258,0.461,0.359
		c0.115,0.101,0.223,0.223,0.324,0.364c0.148,0.184,0.25,0.387,0.305,0.616c0.055,0.223,0.074,0.508,0.074,0.838
		c-0.014,0.306-0.02,0.623-0.027,0.955c0,0.332-0.014,0.663-0.033,0.98c0.008,0,0.014,0,0.014-0.006c0,0,0.006-0.008,0.014-0.008
		c0.127-0.081,0.275-0.115,0.439-0.102c0.162,0.014,0.318,0.054,0.475,0.115c0.148,0.067,0.297,0.155,0.432,0.265
		C253.982,109.044,254.089,109.153,254.177,109.268z M249.275,115.336c0.176,0,0.344-0.019,0.514-0.047
		c0.17-0.027,0.316-0.074,0.453-0.137c0.129-0.067,0.238-0.147,0.311-0.249c0.082-0.101,0.123-0.23,0.123-0.387
		c0-0.324-0.123-0.567-0.354-0.736c-0.236-0.163-0.52-0.311-0.852-0.439c-0.189,0.007-0.379,0.04-0.596,0.101
		c-0.203,0.062-0.393,0.137-0.568,0.23c-0.176,0.089-0.324,0.196-0.439,0.318c-0.115,0.121-0.174,0.243-0.184,0.371
		c-0.025,0.251,0.074,0.48,0.285,0.697c0.162,0.089,0.365,0.156,0.609,0.195C248.822,115.296,249.052,115.323,249.275,115.336z"/>
	<path fill="#939393" d="M258.609,110.33c-0.311,0.5-0.596,0.88-0.852,1.138c-0.318,0.296-0.65,0.486-1,0.573
		c-0.354,0.088-0.717,0.116-1.111,0.075c-0.451-0.034-0.918-0.225-1.406-0.567c0.209-0.008,0.404-0.069,0.596-0.184
		c0.189-0.115,0.359-0.236,0.506-0.365c0.244-0.217,0.475-0.446,0.711-0.696c0.23-0.251,0.447-0.508,0.648-0.779
		c0.205-0.262,0.389-0.533,0.549-0.805c0.164-0.277,0.285-0.547,0.379-0.812c0.074-0.195,0.109-0.338,0.102-0.434
		c0-0.088-0.047-0.188-0.141-0.304c-0.076-0.102-0.123-0.176-0.143-0.237c-0.016-0.053-0.016-0.121,0-0.203
		c0.033-0.101,0.094-0.216,0.203-0.344c0.107-0.136,0.209-0.237,0.311-0.311c0.094-0.069,0.176-0.108,0.244-0.116
		c0.066-0.007,0.168,0.014,0.297,0.061c0.148,0.056,0.299,0.129,0.459,0.218c0.156,0.087,0.313,0.202,0.467,0.337
		c0.373,0.346,0.463,0.84,0.266,1.481c-0.035,0.122-0.074,0.244-0.123,0.373c-0.047,0.121-0.102,0.251-0.156,0.378
		c0.129,0.081,0.285,0.184,0.455,0.298c0.168,0.116,0.338,0.23,0.508,0.352c0.162,0.122,0.311,0.236,0.445,0.339
		c0.135,0.108,0.236,0.196,0.297,0.257c0.225,0.223,0.354,0.434,0.4,0.637c0.041,0.21,0.033,0.433-0.006,0.683
		c-0.063,0.276-0.17,0.46-0.332,0.562c-0.162,0.095-0.373,0.121-0.643,0.074c-0.285-0.047-0.521-0.129-0.711-0.251
		c-0.189-0.12-0.373-0.283-0.533-0.5c-0.082-0.102-0.184-0.23-0.305-0.399C258.867,110.689,258.744,110.52,258.609,110.33z
		 M264.542,115.222c0.156,0.216,0.182,0.406,0.082,0.575c-0.102,0.169-0.305,0.351-0.623,0.547c-0.109,0.074-0.23,0.135-0.359,0.184
		c-0.129,0.039-0.27,0.074-0.432,0.081c-0.178,0.007-0.4,0.014-0.67,0.02c-0.271,0.008-0.563,0.008-0.865,0.014
		c-0.307,0.007-0.609,0.007-0.908,0.007c-0.297,0-0.566-0.007-0.799-0.026c-0.229-0.007-0.426-0.027-0.58-0.062
		c-0.156-0.033-0.299-0.075-0.412-0.135c-0.123-0.055-0.232-0.128-0.326-0.217c-0.102-0.095-0.203-0.21-0.313-0.353
		c-0.188-0.229-0.398-0.5-0.641-0.811c-0.236-0.318-0.461-0.603-0.664-0.847c-0.047-0.061-0.102-0.108-0.162-0.148
		c-0.053-0.04-0.121-0.089-0.182-0.128c-0.068-0.049-0.129-0.096-0.184-0.149c-0.053-0.047-0.094-0.107-0.121-0.169
		c-0.041-0.089-0.041-0.176-0.008-0.271c0.035-0.102,0.082-0.183,0.156-0.243c0.143-0.13,0.313-0.237,0.508-0.313
		c0.195-0.08,0.391-0.128,0.574-0.148c0.156-0.02,0.291-0.02,0.398,0c0.117,0.021,0.219,0.088,0.324,0.21
		c0.057,0.061,0.137,0.163,0.24,0.291c0.105,0.129,0.223,0.264,0.35,0.406c0.123,0.149,0.244,0.29,0.373,0.439
		c0.121,0.148,0.23,0.265,0.324,0.359c0.135,0.155,0.27,0.255,0.393,0.304c0.127,0.047,0.297,0.081,0.508,0.095
		c0.127,0.014,0.283,0.02,0.473,0.026c0.184,0,0.371,0,0.568,0c0.189-0.007,0.385-0.02,0.576-0.04
		c0.188-0.014,0.357-0.048,0.5-0.095c0.271-0.074,0.473-0.123,0.621-0.149c0.143-0.033,0.279-0.021,0.406,0.026
		c0.068,0.014,0.135,0.056,0.223,0.116c0.082,0.061,0.162,0.122,0.25,0.196c0.084,0.067,0.162,0.143,0.232,0.21
		C264.449,115.099,264.509,115.166,264.542,115.222z M262.371,106.813c0-0.149-0.006-0.271-0.014-0.365
		c0-0.102-0.014-0.189-0.039-0.271c-0.021-0.081-0.055-0.169-0.104-0.249c-0.047-0.082-0.107-0.184-0.195-0.305
		c-0.135-0.204-0.189-0.359-0.148-0.473c0.033-0.11,0.148-0.245,0.344-0.4c0.184-0.156,0.34-0.264,0.467-0.311
		c0.123-0.055,0.279-0.014,0.461,0.114c0.195,0.142,0.346,0.258,0.461,0.359c0.107,0.101,0.215,0.223,0.316,0.364
		c0.148,0.184,0.244,0.387,0.293,0.616c0.045,0.223,0.066,0.508,0.066,0.838c0,0.359,0,0.758,0,1.205c0,0.439,0,0.886-0.006,1.332
		c-0.008,0.44-0.008,0.853-0.016,1.244c-0.006,0.388-0.014,0.698-0.02,0.929c-0.006,0.196-0.047,0.398-0.115,0.621
		c-0.074,0.225-0.162,0.44-0.27,0.656c-0.115,0.224-0.244,0.434-0.393,0.636c-0.148,0.204-0.305,0.386-0.469,0.556
		c-0.02-0.148-0.061-0.292-0.119-0.419c-0.063-0.129-0.123-0.258-0.191-0.379c-0.074-0.13-0.141-0.25-0.201-0.38
		c-0.068-0.135-0.109-0.271-0.143-0.419c-0.041-0.237-0.074-0.494-0.094-0.758c-0.021-0.257-0.021-0.528-0.014-0.792
		c0.006-0.188,0.02-0.445,0.033-0.777c0.014-0.331,0.027-0.69,0.039-1.069c0.016-0.379,0.027-0.75,0.041-1.129
		C262.357,107.415,262.371,107.09,262.371,106.813z"/>
	<path fill="#939393" d="M267.425,112.09c-0.129,0.021-0.25-0.008-0.352-0.089c-0.109-0.081-0.205-0.183-0.293-0.311
		c-0.088-0.13-0.162-0.271-0.215-0.434c-0.055-0.155-0.088-0.304-0.096-0.44c-0.02-0.149-0.033-0.344-0.055-0.588
		c-0.012-0.243-0.025-0.493-0.041-0.751c-0.014-0.25-0.025-0.493-0.047-0.724c-0.02-0.229-0.033-0.412-0.053-0.541
		c-0.02-0.114-0.035-0.23-0.049-0.351c-0.012-0.131-0.047-0.219-0.107-0.271c-0.027-0.027-0.047-0.061-0.074-0.096
		c-0.02-0.027-0.033-0.067-0.033-0.115c0-0.1,0.033-0.209,0.102-0.318c0.074-0.113,0.143-0.216,0.215-0.304
		c0.115-0.128,0.244-0.229,0.4-0.304c0.148-0.074,0.316-0.103,0.5-0.067c0.121,0.014,0.223,0.047,0.305,0.088
		c0.088,0.04,0.162,0.101,0.223,0.168c0.373-0.025,0.766-0.04,1.178-0.054c0.42-0.007,0.797,0,1.15,0.014
		c0.115-0.047,0.256-0.074,0.445-0.095c0.109-0.007,0.236-0.007,0.381,0.007c0.141,0.014,0.277,0.041,0.404,0.088
		c0.135,0.047,0.244,0.108,0.346,0.184c0.094,0.074,0.148,0.162,0.168,0.264c0.02,0.121,0.014,0.236-0.02,0.345
		s-0.068,0.202-0.115,0.277c-0.014,0.033-0.027,0.176-0.047,0.419c-0.027,0.251-0.055,0.527-0.082,0.847
		c-0.027,0.317-0.053,0.642-0.08,0.974c-0.027,0.325-0.047,0.588-0.068,0.778c0.074,0.073,0.107,0.161,0.107,0.264
		c0.014,0.275-0.074,0.515-0.262,0.71c-0.184,0.189-0.428,0.291-0.719,0.291c-0.115,0-0.291,0-0.527,0c-0.242,0-0.5,0-0.777,0
		s-0.555,0-0.84,0.007c-0.277,0.006-0.52,0.013-0.725,0.019C267.58,112.041,267.5,112.082,267.425,112.09z M275.169,114.653
		c0.102,0.095,0.195,0.202,0.283,0.325c0.088,0.127,0.158,0.25,0.219,0.371c0.088,0.19,0.113,0.339,0.074,0.439
		c-0.041,0.102-0.135,0.217-0.271,0.332c-0.17,0.142-0.316,0.243-0.459,0.317c-0.137,0.075-0.277,0.128-0.42,0.17
		c-0.143,0.033-0.297,0.061-0.467,0.066c-0.164,0.015-0.352,0.021-0.568,0.028c-0.102,0-0.27,0-0.508,0c-0.229,0-0.488,0-0.75-0.014
		c-0.271-0.007-0.527-0.015-0.779-0.021c-0.25-0.007-0.434-0.015-0.555-0.021c-0.182-0.007-0.346-0.026-0.473-0.047
		c-0.135-0.021-0.258-0.061-0.371-0.108c-0.109-0.055-0.217-0.122-0.32-0.202c-0.102-0.082-0.207-0.19-0.33-0.318
		c-0.223-0.245-0.447-0.487-0.67-0.731c-0.23-0.242-0.406-0.438-0.535-0.588c-0.102-0.102-0.207-0.203-0.324-0.313
		c-0.115-0.107-0.236-0.188-0.352-0.243c-0.107-0.047-0.189-0.107-0.25-0.182c-0.068-0.081-0.104-0.183-0.104-0.312
		c0-0.163,0.049-0.277,0.145-0.358c0.088-0.074,0.242-0.155,0.453-0.223c0.16-0.063,0.324-0.108,0.5-0.15
		c0.176-0.04,0.318-0.074,0.434-0.087c0.316-0.048,0.555,0.013,0.703,0.189c0.211,0.25,0.418,0.494,0.615,0.737
		c0.203,0.236,0.398,0.46,0.59,0.648c0.154,0.155,0.297,0.258,0.424,0.299c0.123,0.04,0.277,0.074,0.461,0.094
		c0.088,0.007,0.203,0.014,0.359,0.021c0.148,0,0.311,0.007,0.479,0.007c0.172,0,0.346,0,0.521,0s0.332-0.007,0.475-0.014
		c0.143-0.014,0.316-0.033,0.506-0.061c0.197-0.027,0.359-0.067,0.488-0.121c0.123-0.048,0.217-0.083,0.283-0.095
		c0.068-0.021,0.137-0.027,0.189-0.021c0.055,0,0.102,0.021,0.143,0.053C275.048,114.559,275.101,114.599,275.169,114.653z
		 M269.833,108.158c-0.266,0-0.563,0-0.887,0.015c-0.324,0.006-0.609,0.021-0.861,0.04l0.076,2.172c0.271,0,0.563,0,0.873,0
		c0.305,0,0.568,0,0.799-0.014V108.158z M276.042,109.086c0.074,0.061,0.156,0.142,0.25,0.229c0.088,0.088,0.178,0.176,0.258,0.271
		c0.074,0.088,0.143,0.182,0.189,0.27c0.055,0.088,0.082,0.162,0.082,0.223c0,0.225-0.129,0.4-0.387,0.528
		c-0.25,0.129-0.535,0.203-0.852,0.209c-0.102,0.007-0.219,0.014-0.354,0.014s-0.264,0-0.391,0l-0.049,0.461
		c-0.014,0.183-0.061,0.378-0.127,0.596c-0.068,0.209-0.164,0.418-0.271,0.636c-0.107,0.209-0.236,0.419-0.379,0.622
		s-0.299,0.385-0.467,0.554c-0.305-0.419-0.5-0.886-0.596-1.406c-0.094-0.521-0.148-1.082-0.162-1.685c0-0.176,0-0.433,0.008-0.777
		c0-0.339,0.014-0.698,0.027-1.076c0.012-0.379,0.025-0.744,0.047-1.096c0.02-0.353,0.033-0.636,0.039-0.846
		c0.008-0.149,0.014-0.271,0.008-0.365c-0.008-0.102-0.02-0.189-0.047-0.271c-0.027-0.081-0.068-0.169-0.115-0.249
		c-0.041-0.082-0.109-0.184-0.191-0.305c-0.1-0.156-0.162-0.271-0.174-0.339c-0.014-0.074,0.02-0.155,0.109-0.257
		c0.025-0.026,0.064-0.067,0.121-0.122c0.053-0.047,0.115-0.094,0.182-0.141c0.061-0.049,0.121-0.088,0.176-0.137
		c0.055-0.039,0.102-0.067,0.129-0.088c0.156-0.081,0.271-0.128,0.338-0.128c0.068-0.007,0.17,0.04,0.313,0.142
		c0.195,0.142,0.344,0.258,0.465,0.359c0.115,0.101,0.225,0.223,0.326,0.364c0.143,0.184,0.242,0.387,0.305,0.616
		c0.053,0.223,0.074,0.508,0.066,0.838l-0.027,2.173c0.055-0.015,0.109-0.028,0.156-0.035c0.053-0.006,0.102-0.014,0.15-0.032
		c0.182-0.049,0.342-0.035,0.486,0.026C275.82,108.931,275.941,109.005,276.042,109.086z"/>
	<path fill="#939393" d="M286.955,109.681c0.189,0.095,0.332,0.183,0.441,0.277c0.1,0.095,0.182,0.183,0.229,0.264
		c0.041,0.082,0.066,0.156,0.074,0.223c0,0.062,0,0.109-0.008,0.135c-0.025,0.056-0.088,0.116-0.182,0.19
		c-0.096,0.067-0.197,0.135-0.311,0.189c-0.115,0.062-0.23,0.108-0.338,0.149c-0.109,0.032-0.197,0.047-0.266,0.041
		c-0.109-0.021-0.283-0.035-0.521-0.056c-0.236-0.021-0.445-0.026-0.641-0.026c-0.17,0-0.434,0.006-0.799,0.021
		c-0.365,0.014-0.785,0.026-1.25,0.041c-0.477,0.012-0.971,0.032-1.49,0.053c-0.521,0.028-1.029,0.042-1.508,0.055
		c-0.48,0.014-0.914,0.027-1.307,0.041c-0.391,0.021-0.684,0.027-0.879,0.027c-0.318,0-0.574-0.076-0.791-0.211
		c-0.211-0.141-0.352-0.316-0.426-0.526c-0.027-0.081-0.035-0.169-0.021-0.257c0.014-0.089,0.041-0.17,0.09-0.258
		c0.1-0.183,0.223-0.339,0.371-0.454c0.148-0.113,0.291-0.142,0.432-0.1c0.131,0.047,0.244,0.088,0.346,0.121
		c0.1,0.034,0.264,0.041,0.488,0.021c0.107-0.015,0.311-0.021,0.613-0.027c0.299-0.015,0.65-0.021,1.043-0.026
		c0.4-0.014,0.818-0.021,1.271-0.041c0.445-0.014,0.873-0.028,1.271-0.042c0.406-0.013,0.758-0.026,1.076-0.039
		c0.311-0.015,0.541-0.028,0.676-0.035c0.502-0.032,0.928-0.047,1.279-0.032C286.271,109.41,286.617,109.504,286.955,109.681z
		 M285.472,115.289c0.148,0.088,0.299,0.189,0.447,0.311c0.143,0.128,0.211,0.285,0.189,0.467c-0.014,0.108-0.047,0.225-0.096,0.339
		c-0.047,0.114-0.121,0.21-0.223,0.284c-0.102,0.088-0.189,0.148-0.264,0.195c-0.074,0.048-0.148,0.081-0.23,0.108
		c-0.074,0.028-0.154,0.047-0.242,0.054c-0.088,0.014-0.195,0.021-0.326,0.034c-0.162,0.008-0.352,0.015-0.568,0.021
		c-0.223,0-0.451,0.008-0.697,0.008c-0.236,0-0.473-0.008-0.703-0.014c-0.229-0.015-0.438-0.027-0.609-0.049
		c-0.445-0.039-0.85-0.121-1.229-0.237c-0.373-0.113-0.711-0.345-1.016-0.688c-0.117-0.129-0.23-0.265-0.352-0.405
		c-0.129-0.144-0.252-0.285-0.365-0.434c-0.115-0.143-0.217-0.277-0.313-0.406c-0.088-0.128-0.162-0.243-0.201-0.345
		c-0.063-0.116-0.088-0.216-0.096-0.312c0-0.102,0.055-0.209,0.176-0.325c0.047-0.046,0.109-0.094,0.184-0.147
		c0.08-0.049,0.182-0.102,0.297-0.143c0.189-0.067,0.33-0.089,0.439-0.067c0.109,0.026,0.209,0.088,0.313,0.189l1.535-0.122
		c0.465-0.041,0.912-0.062,1.338-0.075c0.434-0.006,0.799-0.014,1.117-0.026c0.006-0.08,0.014-0.169,0.02-0.264
		c0.008-0.088,0.008-0.176,0.008-0.264c-0.527,0.013-1.09,0.027-1.697,0.048c-0.604,0.012-1.207,0.053-1.795,0.107
		c-0.297,0.027-0.588,0.034-0.885,0.027c-0.299-0.007-0.535-0.067-0.711-0.17c-0.074-0.039-0.148-0.088-0.229-0.135
		c-0.09-0.048-0.137-0.108-0.156-0.196c-0.027-0.116-0.014-0.23,0.033-0.324c0.055-0.096,0.123-0.21,0.203-0.339
		c0.047-0.074,0.102-0.121,0.17-0.155c0.074-0.028,0.135-0.035,0.188-0.028c0.084,0.015,0.156,0.021,0.211,0.028
		c0.053,0.014,0.109,0.014,0.162,0.014c0.061,0,0.113,0,0.184-0.007c0.066,0,0.148-0.007,0.25-0.021
		c0.35-0.033,0.744-0.068,1.184-0.095s0.885-0.047,1.34-0.067c0.451-0.021,0.893-0.034,1.318-0.04
		c0.432-0.015,0.813-0.015,1.145-0.015l0.053-0.013c0.299-0.061,0.5-0.067,0.602-0.035c0.109,0.042,0.189,0.103,0.244,0.183
		c0.055,0.075,0.088,0.144,0.102,0.204c0.006,0.061,0.006,0.155,0,0.283c0,0.056-0.008,0.149-0.014,0.284
		c-0.014,0.136-0.027,0.277-0.047,0.435c-0.016,0.162-0.047,0.324-0.088,0.492c-0.041,0.169-0.102,0.319-0.17,0.433
		c0.027,0.075,0.027,0.163,0,0.265c-0.02,0.089-0.068,0.202-0.141,0.353c-0.076,0.142-0.156,0.243-0.252,0.29
		c-0.088,0.042-0.264,0.061-0.525,0.047c-0.258-0.013-0.551-0.025-0.875-0.033c-0.1,0-0.262,0-0.48,0.008
		c-0.223,0-0.473,0.013-0.75,0.025c-0.277,0.014-0.563,0.027-0.859,0.042c-0.297,0.013-0.568,0.026-0.818,0.033
		c0.113,0.096,0.244,0.182,0.393,0.277c0.236,0.148,0.473,0.236,0.703,0.277c0.229,0.033,0.521,0.047,0.873,0.027
		c0.176-0.007,0.357-0.013,0.547-0.021c0.191-0.007,0.367-0.013,0.533-0.027c0.164-0.014,0.313-0.027,0.436-0.04
		c0.129-0.013,0.215-0.034,0.27-0.048c0.102-0.047,0.23-0.088,0.379-0.128C285.173,115.187,285.324,115.207,285.472,115.289z
		 M282.47,109.14c-0.408,0-0.807-0.054-1.199-0.155c-0.398-0.109-0.748-0.257-1.061-0.454c-0.318-0.196-0.568-0.432-0.771-0.717
		c-0.197-0.276-0.305-0.589-0.313-0.933c-0.006-0.306,0.084-0.582,0.264-0.84c0.184-0.25,0.42-0.473,0.711-0.663
		c0.299-0.189,0.623-0.345,0.988-0.474c0.365-0.121,0.725-0.202,1.076-0.236c0.059-0.067,0.146-0.101,0.264-0.115
		c0.385-0.034,0.764,0,1.137,0.108c0.379,0.103,0.709,0.265,1,0.474c0.293,0.216,0.521,0.474,0.691,0.771
		c0.176,0.299,0.256,0.623,0.242,0.961c-0.006,0.325-0.107,0.622-0.291,0.9c-0.184,0.276-0.42,0.52-0.703,0.724
		c-0.291,0.202-0.609,0.358-0.969,0.473C283.187,109.086,282.828,109.14,282.47,109.14z M282.355,105.939
		c-0.117,0.021-0.258,0.049-0.414,0.081c-0.154,0.041-0.311,0.088-0.453,0.155c-0.143,0.063-0.264,0.149-0.357,0.251
		c-0.096,0.102-0.143,0.223-0.143,0.372c0,0.135,0.047,0.257,0.156,0.345c0.107,0.095,0.229,0.162,0.371,0.217
		c0.148,0.047,0.291,0.088,0.447,0.114c0.148,0.028,0.275,0.049,0.363,0.063c0.123,0,0.258-0.021,0.408-0.049
		c0.143-0.025,0.283-0.073,0.412-0.135c0.129-0.067,0.238-0.148,0.326-0.25c0.086-0.102,0.135-0.223,0.135-0.359
		c0-0.148-0.041-0.27-0.123-0.357c-0.074-0.095-0.176-0.17-0.297-0.217c-0.123-0.055-0.25-0.094-0.398-0.129
		C282.636,106.015,282.496,105.974,282.355,105.939z"/>
	<path fill="#939393" d="M298.232,111.317c0.102-0.013,0.215-0.005,0.338,0.021c0.129,0.021,0.244,0.054,0.352,0.103
		c0.115,0.047,0.209,0.101,0.283,0.162c0.082,0.053,0.123,0.122,0.137,0.183c0.02,0.155-0.035,0.317-0.148,0.473
		c-0.115,0.156-0.225,0.283-0.326,0.386c-0.074,0.074-0.135,0.135-0.195,0.183c-0.055,0.047-0.115,0.082-0.176,0.103
		c-0.068,0.026-0.137,0.039-0.215,0.047c-0.084,0.013-0.184,0.013-0.313,0.013h-1.029c-0.08,0.346-0.176,0.684-0.291,1.022
		c-0.107,0.337-0.23,0.655-0.371,0.96c-0.178,0.379-0.385,0.689-0.637,0.94c-0.25,0.243-0.623,0.387-1.109,0.419
		c-0.297,0.021-0.588-0.007-0.873-0.074c-0.283-0.074-0.561-0.169-0.832-0.283c0.244-0.074,0.455-0.189,0.631-0.331
		c0.182-0.15,0.357-0.346,0.533-0.583c0.195-0.271,0.371-0.574,0.529-0.927c0.154-0.346,0.297-0.703,0.432-1.068
		c-0.203,0.013-0.453,0.041-0.744,0.067c-0.291,0.027-0.596,0.048-0.908,0.067c-0.316,0.021-0.607-0.061-0.885-0.249
		c-0.277-0.184-0.494-0.394-0.635-0.637c-0.096-0.149-0.088-0.305,0.025-0.474c0.027-0.04,0.076-0.103,0.143-0.17
		c0.068-0.066,0.127-0.12,0.176-0.161c0.055-0.047,0.107-0.067,0.162-0.062c0.061,0.007,0.109,0.015,0.156,0.021
		c0.148,0.025,0.297,0.046,0.445,0.053c0.158,0.015,0.307,0.015,0.453,0.015c0.129,0,0.313,0,0.549-0.015
		c0.236-0.007,0.494-0.013,0.785-0.027c0.283-0.006,0.588-0.02,0.92-0.032c0.324-0.015,0.648-0.028,0.967-0.049
		s0.623-0.032,0.908-0.047C297.757,111.352,298.009,111.331,298.232,111.317z M293.63,110.012c-0.174-0.095-0.336-0.276-0.486-0.562
		c-0.148-0.275-0.223-0.567-0.229-0.865c-0.016-0.257,0.047-0.521,0.168-0.786c0.127-0.257,0.297-0.506,0.521-0.729
		c0.223-0.229,0.48-0.427,0.783-0.589c0.299-0.168,0.617-0.284,0.947-0.345c0.096-0.115,0.244-0.168,0.453-0.168
		c0.379,0,0.738,0.073,1.076,0.215c0.34,0.143,0.637,0.332,0.893,0.568c0.266,0.237,0.467,0.501,0.623,0.805
		c0.162,0.299,0.242,0.61,0.25,0.935c0.014,0.353-0.055,0.67-0.197,0.953c-0.148,0.285-0.336,0.535-0.574,0.744
		c-0.242,0.204-0.52,0.366-0.838,0.479c-0.318,0.116-0.65,0.184-0.994,0.19c-0.48,0.021-0.934-0.047-1.354-0.209
		C294.248,110.491,293.902,110.283,293.63,110.012z M295.654,107.448c-0.129,0.026-0.256,0.075-0.373,0.143
		c-0.121,0.061-0.229,0.148-0.316,0.257c-0.096,0.103-0.17,0.223-0.217,0.352c-0.055,0.129-0.066,0.264-0.049,0.414
		c0.082,0.167,0.219,0.311,0.414,0.438c0.197,0.123,0.42,0.183,0.676,0.183c0.299,0,0.549-0.074,0.758-0.229
		c0.211-0.162,0.313-0.359,0.313-0.596c0-0.102-0.021-0.21-0.068-0.324c-0.047-0.109-0.115-0.21-0.203-0.298
		s-0.189-0.156-0.311-0.211c-0.121-0.06-0.25-0.088-0.4-0.088C295.783,107.488,295.708,107.475,295.654,107.448z M301.83,106.705
		c-0.006,0.317-0.006,0.682-0.006,1.075c0.006,0.398,0.014,0.812,0.014,1.243c0.006,0.427,0.014,0.86,0.027,1.301
		c0.006,0.438,0.014,0.852,0.014,1.251c0,0.392-0.008,0.75-0.008,1.075c-0.006,0.331-0.02,0.603-0.041,0.812
		c-0.025,0.38-0.088,0.751-0.184,1.11c-0.1,0.357-0.229,0.676-0.398,0.953c-0.209,0.346-0.406,0.649-0.582,0.927
		c-0.174,0.277-0.324,0.494-0.451,0.657c-0.115-0.38-0.219-0.818-0.311-1.313c-0.104-0.494-0.15-0.981-0.164-1.461
		c-0.006-0.475-0.006-1.036,0.006-1.692c0.014-0.656,0.027-1.326,0.041-2.022c0.014-0.69,0.029-1.358,0.029-2.003
		c0.006-0.643-0.008-1.177-0.035-1.609c-0.014-0.366-0.061-0.629-0.129-0.813c-0.068-0.182-0.17-0.345-0.299-0.493
		c-0.168-0.19-0.223-0.353-0.16-0.466c0.061-0.123,0.209-0.278,0.453-0.474c0.121-0.096,0.223-0.171,0.311-0.231
		s0.17-0.094,0.25-0.102c0.074-0.013,0.156,0,0.244,0.041c0.08,0.034,0.184,0.096,0.303,0.184c0.217,0.161,0.4,0.311,0.543,0.445
		c0.135,0.137,0.244,0.277,0.332,0.433c0.078,0.149,0.135,0.318,0.162,0.502C301.816,106.225,301.83,106.44,301.83,106.705z"/>
	<path fill="#939393" d="M309.359,108.213c-0.176,0.007-0.42,0.013-0.744,0.021c-0.318,0.007-0.67,0.013-1.049,0.021
		c-0.385,0.007-0.785,0.013-1.189,0.021c-0.412,0.006-0.799,0.006-1.164,0.006s-0.684,0-0.959-0.006
		c-0.271-0.008-0.461-0.014-0.563-0.021c-0.156-0.021-0.258-0.061-0.305-0.13c-0.047-0.074-0.074-0.142-0.08-0.216
		c-0.008-0.074,0-0.183,0.025-0.324c0.027-0.143,0.074-0.271,0.143-0.386c0.102-0.176,0.291-0.277,0.582-0.306
		c0.127-0.012,0.324-0.032,0.596-0.047c0.264-0.013,0.568-0.027,0.9-0.047c0-0.048-0.008-0.094-0.008-0.143
		c-0.008-0.039-0.008-0.081-0.008-0.106c-0.02-0.137-0.094-0.271-0.223-0.4c-0.072-0.073-0.121-0.149-0.156-0.217
		c-0.025-0.067,0-0.155,0.074-0.257c0.027-0.033,0.068-0.088,0.129-0.143c0.063-0.06,0.129-0.12,0.195-0.183
		c0.068-0.061,0.137-0.113,0.211-0.169c0.068-0.047,0.123-0.088,0.17-0.114c0.094-0.049,0.189-0.067,0.291-0.055
		c0.102,0.006,0.189,0.034,0.264,0.081c0.074,0.048,0.162,0.108,0.27,0.189c0.107,0.074,0.211,0.162,0.311,0.265
		c0.104,0.095,0.191,0.195,0.266,0.312c0.074,0.108,0.115,0.217,0.121,0.316c0.014,0.103,0.02,0.196,0.02,0.286
		c0.008,0.088,0.014,0.168,0.014,0.257l0.873-0.042c0.17-0.014,0.318-0.014,0.434,0c0.115,0.008,0.215,0.028,0.297,0.054
		c0.082,0.027,0.162,0.068,0.23,0.13c0.068,0.061,0.148,0.135,0.242,0.229c0.176,0.183,0.285,0.338,0.334,0.46
		c0.047,0.114,0.047,0.217,0.012,0.291c-0.047,0.089-0.1,0.177-0.174,0.244C309.671,108.158,309.542,108.205,309.359,108.213z
		 M307.181,112.685c-0.115,0.047-0.244,0.074-0.373,0.074c-0.283,0-0.588-0.048-0.898-0.134c-0.311-0.089-0.602-0.211-0.873-0.374
		c-0.271-0.161-0.494-0.359-0.678-0.596c-0.188-0.236-0.289-0.5-0.316-0.798c-0.035-0.283,0.014-0.554,0.123-0.805
		c0.105-0.25,0.27-0.466,0.486-0.663c0.209-0.196,0.459-0.352,0.742-0.48c0.293-0.122,0.59-0.202,0.9-0.243
		c0.076-0.034,0.162-0.062,0.25-0.081c0.096-0.021,0.176-0.027,0.25-0.027c0.32,0,0.623,0.041,0.914,0.123
		c0.299,0.086,0.563,0.208,0.793,0.371c0.229,0.162,0.418,0.358,0.561,0.603c0.143,0.236,0.217,0.521,0.23,0.845
		c0.006,0.324-0.041,0.609-0.156,0.859c-0.107,0.25-0.258,0.46-0.447,0.643c-0.188,0.183-0.412,0.324-0.676,0.447
		C307.757,112.562,307.478,112.644,307.181,112.685z M312.796,114.707c0.102,0.096,0.195,0.196,0.277,0.298
		c0.082,0.108,0.148,0.224,0.209,0.345c0.088,0.19,0.115,0.339,0.074,0.439c-0.039,0.102-0.135,0.217-0.27,0.332
		c-0.168,0.142-0.32,0.243-0.461,0.317c-0.135,0.075-0.277,0.128-0.42,0.17c-0.141,0.033-0.297,0.061-0.465,0.066
		c-0.164,0.015-0.354,0.021-0.568,0.028c-0.102,0-0.283,0-0.549,0c-0.264,0-0.549,0-0.852-0.007c-0.305,0-0.596-0.007-0.873-0.021
		c-0.277-0.006-0.473-0.021-0.596-0.026c-0.303-0.026-0.563-0.088-0.777-0.176c-0.217-0.082-0.461-0.249-0.719-0.5
		c-0.209-0.204-0.391-0.373-0.539-0.508c-0.15-0.136-0.285-0.278-0.414-0.419c-0.074-0.075-0.168-0.163-0.277-0.265
		c-0.113-0.102-0.23-0.183-0.346-0.237c-0.1-0.047-0.188-0.108-0.25-0.188c-0.066-0.075-0.1-0.183-0.1-0.312
		c0-0.155,0.047-0.278,0.141-0.352c0.096-0.082,0.244-0.155,0.459-0.23c0.158-0.054,0.32-0.101,0.496-0.142
		c0.176-0.047,0.316-0.074,0.432-0.095c0.326-0.047,0.557,0.021,0.705,0.197c0.092,0.106,0.176,0.208,0.25,0.29
		c0.074,0.081,0.148,0.161,0.217,0.236c0.066,0.074,0.133,0.148,0.207,0.224c0.068,0.068,0.15,0.156,0.238,0.242
		c0.15,0.15,0.291,0.251,0.434,0.299c0.135,0.054,0.291,0.089,0.453,0.109c0.088,0.005,0.217,0.012,0.398,0.019
		c0.178,0.008,0.371,0.008,0.582,0.008c0.209,0,0.412,0,0.615-0.008c0.203-0.007,0.371-0.014,0.516-0.019
		c0.148-0.015,0.316-0.028,0.514-0.056c0.188-0.033,0.352-0.074,0.48-0.128c0.121-0.049,0.215-0.074,0.283-0.096
		c0.066-0.021,0.137-0.027,0.189-0.021c0.053,0,0.102,0.021,0.141,0.056C312.675,114.612,312.728,114.653,312.796,114.707z
		 M305.775,110.579c0.006,0.244,0.094,0.435,0.25,0.57c0.162,0.142,0.346,0.23,0.533,0.276c0.324-0.021,0.561-0.108,0.719-0.276
		c0.148-0.17,0.23-0.387,0.23-0.65c0-0.143-0.035-0.257-0.096-0.344c-0.061-0.096-0.135-0.17-0.23-0.231
		c-0.088-0.061-0.189-0.107-0.303-0.135c-0.109-0.028-0.211-0.04-0.307-0.04l-0.189,0.054c-0.068,0.021-0.135,0.054-0.203,0.102
		c-0.066,0.047-0.133,0.101-0.201,0.169c-0.063,0.075-0.115,0.148-0.15,0.237C305.789,110.398,305.775,110.486,305.775,110.579z
		 M314.4,109.403c0.168,0.17,0.27,0.305,0.311,0.42c0.033,0.121,0.008,0.29-0.088,0.52c-0.061,0.156-0.148,0.285-0.25,0.38
		c-0.102,0.088-0.236,0.128-0.412,0.107c-0.205-0.026-0.428-0.047-0.664-0.053c-0.242-0.015-0.465-0.015-0.67,0
		c-0.006,0.176-0.012,0.331-0.02,0.473c0,0.148-0.014,0.271-0.033,0.373c-0.021,0.181-0.061,0.378-0.131,0.594
		c-0.074,0.21-0.162,0.427-0.27,0.637c-0.115,0.21-0.236,0.42-0.385,0.622c-0.143,0.202-0.299,0.386-0.461,0.554
		c-0.303-0.412-0.508-0.885-0.609-1.404c-0.1-0.522-0.154-1.084-0.154-1.687c0-0.176,0.006-0.447,0.014-0.825
		c0.014-0.371,0.02-0.771,0.033-1.189c0.014-0.42,0.027-0.825,0.041-1.211c0.02-0.386,0.027-0.69,0.041-0.9
		c0.006-0.149,0.006-0.271,0.006-0.365c-0.006-0.102-0.02-0.189-0.055-0.271c-0.025-0.081-0.061-0.169-0.107-0.249
		c-0.047-0.082-0.107-0.184-0.195-0.305c-0.102-0.156-0.156-0.271-0.17-0.339c-0.014-0.074,0.02-0.155,0.102-0.257
		c0.027-0.026,0.068-0.067,0.129-0.122c0.053-0.047,0.115-0.094,0.176-0.141c0.066-0.049,0.129-0.088,0.182-0.137
		c0.055-0.039,0.096-0.067,0.121-0.088c0.156-0.081,0.271-0.128,0.34-0.128c0.074-0.007,0.176,0.04,0.318,0.142
		c0.188,0.142,0.344,0.258,0.459,0.359c0.115,0.101,0.223,0.223,0.324,0.364c0.15,0.184,0.252,0.387,0.305,0.616
		c0.063,0.223,0.082,0.508,0.074,0.838c-0.012,0.285-0.012,0.63-0.012,1.029c0,0.406-0.01,0.818-0.021,1.258l0.195-0.075
		c0.258-0.1,0.529-0.1,0.805-0.005C313.945,109.038,314.191,109.193,314.4,109.403z"/>
	<path fill="#939393" d="M328.132,110.079c-0.123,0.014-0.258,0.014-0.406,0.014c-0.15,0-0.297,0-0.439,0
		c-0.041,0.271-0.102,0.542-0.197,0.807c-0.094,0.27-0.201,0.506-0.33,0.724c0.061,0.046,0.129,0.093,0.182,0.148
		c0.061,0.054,0.115,0.115,0.162,0.183c0.049,0.061,0.096,0.136,0.156,0.209c0.055,0.067,0.08,0.142,0.08,0.204
		c0,0.101-0.061,0.249-0.182,0.445c-0.02,0.049-0.047,0.137-0.094,0.278c-0.049,0.135-0.096,0.283-0.148,0.433
		c-0.049,0.154-0.096,0.298-0.137,0.426c-0.039,0.129-0.068,0.203-0.074,0.236c-0.061,0.176-0.17,0.278-0.324,0.317
		c-0.164,0.035-0.34,0.063-0.521,0.083c-0.121,0.005-0.244,0.005-0.379-0.007c-0.127-0.014-0.258-0.027-0.398-0.048
		c-0.258,0.007-0.521,0.013-0.799,0.013c-0.271,0-0.494-0.006-0.67-0.013l-1.346-0.067c0.088,0.088,0.162,0.176,0.236,0.25
		c0.076,0.081,0.148,0.156,0.225,0.216c0.162,0.155,0.316,0.251,0.453,0.277c0.141,0.028,0.305,0.055,0.486,0.067
		c0.08,0.015,0.225,0.021,0.426,0.028c0.197,0.015,0.412,0.021,0.643,0.026c0.229,0,0.453,0.007,0.676,0.007s0.406,0,0.541,0
		c0.148-0.013,0.32-0.026,0.516-0.047c0.195-0.015,0.352-0.061,0.486-0.137c0.109-0.054,0.197-0.094,0.264-0.127
		c0.074-0.026,0.135-0.035,0.184-0.035c0.053,0.009,0.1,0.027,0.148,0.068c0.039,0.034,0.102,0.081,0.162,0.136
		c0.102,0.102,0.184,0.196,0.252,0.278c0.066,0.08,0.133,0.169,0.207,0.264c0.129,0.175,0.17,0.311,0.117,0.404
		c-0.049,0.102-0.143,0.21-0.285,0.324c-0.156,0.144-0.305,0.251-0.445,0.324c-0.15,0.069-0.293,0.131-0.441,0.164
		c-0.148,0.04-0.305,0.061-0.48,0.068c-0.168,0.013-0.359,0.013-0.574,0.013c-0.102,0-0.291,0-0.568-0.006
		c-0.271,0-0.576-0.007-0.893-0.015c-0.318,0-0.615-0.006-0.906-0.021c-0.283-0.006-0.488-0.014-0.607-0.014
		c-0.184-0.007-0.348-0.019-0.482-0.039c-0.129-0.021-0.25-0.049-0.365-0.096c-0.107-0.047-0.217-0.115-0.318-0.196
		c-0.1-0.082-0.209-0.188-0.33-0.318c-0.258-0.27-0.494-0.526-0.717-0.784c-0.217-0.25-0.4-0.473-0.557-0.655
		c-0.074-0.096-0.168-0.17-0.275-0.237c-0.115-0.063-0.25-0.137-0.406-0.21c-0.156-0.061-0.244-0.195-0.264-0.399
		c-0.016-0.135,0.053-0.278,0.209-0.406c0.154-0.135,0.373-0.257,0.648-0.358c0.535-0.182,0.906-0.163,1.109,0.062
		c0.23,0,0.523,0,0.859,0.007c0.346,0,0.691,0.006,1.049,0.006c0.352,0,0.689,0,1.016,0c0.324,0,0.596,0,0.805,0l0.027-0.581
		c-0.297-0.014-0.617-0.021-0.955-0.027c-0.344-0.014-0.682-0.014-1.027-0.014c-0.338,0-0.67,0-0.996,0c-0.324,0-0.607,0-0.857,0
		c-0.258,0.007-0.508-0.054-0.738-0.183c-0.23-0.128-0.434-0.283-0.609-0.459c-0.061-0.062-0.094-0.129-0.094-0.203
		c0-0.076,0.021-0.144,0.055-0.196c0.02-0.042,0.047-0.088,0.094-0.149c0.049-0.054,0.102-0.115,0.156-0.169
		c0.107-0.102,0.217-0.155,0.318-0.162c0.1,0,0.25,0.033,0.459,0.107c0.129,0.041,0.258,0.081,0.398,0.115
		c0.137,0.035,0.293,0.055,0.461,0.061c0.549,0.021,1.164,0.021,1.84,0c0.678-0.014,1.361-0.047,2.051-0.095
		c-0.055-0.107-0.109-0.223-0.156-0.337c-0.041-0.115-0.082-0.238-0.109-0.372c-0.031-0.129-0.061-0.258-0.074-0.386
		c-0.012-0.129-0.033-0.258-0.047-0.387c-0.123,0.102-0.27,0.203-0.439,0.305c-0.17,0.103-0.352,0.19-0.555,0.27
		c-0.195,0.076-0.393,0.144-0.596,0.19c-0.195,0.055-0.385,0.075-0.561,0.067c-0.102,0-0.23,0-0.393,0.008
		c-0.162,0-0.338,0.013-0.533,0.026c-0.197,0.015-0.395,0.027-0.604,0.033c-0.209,0.007-0.398,0.021-0.574,0.028
		c-0.23,0.006-0.455-0.008-0.664-0.055c-0.217-0.048-0.379-0.095-0.486-0.142c-0.197-0.081-0.346-0.162-0.455-0.236
		c-0.1-0.069-0.166-0.231-0.182-0.468c-0.012-0.318,0.063-0.526,0.223-0.635c-0.012-0.421-0.025-0.792-0.041-1.123
		c-0.012-0.332-0.031-0.631-0.059-0.886c-0.047-0.056-0.088-0.116-0.135-0.177c-0.047-0.063-0.09-0.122-0.131-0.19
		c-0.033-0.053-0.061-0.115-0.066-0.176c-0.008-0.067,0.006-0.128,0.053-0.195c0.055-0.082,0.123-0.156,0.191-0.217
		c0.068-0.054,0.141-0.121,0.217-0.196c0.074-0.055,0.148-0.088,0.229-0.088c0.09,0,0.178,0.015,0.277,0.033
		c0.115,0.014,0.25,0.034,0.412,0.061c0.162,0.021,0.346,0.027,0.549,0.007c0.236-0.019,0.508-0.039,0.818-0.067
		c0.305-0.033,0.602-0.067,0.9-0.114c0.236-0.033,0.432-0.007,0.594,0.081c0.158,0.094,0.32,0.223,0.494,0.379
		c0.102,0.102,0.203,0.209,0.293,0.325c0.094,0.115,0.135,0.21,0.113,0.284c-0.014,0.061-0.055,0.128-0.135,0.195
		c-0.074,0.061-0.162,0.123-0.264,0.17c-0.094,0.053-0.191,0.094-0.291,0.127c-0.096,0.028-0.162,0.049-0.211,0.063
		c-0.391,0.047-0.73,0.067-1.02,0.074c-0.293,0.007-0.576,0-0.854-0.007c0.014,0.229,0.014,0.48,0.014,0.758
		c0,0.27,0,0.508-0.014,0.71c0.25-0.008,0.508-0.021,0.766-0.04c0.256-0.021,0.52-0.041,0.789-0.056
		c0.156-0.013,0.34-0.021,0.543-0.026c0.209-0.013,0.426-0.013,0.643-0.013s0.426,0,0.629,0.013
		c0.203,0.006,0.373,0.026,0.514,0.055c0.008-0.028,0.014-0.067,0.014-0.116c0.033-0.438,0.063-0.845,0.076-1.217
		c0.012-0.365,0.02-0.724,0.02-1.063c0-0.176,0-0.325-0.008-0.438c-0.006-0.115-0.025-0.244-0.074-0.394
		c-0.02-0.074-0.08-0.162-0.182-0.257c-0.104-0.102-0.176-0.182-0.223-0.243c-0.035-0.047-0.041-0.107-0.027-0.189
		c0.018-0.073,0.053-0.155,0.115-0.243c0.039-0.062,0.121-0.143,0.236-0.231c0.121-0.093,0.223-0.162,0.318-0.209
		c0.168-0.081,0.33-0.095,0.465-0.041c0.102,0.048,0.23,0.122,0.393,0.225c0.156,0.1,0.285,0.195,0.387,0.29
		c0.162,0.137,0.291,0.298,0.365,0.479c0.08,0.19,0.135,0.38,0.162,0.569c0.014,0.129,0.035,0.29,0.047,0.48
		c0.014,0.188,0.014,0.365,0.006,0.534c-0.006,0.209-0.014,0.412-0.018,0.609c-0.008,0.188-0.008,0.379-0.008,0.568l0.412-0.088
		c0.189-0.042,0.346-0.035,0.488,0.032c0.135,0.063,0.256,0.136,0.357,0.218c0.074,0.067,0.156,0.142,0.25,0.229
		s0.176,0.176,0.258,0.271c0.08,0.094,0.141,0.183,0.195,0.271c0.047,0.088,0.076,0.162,0.076,0.231
		c0,0.223-0.131,0.398-0.379,0.526C328.726,110.005,328.443,110.073,328.132,110.079z"/>
	<path fill="#939393" d="M333.66,112.178c-0.563,0.013-1.117,0.026-1.65,0.033c-0.535,0-0.975-0.021-1.313-0.082
		c-0.217-0.033-0.373-0.088-0.467-0.155c-0.096-0.067-0.156-0.202-0.178-0.413c-0.014-0.188-0.006-0.344,0.035-0.459
		c0.035-0.114,0.088-0.202,0.162-0.271c0.014-0.169,0.021-0.351,0.021-0.547c0.006-0.195,0.006-0.393-0.008-0.575
		c-0.123-0.121-0.217-0.284-0.285-0.486c-0.066-0.204-0.08-0.359-0.033-0.468c0.02-0.047,0.055-0.102,0.094-0.155
		c0.049-0.055,0.123-0.102,0.225-0.148c0.102-0.049,0.209-0.082,0.311-0.102c0.109-0.015,0.223-0.021,0.359-0.015
		c0.127,0.015,0.291,0.028,0.48,0.041c0.195,0.021,0.393,0.026,0.582,0.014l1.189-0.067l0.039-0.805
		c-0.234,0.021-0.451,0.033-0.648,0.039c-0.188,0-0.324,0.008-0.398,0.008c-0.297,0-0.607-0.04-0.941-0.122
		c-0.336-0.073-0.602-0.196-0.803-0.365c-0.115-0.096-0.203-0.189-0.271-0.283c-0.068-0.096-0.096-0.19-0.074-0.285
		c0.025-0.128,0.088-0.265,0.176-0.393c0.096-0.135,0.203-0.229,0.318-0.284c0.061-0.026,0.115-0.047,0.184-0.054
		c0.059,0,0.148,0.014,0.248,0.054c0.082,0.028,0.211,0.062,0.379,0.108c0.17,0.049,0.332,0.081,0.48,0.096
		c0.074,0.013,0.211,0.013,0.406,0c0.203-0.008,0.412-0.021,0.635-0.035c0.232-0.012,0.441-0.026,0.645-0.04
		c0.195-0.013,0.338-0.027,0.418-0.033c0.156-0.021,0.332-0.021,0.529-0.015c0.195,0.007,0.344,0.082,0.453,0.224
		c0.094,0.107,0.154,0.203,0.182,0.291c0.027,0.081,0.02,0.19-0.027,0.331c-0.027,0.123-0.068,0.223-0.121,0.318
		c-0.041,0.196-0.074,0.406-0.107,0.637c-0.035,0.229-0.055,0.445-0.076,0.649c0.096,0.039,0.15,0.088,0.17,0.155
		c0.041,0.155,0.055,0.304,0.035,0.438c-0.029,0.144-0.055,0.243-0.082,0.312c-0.041,0.088-0.123,0.197-0.223,0.325
		c-0.109,0.121-0.25,0.183-0.426,0.183c-0.035,0-0.131,0.007-0.287,0.007c-0.146,0.007-0.336,0.014-0.553,0.014
		c-0.219,0.007-0.453,0.014-0.717,0.014c-0.266,0.007-0.521,0.007-0.771,0.007l-0.029,0.894c0.326-0.015,0.658-0.021,0.988-0.035
		c0.34-0.008,0.637-0.021,0.881-0.04c0.324-0.014,0.629-0.048,0.914-0.081c0.275-0.034,0.48-0.067,0.6-0.081
		c0.076-0.021,0.137-0.007,0.184,0.047c0.055,0.048,0.096,0.115,0.121,0.19c0.063,0.155,0.074,0.29,0.041,0.412
		c-0.041,0.121-0.154,0.276-0.346,0.474c-0.201,0.203-0.438,0.345-0.709,0.427C334.335,112.103,334.017,112.157,333.66,112.178z
		 M339.173,106.73c0,0.325,0,0.677,0,1.057c0,0.386,0,0.764-0.008,1.137c-0.008,0.378-0.008,0.737-0.014,1.075
		c-0.008,0.344-0.014,0.629-0.02,0.858c-0.02,0.298-0.102,0.622-0.244,0.968c-0.143,0.353-0.332,0.684-0.563,0.987
		c0.129,0.021,0.236,0.061,0.313,0.129c0.082,0.067,0.17,0.175,0.27,0.312c0.102,0.142,0.156,0.276,0.17,0.413
		c0.006,0.135-0.014,0.317-0.053,0.562c-0.021,0.229-0.043,0.412-0.063,0.547c-0.014,0.129-0.041,0.284-0.08,0.461
		c-0.055,0.297-0.129,0.541-0.225,0.73c-0.088,0.188-0.189,0.352-0.291,0.494c-0.1,0.148-0.203,0.282-0.305,0.418
		c-0.1,0.136-0.182,0.291-0.25,0.481c-0.061-0.068-0.135-0.156-0.217-0.271c-0.088-0.116-0.17-0.244-0.25-0.386
		c-0.088-0.137-0.154-0.285-0.223-0.433c-0.066-0.156-0.109-0.298-0.123-0.427c-0.039-0.258-0.061-0.487-0.074-0.691
		c-0.006-0.202-0.006-0.425,0-0.661c-0.154,0.012-0.393,0.025-0.709,0.032c-0.318,0-0.664,0.008-1.027,0.008
		c-0.367,0-0.727,0-1.082,0c-0.367,0-0.658-0.008-0.895-0.015c-0.291-0.014-0.568-0.032-0.811-0.081
		c-0.252-0.039-0.516-0.135-0.793-0.297c-0.121-0.074-0.203-0.148-0.236-0.229c-0.033-0.088-0.033-0.217,0.014-0.406
		c0.02-0.074,0.053-0.162,0.102-0.271c0.055-0.102,0.102-0.204,0.148-0.297c0.066-0.116,0.129-0.184,0.201-0.197
		c0.07-0.021,0.172-0.007,0.299,0.034c0.102,0.026,0.223,0.047,0.379,0.067c0.156,0.021,0.311,0.033,0.475,0.04
		c0.16,0.007,0.324,0.014,0.486,0.021c0.17,0.008,0.318,0.008,0.447,0.008c0.277,0,0.588,0,0.926-0.008
		c0.346-0.007,0.684-0.007,1.035-0.014c0.346-0.007,0.684-0.014,1.008-0.021c0.332-0.005,0.615-0.019,0.854-0.04
		c-0.082-0.183-0.17-0.358-0.264-0.528c-0.088-0.169-0.162-0.357-0.203-0.567c-0.021-0.102-0.041-0.223-0.055-0.372
		c-0.014-0.148-0.021-0.304-0.033-0.459c-0.047,0.013-0.104,0.013-0.164,0.013c-0.242,0.021-0.451-0.008-0.635-0.075
		c-0.176-0.067-0.346-0.155-0.502-0.258c-0.189-0.12-0.33-0.255-0.445-0.412c-0.107-0.162-0.162-0.311-0.162-0.459
		c0-0.082,0.047-0.149,0.148-0.204c0.102-0.047,0.223-0.086,0.359-0.114c0.143-0.027,0.283-0.048,0.432-0.054
		c0.15-0.014,0.266-0.014,0.346-0.014c0.074,0,0.162-0.007,0.27-0.007c0.109-0.006,0.219-0.006,0.34-0.006
		c0-0.103,0-0.21,0.006-0.318c0.008-0.116,0.008-0.225,0.008-0.339h-0.441c-0.23-0.007-0.453-0.067-0.662-0.183
		c-0.203-0.115-0.391-0.25-0.563-0.413c-0.066-0.074-0.135-0.148-0.188-0.229c-0.055-0.088-0.074-0.176-0.055-0.277
		c0.014-0.17,0.094-0.277,0.236-0.332c0.148-0.047,0.324-0.08,0.535-0.101l1.189-0.067c0.014-0.048,0.014-0.088,0.014-0.122
		c0-0.027,0-0.067,0-0.115c0.014-0.149,0.014-0.271,0.008-0.365c0-0.102-0.021-0.189-0.047-0.271
		c-0.027-0.081-0.063-0.169-0.109-0.249c-0.047-0.082-0.109-0.184-0.197-0.305c-0.1-0.156-0.154-0.271-0.168-0.339
		c-0.014-0.074,0.02-0.155,0.102-0.257c0.027-0.026,0.066-0.067,0.109-0.122c0.045-0.047,0.102-0.094,0.154-0.141
		c0.053-0.049,0.109-0.088,0.156-0.137c0.055-0.039,0.094-0.067,0.121-0.088c0.156-0.081,0.271-0.128,0.34-0.128
		c0.066-0.007,0.174,0.04,0.311,0.142c0.195,0.142,0.344,0.258,0.459,0.359c0.107,0.101,0.217,0.223,0.318,0.364
		c0.148,0.184,0.242,0.387,0.291,0.616C339.152,106.115,339.173,106.4,339.173,106.73z"/>
</g>
</svg>
