<?xml version="1.0" encoding="utf-8"?>
<!-- Generator: Adobe Illustrator 16.0.0, SVG Export Plug-In . SVG Version: 6.00 Build 0)  -->
<!DOCTYPE svg PUBLIC "-//W3C//DTD SVG 1.1//EN" "http://www.w3.org/Graphics/SVG/1.1/DTD/svg11.dtd">
<svg version="1.1" id="Layer_1" xmlns="http://www.w3.org/2000/svg" xmlns:xlink="http://www.w3.org/1999/xlink" x="0px" y="0px"
	 width="170.73px" height="142.55px" viewBox="0 0 170.73 142.55" enable-background="new 0 0 170.73 142.55" xml:space="preserve">
<path fill-rule="evenodd" clip-rule="evenodd" fill="#BA9B9A" d="M155.678,71.551c0.325,38.851-31.886,71.136-71.262,71.141
	c-39.107,0.005-71.787-32.076-71.314-72.061C13.555,32.317,45.068,0.344,84.579,0.406C124.104,0.469,156.006,32.903,155.678,71.551z
	 M152.888,71.63c-0.075-38.043-31.077-68.122-68.071-68.327c-38.056-0.21-68.4,30.918-68.815,67.398
	c-0.431,37.809,30.573,68.846,67.887,69.088C121.408,140.033,152.729,109.752,152.888,71.63z"/>
<path fill-rule="evenodd" clip-rule="evenodd" fill="#BA9B9A" d="M132.174,75.468c2.004,4.512,0.297,8.559-1.392,12.79
	c0.966,0.384,1.963,0.685,2.867,1.161c1.519,0.793,3.036,1.615,4.438,2.595c0.715,0.501,1.3,1.297,1.729,2.077
	c1.591,2.89,0.251,5.063-3.004,4.983c-0.45-0.011-0.9-0.002-1.561-0.002c0.032,0.659-0.022,1.299,0.105,1.901
	c0.873,4.127-0.724,6.125-4.956,6.002c-1.497-0.041-2.777,0.233-4.187,0.861c-1.119,0.498-2.877,0.374-4.026-0.165
	c-2.395-1.128-4.328-0.639-6.357,0.707c-1.981,1.311-4.008,2.563-6.092,3.701c-3.27,1.787-6.557,1.059-9.833-0.121
	c-4.087-1.473-7.331-4.019-9.899-7.499c-0.3-0.407-0.893-0.685-1.405-0.835c-1.539-0.453-3.172-0.656-4.646-1.252
	c-1.773-0.72-2.72-2.313-3.496-4.027c-0.601-1.326-1.183-2.777-2.168-3.784c-1.701-1.74-1.602-3.524-0.981-5.589
	c0.262-0.872,0.258-1.864,0.183-2.786c-0.122-1.488,0.556-2.518,1.608-3.412c1.349-1.145,2.828-3.909,3.069-5.646
	c0.108-0.781,0.302-1.551,0.453-2.308c-3.085,1.427-6.082,2.813-8.774,4.058c0.05,2.898,0.122,5.711,0.14,8.526
	c0.021,3.145-0.013,6.287-0.013,9.432c-0.001,9.057-7.339,17.152-16.373,17.535c-4.264,0.181-8.208-1.572-11.732-4.023
	c-3.214-2.235-5.833-5.016-7.503-8.68c-2.325,0.385-4.542,0.293-6.573-1.043c-3.376-2.222-4.924-6.381-4.002-10.542
	c0.193-0.874,0.185-1.93-0.123-2.756c-5.682-15.232,1.795-28.748,15.58-34.188c10.573-4.174,20.28-0.792,27.521,8.179
	c2.381,2.948,4.588,5.594,8.482,6.638c1.678,0.45,3.018,2.161,4.458,3.257c0.311-1.093,0.771-2.505,1.107-3.949
	c0.692-2.983,2.484-4.964,5.209-6.307c1.292-0.638,2.46-1.588,3.565-2.535c3.245-2.779,6.985-4.283,11.236-4.288
	c1.259-0.001,2.526,0.587,3.778,0.941c1.248,0.354,2.471,1.015,3.728,1.077c2.605,0.133,4.472,1.223,5.98,3.313
	c0.946,1.309,2.217,2.385,3.559,3.793c0.561-0.94,0.88-1.428,1.153-1.94c2.76-5.172,8.016-5.591,11.162-0.678
	c1.503,2.347,2.64,5.029,3.426,7.709c1.146,3.917-0.25,5.88-4.236,6.817C132.996,75.258,132.615,75.358,132.174,75.468z
	 M71.962,83.654c0.054-1.003,0.184-2.344-1.082-3.132c-1.236-0.769-2.126,0.368-3.169,0.772c-1.423,0.551-2.984,1.367-4.387,1.206
	c-1.888-0.217-3.651-1.358-5.524-1.911c-1.416-0.418-2.94-0.822-4.38-0.72c-2.943,0.211-4.88,2.234-6.649,4.383
	c-2.084,2.531-4.149,5.08-6.262,7.587c-0.806,0.955-1.493,0.841-2.086-0.253c-0.339-0.621-0.621-1.274-0.963-1.894
	c-0.814-1.474-2.688-2.369-4.225-2.042c-2.083,0.445-3.3,1.702-3.439,3.669c-0.068,0.955-0.083,1.932,0.027,2.88
	c0.431,3.686,4.134,6.223,7.72,5.321c1.361-0.342,2.325,0.191,2.845,1.397c1.373,3.187,3.684,5.576,6.445,7.524
	c3.499,2.472,7.406,4.38,11.732,3.711c6.111-0.942,13.963-6.546,13.378-15.927c-0.17-2.719,0.031-5.46-0.054-8.186
	c-0.018-0.577-0.405-1.335-0.868-1.673c-2.315-1.692-3.464-1.621-5.655,0.215c-0.584,0.489-1.205,0.802-1.646,0.066
	c-0.212-0.353-0.091-1.242,0.212-1.506c0.822-0.714,1.774-1.604,2.762-1.728C68.362,83.209,70.097,83.54,71.962,83.654z
	 M105.611,111.132c0.371-0.081,1.075-0.093,1.631-0.388c2.491-1.321,5.053-2.557,7.374-4.136c3.005-2.044,4.769-4.896,4.596-8.738
	c-0.02-0.465,0.681-1.03,1.149-1.431c0.977-0.834,2.332-1.401,2.938-2.43c0.491-0.828,0.424-2.298,0.038-3.254
	c-0.445-1.093-1.623-1.455-2.959-1.206c-2.7,0.504-3.928-1.027-3.332-3.747c0.295-1.339,0.412-2.798,0.209-4.145
	c-0.281-1.856-1.554-2.404-3.244-1.612c-0.726,0.338-1.365,0.863-2.04,1.307c-3.027,1.986-6.242,3.502-9.954,2.764
	c-1.253-0.249-2.363-1.241-3.527-1.911c-1.287-0.739-2.392-1.052-3.586,0.365c-1.233,1.462-3.013,2.036-4.941,1.814
	c-1.738-0.198-1.977,0.007-1.745,1.823c0.427,3.363,0.965,6.715,1.252,10.091C90.23,105.206,98.059,110.255,105.611,111.132z
	 M54.982,76.692c0.051,0.151,0.104,0.305,0.155,0.456c5.081,1.308,10.199,2.181,15.341,0.368c3.178-1.121,6.329-2.357,9.382-3.776
	c1.941-0.902,2.011-1.816,0.216-2.863c-1.936-1.129-4.12-1.838-6.221-2.665c-0.317-0.125-0.806,0.033-1.161,0.185
	c-4.172,1.787-8.358,3.544-12.488,5.425C58.402,74.645,56.719,75.729,54.982,76.692z M50.654,55.386
	c-0.06,0.118-0.12,0.237-0.181,0.354c5.006,4.035,8.653,9.108,11.311,14.85c3.453-1.447,6.697-2.807,10.074-4.223
	c-1.358-2.156-2.606-4.229-4.737-5.572c-3.725-2.347-7.816-3.761-12.089-4.683C53.588,55.8,52.115,55.624,50.654,55.386z
	 M42.251,60.123c-2.405,7.903-2.109,18.587-0.157,23.109c2.591-1.928,5.206-3.828,7.751-5.82c0.267-0.208,0.324-1.018,0.152-1.401
	c-1.952-4.33-3.95-8.64-5.98-12.933C43.578,62.147,42.962,61.302,42.251,60.123z M126.722,67.806
	c1.032-1.001,1.909-1.974,2.925-2.777c0.413-0.329,1.118-0.291,1.692-0.42c-0.049,0.592,0.125,1.369-0.186,1.738
	c-0.837,0.999-1.819,1.901-2.857,2.69c-0.797,0.605-0.813,1.102-0.331,1.889c1.352,2.213,3.079,2.837,5.793,2.009
	c1.761-0.535,2.669-1.7,2.048-3.42c-1.006-2.778-2.249-5.493-3.658-8.091c-0.772-1.426-2.151-2.468-4.035-2.016
	c-1.607,0.385-3.689,2.712-3.903,4.315c-0.029,0.226,0.011,0.517,0.135,0.699C125.047,65.464,125.785,66.482,126.722,67.806z
	 M29.874,86.681c1.061-0.314,1.757-0.68,1.554-1.991c-1.064-6.875,0.009-13.477,2.72-19.842c0.68-1.599,1.402-3.181,2.182-4.945
	C28.919,64.089,25.407,78.896,29.874,86.681z M86.995,93.614c-0.274-2.098-0.534-4.099-0.793-6.094
	c-1.582,0.121-2.13,0.615-2.229,1.853C83.805,91.479,84.839,93.037,86.995,93.614z"/>
<path fill-rule="evenodd" clip-rule="evenodd" fill="#BA9B9A" d="M58.221,107.331c-3.108-0.021-5.142-1.549-5.937-4.387
	c-0.268-0.957,0.051-1.47,0.981-1.633c3.47-0.607,6.941-1.22,10.418-1.792c1.043-0.171,1.585,0.412,1.42,1.413
	C64.552,104.286,62.776,107.501,58.221,107.331z M54.811,103.335c1.008,1.669,2.73,2.313,4.671,1.889
	c1.649-0.364,2.655-1.392,2.904-3.054C59.868,102.557,57.379,102.94,54.811,103.335z"/>
<path fill-rule="evenodd" clip-rule="evenodd" fill="#BA9B9A" d="M64.522,95.137c0.004,2.391-1.81,4.11-3.514,3.906
	c-0.346-0.043-0.898-0.489-0.901-0.756c-0.004-0.4,0.291-0.976,0.635-1.178c1.931-1.13,1.943-1.096,1-3.092
	c-0.518-1.098-1.066-2.185-1.482-3.32c-0.116-0.32,0.094-1.052,0.328-1.14c0.387-0.147,1.208-0.08,1.336,0.163
	C62.944,91.675,63.845,93.692,64.522,95.137z"/>
<path fill-rule="evenodd" clip-rule="evenodd" fill="#BA9B9A" d="M55.031,87.536c-3.029-0.876-5.086,0.339-7.055,2.027
	c-0.352,0.301-1.12,0.114-1.696,0.152c0.088-0.534-0.005-1.217,0.292-1.577c1.982-2.4,5.898-3.627,8.482-2.666
	c0.392,0.146,0.867,0.768,0.843,1.14C55.873,86.979,55.264,87.308,55.031,87.536z"/>
<path fill-rule="evenodd" clip-rule="evenodd" fill="#BA9B9A" d="M57.968,91.257c-0.54,0.203-1.214,0.723-1.594,0.558
	c-2.303-0.99-3.876-0.002-5.274,1.679c-0.469,0.563-0.868,1.432-1.78,0.684c-0.806-0.663-0.335-1.331,0.137-1.971
	c1.877-2.537,4.896-3.57,7.279-2.433c0.452,0.214,0.809,0.629,1.21,0.95C57.953,90.9,57.96,91.079,57.968,91.257z"/>
<path fill-rule="evenodd" clip-rule="evenodd" fill="#BA9B9A" d="M32.85,91.868c2.364,0,5.029,2.785,4.8,4.797
	c-0.047,0.419-0.559,0.923-0.979,1.105c-0.2,0.086-0.951-0.445-1.003-0.771c-0.287-1.79-1.333-2.725-3.011-3.205
	c-0.295-0.084-0.626-0.802-0.565-1.163C32.152,92.28,32.694,92.012,32.85,91.868z"/>
<path fill-rule="evenodd" clip-rule="evenodd" fill="#BA9B9A" d="M67.332,87.381c1.057,0.337,1.847,0.44,2.447,0.833
	c0.332,0.22,0.345,0.922,0.501,1.405c-0.465,0.134-1.046,0.513-1.376,0.356c-1.288-0.606-2.176-0.124-3.143,0.691
	c-0.387,0.323-1.291,0.542-1.629,0.314c-0.803-0.538-0.362-1.321,0.225-1.754C65.333,88.511,66.417,87.938,67.332,87.381z"/>
<path fill-rule="evenodd" clip-rule="evenodd" fill="#BA9B9A" d="M105.092,107.574c-2.459-0.013-4.493-1.323-5.248-3.379
	c-0.46-1.247-0.158-1.829,1.144-1.981c2.551-0.296,5.106-0.574,7.665-0.782c1.608-0.131,2.003,0.428,1.57,1.988
	C109.534,105.908,107.46,107.587,105.092,107.574z M107.784,103.503c-1.992,0.229-3.653,0.42-5.632,0.646
	C104.574,106.07,106.373,105.888,107.784,103.503z"/>
<path fill-rule="evenodd" clip-rule="evenodd" fill="#BA9B9A" d="M101.308,98.357c1.098-0.142,1.925-0.338,2.748-0.32
	c0.465,0.009,0.921,0.368,1.381,0.57c-0.265,0.463-0.471,1.27-0.806,1.326c-1.222,0.204-2.521,0.366-3.726,0.156
	c-1.502-0.261-2.009-1.452-1.614-3c0.115-0.44,0.238-0.881,0.314-1.329c0.463-2.742-0.979-3.883-3.659-2.88
	c-0.467,0.175-0.864,0.584-1.337,0.675c-0.425,0.081-1.108,0.022-1.305-0.246c-0.208-0.285-0.154-1.027,0.087-1.336
	c1.422-1.823,6.431-1.983,7.956-0.188c0.443,0.523,0.493,1.509,0.467,2.274C101.769,95.364,101.519,96.661,101.308,98.357z"/>
<path fill-rule="evenodd" clip-rule="evenodd" fill="#BA9B9A" d="M110.371,90.279c1.487,0.516,2.798,0.873,4.005,1.448
	c0.376,0.179,0.476,0.943,0.702,1.441c-0.524,0.137-1.194,0.552-1.544,0.365c-2.108-1.125-4.107-1.192-6.185,0.08
	c-0.291,0.181-0.927-0.202-1.403-0.326c0.135-0.479,0.133-1.238,0.435-1.388C107.66,91.263,109.03,90.805,110.371,90.279z"/>
<path fill-rule="evenodd" clip-rule="evenodd" fill="#BA9B9A" d="M110.379,85.513c1.383,0.424,2.658,0.722,3.837,1.233
	c0.377,0.164,0.499,0.907,0.739,1.385c-0.522,0.159-1.168,0.599-1.545,0.433c-2.027-0.898-3.95-0.928-5.937,0.119
	c-0.329,0.174-0.936-0.177-1.414-0.283c0.176-0.513,0.208-1.316,0.551-1.484C107.809,86.328,109.113,85.963,110.379,85.513z"/>
<path fill-rule="evenodd" clip-rule="evenodd" fill="#BA9B9A" d="M96.096,85.713c0.968,0.27,1.975,0.443,2.875,0.854
	c0.351,0.158,0.461,0.847,0.68,1.295c-0.468,0.188-1.013,0.635-1.394,0.522c-1.971-0.579-3.743-0.569-5.354,0.95
	c-0.268,0.252-0.973,0.039-1.474,0.042c0.056-0.532-0.081-1.361,0.203-1.55c1.346-0.892,2.805-1.61,4.222-2.387
	C95.936,85.532,96.016,85.621,96.096,85.713z"/>
<g>
	<path fill="#BA9B9A" d="M41.053,35.554c-0.069,0.375-0.133,0.717-0.19,1.027c-0.057,0.31-0.117,0.565-0.179,0.765
		c-0.375,1.245-0.995,2.132-1.855,2.666c-0.342,0.203-0.728,0.315-1.161,0.339c-0.431,0.022-0.865-0.003-1.302-0.079
		c0.207-0.207,0.377-0.424,0.51-0.654c0.131-0.229,0.26-0.498,0.385-0.807c0.126-0.328,0.263-0.725,0.409-1.192
		c0.146-0.465,0.283-0.948,0.412-1.447c0.128-0.499,0.244-0.991,0.345-1.478c0.102-0.485,0.166-0.918,0.195-1.298
		c-0.297,0.279-0.638,0.599-1.021,0.958c-0.383,0.359-0.7,0.64-0.948,0.842c-0.384,0.312-0.794,0.458-1.232,0.439
		c-0.438-0.018-0.838-0.077-1.201-0.177c-0.141-0.036-0.255-0.102-0.344-0.199c-0.088-0.096-0.133-0.238-0.135-0.425
		c0.011-0.102,0.018-0.249,0.021-0.439c0.004-0.191,0.019-0.354,0.042-0.485c0.039-0.183,0.098-0.306,0.178-0.37
		c0.078-0.064,0.203-0.118,0.373-0.163c0.266-0.066,0.483-0.144,0.653-0.236c0.169-0.091,0.36-0.214,0.572-0.368l0.373-0.303
		c-0.035-0.065-0.075-0.127-0.121-0.183c-0.045-0.057-0.087-0.107-0.125-0.153c-0.109-0.136-0.22-0.219-0.331-0.251
		c-0.11-0.032-0.231-0.06-0.363-0.084c-0.285-0.049-0.479-0.131-0.58-0.246c-0.103-0.114-0.163-0.378-0.183-0.795
		c-0.021-0.395,0.029-0.661,0.152-0.799c0.123-0.137,0.35-0.266,0.683-0.387c0.215-0.081,0.469-0.161,0.762-0.241
		c0.293-0.078,0.537-0.113,0.732-0.103c0.237,0.014,0.437,0.081,0.6,0.201c0.164,0.121,0.342,0.299,0.536,0.536l0.413,0.508
		c0.033-0.027,0.065-0.059,0.095-0.091c0.029-0.033,0.06-0.063,0.094-0.091c0.072-0.097,0.158-0.209,0.259-0.338
		c0.102-0.129,0.214-0.245,0.339-0.347c0.181-0.146,0.375-0.252,0.583-0.32c0.209-0.067,0.457-0.085,0.743-0.056
		c0.226,0.024,0.415,0.061,0.571,0.114c0.155,0.051,0.276,0.136,0.361,0.254c0.087,0.117,0.15,0.271,0.193,0.461
		c0.042,0.192,0.068,0.443,0.078,0.753c0.014,0.27,0.013,0.581-0.002,0.93c-0.015,0.351-0.039,0.727-0.068,1.126
		c0.235-0.078,0.489-0.154,0.76-0.225c0.271-0.07,0.501-0.116,0.689-0.138c0.284-0.044,0.562-0.008,0.835,0.107
		c0.272,0.116,0.515,0.271,0.729,0.463c0.212,0.193,0.377,0.401,0.495,0.625c0.116,0.225,0.161,0.422,0.133,0.596
		c-0.031,0.193-0.125,0.382-0.283,0.568c-0.16,0.186-0.353,0.352-0.579,0.5c-0.228,0.147-0.479,0.258-0.757,0.333
		c-0.276,0.075-0.546,0.09-0.811,0.042c-0.203-0.042-0.448-0.077-0.734-0.106C41.565,35.606,41.299,35.579,41.053,35.554z
		 M47.99,26.471c0.368,0.038,0.632,0.11,0.792,0.214c0.161,0.104,0.298,0.344,0.416,0.717c0.077,0.256,0.1,0.492,0.067,0.706
		c-0.033,0.214-0.165,0.397-0.397,0.549c-0.276,0.168-0.566,0.366-0.869,0.593c-0.303,0.229-0.574,0.45-0.813,0.662l0.353,0.502
		c0.205,0.322,0.384,0.72,0.537,1.196c0.152,0.477,0.26,0.972,0.321,1.484c0.385-0.219,0.702-0.313,0.953-0.283
		c0.25,0.032,0.462,0.108,0.636,0.229c0.202,0.154,0.328,0.306,0.38,0.45c0.053,0.145,0.055,0.303,0.006,0.474
		c0.278,0.412,0.578,0.877,0.896,1.396c0.319,0.519,0.598,0.981,0.835,1.389c0.249,0.004,0.437,0.085,0.565,0.244
		c0.287,0.329,0.414,0.705,0.381,1.125c-0.033,0.421-0.229,0.778-0.59,1.073c-0.135,0.11-0.367,0.298-0.694,0.565
		c-0.328,0.266-0.711,0.578-1.151,0.938c-0.44,0.358-0.921,0.753-1.441,1.187c-0.52,0.432-1.047,0.875-1.579,1.328
		c-0.019,0.185-0.075,0.323-0.167,0.418c-0.256,0.284-0.6,0.437-1.033,0.46c-0.432,0.022-0.96-0.2-1.584-0.667l-2.259-1.737
		c-0.24-0.18-0.445-0.304-0.613-0.373c-0.169-0.069-0.319-0.116-0.451-0.139c-0.111-0.022-0.217-0.048-0.318-0.079
		c-0.1-0.031-0.193-0.087-0.278-0.168c-0.207-0.207-0.261-0.482-0.164-0.823c0.097-0.343,0.258-0.652,0.483-0.928
		c0.119-0.154,0.246-0.304,0.38-0.451c0.134-0.146,0.268-0.274,0.403-0.385c0.136-0.11,0.273-0.188,0.413-0.238
		c0.14-0.047,0.278-0.043,0.418,0.013c0.352-0.305,0.733-0.644,1.144-1.016c0.41-0.372,0.817-0.731,1.22-1.077
		c0.403-0.347,0.774-0.668,1.115-0.964c0.341-0.297,0.624-0.537,0.85-0.72l0.111-0.175c-0.518-0.291-1.011-0.66-1.478-1.105
		c-0.466-0.447-0.925-0.936-1.378-1.469l-2.825-3.782c-0.135-0.189-0.254-0.341-0.357-0.455c-0.102-0.114-0.211-0.209-0.328-0.282
		c-0.117-0.074-0.244-0.139-0.383-0.195c-0.139-0.056-0.319-0.115-0.541-0.18c-0.28-0.089-0.463-0.171-0.55-0.241
		c-0.085-0.071-0.128-0.21-0.127-0.417c0.006-0.061,0.018-0.15,0.035-0.269c0.017-0.116,0.043-0.235,0.076-0.357
		c0.032-0.12,0.062-0.234,0.089-0.34s0.047-0.184,0.063-0.234c0.109-0.257,0.205-0.423,0.284-0.498
		c0.08-0.075,0.255-0.119,0.525-0.133c0.375-0.023,0.683-0.031,0.925-0.021c0.243,0.008,0.494,0.047,0.756,0.116
		c0.365,0.078,0.693,0.229,0.986,0.451c0.292,0.221,0.599,0.54,0.918,0.954l1.535,1.989c0.036-0.048,0.069-0.094,0.099-0.137
		c0.03-0.043,0.052-0.079,0.065-0.11c0.215-0.38,0.54-0.65,0.976-0.808C47.066,26.478,47.519,26.424,47.99,26.471z M48.458,36.592
		c-0.467,0.325-0.994,0.739-1.579,1.243s-1.265,1.109-2.041,1.816c0.296,0.248,0.578,0.496,0.847,0.747
		c0.27,0.25,0.506,0.478,0.713,0.686c0.25-0.223,0.518-0.464,0.804-0.725c0.285-0.26,0.57-0.527,0.857-0.796
		c0.287-0.271,0.566-0.532,0.84-0.783c0.274-0.251,0.519-0.474,0.737-0.669c-0.181-0.267-0.37-0.535-0.57-0.803
		c-0.2-0.269-0.392-0.516-0.576-0.742L48.458,36.592z"/>
	<path fill="#BA9B9A" d="M60.961,23.531c-0.832,0.958-1.705,1.434-2.621,1.428c-0.336-0.002-0.663-0.05-0.981-0.143
		c-0.318-0.092-0.607-0.212-0.866-0.36c-0.073-0.039-0.109-0.092-0.107-0.161c0.001-0.069,0.035-0.122,0.1-0.157
		c0.427-0.193,0.804-0.454,1.128-0.784c0.217-0.188,0.448-0.438,0.693-0.751c0.247-0.312,0.492-0.654,0.734-1.026
		c0.244-0.373,0.484-0.763,0.723-1.172c0.239-0.409,0.474-0.809,0.704-1.2c-0.357,0.126-0.701,0.244-1.034,0.354
		c-0.331,0.11-0.603,0.19-0.816,0.241c-0.495,0.122-0.973,0.118-1.433-0.015c-0.459-0.131-0.841-0.318-1.145-0.56
		c-0.122-0.1-0.206-0.2-0.252-0.299c-0.046-0.101-0.021-0.241,0.075-0.423c0.048-0.091,0.109-0.212,0.184-0.365
		c0.075-0.153,0.153-0.294,0.234-0.427c0.091-0.149,0.188-0.241,0.292-0.273c0.104-0.032,0.244-0.036,0.417-0.014
		c0.29,0.047,0.526,0.062,0.711,0.042c0.184-0.018,0.404-0.061,0.659-0.123c0.226-0.055,0.519-0.145,0.875-0.271
		c0.358-0.126,0.737-0.263,1.142-0.411c0.403-0.147,0.793-0.291,1.169-0.43c0.376-0.14,0.694-0.256,0.954-0.353
		c0.148-0.061,0.302-0.07,0.459-0.028c0.158,0.043,0.319,0.108,0.482,0.194c0.237,0.125,0.439,0.31,0.606,0.554
		c0.167,0.247,0.228,0.468,0.183,0.665c-0.056,0.215-0.188,0.553-0.396,1.013c-0.208,0.461-0.449,0.961-0.724,1.503
		c0.244,0.001,0.501,0.009,0.773,0.024c0.271,0.015,0.5,0.055,0.688,0.118c0.389,0.124,0.676,0.279,0.863,0.465
		c0.188,0.186,0.368,0.465,0.544,0.836c0.102,0.228,0.147,0.474,0.136,0.735s-0.079,0.458-0.207,0.589
		c-0.301,0.307-0.706,0.451-1.214,0.433c-0.508-0.019-1.018-0.161-1.527-0.431c-0.146-0.077-0.333-0.167-0.563-0.271
		c-0.231-0.104-0.453-0.207-0.667-0.309c-0.206,0.369-0.395,0.693-0.567,0.975C61.202,23.228,61.065,23.424,60.961,23.531z
		 M71.403,19.686c-0.175,0.07-0.375,0.139-0.598,0.208c-0.223,0.069-0.445,0.137-0.667,0.207c0.069,0.42,0.096,0.854,0.082,1.3
		c-0.015,0.446-0.069,0.858-0.165,1.239c0.086,0.035,0.172,0.077,0.256,0.126c0.084,0.051,0.172,0.099,0.263,0.148
		c0.1,0.076,0.222,0.175,0.366,0.298c0.145,0.123,0.227,0.266,0.247,0.426c0.023,0.175,0.038,0.392,0.041,0.65
		c0.004,0.257,0.003,0.524-0.003,0.8c-0.006,0.277-0.015,0.546-0.025,0.808c-0.01,0.263-0.021,0.471-0.035,0.627
		c-0.029,0.298-0.15,0.511-0.362,0.638c-0.212,0.126-0.458,0.233-0.735,0.318c-0.306,0.094-0.675,0.209-1.106,0.341
		c-0.431,0.134-0.889,0.268-1.372,0.402c-0.485,0.135-0.983,0.273-1.495,0.416c-0.512,0.143-1.002,0.271-1.469,0.385
		c0.337,0.202,0.637,0.36,0.901,0.476c0.324,0.159,0.597,0.228,0.817,0.204c0.222-0.023,0.477-0.063,0.764-0.121
		c0.128-0.026,0.345-0.078,0.648-0.156c0.304-0.078,0.629-0.168,0.98-0.269c0.349-0.1,0.691-0.202,1.025-0.305
		c0.334-0.104,0.605-0.187,0.813-0.251c0.218-0.083,0.469-0.183,0.752-0.301c0.283-0.119,0.506-0.263,0.666-0.435
		c0.141-0.135,0.257-0.239,0.349-0.314c0.091-0.073,0.176-0.119,0.254-0.136c0.078-0.016,0.162-0.008,0.249,0.026
		c0.086,0.033,0.191,0.078,0.313,0.131c0.2,0.106,0.369,0.207,0.505,0.302c0.135,0.095,0.28,0.194,0.435,0.299
		c0.276,0.204,0.399,0.391,0.368,0.561s-0.124,0.377-0.276,0.623c-0.172,0.281-0.349,0.511-0.53,0.689
		c-0.181,0.178-0.375,0.329-0.58,0.453c-0.205,0.125-0.434,0.233-0.687,0.328c-0.253,0.093-0.54,0.189-0.859,0.289
		c-0.153,0.047-0.439,0.13-0.858,0.253c-0.419,0.121-0.87,0.254-1.352,0.394c-0.482,0.143-0.941,0.272-1.376,0.392
		c-0.436,0.12-0.744,0.207-0.925,0.263c-0.283,0.072-0.529,0.125-0.739,0.161c-0.21,0.034-0.409,0.042-0.598,0.024
		c-0.188-0.017-0.378-0.066-0.569-0.144c-0.192-0.077-0.409-0.186-0.649-0.324c-0.514-0.284-0.994-0.566-1.439-0.847
		c-0.445-0.282-0.828-0.525-1.15-0.73c-0.155-0.104-0.331-0.179-0.527-0.226c-0.197-0.045-0.431-0.087-0.702-0.125
		c-0.267-0.024-0.461-0.186-0.583-0.482c-0.092-0.2-0.052-0.437,0.123-0.712s0.446-0.553,0.815-0.834
		c0.721-0.527,1.285-0.673,1.695-0.434c0.347-0.107,0.78-0.237,1.297-0.389c0.516-0.152,1.042-0.311,1.577-0.477
		c0.535-0.165,1.046-0.324,1.534-0.474c0.486-0.151,0.889-0.275,1.209-0.374l-0.229-0.889c-0.449,0.123-0.934,0.258-1.452,0.402
		c-0.519,0.146-1.036,0.298-1.549,0.457c-0.516,0.159-1.016,0.313-1.502,0.464s-0.917,0.284-1.293,0.4
		c-0.385,0.134-0.781,0.158-1.189,0.07c-0.408-0.087-0.785-0.222-1.131-0.404c-0.2-0.106-0.287-0.266-0.262-0.48
		c0.025-0.213,0.106-0.447,0.24-0.703c0.12-0.204,0.254-0.333,0.405-0.387c0.151-0.054,0.396-0.073,0.736-0.057
		c0.217,0.01,0.437,0.006,0.66-0.01c0.224-0.016,0.462-0.055,0.717-0.119c0.843-0.23,1.768-0.516,2.774-0.858s2.02-0.708,3.042-1.1
		c-0.207-0.226-0.395-0.449-0.562-0.672c-0.168-0.222-0.319-0.465-0.454-0.729c-0.135-0.263-0.258-0.563-0.37-0.902
		c-0.112-0.339-0.217-0.737-0.312-1.195c-0.151-0.685-0.302-1.308-0.453-1.871c-0.151-0.563-0.306-1.101-0.465-1.615
		c-0.082-0.265-0.153-0.483-0.214-0.654c-0.061-0.171-0.16-0.357-0.298-0.559c-0.063-0.103-0.193-0.203-0.391-0.302
		c-0.198-0.099-0.347-0.186-0.447-0.262c-0.077-0.052-0.12-0.142-0.128-0.269c-0.009-0.125,0.01-0.265,0.054-0.416
		c0.04-0.119,0.124-0.275,0.256-0.467c0.13-0.193,0.254-0.346,0.372-0.458c0.225-0.207,0.456-0.3,0.69-0.282
		c0.174,0.021,0.403,0.074,0.687,0.153c0.284,0.08,0.523,0.167,0.72,0.258c0.474,0.204,0.855,0.563,1.143,1.074
		c0.289,0.513,0.52,1.1,0.694,1.763c0.084,0.325,0.168,0.633,0.252,0.928c0.084,0.293,0.168,0.58,0.254,0.858l0.587-0.319
		c0.256-0.155,0.507-0.218,0.753-0.188c0.245,0.032,0.463,0.085,0.656,0.164c0.141,0.062,0.298,0.14,0.471,0.23
		c0.173,0.092,0.34,0.188,0.501,0.291c0.161,0.103,0.3,0.208,0.417,0.316c0.117,0.11,0.191,0.211,0.221,0.309
		c0.103,0.334-0.006,0.658-0.329,0.97C72.268,19.289,71.873,19.526,71.403,19.686z"/>
	<path fill="#BA9B9A" d="M77.333,16.655c-0.408,0.004-0.751-0.027-1.028-0.096c-0.277-0.069-0.585-0.205-0.922-0.404
		c-0.367-0.214-0.551-0.419-0.554-0.616c-0.002-0.196,0.082-0.463,0.252-0.8c0.157-0.292,0.306-0.509,0.451-0.65
		c0.144-0.14,0.318-0.174,0.522-0.104c0.264,0.098,0.518,0.165,0.768,0.197c0.247,0.034,0.495,0.049,0.742,0.046l0.524-0.006
		c-0.002-0.219-0.037-0.378-0.104-0.479c-0.066-0.101-0.152-0.208-0.255-0.323c-0.177-0.202-0.282-0.361-0.312-0.477
		c-0.031-0.116,0.004-0.255,0.104-0.417c0.042-0.073,0.122-0.184,0.236-0.331c0.116-0.146,0.208-0.257,0.28-0.331
		c0.158-0.163,0.306-0.259,0.444-0.29c0.138-0.03,0.302-0.011,0.493,0.06c0.233,0.07,0.485,0.183,0.757,0.339
		c0.271,0.158,0.487,0.3,0.65,0.429c0.205,0.158,0.334,0.364,0.39,0.618c0.054,0.254,0.082,0.549,0.086,0.883l0.001,0.11
		c0.161-0.017,0.309-0.029,0.448-0.039c0.138-0.01,0.272-0.029,0.401-0.06c0.509-0.079,0.926,0.062,1.251,0.421
		c0.293,0.331,0.487,0.58,0.577,0.746c0.089,0.167,0.133,0.323,0.136,0.468c0.004,0.306-0.172,0.526-0.527,0.662
		c-0.355,0.136-0.771,0.221-1.252,0.255c-0.204,0.018-0.512,0.036-0.927,0.057c-0.415,0.019-0.859,0.039-1.332,0.06
		c-0.473,0.021-0.92,0.037-1.342,0.048C77.87,16.646,77.551,16.652,77.333,16.655z M91.479,27.245
		c0.149,0.261,0.229,0.543,0.24,0.848c0.012,0.307-0.077,0.605-0.261,0.899c-0.086,0.146-0.217,0.261-0.389,0.343
		c-0.176,0.083-0.359,0.139-0.555,0.17c-0.196,0.031-0.386,0.034-0.569,0.007c-0.182-0.027-0.339-0.077-0.471-0.147
		c-0.351-0.199-0.747-0.431-1.188-0.694c-0.439-0.265-0.879-0.518-1.318-0.759c-0.445,0.501-0.921,0.929-1.425,1.284
		c-0.248,0.164-0.502,0.286-0.771,0.37c-0.266,0.084-0.536,0.139-0.805,0.164c-0.269,0.024-0.527,0.024-0.775-0.001
		c-0.247-0.027-0.458-0.067-0.634-0.124c-0.263-0.083-0.526-0.193-0.791-0.328c-0.263-0.135-0.491-0.267-0.682-0.396
		c0.377-0.063,0.708-0.183,0.99-0.362c0.281-0.178,0.538-0.349,0.769-0.511l0.195-0.134c-0.207-0.158-0.405-0.308-0.596-0.451
		c-0.19-0.144-0.389-0.287-0.593-0.429c-0.289,0.266-0.585,0.516-0.887,0.753c-0.303,0.236-0.614,0.458-0.93,0.667
		c-0.246,0.162-0.51,0.286-0.792,0.37c-0.283,0.083-0.563,0.134-0.838,0.152c-0.277,0.017-0.542,0.006-0.798-0.034
		c-0.256-0.041-0.479-0.111-0.668-0.21c-0.264-0.128-0.528-0.282-0.792-0.46c-0.265-0.179-0.484-0.34-0.661-0.483
		c0.378-0.033,0.705-0.106,0.98-0.219c0.276-0.112,0.551-0.244,0.825-0.392c0.723-0.388,1.365-0.821,1.928-1.301
		c0.561-0.48,1.028-0.949,1.401-1.404c0.115-0.132,0.223-0.293,0.322-0.484c0.1-0.19,0.134-0.351,0.103-0.482
		c-0.046-0.232,0.032-0.401,0.235-0.505c0.201-0.104,0.441-0.172,0.716-0.205c0.175-0.017,0.361,0.032,0.56,0.146
		c0.198,0.114,0.385,0.25,0.561,0.408c0.281,0.23,0.449,0.475,0.511,0.736c0.063,0.261-0.014,0.583-0.228,0.963
		c0,0.014-0.003,0.021-0.012,0.021c-0.007,0.001-0.01,0.008-0.01,0.022c0.249,0.085,0.486,0.173,0.713,0.265
		c0.227,0.092,0.397,0.167,0.515,0.222c0.103,0.043,0.195,0.085,0.275,0.128c0.081,0.043,0.157,0.086,0.23,0.128
		c0.2-0.25,0.387-0.492,0.559-0.728c0.171-0.234,0.337-0.462,0.493-0.683c0.102-0.146,0.2-0.304,0.301-0.473
		c0.1-0.168,0.127-0.318,0.082-0.448c-0.091-0.261-0.059-0.443,0.102-0.548c0.16-0.104,0.414-0.194,0.762-0.271
		c0.174-0.031,0.367,0,0.579,0.091c0.212,0.093,0.399,0.225,0.562,0.398l0.023,0.021c-0.035-0.334-0.098-0.694-0.188-1.079
		c-0.092-0.384-0.155-0.686-0.188-0.904c-0.078-0.421-0.127-0.842-0.154-1.265s-0.038-0.843-0.027-1.266
		c-0.176-0.013-0.361-0.021-0.558-0.026s-0.39-0.006-0.579-0.004l0.006,0.458c-0.021,0.641-0.203,1.262-0.543,1.863
		c-0.188,0.322-0.395,0.638-0.623,0.946c-0.229,0.309-0.451,0.625-0.665,0.947c-0.076-0.159-0.166-0.34-0.27-0.542
		c-0.103-0.203-0.208-0.42-0.313-0.652c-0.105-0.231-0.195-0.467-0.271-0.706c-0.075-0.239-0.122-0.475-0.14-0.708
		c-0.019-0.393-0.033-0.851-0.039-1.374c-0.006-0.525-0.006-1.067,0.001-1.627c0.009-0.561,0.012-1.121,0.013-1.681
		c0.001-0.561-0.002-1.081-0.008-1.56c-0.003-0.176-0.007-0.318-0.016-0.427c-0.01-0.108-0.033-0.207-0.069-0.293
		c-0.039-0.086-0.087-0.17-0.146-0.249c-0.06-0.08-0.133-0.176-0.223-0.292c-0.176-0.216-0.255-0.415-0.235-0.597
		c0.02-0.182,0.129-0.376,0.331-0.583c0.029-0.028,0.112-0.106,0.248-0.232c0.137-0.125,0.249-0.204,0.336-0.233
		c0.115-0.046,0.247-0.057,0.394-0.038c0.145,0.021,0.32,0.087,0.526,0.201c0.204,0.114,0.396,0.261,0.573,0.441
		c0.176,0.18,0.324,0.326,0.441,0.441c0.251,0.289,0.404,0.596,0.459,0.923c0.057,0.327,0.093,0.679,0.111,1.058
		c0.004,0.218,0.01,0.501,0.021,0.851c0.012,0.349,0.027,0.734,0.048,1.157c0.188-0.032,0.389-0.063,0.599-0.095
		c0.211-0.032,0.404-0.056,0.577-0.073c-0.007-0.597-0.017-1.117-0.03-1.561c-0.014-0.443-0.021-0.92-0.027-1.43
		c-0.002-0.203-0.02-0.377-0.051-0.523s-0.079-0.279-0.147-0.402c-0.066-0.123-0.151-0.25-0.255-0.378
		c-0.104-0.13-0.229-0.289-0.379-0.476c-0.072-0.101-0.117-0.221-0.134-0.36c-0.017-0.137,0.019-0.265,0.104-0.382
		c0.043-0.058,0.13-0.139,0.26-0.244c0.131-0.104,0.23-0.177,0.303-0.222c0.173-0.103,0.322-0.164,0.445-0.179
		c0.123-0.017,0.286-0.004,0.49,0.037c0.234,0.041,0.475,0.158,0.726,0.351c0.25,0.193,0.443,0.361,0.575,0.506
		c0.235,0.244,0.425,0.515,0.565,0.812c0.142,0.296,0.229,0.611,0.264,0.946c0.067,0.829,0.131,1.799,0.189,2.913
		c0.057,1.114,0.041,2.267-0.047,3.461c-0.061,0.889-0.247,1.706-0.558,2.452c-0.313,0.746-0.797,1.488-1.458,2.224
		c0.134,0.188,0.202,0.378,0.205,0.576c0.002,0.197-0.06,0.462-0.188,0.799c-0.099,0.249-0.226,0.542-0.382,0.878
		c0.276,0.069,0.543,0.146,0.8,0.229c0.255,0.085,0.464,0.148,0.624,0.19c0.381,0.111,0.699,0.249,0.955,0.413
		C91.105,26.729,91.315,26.956,91.479,27.245z M78.671,17.25c0.087-0.074,0.202-0.123,0.348-0.146
		c0.145-0.024,0.283-0.037,0.415-0.039c0.538-0.007,1.041,0.056,1.509,0.188c0.468,0.133,0.874,0.328,1.22,0.586
		c0.345,0.257,0.617,0.567,0.817,0.929c0.203,0.361,0.298,0.768,0.288,1.219c-0.009,0.393-0.113,0.758-0.314,1.096
		c-0.199,0.337-0.465,0.628-0.796,0.872c-0.332,0.245-0.723,0.432-1.172,0.562c-0.449,0.129-0.921,0.189-1.417,0.18
		c-0.117,0.031-0.269,0.051-0.458,0.061c-0.188,0.01-0.385,0.001-0.589-0.026c-0.86-0.119-1.516-0.421-1.966-0.903
		c-0.45-0.482-0.679-1.058-0.687-1.728c-0.003-0.305,0.059-0.612,0.186-0.919c0.127-0.308,0.313-0.59,0.557-0.848
		c0.245-0.257,0.541-0.483,0.887-0.677C77.843,17.464,78.235,17.329,78.671,17.25z M80.668,19.89
		c-0.003-0.248-0.114-0.447-0.335-0.597c-0.219-0.15-0.585-0.25-1.095-0.303c-0.334,0.048-0.576,0.171-0.727,0.369
		c-0.15,0.199-0.224,0.386-0.222,0.56c0.003,0.248,0.125,0.446,0.366,0.596c0.243,0.15,0.532,0.238,0.866,0.263
		c0.378-0.034,0.665-0.143,0.859-0.328C80.575,20.265,80.671,20.079,80.668,19.89z"/>
	<path fill="#BA9B9A" d="M110.007,20.82c-0.107,0.377-0.22,0.777-0.332,1.199c-0.113,0.422-0.232,0.85-0.355,1.283
		c-0.125,0.434-0.244,0.851-0.357,1.25c-0.115,0.398-0.227,0.763-0.338,1.096c-0.059,0.209-0.145,0.48-0.255,0.813
		c-0.109,0.332-0.221,0.675-0.329,1.03c-0.109,0.355-0.217,0.691-0.322,1.009c-0.106,0.318-0.193,0.566-0.259,0.743
		c-0.07,0.193-0.168,0.44-0.294,0.745c-0.123,0.305-0.352,0.584-0.682,0.838c-0.138,0.112-0.296,0.226-0.474,0.342
		c-0.178,0.115-0.351,0.236-0.522,0.361c-0.173,0.124-0.334,0.24-0.486,0.348c-0.152,0.107-0.271,0.203-0.353,0.285
		c-0.393,0.356-0.62,0.655-0.688,0.894c-0.132-0.175-0.201-0.384-0.207-0.627c-0.005-0.245,0.006-0.468,0.034-0.672
		c0.035-0.232,0.095-0.579,0.173-1.041c0.08-0.462,0.167-0.914,0.263-1.355c0.09-0.367,0.17-0.697,0.238-0.988
		c0.067-0.291,0.146-0.59,0.233-0.898c0.09-0.308,0.187-0.651,0.294-1.029c0.109-0.377,0.25-0.843,0.424-1.4
		c0.021-0.07,0.043-0.15,0.07-0.242c0.026-0.09,0.061-0.19,0.107-0.298c-0.259-0.044-0.511-0.093-0.753-0.148
		c-0.242-0.054-0.422-0.112-0.54-0.177c-0.146-0.072-0.302-0.188-0.467-0.349c-0.166-0.161-0.308-0.327-0.425-0.497
		c-0.423,0.788-0.986,1.419-1.688,1.89c-0.703,0.472-1.423,0.777-2.158,0.915c-0.241,0.052-0.479,0.06-0.712,0.023
		c-0.192,0.096-0.407,0.156-0.642,0.179c-0.233,0.024-0.475-0.007-0.722-0.093c-0.529-0.166-1.007-0.447-1.439-0.843
		c-0.431-0.397-0.783-0.861-1.054-1.392c-0.272-0.532-0.444-1.111-0.515-1.736c-0.07-0.626-0.016-1.254,0.163-1.884
		c0.166-0.574,0.413-1.116,0.739-1.627c0.329-0.512,0.712-0.975,1.147-1.387c0.437-0.413,0.904-0.756,1.408-1.028
		c0.501-0.272,1.011-0.463,1.526-0.574c0.241-0.263,0.496-0.398,0.764-0.405c0.266-0.007,0.522,0.01,0.768,0.049
		c0.13,0.022,0.266,0.069,0.404,0.139c0.137,0.069,0.274,0.15,0.407,0.241c0.134,0.091,0.257,0.187,0.373,0.288
		c0.114,0.102,0.205,0.192,0.273,0.271c0.569,0.603,0.98,1.281,1.233,2.034c0.254,0.755,0.358,1.579,0.313,2.475
		c0.301,0.01,0.622,0.041,0.963,0.094c0.341,0.052,0.588,0.1,0.741,0.144c0.113,0.032,0.245,0.074,0.396,0.125
		c0.152,0.05,0.312,0.107,0.474,0.168c0.146-0.457,0.288-0.912,0.426-1.365c0.136-0.453,0.27-0.877,0.397-1.271
		c0.128-0.395,0.235-0.742,0.322-1.043c0.086-0.3,0.153-0.535,0.201-0.703c0.06-0.21,0.092-0.378,0.099-0.505
		c0.007-0.126-0.002-0.242-0.025-0.348c-0.023-0.105-0.054-0.212-0.09-0.321c-0.036-0.109-0.072-0.237-0.105-0.382
		c-0.05-0.196-0.086-0.339-0.106-0.427c-0.019-0.089,0.01-0.191,0.088-0.305c0.082-0.128,0.206-0.229,0.37-0.303
		c0.166-0.073,0.344-0.128,0.537-0.164c0.191-0.036,0.389-0.051,0.592-0.046c0.202,0.004,0.392,0.024,0.563,0.058
		c0.315,0.061,0.532,0.198,0.651,0.415c0.132,0.234,0.256,0.47,0.379,0.708c0.12,0.239,0.202,0.464,0.248,0.674
		c0.046,0.21,0.063,0.4,0.053,0.571s-0.045,0.362-0.107,0.57L110.007,20.82z M98.651,23.519c0.642-0.073,1.156-0.3,1.546-0.682
		c0.39-0.38,0.64-0.873,0.752-1.476c0.119-0.632,0.127-1.244,0.015-1.836c-0.11-0.591-0.34-1.096-0.69-1.513
		c-0.296,0.082-0.584,0.218-0.866,0.41c-0.282,0.192-0.541,0.421-0.776,0.686c-0.235,0.267-0.439,0.557-0.612,0.87
		c-0.172,0.313-0.304,0.625-0.392,0.933c-0.096,0.335-0.132,0.64-0.103,0.913c0.028,0.273,0.098,0.519,0.208,0.741
		c0.112,0.221,0.246,0.412,0.404,0.57C98.297,23.292,98.468,23.42,98.651,23.519z"/>
	<path fill="#BA9B9A" d="M124.635,39.411c0.065,0.27,0.083,0.517,0.049,0.738c-0.032,0.222-0.099,0.396-0.197,0.522
		c-0.126,0.163-0.313,0.257-0.565,0.283s-0.521-0.003-0.807-0.085c-0.284-0.083-0.574-0.204-0.87-0.364
		c-0.297-0.159-0.543-0.339-0.744-0.54c-0.087-0.077-0.216-0.186-0.383-0.331c-0.166-0.144-0.35-0.295-0.551-0.453
		c-0.201-0.159-0.405-0.319-0.613-0.479c-0.205-0.163-0.395-0.3-0.563-0.413c-0.236-0.172-0.581-0.402-1.036-0.691
		c-0.453-0.291-0.961-0.616-1.525-0.977c-0.563-0.362-1.155-0.733-1.775-1.115c-0.62-0.382-1.205-0.744-1.755-1.088
		c-0.548-0.343-1.048-0.645-1.494-0.903c-0.448-0.26-0.781-0.451-0.994-0.575c-0.463-0.251-0.806-0.52-1.027-0.805
		c-0.221-0.285-0.38-0.659-0.476-1.123c-0.075-0.364-0.098-0.687-0.067-0.971c0.03-0.285,0.063-0.521,0.1-0.707
		c0.034-0.186,0.172-0.304,0.413-0.354c0.062-0.012,0.158-0.027,0.291-0.044c0.134-0.017,0.27-0.032,0.409-0.045
		c0.139-0.012,0.271-0.021,0.396-0.026c0.126-0.005,0.221-0.004,0.286,0.004c0.311,0.03,0.541,0.234,0.694,0.613
		c0.081,0.193,0.157,0.355,0.227,0.489c0.069,0.133,0.147,0.245,0.234,0.337c0.088,0.092,0.185,0.178,0.291,0.256
		c0.105,0.077,0.231,0.165,0.377,0.261l1.502,0.934c0.242-0.449,0.397-0.791,0.466-1.025c0.06-0.17,0.092-0.308,0.103-0.416
		c0.009-0.107,0.024-0.201,0.043-0.285c0.021-0.083,0.056-0.163,0.107-0.242c0.053-0.08,0.15-0.176,0.295-0.29
		c0.136-0.103,0.311-0.162,0.522-0.179c0.212-0.018,0.431-0.013,0.658,0.013c-0.413-0.671-0.646-1.382-0.702-2.132
		c-0.055-0.75,0.146-1.473,0.6-2.167c0.289-0.437,0.681-0.769,1.175-0.992c0.495-0.223,1.034-0.361,1.616-0.413
		c0.584-0.052,1.175-0.025,1.775,0.082s1.144,0.268,1.628,0.482c0.403-0.032,0.807,0.086,1.21,0.35
		c0.229,0.152,0.467,0.346,0.71,0.585c0.244,0.238,0.475,0.499,0.691,0.779c0.215,0.282,0.416,0.58,0.601,0.893
		c0.187,0.314,0.327,0.624,0.422,0.93c0.218,0.701,0.306,1.424,0.259,2.169c-0.045,0.745-0.3,1.418-0.763,2.018
		c-0.434,0.552-0.961,0.937-1.583,1.155c-0.623,0.218-1.276,0.267-1.963,0.147c0.386,0.498,0.378,1.04-0.025,1.628
		c-0.064,0.098-0.185,0.254-0.36,0.469c-0.178,0.215-0.365,0.448-0.565,0.7c0.406,0.231,0.793,0.451,1.162,0.659
		c0.366,0.207,0.646,0.354,0.832,0.441c0.178,0.101,0.337,0.235,0.479,0.406c0.138,0.17,0.26,0.363,0.362,0.579
		c0.104,0.215,0.188,0.437,0.258,0.665C124.538,38.995,124.592,39.209,124.635,39.411z M118.11,30.971
		c-0.041,0.356-0.159,0.745-0.35,1.168s-0.41,0.85-0.656,1.279l1.629,1.019c0.277-0.341,0.511-0.657,0.702-0.95
		c0.096-0.146,0.166-0.305,0.209-0.476c0.043-0.172,0.137-0.315,0.282-0.429c0.115-0.098,0.255-0.164,0.416-0.197
		c-0.074-0.048-0.145-0.098-0.214-0.153c-0.069-0.054-0.136-0.11-0.2-0.17c-0.191-0.056-0.388-0.146-0.592-0.272
		c-0.205-0.125-0.442-0.276-0.709-0.453c-0.097-0.063-0.188-0.124-0.274-0.18C118.269,31.102,118.188,31.04,118.11,30.971z
		 M121.653,26.376c-0.528-0.207-1.001-0.288-1.422-0.243c-0.423,0.046-0.736,0.226-0.945,0.543
		c-0.127,0.195-0.191,0.404-0.192,0.631c-0.001,0.226,0.054,0.457,0.159,0.692c0.106,0.235,0.256,0.46,0.448,0.672
		c0.19,0.213,0.409,0.41,0.656,0.589c0.249,0.181,0.471,0.35,0.673,0.507c0.202,0.158,0.349,0.313,0.443,0.46
		c0.411,0.219,0.813,0.252,1.201,0.098s0.673-0.381,0.852-0.681c0.332-0.53,0.285-1.163-0.138-1.894
		c-0.1-0.169-0.21-0.325-0.334-0.467c-0.124-0.144-0.258-0.279-0.4-0.407C122.286,26.67,121.951,26.503,121.653,26.376z"/>
	<path fill="#BA9B9A" d="M124.829,42.651c0.163-0.04,0.35-0.054,0.555-0.043c0.207,0.012,0.387,0.033,0.541,0.064
		c0.411,0.085,0.732,0.212,0.962,0.383c0.231,0.17,0.393,0.364,0.483,0.582c0.092,0.216,0.117,0.443,0.074,0.679
		c-0.042,0.237-0.12,0.463-0.235,0.679c-0.229,0.389-0.543,0.625-0.944,0.704c-0.401,0.081-0.809,0.059-1.22-0.067
		c-0.174-0.053-0.366-0.141-0.57-0.265c-0.205-0.125-0.392-0.268-0.563-0.428c-0.167-0.16-0.301-0.341-0.397-0.542
		c-0.097-0.202-0.108-0.411-0.034-0.626c0.104-0.37,0.263-0.629,0.475-0.778C124.167,42.846,124.457,42.731,124.829,42.651z
		 M130.816,37c0.248-0.246,0.514-0.51,0.799-0.792c0.285-0.282,0.557-0.555,0.814-0.822c0.258-0.267,0.501-0.516,0.729-0.752
		c0.228-0.235,0.419-0.43,0.575-0.583c0.588-0.605,0.961-1.149,1.118-1.632c0.094-0.256,0.217-0.412,0.366-0.469
		c0.147-0.056,0.387-0.042,0.716,0.043c0.576,0.146,0.956,0.329,1.141,0.545s0.275,0.49,0.273,0.82
		c-0.002,0.288-0.012,0.546-0.035,0.772c-0.02,0.226-0.066,0.435-0.134,0.624c-0.067,0.19-0.167,0.375-0.297,0.554
		c-0.128,0.18-0.303,0.377-0.52,0.592c-0.434,0.43-0.895,0.891-1.381,1.382c-0.486,0.492-0.97,0.976-1.451,1.452
		c-0.48,0.476-0.931,0.922-1.351,1.336c-0.417,0.414-0.777,0.76-1.076,1.036c-0.342,0.317-0.65,0.551-0.923,0.698
		c-0.272,0.148-0.549,0.248-0.827,0.298c-0.278,0.049-0.586,0.071-0.919,0.064c-0.334-0.007-0.722-0.006-1.165,0.001
		c0.125-0.246,0.219-0.493,0.28-0.739c0.063-0.247,0.132-0.494,0.206-0.74c0.072-0.247,0.165-0.494,0.281-0.74
		c0.113-0.247,0.279-0.497,0.497-0.754c0.248-0.287,0.563-0.604,0.947-0.952C129.863,37.896,130.31,37.481,130.816,37z"/>
</g>
</svg>
