<?xml version="1.0" encoding="utf-8"?>
<!-- Generator: Adobe Illustrator 16.0.0, SVG Export Plug-In . SVG Version: 6.00 Build 0)  -->
<!DOCTYPE svg PUBLIC "-//W3C//DTD SVG 1.1//EN" "http://www.w3.org/Graphics/SVG/1.1/DTD/svg11.dtd">
<svg version="1.1" id="Layer_1" xmlns="http://www.w3.org/2000/svg" xmlns:xlink="http://www.w3.org/1999/xlink" x="0px" y="0px"
	 width="296px" height="88px" viewBox="0 0 296 88" enable-background="new 0 0 296 88" xml:space="preserve">
<path fill-rule="evenodd" clip-rule="evenodd" fill="none" stroke="#050505" stroke-width="2" stroke-miterlimit="10" d="
	M68.435,63.353c0,13.078-8.33,23.68-18.605,23.68H36.718c-10.276,0-18.606-10.602-18.606-23.68V24.646
	c0-13.078,8.33-23.678,18.606-23.678H49.83c10.275,0,18.605,10.601,18.605,23.678V63.353z"/>
<g>
	<path fill-rule="evenodd" clip-rule="evenodd" d="M23.96,26.861c0.091-4.542,2.206-9.414,6.501-13.307
		c0.122-0.112,0.254-0.21,0.376-0.318c0.327-0.291,0.682-0.393,1.075-0.14c0.39,0.252,0.424,0.629,0.339,1.043
		c-0.184,0.881-0.409,1.757-0.538,2.647c-1.356,9.423,4.562,18.581,13.66,21.125c3.857,1.077,7.655,0.821,11.378-0.638
		c0.091-0.036,0.182-0.075,0.273-0.111c0.388-0.152,0.748-0.129,1.031,0.203c0.29,0.344,0.301,0.746,0.036,1.09
		c-0.891,1.151-1.707,2.383-2.73,3.405c-3.808,3.799-8.441,5.652-13.824,5.361c-5.737-0.31-10.307-2.918-13.742-7.478
		C25.187,36.285,23.958,32.39,23.96,26.861z M30.025,16.415c-0.189,0.217-0.277,0.312-0.361,0.411
		c-4.548,5.463-5.33,13.424-1.936,19.705c5.153,9.542,17.155,11.934,25.445,5.053c0.66-0.545,1.223-1.208,1.902-1.889
		c-7.134,1.572-13.371-0.006-18.6-4.951C31.267,29.816,29.276,23.641,30.025,16.415z"/>
</g>
<g>
	<path fill-rule="evenodd" clip-rule="evenodd" d="M50.727,16.116c2.917-0.005,5.218,2.286,5.243,5.215
		c0.025,2.938-2.444,5.414-5.373,5.393c-2.872-0.02-5.22-2.403-5.206-5.281C45.406,18.499,47.789,16.12,50.727,16.116z"/>
	<path fill-rule="evenodd" clip-rule="evenodd" d="M62.145,17.024c-0.122,0.112-0.306,0.391-0.563,0.506
		c-1.243,0.562-2.508,1.073-3.758,1.615c-0.438,0.189-0.807,0.128-1.004-0.304c-0.205-0.451-0.053-0.824,0.427-1.026
		c1.256-0.533,2.505-1.081,3.77-1.59C61.653,15.969,62.154,16.264,62.145,17.024z"/>
	<path fill-rule="evenodd" clip-rule="evenodd" d="M55.926,10.435c-0.102,0.306-0.148,0.474-0.214,0.633
		c-0.483,1.174-0.978,2.345-1.456,3.523c-0.206,0.511-0.525,0.831-1.084,0.582c-0.534-0.238-0.46-0.69-0.266-1.145
		c0.516-1.216,0.993-2.45,1.562-3.641c0.121-0.255,0.553-0.475,0.856-0.492C55.52,9.881,55.744,10.259,55.926,10.435z"/>
	<path fill-rule="evenodd" clip-rule="evenodd" d="M57.418,23.095c0.37,0.115,0.586,0.175,0.796,0.248
		c1.151,0.405,2.303,0.813,3.454,1.219c0.489,0.173,0.795,0.498,0.589,1.023c-0.192,0.49-0.624,0.505-1.075,0.344
		c-1.268-0.449-2.549-0.867-3.794-1.373c-0.265-0.107-0.534-0.532-0.546-0.821C56.833,23.519,57.233,23.286,57.418,23.095z"/>
	<path fill-rule="evenodd" clip-rule="evenodd" d="M39.664,16.686c1.205,0.427,2.262,0.8,3.317,1.177
		c0.375,0.134,0.81,0.2,1.103,0.437c0.216,0.173,0.397,0.624,0.318,0.86c-0.071,0.212-0.571,0.482-0.784,0.416
		c-1.424-0.444-2.834-0.943-4.219-1.5c-0.2-0.082-0.363-0.582-0.315-0.85C39.123,17.002,39.491,16.834,39.664,16.686z"/>
	<path fill-rule="evenodd" clip-rule="evenodd" d="M48.573,28.064c-0.1,0.291-0.142,0.433-0.198,0.571
		c-0.495,1.197-0.997,2.394-1.488,3.592c-0.193,0.474-0.482,0.787-1.025,0.561c-0.506-0.212-0.506-0.635-0.328-1.07
		c0.521-1.27,1.023-2.544,1.601-3.787c0.113-0.242,0.544-0.491,0.799-0.463C48.179,27.496,48.387,27.875,48.573,28.064z"/>
	<path fill-rule="evenodd" clip-rule="evenodd" d="M45.193,10.592c0.23-0.231,0.406-0.557,0.623-0.586
		c0.262-0.036,0.721,0.104,0.812,0.301c0.642,1.374,1.234,2.773,1.775,4.192c0.071,0.185-0.189,0.625-0.41,0.752
		c-0.18,0.103-0.7,0-0.774-0.152C46.522,13.644,45.887,12.16,45.193,10.592z"/>
	<path fill-rule="evenodd" clip-rule="evenodd" d="M55.931,32.188c-0.11,0.128-0.275,0.492-0.472,0.511
		c-0.288,0.028-0.774-0.108-0.873-0.319c-0.623-1.325-1.19-2.678-1.703-4.05c-0.085-0.226,0.118-0.737,0.326-0.846
		c0.209-0.108,0.786,0.034,0.874,0.221c0.645,1.369,1.206,2.776,1.793,4.172C55.896,31.922,55.894,31.975,55.931,32.188z"/>
	<path fill-rule="evenodd" clip-rule="evenodd" d="M39.8,26.69c-0.138-0.128-0.487-0.303-0.531-0.536
		c-0.047-0.246,0.125-0.706,0.326-0.798c1.33-0.615,2.683-1.183,4.056-1.692c0.231-0.085,0.742,0.108,0.856,0.317
		c0.112,0.206-0.029,0.79-0.213,0.876c-1.37,0.64-2.781,1.198-4.178,1.781C40.072,26.659,40.02,26.656,39.8,26.69z"/>
</g>
<path fill-rule="evenodd" clip-rule="evenodd" fill="none" stroke="#050505" stroke-width="2" stroke-miterlimit="10" d="M18.6,60.1
	c0,0,18.715-2.416,24.167,4.838c0,0,10.902-8.931,25.618-2.61"/>
<path fill-rule="evenodd" clip-rule="evenodd" fill="none" stroke="#050505" stroke-width="2" stroke-miterlimit="10" d="
	M43.285,64.938c0,0-0.623,17.358,0,22.095"/>
<g>
	<g>
		<path fill="#050505" d="M49.147,69.883c3.838-2.763,8.851-3.204,13.234-1.66c1.525,0.537,2.175-1.879,0.665-2.41
			c-4.946-1.743-10.825-1.209-15.161,1.912C46.59,68.657,47.836,70.827,49.147,69.883L49.147,69.883z"/>
	</g>
</g>
<g>
	<g>
		<path fill="#050505" d="M49.4,76.966c2.8-2.228,7.717-2.999,11.642-1.466c1.504,0.588,2.149-1.831,0.665-2.41
			c-4.698-1.835-10.108-1.048-14.075,2.108C46.371,76.202,48.153,77.958,49.4,76.966L49.4,76.966z"/>
	</g>
</g>
<g>
	<g>
		<path fill="#050505" d="M38.093,67.698c-4.306-3.1-10.146-3.629-15.057-1.897c-1.51,0.532-0.86,2.947,0.665,2.41
			c4.349-1.532,9.322-1.095,13.13,1.646C38.143,70.801,39.389,68.631,38.093,67.698L38.093,67.698z"/>
	</g>
</g>
<g>
	<g>
		<path fill="#050505" d="M38.346,75.12c-3.94-3.135-9.314-3.919-13.981-2.097c-1.484,0.579-0.839,2.997,0.665,2.41
			c3.895-1.521,8.778-0.75,11.549,1.454C37.826,77.88,39.607,76.123,38.346,75.12L38.346,75.12z"/>
	</g>
</g>
<path d="M105.637,39.233c0.874,0.828,1.423,1.581,1.651,2.247c0.229,0.665,0.28,1.54,0.158,2.623
	c-0.087,0.706-0.356,1.372-0.813,1.997c-0.458,0.626-0.956,0.981-1.5,1.063c-0.625,0.087-1.174,0.117-1.652,0.097
	c-0.482-0.025-0.95-0.127-1.408-0.315c-0.457-0.188-0.914-0.468-1.372-0.844c-0.457-0.376-0.94-0.874-1.438-1.499
	c-0.417-0.539-0.966-1.235-1.652-2.09c-0.691-0.854-1.347-1.697-1.973-2.531c-0.666,1.042-1.291,1.978-1.87,2.812
	c-0.585,0.833-1.104,1.499-1.561,1.997c-1.088,1.251-2.155,2.064-3.218,2.436c-1.063,0.376-2.323,0.503-3.782,0.376
	c-0.458-0.041-0.996-0.157-1.622-0.341c-0.625-0.188-1.25-0.406-1.875-0.655c-0.626-0.255-1.195-0.514-1.719-0.783
	c-0.519-0.27-0.885-0.488-1.093-0.655c0.625-0.041,1.291-0.29,1.998-0.753c0.712-0.457,1.337-0.956,1.876-1.494
	c0.874-0.834,1.778-1.846,2.719-3.03c0.936-1.189,1.841-2.501,2.715-3.939c0.875-1.434,1.698-2.953,2.471-4.56
	c0.768-1.602,1.424-3.213,1.967-4.84c0.331-0.956,0.519-1.697,0.56-2.216c0.041-0.524-0.168-0.972-0.625-1.343
	c-0.458-0.417-0.747-0.731-0.874-0.94c-0.123-0.208-0.148-0.498-0.062-0.874c0.081-0.371,0.32-0.885,0.717-1.53
	s0.742-1.134,1.032-1.469c0.335-0.371,0.655-0.58,0.971-0.62c0.31-0.041,0.758,0.04,1.342,0.249c0.29,0.081,0.656,0.208,1.093,0.371
	c0.438,0.168,0.905,0.366,1.403,0.595c0.503,0.229,0.981,0.478,1.438,0.752c0.458,0.27,0.854,0.549,1.185,0.844
	c0.915,0.834,1.332,1.841,1.25,3.03c-0.081,1.185-0.335,2.566-0.747,4.153c-0.503,1.916-1.271,3.954-2.313,6.12
	c0.417,0.336,0.945,0.758,1.591,1.281c0.646,0.519,1.302,1.063,1.968,1.621c0.666,0.564,1.28,1.083,1.845,1.561
	C104.976,38.618,105.382,38.979,105.637,39.233z M124.938,6.247c0.915,0.711,1.683,1.388,2.308,2.033s1.113,1.321,1.469,2.028
	c0.352,0.711,0.595,1.489,0.717,2.344c0.127,0.854,0.188,1.865,0.188,3.029c-0.041,1.418-0.062,3.02-0.062,4.809
	c0,1.79,0,3.646,0,5.562c0,1.917-0.01,3.854-0.03,5.811c-0.025,1.957-0.03,3.808-0.03,5.556c0,1.749-0.016,3.365-0.035,4.84
	c-0.021,1.479-0.031,2.699-0.031,3.655c-0.081,3.248-0.655,6.187-1.718,8.81s-2.715,5.164-4.967,7.62
	c-0.163-1.668-0.56-3.538-1.185-5.623c-0.289-0.955-0.498-1.987-0.625-3.09c-0.122-1.104-0.229-2.176-0.311-3.218
	c-0.086-1.581-0.127-3.457-0.127-5.623c0-2.165,0.041-4.433,0.127-6.807c-1.169-0.086-2.313-0.086-3.436,0
	c0,0.996-0.011,1.917-0.031,2.745c-0.025,0.834-0.056,1.565-0.097,2.191c-0.081,1.331-0.229,2.755-0.437,4.274
	c-0.209,1.521-0.605,2.802-1.185,3.844c-0.753,1.372-1.54,2.725-2.374,4.062c-0.834,1.332-1.54,2.496-2.125,3.497
	c-0.29-0.833-0.574-1.738-0.844-2.72c-0.27-0.976-0.509-1.987-0.717-3.029c-0.208-1.037-0.376-2.079-0.503-3.121
	c-0.122-1.042-0.184-2.019-0.184-2.938c0-1.911,0.03-3.955,0.092-6.12c0.061-2.166,0.117-4.362,0.157-6.589
	c0.041-2.227,0.071-4.392,0.092-6.496s0.01-4.052-0.03-5.841c-0.041-0.793-0.102-1.47-0.188-2.028
	c-0.081-0.564-0.198-1.063-0.341-1.5c-0.147-0.437-0.325-0.833-0.533-1.189c-0.209-0.351-0.458-0.717-0.747-1.093
	c-0.463-0.585-0.656-1.205-0.595-1.876c0.061-0.661,0.508-1.393,1.342-2.186c1.001-0.915,1.8-1.434,2.404-1.561
	c0.604-0.122,1.388,0.208,2.344,1.001c0.915,0.747,1.667,1.449,2.247,2.09c0.584,0.65,1.042,1.326,1.377,2.033
	c0.331,0.706,0.56,1.489,0.687,2.344c0.127,0.854,0.188,1.84,0.188,2.963c0.04,1.419,0.061,2.918,0.061,4.499s0,3.167,0,4.748
	c0.585,0,1.194,0,1.846,0c0.641,0,1.255,0.021,1.84,0.061c0.081-2.582,0.157-5.017,0.219-7.31c0.061-2.287,0.051-4.225-0.031-5.806
	c-0.086-1.586-0.238-2.801-0.467-3.654c-0.229-0.854-0.636-1.637-1.221-2.344c-0.666-0.788-0.915-1.479-0.747-2.059
	c0.163-0.585,0.687-1.291,1.561-2.125c0.915-0.874,1.698-1.353,2.344-1.438C123.24,5.23,124.018,5.54,124.938,6.247z"/>
<path d="M179.656,32.142c0,1.459,0,2.969,0,4.529s-0.01,3.096-0.03,4.591c-0.021,1.499-0.041,2.928-0.062,4.28
	c-0.025,1.352-0.056,2.552-0.097,3.594c-0.081,1.413-0.487,2.953-1.215,4.621c-0.731,1.667-1.657,3.228-2.78,4.687
	c0.707,0.041,1.256,0.209,1.652,0.498c0.396,0.29,0.844,0.793,1.347,1.5c0.458,0.625,0.717,1.24,0.778,1.84
	c0.061,0.605-0.031,1.449-0.28,2.531c-0.086,1.043-0.167,2.055-0.249,3.03c-0.086,0.981-0.208,1.86-0.376,2.653
	c-0.249,1.332-0.604,2.425-1.063,3.279c-0.457,0.854-0.936,1.616-1.434,2.282c-0.503,0.666-1.001,1.291-1.499,1.871
	c-0.504,0.584-0.9,1.291-1.189,2.124c-0.29-0.289-0.615-0.696-0.967-1.215c-0.355-0.523-0.701-1.093-1.031-1.718
	c-0.336-0.625-0.625-1.281-0.875-1.968c-0.249-0.691-0.396-1.326-0.437-1.906c-0.087-1.25-0.147-2.323-0.188-3.218
	s-0.086-2.028-0.127-3.405c-0.707,0.086-1.789,0.137-3.248,0.157c-1.454,0.021-3.04,0.03-4.743,0.03c-1.708,0-3.386,0-5.032,0
	c-1.643,0-2.989-0.021-4.026-0.061c-1.332-0.041-2.563-0.27-3.686-0.687s-2.313-1.042-3.563-1.876
	c-0.539-0.33-0.895-0.686-1.063-1.063c-0.162-0.376-0.143-0.976,0.066-1.81c0.081-0.335,0.238-0.737,0.468-1.22
	c0.229-0.478,0.447-0.926,0.655-1.342c0.29-0.539,0.595-0.844,0.905-0.905c0.314-0.061,0.763-0.01,1.342,0.157
	c0.457,0.122,1.032,0.239,1.718,0.341c0.687,0.106,1.398,0.198,2.125,0.28c0.728,0.086,1.47,0.146,2.217,0.188
	c0.752,0.046,1.418,0.066,1.998,0.066c1.291,0,2.729-0.011,4.311-0.036c1.586-0.021,3.188-0.04,4.813-0.061
	c1.622-0.021,3.192-0.051,4.713-0.092c1.52-0.04,2.821-0.106,3.903-0.188c-0.371-0.956-0.803-1.846-1.28-2.654
	c-0.478-0.813-0.818-1.738-1.027-2.78c-0.086-0.336-0.137-0.646-0.157-0.936c-0.021-0.295-0.051-0.604-0.097-0.94l-2.806,0.188
	c-1.088,0.086-1.993-0.041-2.72-0.376c-0.728-0.331-1.449-0.728-2.155-1.185l-0.188-0.127v0.314c-0.081,0.707-0.3,1.302-0.655,1.779
	c-0.356,0.479-0.758,0.945-1.216,1.403c-0.462,0.463-0.909,0.834-1.347,1.128c-0.438,0.29-0.885,0.458-1.342,0.499
	c-0.209,0-0.498-0.062-0.875-0.188c-0.376-0.127-0.747-0.311-1.123-0.564c-0.793,0-1.698,0-2.72,0c-1.017,0-2.059,0-3.121,0
	s-2.125,0.025-3.188,0.066s-2.028,0.081-2.902,0.122c-0.666,0.666-1.312,1.001-1.937,1.001c-0.336,0-0.717-0.097-1.154-0.279
	c-0.438-0.188-0.844-0.438-1.221-0.752c-0.376-0.311-0.696-0.666-0.965-1.063c-0.275-0.392-0.433-0.818-0.474-1.281
	c-0.04-0.209-0.061-0.646-0.061-1.312s0-1.454,0-2.374c0-0.915,0.01-1.901,0.03-2.964s0.041-2.095,0.066-3.096
	c0.021-0.996,0.03-1.911,0.03-2.745s0-1.479,0-1.937c0-0.707-0.03-1.21-0.097-1.5c-0.061-0.29-0.238-0.625-0.528-1.001
	c-0.295-0.371-0.514-0.717-0.656-1.027c-0.147-0.314-0.116-0.655,0.092-1.031c0.127-0.25,0.346-0.509,0.655-0.783
	c0.315-0.27,0.646-0.539,1.002-0.813c0.351-0.27,0.696-0.509,1.032-0.717c0.33-0.208,0.579-0.351,0.747-0.438
	c0.707-0.376,1.469-0.31,2.282,0.188c0.809,0.498,1.505,1.083,2.09,1.749c0.289,0.335,0.584,0.752,0.874,1.25
	s0.478,1.104,0.564,1.81c0,0.168,0.01,0.356,0.03,0.564c0.021,0.209,0.03,0.458,0.03,0.747l3.437-0.188
	c1.251-0.082,2.206,0.147,2.872,0.691c0.666,0.538,1.251,1.225,1.749,2.059c0-0.834,0-1.591,0-2.277c0-0.691-0.021-1.24-0.062-1.657
	c-0.081-1.459-0.457-2.644-1.123-3.563c-0.168-0.203-0.305-0.468-0.406-0.778c-0.107-0.314-0.051-0.696,0.157-1.153
	c0.122-0.209,0.33-0.438,0.625-0.691c0.29-0.249,0.62-0.498,0.996-0.747c0.377-0.249,0.742-0.479,1.094-0.687
	c0.355-0.208,0.655-0.376,0.904-0.503c0.458-0.25,0.874-0.29,1.251-0.122c0.376,0.167,0.706,0.355,1.001,0.559
	c0.666,0.544,1.251,1.042,1.749,1.5c0.498,0.463,0.904,0.95,1.215,1.469c0.315,0.523,0.554,1.104,0.722,1.749
	c0.163,0.646,0.249,1.429,0.249,2.344c0.122-0.041,0.33-0.062,0.625-0.062l6.995-0.376c0-0.249,0.011-0.498,0.03-0.747
	c0.021-0.255,0.031-0.504,0.031-0.753c0.04-0.666,0.056-1.22,0.03-1.657c-0.021-0.437-0.092-0.839-0.219-1.215
	c-0.122-0.376-0.29-0.752-0.498-1.123c-0.208-0.376-0.498-0.834-0.874-1.378c-0.458-0.706-0.717-1.215-0.778-1.53
	c-0.066-0.31,0.092-0.696,0.468-1.153c0.122-0.127,0.29-0.3,0.498-0.534c0.209-0.224,0.438-0.442,0.687-0.655
	c0.249-0.204,0.488-0.402,0.717-0.59c0.229-0.188,0.406-0.325,0.533-0.407c0.707-0.376,1.221-0.574,1.53-0.595
	c0.311-0.02,0.783,0.198,1.403,0.656c0.874,0.625,1.565,1.169,2.063,1.627c0.498,0.457,0.977,0.996,1.439,1.621
	c0.665,0.834,1.103,1.759,1.311,2.781C179.555,29.387,179.656,30.643,179.656,32.142z M147.051,47.26
	c1.205,0,2.547,0.011,4.026,0.03c1.479,0.021,2.761-0.01,3.843-0.091c0-0.961,0.011-1.968,0.031-3.03
	c0.02-1.063,0.03-2.094,0.03-3.091c-0.458,0.458-1.154,0.885-2.09,1.276c-0.94,0.396-1.804,0.636-2.592,0.722
	c-0.295,0-0.732,0-1.312,0c-0.585,0-1.23-0.021-1.938-0.066C147.133,44.678,147.133,46.096,147.051,47.26z M165.977,44.139
	c0.539-0.041,1.24-0.076,2.095-0.097c0.849-0.021,1.718-0.03,2.593-0.03c0-0.417,0.01-0.834,0.03-1.251
	c0.021-0.411,0.03-0.849,0.03-1.312c-0.498,0.046-1.021,0.066-1.561,0.066c-0.544,0-1.083,0-1.627,0
	c-0.706-0.041-1.434-0.219-2.186-0.534c-0.747-0.31-1.459-0.696-2.125-1.153c0,0.747-0.01,1.51-0.03,2.277
	c-0.021,0.772-0.03,1.53-0.03,2.282c0.538-0.086,1.063-0.147,1.561-0.188C165.229,44.159,165.642,44.139,165.977,44.139z"/>
<path fill="#7D7D7D" d="M201.449,34.317c-0.747,0.29-1.729,0.336-2.934,0.122c-3.086-0.457-5.403-1.622-6.969-3.497
	c-1.561-1.871-2.339-4.225-2.339-7.056c0-1.21,0.259-2.405,0.778-3.595c0.523-1.185,1.22-2.287,2.094-3.31
	c0.875-1.021,1.86-1.896,2.969-2.623c1.104-0.727,2.217-1.22,3.34-1.469c0.209-0.457,0.549-0.788,1.032-0.996
	c0.478-0.209,0.925-0.355,1.342-0.442c0.376-0.041,0.804-0.041,1.281,0c0.478,0.046,0.966,0.117,1.469,0.224
	c0.498,0.102,0.986,0.239,1.464,0.401c0.479,0.168,0.885,0.315,1.221,0.438c1.25,0.503,2.404,1.108,3.467,1.814
	c1.063,0.707,1.987,1.54,2.78,2.496c0.788,0.961,1.403,2.074,1.841,3.345c0.437,1.271,0.635,2.735,0.594,4.402
	c-0.04,1.373-0.386,2.644-1.031,3.813c-0.646,1.164-1.489,2.176-2.526,3.03c-1.042,0.854-2.242,1.53-3.595,2.028
	c-1.352,0.498-2.739,0.793-4.152,0.874c-0.377,0.041-0.742,0.051-1.094,0.03C202.125,34.328,201.784,34.317,201.449,34.317z
	 M232.184,56.369c0.706,0.707,0.915,1.302,0.625,1.779c-0.295,0.479-0.752,0.986-1.377,1.53c-0.707,0.625-1.383,1.104-2.029,1.434
	c-0.646,0.335-1.301,0.585-1.967,0.752c-0.666,0.168-1.388,0.27-2.155,0.311c-0.772,0.041-1.637,0.066-2.593,0.066
	c-0.457,0-1.321-0.011-2.593-0.036c-1.271-0.021-2.633-0.041-4.092-0.061c-1.459-0.021-2.842-0.051-4.153-0.092
	s-2.236-0.066-2.78-0.066c-0.834-0.04-1.561-0.091-2.187-0.152c-0.625-0.066-1.184-0.188-1.688-0.376
	c-0.498-0.188-0.976-0.468-1.434-0.844c-0.457-0.376-0.94-0.895-1.438-1.561c-0.956-1.21-1.749-2.374-2.374-3.498
	c-0.625-1.123-1.25-2.124-1.871-2.999c-0.335-0.457-0.782-0.813-1.347-1.063c-0.56-0.249-1.134-0.559-1.718-0.936
	c-0.498-0.335-0.834-0.686-0.997-1.063c-0.208-0.457-0.305-0.914-0.279-1.372c0.021-0.457,0.193-0.854,0.528-1.189
	c0.331-0.33,0.824-0.636,1.47-0.905s1.302-0.508,1.967-0.717c0.788-0.254,1.454-0.437,1.998-0.563
	c0.539-0.128,1.002-0.188,1.372-0.188c0.377,0,0.712,0.097,1.002,0.279c0.29,0.188,0.564,0.493,0.813,0.91l0.061,0.062
	c0.915,0.04,2.095,0.051,3.528,0.03c1.438-0.021,2.938-0.041,4.499-0.062s3.07-0.051,4.529-0.097
	c1.459-0.04,2.684-0.061,3.686-0.061L219.313,43c-1.332-0.041-2.775-0.081-4.342-0.127c-1.561-0.041-3.121-0.062-4.682-0.062
	s-3.07,0-4.529,0s-2.75,0-3.874,0c-0.416,0-0.772-0.01-1.062-0.03c-0.29-0.021-0.585-0.071-0.875-0.157
	c-0.289-0.081-0.595-0.209-0.904-0.376c-0.311-0.163-0.697-0.412-1.154-0.748c-0.463-0.33-0.854-0.666-1.189-1.001
	c-0.33-0.33-0.519-0.687-0.56-1.058c-0.046-0.376-0.01-0.752,0.092-1.128c0.102-0.371,0.366-0.788,0.783-1.246
	c0.289-0.335,0.559-0.564,0.808-0.691c0.254-0.122,0.514-0.183,0.783-0.183s0.574,0.051,0.904,0.152
	c0.336,0.106,0.773,0.219,1.313,0.346c1.164,0.249,2.46,0.438,3.873,0.56c1.83,0.167,3.635,0.218,5.403,0.157
	c1.77-0.061,3.36-0.112,4.778-0.157c0.499,0,1.124-0.021,1.876-0.062c0.747-0.041,1.521-0.092,2.309-0.157
	c0.793-0.062,1.565-0.122,2.313-0.184c0.747-0.065,1.393-0.116,1.937-0.157c-0.625-1.164-1.209-2.435-1.748-3.813
	c-0.544-1.373-0.732-3.04-0.564-4.997c0.041-0.788,0.086-1.729,0.127-2.812c0.041-1.082,0.081-2.176,0.122-3.278
	c0.041-1.104,0.076-2.155,0.097-3.151c0.021-1.002,0.051-1.815,0.092-2.44c0.04-0.666,0.065-1.226,0.065-1.683
	c0-0.458-0.056-0.875-0.157-1.251c-0.107-0.376-0.26-0.763-0.468-1.153c-0.208-0.396-0.483-0.844-0.813-1.348
	c-0.457-0.706-0.707-1.215-0.752-1.53c-0.041-0.31,0.106-0.696,0.442-1.153c0.122-0.127,0.31-0.3,0.559-0.534
	c0.249-0.224,0.519-0.457,0.813-0.687c0.29-0.229,0.56-0.427,0.813-0.589c0.249-0.168,0.438-0.295,0.56-0.377
	c0.706-0.376,1.22-0.574,1.529-0.595c0.315-0.02,0.783,0.198,1.408,0.656c0.875,0.625,1.49,1.169,1.841,1.627
	c0.355,0.457,0.762,0.996,1.22,1.621c0.666,0.834,1.134,1.759,1.403,2.781c0.269,1.021,0.365,2.277,0.284,3.776
	c-0.086,1.962-0.117,4.031-0.097,6.217c0.021,2.187-0.051,4.342-0.219,6.467c-0.081,1.332-0.468,2.811-1.153,4.433
	c-0.687,1.627-1.571,3.126-2.654,4.499c0.956,0.544,1.724,1.185,2.309,1.937c0.208,0.29,0.438,0.604,0.686,0.936
	c0.255,0.335,0.377,0.646,0.377,0.94c0,0.457-0.27,1.123-0.813,1.998c-0.081,0.208-0.229,0.625-0.438,1.25
	c-0.208,0.62-0.427,1.276-0.655,1.968c-0.229,0.686-0.438,1.321-0.626,1.9c-0.183,0.585-0.3,0.94-0.34,1.063
	c-0.249,0.793-0.773,1.281-1.561,1.47c-0.794,0.188-1.541,0.305-2.252,0.346c-0.209,0-0.717,0-1.53,0
	c-0.809,0-1.719-0.011-2.715-0.03c-1.002-0.026-1.998-0.057-2.999-0.097c-1.002-0.041-1.77-0.082-2.313-0.122
	c-0.625-0.046-1.57-0.066-2.842-0.066c-1.271,0-2.693-0.021-4.279-0.061l1.377,1.937c0.625,0.747,1.281,1.194,1.968,1.342
	c0.686,0.147,1.443,0.259,2.277,0.346c0.376,0.041,1.021,0.081,1.937,0.122s1.906,0.071,2.969,0.097
	c1.063,0.021,2.104,0.03,3.121,0.03c1.021,0,1.846,0,2.471,0c0.666,0,1.413-0.061,2.247-0.188c0.833-0.128,1.581-0.27,2.247-0.438
	s1.229-0.229,1.688-0.188c0.457,0.041,0.885,0.168,1.281,0.376c0.396,0.209,0.793,0.488,1.189,0.844
	C231.232,55.439,231.686,55.866,232.184,56.369z M197.204,23.698c0,1.418,0.351,2.455,1.058,3.121
	c0.712,0.666,1.627,1.104,2.75,1.312c0.666,0,1.373-0.122,2.125-0.371c0.956-0.336,1.77-0.915,2.435-1.749
	c0.666-0.833,0.981-1.728,0.936-2.688c-0.04-0.956-0.498-1.779-1.372-2.466c-0.875-0.687-1.79-1.199-2.75-1.53
	c-0.29-0.086-0.55-0.178-0.778-0.284c-0.229-0.102-0.427-0.26-0.595-0.468c-0.498,0.127-0.991,0.396-1.469,0.813
	c-0.479,0.417-0.885,0.874-1.215,1.372c-0.336,0.504-0.605,1.012-0.813,1.53C197.306,22.813,197.204,23.281,197.204,23.698z"/>
<path fill="#7D7D7D" d="M234.369,59.201c1.789-0.458,3.508-1.104,5.149-1.938c1.647-0.833,3.137-1.855,4.469-3.06
	c2.75-2.501,5.165-5.226,7.244-8.185c2.084-2.959,3.726-6.06,4.936-9.308c-0.666,0.04-1.372,0.086-2.125,0.127
	c-0.747,0.041-1.499,0.071-2.247,0.092c-0.747,0.021-1.469,0.03-2.155,0.03c-0.686,0-1.28,0-1.778,0
	c-0.585-0.041-1.113-0.102-1.592-0.188c-0.482-0.081-0.991-0.249-1.535-0.498c-0.412-0.208-0.854-0.488-1.312-0.844
	c-0.457-0.351-0.895-0.727-1.312-1.123s-0.768-0.793-1.063-1.189c-0.289-0.392-0.498-0.737-0.62-1.027
	c-0.168-0.376-0.106-0.752,0.183-1.123c0.336-0.417,0.854-0.885,1.566-1.408c0.706-0.519,1.225-0.823,1.561-0.905
	c0.33-0.081,0.655-0.071,0.966,0.03c0.315,0.107,0.655,0.239,1.032,0.407c0.335,0.122,0.717,0.208,1.153,0.249
	c0.438,0.041,0.823,0.061,1.159,0.061c0.625,0,1.443-0.03,2.466-0.091c1.021-0.062,2.063-0.127,3.126-0.188
	c1.058-0.061,2.059-0.127,2.994-0.188c0.94-0.061,1.657-0.111,2.155-0.157c0.585-0.081,1.169-0.219,1.749-0.401
	c0.584-0.188,1.169-0.239,1.748-0.157c0.585,0.081,1.139,0.279,1.658,0.595c0.518,0.31,0.971,0.635,1.342,0.966
	c1.001,0.874,1.54,1.769,1.627,2.684c0.04,0.625-0.066,1.129-0.315,1.5c-0.249,0.376-0.438,0.793-0.56,1.25
	c-0.625,2.125-1.377,4.26-2.252,6.405c-0.874,2.146-1.86,4.225-2.964,6.242c-1.108,2.023-2.313,3.95-3.624,5.78
	c-1.312,1.835-2.72,3.497-4.215,4.997c-1.25,1.25-2.5,2.114-3.751,2.593c-1.251,0.478-2.521,0.803-3.808,0.971
	c-0.712,0.081-1.337,0.092-1.876,0.03c-0.544-0.066-1.042-0.178-1.499-0.346c-0.458-0.168-0.895-0.376-1.312-0.625
	s-0.875-0.539-1.373-0.874c-0.503-0.29-0.981-0.509-1.438-0.656c-0.457-0.143-0.895-0.239-1.312-0.279
	c-0.417-0.041-0.813-0.071-1.185-0.097C235.056,59.333,234.7,59.282,234.369,59.201z M276.013,82.701
	c-0.437-0.34-0.813-0.914-1.128-1.723c-0.326-0.809-0.569-1.749-0.737-2.821c-0.173-1.078-0.32-2.263-0.442-3.554
	c-0.122-1.296-0.209-2.648-0.254-4.071c-0.143-3.076-0.198-6.507-0.143-10.294c0.046-3.787,0.143-7.626,0.29-11.504
	c0.142-3.889,0.269-7.702,0.36-11.438c0.097-3.741,0.097-7.07,0-10.004c0-0.731-0.046-1.312-0.137-1.718
	c-0.107-0.422-0.239-0.788-0.412-1.108c-0.173-0.311-0.361-0.631-0.579-0.945c-0.219-0.325-0.458-0.696-0.696-1.144
	c-0.346-0.58-0.59-1.012-0.732-1.276c-0.152-0.274-0.152-0.625,0-1.063c0.143-0.488,0.447-0.936,0.915-1.321
	c0.462-0.392,0.991-0.732,1.575-1.027c0.585-0.3,1.21-0.523,1.866-0.696c0.661-0.173,1.281-0.279,1.87-0.325
	c1.073-0.102,1.907,0.143,2.486,0.722c0.641,0.641,1.266,1.286,1.876,1.952c0.61,0.661,1.088,1.301,1.423,1.941
	c0.341,0.636,0.574,1.235,0.702,1.795c0.116,0.564,0.188,1.21,0.188,1.941c0.046,2.15,0.066,4.529,0.066,7.143
	c0,2.618,0,5.302,0,8.063c0,2.766-0.011,5.525-0.036,8.286c-0.02,2.76-0.045,5.327-0.07,7.696c-0.031,2.368-0.066,4.483-0.112,6.339
	c-0.051,1.855-0.097,3.278-0.143,4.255c-0.056,0.681-0.208,1.646-0.478,2.893c-0.27,1.245-0.803,2.425-1.581,3.553
	c-1.413,1.855-2.734,3.579-3.955,5.165C276.775,79.997,276.109,81.431,276.013,82.701z"/>
<g>
	<path fill="#939393" d="M203.7,76.521c0.104,0.139,0.171,0.25,0.198,0.333s0.007,0.208-0.063,0.375
		c-0.056,0.118-0.123,0.21-0.203,0.275c-0.08,0.066-0.182,0.089-0.307,0.067c-0.153-0.027-0.319-0.048-0.5-0.062
		c-0.181-0.015-0.348-0.021-0.5-0.021l-0.031,0.136c-0.041,0.159-0.119,0.357-0.234,0.593c-0.114,0.236-0.251,0.448-0.411,0.636
		c0.277,0.188,0.493,0.432,0.646,0.733s0.223,0.645,0.208,1.025c-0.014,0.278-0.085,0.526-0.213,0.745
		c-0.129,0.219-0.304,0.4-0.525,0.546c-0.223,0.146-0.481,0.257-0.776,0.333c-0.295,0.077-0.612,0.115-0.952,0.115
		c-0.326,0-0.647-0.044-0.963-0.131c-0.316-0.086-0.596-0.21-0.838-0.369c-0.133-0.042-0.25-0.109-0.354-0.203
		s-0.194-0.197-0.271-0.313c-0.076-0.114-0.138-0.239-0.183-0.374c-0.045-0.136-0.071-0.266-0.078-0.391
		c-0.027-0.299,0.026-0.565,0.162-0.802c0.135-0.236,0.326-0.438,0.572-0.604c0.246-0.167,0.536-0.301,0.869-0.401
		s0.684-0.168,1.052-0.203c0.056-0.034,0.119-0.057,0.192-0.067s0.134-0.016,0.183-0.016c0.284,0,0.541,0.042,0.771,0.125
		c-0.07-0.16-0.124-0.319-0.162-0.479c-0.038-0.159-0.067-0.325-0.088-0.499c-0.091,0.049-0.2,0.096-0.328,0.141
		c-0.129,0.045-0.262,0.087-0.401,0.125c-0.139,0.038-0.279,0.069-0.421,0.094c-0.143,0.024-0.276,0.043-0.401,0.057
		c-0.139,0.015-0.329,0.031-0.572,0.053c-0.243,0.021-0.5,0.038-0.771,0.052s-0.531,0.019-0.781,0.016
		c-0.249-0.004-0.443-0.022-0.583-0.058c-0.159-0.034-0.275-0.099-0.349-0.192c-0.072-0.094-0.116-0.237-0.13-0.432
		c-0.007-0.243,0.052-0.403,0.177-0.479c0-0.229-0.005-0.48-0.016-0.755c-0.01-0.273-0.022-0.515-0.036-0.724
		c-0.098-0.063-0.149-0.135-0.156-0.219c-0.021-0.159-0.021-0.32,0-0.483s0.076-0.297,0.167-0.401
		c0.117-0.139,0.246-0.188,0.385-0.146c0.174,0.049,0.409,0.073,0.708,0.073c0.09,0,0.214-0.002,0.369-0.006
		c0.156-0.003,0.321-0.009,0.495-0.016c0.173-0.007,0.344-0.017,0.51-0.031c0.167-0.014,0.306-0.031,0.417-0.052
		c0.146-0.027,0.272-0.026,0.38,0.005s0.21,0.106,0.307,0.225c0.028,0.034,0.06,0.079,0.094,0.135
		c0.035,0.056,0.068,0.114,0.1,0.177c0.03,0.063,0.057,0.124,0.077,0.183c0.021,0.059,0.035,0.109,0.042,0.151
		c0.007,0.056-0.007,0.11-0.042,0.166c-0.034,0.056-0.081,0.104-0.14,0.146c-0.06,0.042-0.124,0.075-0.193,0.1
		s-0.135,0.036-0.197,0.036c-0.236-0.014-0.518-0.021-0.844-0.021s-0.648,0.003-0.968,0.01c0.007,0.202,0.012,0.424,0.016,0.667
		c0.003,0.242-0.002,0.465-0.016,0.666c0.284-0.014,0.568-0.026,0.854-0.036c0.284-0.011,0.541-0.022,0.771-0.037
		c0.222-0.014,0.465-0.027,0.729-0.041c0.264-0.015,0.5-0.038,0.708-0.073c0-0.132,0.004-0.284,0.011-0.458s0.016-0.351,0.025-0.531
		c0.011-0.181,0.021-0.36,0.031-0.541c0.011-0.181,0.02-0.344,0.026-0.489c0.007-0.111,0.009-0.203,0.005-0.276
		c-0.003-0.072-0.016-0.141-0.036-0.203s-0.049-0.125-0.083-0.188c-0.035-0.062-0.084-0.139-0.146-0.229
		c-0.076-0.118-0.119-0.203-0.13-0.255c-0.01-0.053,0.016-0.116,0.078-0.192c0.021-0.021,0.052-0.051,0.094-0.089
		s0.087-0.074,0.136-0.109c0.048-0.034,0.094-0.067,0.135-0.099c0.042-0.031,0.073-0.054,0.094-0.068
		c0.118-0.063,0.203-0.095,0.255-0.099c0.053-0.003,0.131,0.033,0.234,0.109c0.146,0.104,0.262,0.194,0.349,0.271
		c0.087,0.077,0.169,0.167,0.245,0.271c0.111,0.14,0.188,0.294,0.229,0.464c0.041,0.17,0.059,0.38,0.052,0.63
		c-0.007,0.229-0.013,0.469-0.016,0.718c-0.004,0.25-0.013,0.497-0.026,0.739c0.007,0,0.011-0.001,0.011-0.005
		s0.003-0.005,0.01-0.005c0.098-0.063,0.207-0.089,0.328-0.078c0.122,0.01,0.239,0.04,0.354,0.088
		c0.114,0.049,0.224,0.115,0.328,0.198C203.555,76.354,203.638,76.438,203.7,76.521z M200.016,81.081
		c0.131,0,0.26-0.011,0.385-0.031s0.237-0.056,0.338-0.104c0.101-0.049,0.181-0.111,0.24-0.188c0.059-0.076,0.088-0.174,0.088-0.292
		c0-0.243-0.088-0.427-0.266-0.552c-0.177-0.125-0.39-0.235-0.64-0.333c-0.139,0.007-0.286,0.033-0.442,0.078
		s-0.301,0.103-0.433,0.172s-0.241,0.149-0.328,0.239c-0.086,0.091-0.133,0.184-0.14,0.281c-0.015,0.188,0.059,0.361,0.218,0.521
		c0.118,0.069,0.27,0.12,0.453,0.151C199.673,81.055,199.849,81.074,200.016,81.081z"/>
	<path fill="#939393" d="M207.032,77.323c-0.236,0.374-0.452,0.659-0.646,0.854c-0.236,0.222-0.486,0.366-0.75,0.432
		c-0.264,0.066-0.541,0.085-0.833,0.058c-0.34-0.027-0.694-0.17-1.062-0.427c0.159-0.007,0.311-0.054,0.452-0.141
		c0.143-0.087,0.27-0.179,0.381-0.276c0.18-0.159,0.357-0.333,0.53-0.521c0.174-0.188,0.337-0.381,0.489-0.583
		c0.153-0.201,0.29-0.404,0.411-0.608c0.122-0.205,0.218-0.408,0.287-0.609c0.055-0.146,0.081-0.253,0.078-0.323
		c-0.004-0.068-0.04-0.146-0.109-0.229c-0.056-0.076-0.091-0.136-0.104-0.177c-0.014-0.042-0.014-0.094,0-0.156
		c0.021-0.076,0.071-0.163,0.151-0.261c0.079-0.097,0.157-0.173,0.233-0.229c0.069-0.056,0.131-0.085,0.183-0.089
		c0.052-0.003,0.127,0.013,0.224,0.047c0.111,0.042,0.226,0.096,0.344,0.161c0.118,0.066,0.236,0.151,0.354,0.256
		c0.277,0.257,0.343,0.628,0.197,1.113c-0.027,0.091-0.059,0.183-0.094,0.276s-0.072,0.188-0.114,0.286
		c0.097,0.063,0.21,0.137,0.338,0.224c0.129,0.087,0.256,0.176,0.38,0.266c0.125,0.09,0.238,0.176,0.339,0.255
		c0.101,0.08,0.175,0.145,0.224,0.192c0.167,0.167,0.266,0.327,0.297,0.479s0.029,0.322-0.005,0.51
		c-0.042,0.208-0.124,0.349-0.245,0.422s-0.283,0.092-0.484,0.058c-0.215-0.035-0.394-0.098-0.536-0.188
		c-0.142-0.091-0.275-0.216-0.4-0.375c-0.063-0.076-0.139-0.177-0.229-0.302C207.223,77.594,207.129,77.462,207.032,77.323z
		 M211.487,80.998c0.118,0.159,0.139,0.304,0.063,0.432c-0.076,0.129-0.232,0.266-0.468,0.411c-0.084,0.056-0.174,0.101-0.271,0.136
		c-0.097,0.034-0.204,0.056-0.322,0.063c-0.132,0.007-0.301,0.012-0.505,0.016c-0.205,0.003-0.422,0.007-0.65,0.011
		c-0.229,0.003-0.457,0.005-0.683,0.005s-0.425-0.007-0.599-0.021c-0.173-0.008-0.319-0.023-0.437-0.047
		c-0.118-0.024-0.223-0.058-0.313-0.1c-0.091-0.041-0.172-0.097-0.245-0.166c-0.072-0.069-0.15-0.156-0.234-0.261
		c-0.139-0.173-0.298-0.378-0.479-0.614c-0.181-0.235-0.348-0.447-0.5-0.635c-0.034-0.042-0.074-0.078-0.119-0.109
		c-0.046-0.031-0.093-0.064-0.141-0.099c-0.049-0.035-0.094-0.071-0.136-0.109s-0.073-0.082-0.094-0.13
		c-0.027-0.063-0.029-0.131-0.005-0.203c0.024-0.073,0.063-0.134,0.119-0.183c0.104-0.097,0.231-0.175,0.381-0.234
		c0.148-0.059,0.293-0.095,0.432-0.109c0.118-0.014,0.219-0.014,0.302,0c0.083,0.015,0.163,0.066,0.239,0.156
		c0.042,0.049,0.103,0.122,0.183,0.219c0.08,0.098,0.166,0.199,0.26,0.308c0.094,0.107,0.188,0.217,0.281,0.327
		c0.094,0.111,0.176,0.202,0.245,0.271c0.104,0.118,0.203,0.194,0.297,0.229c0.094,0.035,0.22,0.06,0.38,0.073
		c0.097,0.007,0.215,0.012,0.354,0.016c0.139,0.003,0.281,0.003,0.427,0c0.146-0.004,0.29-0.013,0.433-0.026
		c0.142-0.014,0.269-0.038,0.38-0.073c0.201-0.055,0.355-0.094,0.463-0.114s0.21-0.014,0.308,0.021
		c0.048,0.015,0.104,0.044,0.166,0.089s0.125,0.094,0.188,0.146c0.063,0.053,0.121,0.106,0.177,0.162
		C211.418,80.907,211.46,80.956,211.487,80.998z M209.854,74.679c0-0.111-0.002-0.203-0.006-0.276
		c-0.003-0.072-0.014-0.141-0.031-0.203s-0.043-0.125-0.078-0.188c-0.034-0.062-0.083-0.139-0.146-0.229
		c-0.104-0.152-0.143-0.271-0.114-0.354c0.027-0.083,0.114-0.184,0.26-0.302c0.139-0.117,0.256-0.195,0.349-0.234
		c0.094-0.038,0.21-0.008,0.35,0.089c0.146,0.104,0.26,0.194,0.343,0.271c0.084,0.077,0.163,0.167,0.24,0.271
		c0.11,0.14,0.184,0.294,0.218,0.464c0.035,0.17,0.053,0.38,0.053,0.63c0,0.271,0,0.572,0,0.905s-0.002,0.667-0.006,1
		c-0.003,0.333-0.007,0.646-0.01,0.937c-0.004,0.292-0.009,0.524-0.016,0.697c-0.007,0.146-0.037,0.303-0.089,0.469
		c-0.052,0.167-0.119,0.332-0.203,0.495c-0.083,0.163-0.181,0.32-0.291,0.474c-0.111,0.152-0.229,0.291-0.354,0.416
		c-0.014-0.111-0.043-0.215-0.088-0.313c-0.046-0.097-0.094-0.192-0.146-0.286c-0.052-0.094-0.102-0.188-0.15-0.286
		s-0.083-0.201-0.104-0.313c-0.034-0.181-0.059-0.369-0.072-0.567c-0.015-0.197-0.018-0.397-0.011-0.599
		c0.007-0.139,0.016-0.333,0.026-0.583c0.01-0.25,0.021-0.517,0.031-0.802c0.01-0.284,0.021-0.567,0.031-0.849
		C209.848,75.132,209.854,74.887,209.854,74.679z"/>
	<path fill="#939393" d="M213.653,78.646c-0.098,0.014-0.186-0.009-0.266-0.068c-0.08-0.059-0.152-0.137-0.219-0.234
		c-0.066-0.097-0.12-0.204-0.161-0.322c-0.042-0.118-0.066-0.229-0.073-0.333c-0.014-0.111-0.025-0.259-0.036-0.442
		c-0.011-0.185-0.021-0.371-0.031-0.563c-0.011-0.19-0.022-0.373-0.036-0.547c-0.015-0.173-0.028-0.309-0.042-0.405
		c-0.014-0.084-0.026-0.172-0.036-0.266c-0.011-0.094-0.037-0.162-0.078-0.203c-0.021-0.021-0.04-0.044-0.058-0.068
		c-0.018-0.023-0.026-0.053-0.026-0.088c0-0.076,0.026-0.156,0.078-0.239c0.053-0.084,0.106-0.16,0.162-0.229
		c0.083-0.097,0.182-0.173,0.296-0.229c0.115-0.056,0.241-0.073,0.381-0.053c0.09,0.015,0.166,0.037,0.229,0.068
		s0.118,0.074,0.167,0.13c0.277-0.021,0.572-0.035,0.885-0.042s0.6-0.003,0.864,0.011c0.083-0.035,0.194-0.059,0.333-0.073
		c0.083-0.007,0.179-0.005,0.286,0.006c0.107,0.01,0.21,0.032,0.307,0.067c0.098,0.035,0.183,0.08,0.256,0.135
		c0.072,0.056,0.116,0.122,0.13,0.198c0.014,0.09,0.009,0.177-0.016,0.261c-0.024,0.083-0.054,0.152-0.089,0.208
		c-0.007,0.027-0.019,0.134-0.036,0.317s-0.036,0.396-0.058,0.635c-0.021,0.239-0.041,0.482-0.063,0.729
		c-0.021,0.247-0.038,0.443-0.052,0.589c0.056,0.056,0.083,0.121,0.083,0.197c0.007,0.209-0.059,0.386-0.197,0.531
		s-0.319,0.219-0.542,0.219c-0.083,0-0.215,0-0.396,0s-0.374,0-0.583,0c-0.208,0-0.418,0.002-0.63,0.005
		c-0.211,0.004-0.394,0.009-0.546,0.016C213.771,78.61,213.709,78.639,213.653,78.646z M219.473,80.571
		c0.076,0.069,0.147,0.15,0.214,0.244c0.065,0.094,0.119,0.186,0.161,0.276c0.069,0.146,0.089,0.257,0.058,0.333
		s-0.1,0.159-0.203,0.25c-0.125,0.104-0.239,0.184-0.344,0.239s-0.21,0.097-0.317,0.125c-0.108,0.027-0.224,0.045-0.349,0.052
		s-0.268,0.014-0.427,0.021c-0.077,0-0.203,0-0.381,0c-0.177,0-0.366-0.004-0.567-0.011s-0.396-0.013-0.583-0.016
		c-0.188-0.004-0.326-0.009-0.416-0.016c-0.139-0.007-0.259-0.02-0.359-0.036c-0.101-0.018-0.192-0.046-0.275-0.084
		c-0.084-0.038-0.163-0.088-0.24-0.15c-0.076-0.063-0.159-0.143-0.249-0.239c-0.167-0.181-0.335-0.363-0.505-0.547
		c-0.171-0.185-0.304-0.331-0.401-0.442c-0.076-0.076-0.158-0.154-0.244-0.234c-0.087-0.08-0.176-0.141-0.266-0.183
		c-0.077-0.034-0.14-0.081-0.188-0.141c-0.049-0.059-0.073-0.137-0.073-0.233c0-0.118,0.035-0.207,0.104-0.266
		c0.069-0.06,0.184-0.116,0.344-0.172c0.117-0.042,0.242-0.078,0.374-0.109s0.24-0.054,0.323-0.067
		c0.243-0.035,0.42,0.014,0.531,0.146c0.159,0.188,0.313,0.371,0.463,0.552s0.297,0.344,0.442,0.489
		c0.118,0.118,0.224,0.192,0.317,0.224s0.21,0.054,0.349,0.067c0.063,0.008,0.151,0.013,0.266,0.016
		c0.114,0.004,0.236,0.006,0.364,0.006c0.129,0,0.259,0,0.391,0s0.25-0.004,0.354-0.011c0.11-0.007,0.239-0.021,0.385-0.042
		c0.146-0.021,0.268-0.052,0.364-0.094c0.09-0.034,0.161-0.059,0.214-0.072c0.052-0.014,0.099-0.02,0.141-0.016
		c0.041,0.004,0.078,0.018,0.109,0.041C219.385,80.496,219.424,80.529,219.473,80.571z M215.465,75.688
		c-0.201,0-0.424,0.004-0.667,0.011c-0.242,0.007-0.458,0.017-0.645,0.031l0.052,1.634c0.208,0,0.427,0,0.655,0
		c0.229,0,0.431-0.003,0.604-0.01V75.688z M220.129,76.386c0.056,0.049,0.118,0.106,0.188,0.172
		c0.069,0.066,0.133,0.134,0.192,0.203c0.059,0.069,0.107,0.137,0.146,0.203c0.038,0.065,0.058,0.123,0.058,0.172
		c0,0.166-0.096,0.298-0.286,0.396c-0.191,0.097-0.404,0.149-0.641,0.156c-0.076,0.007-0.165,0.01-0.266,0.01s-0.199,0-0.297,0
		l-0.031,0.344c-0.014,0.139-0.047,0.288-0.099,0.448c-0.052,0.159-0.12,0.319-0.203,0.479c-0.083,0.16-0.179,0.315-0.286,0.469
		c-0.107,0.152-0.224,0.291-0.349,0.416c-0.229-0.313-0.379-0.664-0.448-1.057c-0.069-0.392-0.11-0.813-0.124-1.265
		c0-0.132,0.001-0.326,0.005-0.583c0.003-0.257,0.011-0.527,0.021-0.813c0.011-0.284,0.022-0.559,0.036-0.822
		c0.015-0.264,0.024-0.476,0.031-0.635c0.007-0.111,0.009-0.203,0.006-0.276c-0.004-0.072-0.016-0.141-0.037-0.203
		c-0.021-0.063-0.048-0.125-0.083-0.188c-0.034-0.062-0.083-0.139-0.146-0.229c-0.076-0.118-0.12-0.203-0.13-0.255
		c-0.011-0.053,0.016-0.116,0.078-0.192c0.021-0.021,0.052-0.051,0.094-0.089c0.041-0.038,0.086-0.074,0.135-0.109
		c0.049-0.034,0.094-0.067,0.136-0.099c0.041-0.031,0.072-0.054,0.094-0.068c0.117-0.063,0.203-0.095,0.255-0.099
		c0.052-0.003,0.13,0.033,0.234,0.109c0.146,0.104,0.262,0.194,0.349,0.271c0.087,0.077,0.168,0.167,0.244,0.271
		c0.111,0.14,0.188,0.294,0.229,0.464s0.059,0.38,0.052,0.63l-0.021,1.635c0.042-0.015,0.081-0.022,0.12-0.026
		c0.038-0.004,0.074-0.012,0.108-0.026c0.14-0.034,0.261-0.027,0.365,0.021C219.962,76.268,220.053,76.323,220.129,76.386z"/>
	<path fill="#939393" d="M228.333,76.834c0.139,0.069,0.248,0.139,0.328,0.208c0.079,0.069,0.137,0.135,0.172,0.197
		c0.034,0.063,0.054,0.118,0.057,0.167c0.004,0.049,0.002,0.083-0.005,0.104c-0.021,0.041-0.066,0.088-0.136,0.14
		c-0.069,0.053-0.147,0.102-0.233,0.146c-0.087,0.045-0.172,0.081-0.256,0.109c-0.083,0.027-0.149,0.038-0.197,0.031
		c-0.083-0.015-0.214-0.028-0.391-0.042s-0.338-0.021-0.484-0.021c-0.125,0-0.324,0.005-0.599,0.016
		c-0.274,0.01-0.588,0.021-0.941,0.031c-0.354,0.01-0.728,0.024-1.12,0.041c-0.392,0.018-0.769,0.031-1.129,0.042
		c-0.361,0.011-0.689,0.021-0.984,0.031s-0.515,0.016-0.661,0.016c-0.235,0-0.434-0.052-0.593-0.156
		c-0.16-0.104-0.268-0.236-0.323-0.396c-0.021-0.063-0.025-0.127-0.016-0.192c0.011-0.066,0.033-0.131,0.068-0.193
		c0.076-0.139,0.17-0.253,0.28-0.343c0.111-0.084,0.219-0.108,0.323-0.073c0.097,0.035,0.184,0.064,0.26,0.089
		c0.077,0.024,0.198,0.029,0.365,0.016c0.083-0.007,0.237-0.015,0.463-0.021s0.487-0.014,0.786-0.021
		c0.298-0.007,0.615-0.016,0.952-0.026c0.337-0.01,0.656-0.021,0.958-0.031c0.302-0.01,0.571-0.021,0.807-0.031
		c0.236-0.01,0.406-0.019,0.511-0.025c0.374-0.028,0.693-0.037,0.957-0.026S228.076,76.702,228.333,76.834z M227.219,81.05
		c0.111,0.063,0.223,0.141,0.333,0.234c0.111,0.094,0.16,0.21,0.146,0.349c-0.015,0.083-0.038,0.168-0.073,0.255
		s-0.09,0.158-0.167,0.214c-0.076,0.063-0.142,0.111-0.197,0.146c-0.056,0.035-0.113,0.063-0.172,0.083
		c-0.059,0.021-0.121,0.035-0.188,0.042c-0.065,0.007-0.147,0.014-0.244,0.021c-0.118,0.007-0.261,0.013-0.427,0.016
		c-0.167,0.004-0.341,0.006-0.521,0.006c-0.18,0-0.357-0.004-0.53-0.011c-0.174-0.007-0.326-0.018-0.458-0.031
		c-0.333-0.035-0.641-0.096-0.922-0.182c-0.281-0.087-0.536-0.259-0.765-0.516c-0.084-0.098-0.172-0.2-0.266-0.308
		s-0.185-0.215-0.271-0.322c-0.087-0.107-0.165-0.21-0.234-0.308c-0.069-0.097-0.122-0.184-0.156-0.26
		c-0.042-0.083-0.064-0.161-0.067-0.234c-0.004-0.073,0.039-0.154,0.13-0.245c0.034-0.034,0.081-0.07,0.141-0.109
		c0.059-0.037,0.134-0.074,0.224-0.108c0.139-0.049,0.248-0.064,0.328-0.047c0.079,0.017,0.157,0.063,0.234,0.14l1.155-0.093
		c0.347-0.028,0.682-0.046,1.005-0.053c0.322-0.007,0.602-0.014,0.838-0.021c0.007-0.063,0.012-0.129,0.016-0.198
		c0.003-0.069,0.005-0.135,0.005-0.197c-0.396,0.007-0.82,0.018-1.275,0.031c-0.454,0.014-0.904,0.041-1.348,0.083
		c-0.223,0.021-0.444,0.028-0.667,0.021c-0.222-0.007-0.398-0.048-0.53-0.125c-0.056-0.034-0.115-0.068-0.177-0.104
		c-0.063-0.035-0.102-0.083-0.115-0.146c-0.021-0.091-0.012-0.172,0.026-0.245s0.089-0.157,0.15-0.255
		c0.035-0.056,0.078-0.094,0.131-0.114c0.052-0.021,0.099-0.028,0.141-0.021c0.063,0.007,0.114,0.015,0.156,0.021
		c0.041,0.007,0.083,0.01,0.125,0.01c0.041,0,0.086-0.001,0.135-0.005s0.111-0.009,0.188-0.016c0.264-0.027,0.561-0.052,0.89-0.073
		c0.33-0.021,0.665-0.038,1.005-0.052s0.672-0.024,0.994-0.031c0.323-0.007,0.609-0.011,0.859-0.011l0.042-0.01
		c0.222-0.042,0.372-0.049,0.452-0.021c0.08,0.028,0.141,0.073,0.183,0.136c0.041,0.056,0.065,0.105,0.072,0.151
		c0.007,0.045,0.007,0.116,0,0.213c0,0.042-0.003,0.113-0.01,0.214s-0.018,0.21-0.031,0.327c-0.015,0.118-0.037,0.242-0.068,0.37
		c-0.03,0.129-0.074,0.237-0.13,0.328c0.021,0.056,0.021,0.121,0,0.197c-0.014,0.063-0.049,0.149-0.104,0.261
		c-0.056,0.111-0.118,0.184-0.188,0.219c-0.069,0.034-0.201,0.047-0.396,0.036s-0.413-0.019-0.656-0.026
		c-0.076,0-0.198,0.002-0.364,0.006c-0.167,0.003-0.354,0.01-0.563,0.021s-0.423,0.021-0.646,0.031
		c-0.222,0.011-0.427,0.019-0.614,0.026c0.084,0.069,0.181,0.139,0.292,0.208c0.18,0.11,0.357,0.181,0.53,0.208
		c0.174,0.027,0.393,0.035,0.656,0.021c0.132-0.007,0.269-0.012,0.411-0.016c0.143-0.003,0.276-0.01,0.401-0.021
		s0.233-0.021,0.327-0.031s0.162-0.022,0.203-0.036c0.076-0.035,0.17-0.066,0.281-0.094C226.997,80.97,227.108,80.987,227.219,81.05
		z M224.96,76.428c-0.306,0-0.605-0.04-0.9-0.12c-0.295-0.079-0.561-0.192-0.797-0.338c-0.235-0.146-0.429-0.324-0.577-0.536
		c-0.149-0.212-0.228-0.446-0.234-0.703c-0.007-0.229,0.059-0.438,0.197-0.63c0.139-0.19,0.317-0.357,0.536-0.5
		c0.219-0.142,0.465-0.26,0.739-0.354s0.543-0.154,0.807-0.183c0.049-0.048,0.115-0.076,0.198-0.083
		c0.291-0.027,0.578-0.002,0.858,0.078c0.281,0.08,0.531,0.199,0.75,0.359c0.219,0.159,0.392,0.353,0.521,0.578
		c0.128,0.226,0.189,0.467,0.183,0.723c-0.008,0.243-0.08,0.469-0.219,0.677c-0.14,0.209-0.316,0.389-0.531,0.542
		c-0.215,0.152-0.456,0.272-0.724,0.359C225.499,76.384,225.23,76.428,224.96,76.428z M224.877,74.022
		c-0.091,0.014-0.194,0.035-0.313,0.063c-0.118,0.028-0.231,0.066-0.339,0.114c-0.107,0.049-0.197,0.111-0.271,0.188
		c-0.072,0.077-0.109,0.171-0.109,0.281c0,0.104,0.04,0.191,0.12,0.261c0.079,0.069,0.173,0.123,0.281,0.161
		c0.107,0.038,0.219,0.067,0.333,0.088c0.114,0.021,0.206,0.035,0.275,0.042c0.091,0,0.191-0.011,0.302-0.031
		c0.111-0.021,0.216-0.056,0.313-0.104c0.098-0.049,0.179-0.111,0.245-0.188c0.065-0.076,0.099-0.167,0.099-0.271
		c0-0.11-0.029-0.201-0.089-0.271c-0.059-0.069-0.133-0.123-0.224-0.161c-0.09-0.038-0.19-0.069-0.302-0.094
		S224.98,74.051,224.877,74.022z"/>
	<path fill="#939393" d="M236.807,78.063c0.076-0.007,0.161-0.002,0.255,0.016c0.094,0.017,0.183,0.043,0.266,0.077
		c0.083,0.035,0.154,0.075,0.213,0.12c0.06,0.045,0.093,0.092,0.1,0.141c0.014,0.118-0.022,0.236-0.109,0.354
		c-0.087,0.118-0.169,0.216-0.245,0.292c-0.056,0.056-0.104,0.101-0.146,0.136c-0.042,0.034-0.087,0.061-0.136,0.078
		c-0.048,0.017-0.103,0.029-0.161,0.036s-0.137,0.01-0.234,0.01h-0.771c-0.063,0.257-0.135,0.513-0.218,0.766
		c-0.084,0.254-0.178,0.494-0.281,0.724c-0.132,0.284-0.292,0.519-0.479,0.703c-0.188,0.184-0.465,0.289-0.833,0.317
		c-0.222,0.014-0.44-0.006-0.655-0.058c-0.216-0.052-0.424-0.123-0.625-0.213c0.181-0.056,0.339-0.14,0.474-0.25
		c0.136-0.111,0.27-0.257,0.401-0.438c0.146-0.201,0.277-0.432,0.396-0.692s0.226-0.529,0.322-0.807
		c-0.152,0.014-0.338,0.031-0.557,0.052s-0.446,0.038-0.682,0.052c-0.236,0.015-0.458-0.048-0.667-0.188
		c-0.208-0.139-0.367-0.298-0.479-0.479c-0.069-0.111-0.063-0.229,0.021-0.354c0.021-0.035,0.058-0.078,0.109-0.131
		c0.052-0.052,0.096-0.092,0.13-0.119c0.042-0.035,0.084-0.051,0.125-0.047c0.042,0.003,0.08,0.009,0.115,0.016
		c0.11,0.021,0.224,0.034,0.338,0.041c0.114,0.008,0.228,0.011,0.339,0.011c0.097,0,0.233-0.003,0.411-0.011
		c0.177-0.007,0.373-0.014,0.588-0.021s0.446-0.016,0.692-0.026c0.246-0.01,0.489-0.022,0.729-0.036s0.467-0.025,0.682-0.036
		C236.449,78.088,236.64,78.076,236.807,78.063z M233.35,77.083c-0.132-0.069-0.253-0.209-0.364-0.421
		c-0.11-0.212-0.17-0.429-0.177-0.651c-0.007-0.194,0.036-0.39,0.13-0.588s0.225-0.382,0.391-0.552
		c0.167-0.17,0.362-0.317,0.588-0.442s0.464-0.212,0.714-0.261c0.069-0.083,0.184-0.125,0.344-0.125
		c0.284,0,0.553,0.055,0.807,0.162c0.253,0.107,0.477,0.25,0.671,0.427s0.351,0.378,0.469,0.604s0.181,0.46,0.188,0.703
		c0.007,0.264-0.043,0.503-0.151,0.718c-0.107,0.216-0.251,0.401-0.432,0.558s-0.391,0.277-0.63,0.364s-0.487,0.134-0.744,0.141
		c-0.361,0.014-0.701-0.038-1.021-0.156S233.552,77.285,233.35,77.083z M234.87,75.157c-0.098,0.021-0.191,0.056-0.281,0.104
		s-0.17,0.112-0.239,0.192s-0.123,0.168-0.161,0.266c-0.038,0.097-0.051,0.201-0.037,0.313c0.063,0.125,0.167,0.234,0.313,0.327
		c0.146,0.094,0.315,0.141,0.511,0.141c0.222,0,0.411-0.059,0.567-0.177c0.155-0.118,0.233-0.267,0.233-0.447
		c0-0.076-0.017-0.156-0.052-0.239c-0.035-0.084-0.085-0.158-0.15-0.225c-0.066-0.065-0.145-0.119-0.234-0.161
		c-0.091-0.042-0.191-0.063-0.302-0.063C234.967,75.188,234.912,75.178,234.87,75.157z M239.514,74.595
		c-0.008,0.243-0.009,0.515-0.006,0.813c0.004,0.299,0.007,0.609,0.011,0.932c0.003,0.323,0.009,0.649,0.016,0.979
		c0.007,0.33,0.011,0.643,0.011,0.938s-0.002,0.565-0.006,0.812c-0.003,0.247-0.012,0.45-0.025,0.609
		c-0.021,0.284-0.068,0.563-0.141,0.833c-0.073,0.271-0.172,0.51-0.297,0.718c-0.16,0.257-0.306,0.489-0.438,0.698
		c-0.132,0.208-0.246,0.371-0.344,0.489c-0.083-0.285-0.161-0.613-0.234-0.984c-0.072-0.371-0.112-0.737-0.119-1.098
		c-0.007-0.354-0.005-0.777,0.005-1.271c0.011-0.493,0.021-0.999,0.031-1.521c0.011-0.521,0.018-1.021,0.021-1.504
		c0.004-0.482-0.005-0.887-0.025-1.213c-0.014-0.271-0.047-0.474-0.099-0.609c-0.053-0.135-0.127-0.258-0.225-0.369
		c-0.125-0.146-0.165-0.264-0.119-0.354c0.045-0.09,0.157-0.208,0.338-0.354c0.091-0.069,0.168-0.127,0.234-0.172
		s0.129-0.071,0.188-0.078s0.12,0.004,0.183,0.031c0.063,0.028,0.139,0.073,0.229,0.136c0.167,0.125,0.302,0.237,0.406,0.338
		c0.104,0.101,0.188,0.208,0.25,0.323c0.063,0.114,0.104,0.241,0.125,0.38C239.503,74.234,239.514,74.401,239.514,74.595z"/>
	<path fill="#939393" d="M245.167,75.73c-0.132,0.007-0.318,0.012-0.558,0.016c-0.239,0.003-0.503,0.009-0.791,0.016
		s-0.587,0.012-0.896,0.015c-0.309,0.004-0.601,0.006-0.874,0.006c-0.274,0-0.514-0.002-0.719-0.006
		c-0.205-0.003-0.346-0.008-0.422-0.015c-0.118-0.015-0.194-0.047-0.229-0.1c-0.035-0.052-0.056-0.105-0.063-0.161
		s0-0.137,0.021-0.245c0.021-0.107,0.056-0.202,0.104-0.286c0.076-0.132,0.222-0.208,0.438-0.229
		c0.097-0.014,0.246-0.026,0.447-0.037c0.201-0.01,0.427-0.022,0.677-0.036c0-0.034-0.002-0.069-0.005-0.104
		c-0.004-0.035-0.006-0.063-0.006-0.084c-0.014-0.104-0.069-0.204-0.166-0.302c-0.056-0.056-0.094-0.109-0.115-0.161
		c-0.021-0.052-0.003-0.116,0.053-0.192c0.021-0.028,0.054-0.064,0.099-0.109s0.094-0.091,0.146-0.136
		c0.053-0.045,0.104-0.087,0.156-0.125s0.096-0.067,0.13-0.088c0.069-0.035,0.143-0.049,0.219-0.042s0.143,0.027,0.198,0.063
		c0.056,0.034,0.123,0.081,0.203,0.141c0.079,0.059,0.157,0.125,0.234,0.197c0.076,0.073,0.142,0.151,0.197,0.234
		s0.087,0.163,0.094,0.239c0.007,0.077,0.012,0.147,0.016,0.214s0.005,0.13,0.005,0.192l0.656-0.031
		c0.132-0.007,0.241-0.007,0.328,0s0.161,0.021,0.224,0.042c0.063,0.021,0.12,0.054,0.172,0.099s0.112,0.103,0.183,0.172
		c0.131,0.139,0.215,0.254,0.249,0.344c0.035,0.09,0.038,0.163,0.011,0.219c-0.035,0.069-0.078,0.132-0.13,0.188
		C245.4,75.692,245.306,75.724,245.167,75.73z M243.532,79.093c-0.091,0.035-0.185,0.052-0.281,0.052
		c-0.215,0-0.44-0.032-0.677-0.099c-0.236-0.065-0.454-0.159-0.656-0.281c-0.201-0.121-0.371-0.271-0.51-0.447
		c-0.139-0.178-0.219-0.377-0.239-0.599c-0.021-0.215,0.011-0.417,0.094-0.604c0.083-0.187,0.204-0.354,0.364-0.499
		c0.159-0.146,0.347-0.266,0.563-0.359c0.215-0.094,0.44-0.154,0.677-0.183c0.055-0.027,0.117-0.048,0.187-0.063
		c0.069-0.014,0.132-0.021,0.188-0.021c0.236,0,0.465,0.031,0.688,0.094c0.222,0.063,0.42,0.154,0.594,0.275
		c0.173,0.122,0.313,0.273,0.421,0.453c0.108,0.181,0.165,0.393,0.172,0.636c0.007,0.242-0.031,0.458-0.114,0.646
		c-0.083,0.187-0.196,0.349-0.338,0.483c-0.143,0.136-0.312,0.247-0.505,0.333C243.962,78.997,243.754,79.058,243.532,79.093z
		 M247.748,80.612c0.077,0.07,0.146,0.145,0.209,0.225c0.063,0.079,0.114,0.164,0.156,0.255c0.069,0.146,0.088,0.257,0.057,0.333
		s-0.099,0.159-0.203,0.25c-0.125,0.104-0.239,0.184-0.343,0.239c-0.104,0.056-0.21,0.097-0.318,0.125
		c-0.107,0.027-0.224,0.045-0.349,0.052s-0.267,0.014-0.427,0.021c-0.076,0-0.213,0-0.411,0c-0.197,0-0.411-0.002-0.641-0.006
		c-0.229-0.003-0.447-0.009-0.655-0.016s-0.357-0.014-0.448-0.021c-0.229-0.021-0.425-0.064-0.588-0.13
		c-0.163-0.066-0.342-0.193-0.536-0.38c-0.16-0.153-0.295-0.28-0.406-0.381c-0.11-0.101-0.215-0.206-0.313-0.317
		c-0.056-0.056-0.124-0.121-0.208-0.197c-0.083-0.076-0.17-0.136-0.26-0.178c-0.077-0.034-0.14-0.081-0.188-0.14
		c-0.049-0.06-0.073-0.138-0.073-0.234c0-0.118,0.035-0.207,0.104-0.266s0.184-0.116,0.344-0.172
		c0.117-0.042,0.242-0.078,0.374-0.109s0.24-0.054,0.323-0.067c0.243-0.035,0.42,0.014,0.531,0.146
		c0.069,0.083,0.132,0.156,0.187,0.219c0.056,0.063,0.109,0.121,0.162,0.177c0.052,0.056,0.104,0.111,0.156,0.167
		c0.052,0.056,0.112,0.118,0.182,0.188c0.111,0.11,0.219,0.186,0.323,0.224c0.104,0.038,0.219,0.064,0.343,0.078
		c0.063,0.007,0.162,0.012,0.297,0.016c0.136,0.003,0.281,0.005,0.438,0.005s0.311-0.002,0.463-0.005
		c0.153-0.004,0.281-0.009,0.386-0.016c0.111-0.007,0.239-0.021,0.385-0.042c0.146-0.021,0.268-0.052,0.364-0.094
		c0.091-0.034,0.162-0.059,0.214-0.073c0.052-0.014,0.099-0.019,0.141-0.016c0.042,0.004,0.078,0.018,0.109,0.042
		S247.7,80.571,247.748,80.612z M242.47,77.511c0.007,0.18,0.071,0.322,0.193,0.427c0.121,0.104,0.255,0.173,0.4,0.208
		c0.243-0.014,0.422-0.083,0.536-0.208s0.172-0.288,0.172-0.489c0-0.104-0.022-0.191-0.067-0.261
		c-0.046-0.069-0.103-0.127-0.172-0.172s-0.146-0.078-0.229-0.099c-0.083-0.021-0.159-0.031-0.229-0.031l-0.146,0.042
		c-0.049,0.014-0.1,0.038-0.151,0.072c-0.052,0.035-0.103,0.078-0.151,0.13c-0.048,0.053-0.087,0.111-0.114,0.178
		C242.484,77.373,242.47,77.441,242.47,77.511z M248.956,76.625c0.125,0.125,0.201,0.231,0.229,0.317
		c0.027,0.087,0.007,0.218-0.063,0.391c-0.049,0.118-0.111,0.212-0.188,0.281s-0.181,0.098-0.313,0.083
		c-0.152-0.021-0.319-0.034-0.5-0.041s-0.347-0.007-0.499,0c-0.008,0.132-0.013,0.251-0.016,0.359
		c-0.004,0.107-0.013,0.199-0.026,0.275c-0.014,0.139-0.047,0.288-0.099,0.447c-0.053,0.16-0.12,0.319-0.203,0.479
		c-0.084,0.159-0.179,0.315-0.286,0.469c-0.108,0.152-0.225,0.291-0.35,0.416c-0.229-0.313-0.382-0.664-0.458-1.057
		c-0.076-0.392-0.114-0.813-0.114-1.265c0-0.132,0.004-0.339,0.011-0.62c0.007-0.28,0.016-0.579,0.025-0.895
		c0.011-0.316,0.021-0.62,0.031-0.911c0.011-0.292,0.02-0.518,0.026-0.677c0.007-0.111,0.009-0.203,0.005-0.276
		c-0.003-0.072-0.016-0.141-0.036-0.203s-0.049-0.125-0.083-0.188c-0.035-0.062-0.083-0.139-0.146-0.229
		c-0.077-0.118-0.12-0.203-0.131-0.255c-0.01-0.053,0.016-0.116,0.078-0.192c0.021-0.021,0.053-0.051,0.094-0.089
		c0.042-0.038,0.087-0.074,0.136-0.109c0.048-0.034,0.094-0.067,0.135-0.099c0.042-0.031,0.073-0.054,0.094-0.068
		c0.118-0.063,0.203-0.095,0.255-0.099c0.053-0.003,0.131,0.033,0.234,0.109c0.146,0.104,0.263,0.194,0.349,0.271
		c0.087,0.077,0.169,0.167,0.245,0.271c0.111,0.14,0.188,0.294,0.229,0.464c0.041,0.17,0.059,0.38,0.052,0.63
		c-0.007,0.215-0.011,0.474-0.011,0.775s-0.003,0.616-0.01,0.942l0.146-0.052c0.194-0.077,0.396-0.078,0.604-0.006
		C248.612,76.35,248.797,76.466,248.956,76.625z"/>
	<path fill="#939393" d="M259.273,77.136c-0.091,0.007-0.191,0.01-0.303,0.01c-0.11,0-0.222,0-0.333,0
		c-0.027,0.202-0.076,0.403-0.146,0.604s-0.152,0.382-0.25,0.541c0.049,0.035,0.096,0.073,0.141,0.114
		c0.045,0.042,0.085,0.087,0.12,0.136c0.034,0.049,0.072,0.101,0.114,0.156s0.063,0.107,0.063,0.156
		c0,0.076-0.045,0.188-0.136,0.333c-0.014,0.035-0.038,0.104-0.072,0.208c-0.035,0.104-0.071,0.214-0.109,0.328
		s-0.073,0.221-0.104,0.317c-0.031,0.098-0.051,0.156-0.058,0.177c-0.041,0.132-0.123,0.212-0.244,0.239
		c-0.121,0.028-0.252,0.049-0.391,0.063c-0.09,0.008-0.184,0.006-0.281-0.005c-0.097-0.011-0.197-0.022-0.302-0.036
		c-0.194,0.007-0.394,0.01-0.599,0.01s-0.373-0.003-0.505-0.01l-1.01-0.052c0.063,0.069,0.121,0.133,0.177,0.192
		c0.056,0.059,0.111,0.112,0.167,0.161c0.125,0.118,0.239,0.188,0.344,0.208c0.104,0.021,0.226,0.038,0.364,0.053
		c0.063,0.006,0.168,0.014,0.317,0.021s0.311,0.012,0.484,0.016c0.173,0.003,0.343,0.005,0.51,0.005s0.302,0,0.406,0
		c0.11-0.007,0.239-0.018,0.385-0.031s0.268-0.049,0.364-0.104c0.084-0.042,0.151-0.073,0.203-0.094
		c0.053-0.021,0.098-0.03,0.136-0.026c0.038,0.003,0.074,0.019,0.109,0.047c0.034,0.027,0.076,0.063,0.125,0.104
		c0.076,0.076,0.139,0.146,0.188,0.208c0.048,0.063,0.101,0.128,0.156,0.197c0.097,0.132,0.126,0.234,0.088,0.308
		c-0.038,0.072-0.109,0.154-0.213,0.244c-0.118,0.104-0.231,0.185-0.339,0.24c-0.107,0.055-0.217,0.097-0.328,0.124
		c-0.11,0.028-0.23,0.046-0.359,0.053c-0.128,0.007-0.272,0.01-0.432,0.01c-0.076,0-0.219-0.001-0.427-0.005
		s-0.432-0.007-0.672-0.011c-0.239-0.003-0.467-0.009-0.682-0.016s-0.368-0.01-0.458-0.01c-0.139-0.007-0.259-0.018-0.359-0.031
		c-0.101-0.015-0.192-0.038-0.275-0.073c-0.084-0.034-0.163-0.083-0.239-0.146c-0.077-0.063-0.16-0.143-0.25-0.239
		c-0.194-0.202-0.373-0.397-0.536-0.589c-0.163-0.19-0.304-0.355-0.422-0.494c-0.056-0.069-0.125-0.128-0.208-0.177
		c-0.084-0.049-0.185-0.101-0.303-0.156c-0.117-0.049-0.184-0.149-0.197-0.302c-0.014-0.104,0.038-0.207,0.156-0.308
		s0.281-0.188,0.489-0.266c0.402-0.139,0.68-0.125,0.833,0.042c0.173,0,0.389,0.002,0.646,0.005
		c0.257,0.004,0.519,0.006,0.786,0.006c0.267,0,0.521,0,0.765,0s0.444,0,0.604,0l0.021-0.438c-0.223-0.007-0.462-0.014-0.719-0.021
		s-0.514-0.011-0.771-0.011s-0.507,0-0.749,0c-0.243,0-0.458,0-0.646,0c-0.194,0.007-0.379-0.038-0.552-0.136
		c-0.174-0.097-0.326-0.211-0.458-0.343c-0.049-0.049-0.073-0.101-0.073-0.156s0.014-0.104,0.042-0.146
		c0.014-0.027,0.038-0.063,0.072-0.109c0.035-0.045,0.073-0.088,0.115-0.13c0.083-0.076,0.163-0.116,0.239-0.119
		c0.076-0.004,0.19,0.022,0.344,0.078c0.097,0.034,0.197,0.063,0.302,0.088c0.104,0.024,0.219,0.04,0.344,0.047
		c0.416,0.014,0.878,0.014,1.384,0c0.507-0.014,1.021-0.038,1.541-0.073c-0.041-0.083-0.08-0.168-0.114-0.255
		c-0.035-0.086-0.063-0.179-0.083-0.275c-0.028-0.098-0.047-0.194-0.058-0.292c-0.011-0.097-0.022-0.194-0.036-0.291
		c-0.091,0.076-0.2,0.152-0.328,0.229c-0.129,0.077-0.268,0.145-0.416,0.203c-0.149,0.06-0.299,0.107-0.448,0.146
		c-0.149,0.039-0.29,0.055-0.422,0.047c-0.076,0-0.175,0.002-0.296,0.006c-0.122,0.003-0.256,0.01-0.401,0.021
		s-0.297,0.02-0.453,0.026s-0.3,0.014-0.432,0.021c-0.174,0.007-0.34-0.007-0.5-0.042c-0.159-0.034-0.281-0.069-0.364-0.104
		c-0.146-0.063-0.259-0.121-0.338-0.177c-0.08-0.056-0.127-0.174-0.141-0.354c-0.008-0.235,0.048-0.396,0.166-0.479
		c-0.007-0.313-0.016-0.594-0.025-0.844c-0.011-0.25-0.026-0.472-0.047-0.666c-0.035-0.042-0.07-0.085-0.104-0.13
		c-0.035-0.045-0.066-0.092-0.094-0.141c-0.027-0.042-0.045-0.087-0.052-0.136c-0.007-0.048,0.007-0.097,0.041-0.146
		c0.042-0.063,0.089-0.116,0.141-0.161c0.053-0.045,0.106-0.096,0.162-0.151c0.055-0.042,0.114-0.063,0.177-0.063
		s0.132,0.007,0.208,0.021c0.083,0.015,0.186,0.03,0.307,0.047c0.122,0.018,0.259,0.02,0.412,0.006
		c0.18-0.014,0.385-0.031,0.614-0.053c0.229-0.021,0.454-0.048,0.677-0.083c0.18-0.027,0.329-0.007,0.447,0.063
		s0.243,0.163,0.375,0.281c0.076,0.076,0.148,0.158,0.219,0.244c0.069,0.087,0.097,0.158,0.083,0.214
		c-0.007,0.049-0.04,0.098-0.099,0.146c-0.06,0.049-0.125,0.093-0.198,0.131s-0.146,0.069-0.219,0.093
		c-0.072,0.024-0.127,0.04-0.161,0.047c-0.292,0.035-0.547,0.055-0.766,0.058c-0.219,0.004-0.432,0.002-0.64-0.005
		c0.007,0.173,0.01,0.362,0.01,0.567c0,0.204-0.003,0.384-0.01,0.536c0.188-0.007,0.378-0.018,0.572-0.031s0.393-0.028,0.594-0.042
		c0.118-0.007,0.255-0.014,0.411-0.021s0.315-0.011,0.479-0.011s0.321,0.004,0.474,0.011c0.153,0.007,0.281,0.021,0.386,0.041
		c0.007-0.021,0.01-0.048,0.01-0.083c0.028-0.333,0.047-0.639,0.058-0.916s0.016-0.545,0.016-0.802c0-0.132-0.002-0.241-0.005-0.328
		c-0.004-0.086-0.022-0.186-0.058-0.296c-0.014-0.056-0.059-0.12-0.136-0.193c-0.076-0.072-0.132-0.133-0.166-0.182
		c-0.028-0.035-0.035-0.082-0.021-0.141c0.014-0.059,0.041-0.12,0.083-0.183c0.034-0.048,0.095-0.107,0.182-0.177
		s0.165-0.121,0.234-0.156c0.132-0.063,0.25-0.073,0.354-0.031c0.076,0.035,0.173,0.091,0.291,0.167s0.215,0.149,0.292,0.219
		c0.125,0.104,0.217,0.226,0.275,0.364c0.06,0.139,0.1,0.281,0.12,0.427c0.014,0.097,0.026,0.217,0.036,0.359
		c0.011,0.142,0.013,0.275,0.006,0.4c-0.008,0.16-0.013,0.313-0.016,0.458c-0.004,0.146-0.006,0.288-0.006,0.427l0.313-0.063
		c0.139-0.034,0.261-0.027,0.364,0.021c0.104,0.048,0.194,0.104,0.271,0.166c0.056,0.049,0.118,0.106,0.188,0.172
		c0.069,0.066,0.134,0.134,0.192,0.203c0.06,0.069,0.108,0.137,0.146,0.203c0.038,0.065,0.057,0.123,0.057,0.172
		c0,0.166-0.095,0.298-0.286,0.396C259.723,77.076,259.509,77.129,259.273,77.136z"/>
	<path fill="#939393" d="M263.427,78.707c-0.423,0.015-0.836,0.023-1.238,0.026c-0.403,0.004-0.732-0.016-0.989-0.057
		c-0.16-0.028-0.276-0.068-0.349-0.12c-0.073-0.052-0.116-0.154-0.131-0.308c-0.014-0.146-0.007-0.262,0.021-0.349
		c0.027-0.086,0.069-0.154,0.125-0.203c0.007-0.125,0.012-0.262,0.016-0.411c0.003-0.148,0.001-0.293-0.006-0.432
		c-0.09-0.09-0.161-0.212-0.213-0.364c-0.053-0.152-0.062-0.271-0.026-0.354c0.014-0.034,0.038-0.072,0.073-0.114
		c0.034-0.042,0.09-0.08,0.166-0.114c0.076-0.035,0.154-0.06,0.234-0.073s0.168-0.018,0.266-0.011
		c0.097,0.008,0.219,0.018,0.364,0.031c0.146,0.015,0.292,0.018,0.438,0.011l0.896-0.052l0.031-0.604
		c-0.181,0.015-0.344,0.023-0.489,0.026c-0.146,0.004-0.247,0.005-0.303,0.005c-0.222,0-0.458-0.029-0.707-0.088
		c-0.25-0.059-0.452-0.151-0.604-0.276c-0.083-0.069-0.15-0.141-0.203-0.213c-0.052-0.073-0.071-0.145-0.057-0.214
		c0.021-0.097,0.065-0.195,0.135-0.297c0.069-0.101,0.149-0.171,0.239-0.213c0.042-0.021,0.087-0.033,0.136-0.036
		c0.049-0.004,0.111,0.009,0.188,0.036c0.063,0.021,0.158,0.049,0.286,0.083c0.129,0.035,0.248,0.06,0.359,0.073
		c0.056,0.007,0.157,0.007,0.307,0s0.31-0.016,0.479-0.026s0.329-0.021,0.479-0.031s0.255-0.019,0.317-0.026
		c0.118-0.014,0.25-0.017,0.396-0.01c0.146,0.007,0.261,0.063,0.344,0.166c0.069,0.084,0.115,0.156,0.136,0.219
		s0.014,0.146-0.021,0.25c-0.021,0.091-0.053,0.17-0.094,0.239c-0.028,0.146-0.055,0.306-0.078,0.479
		c-0.024,0.173-0.044,0.337-0.058,0.489c0.069,0.027,0.111,0.065,0.125,0.114c0.034,0.118,0.043,0.229,0.026,0.333
		c-0.018,0.104-0.037,0.181-0.058,0.229c-0.035,0.069-0.092,0.15-0.172,0.244s-0.186,0.141-0.317,0.141
		c-0.028,0-0.099,0.002-0.214,0.006c-0.114,0.003-0.253,0.007-0.416,0.01c-0.163,0.004-0.344,0.007-0.541,0.011
		c-0.198,0.004-0.391,0.005-0.578,0.005l-0.021,0.666c0.242-0.007,0.49-0.014,0.744-0.021c0.253-0.007,0.474-0.018,0.661-0.031
		c0.242-0.014,0.47-0.034,0.682-0.063c0.212-0.027,0.362-0.048,0.453-0.063c0.056-0.014,0.103-0.001,0.141,0.037
		s0.067,0.085,0.088,0.14c0.049,0.118,0.06,0.223,0.031,0.313c-0.027,0.091-0.114,0.208-0.26,0.354
		c-0.153,0.152-0.33,0.26-0.531,0.322S263.697,78.693,263.427,78.707z M267.57,74.616c0,0.243,0,0.509,0,0.796
		c0,0.288-0.002,0.573-0.005,0.854c-0.004,0.28-0.007,0.55-0.011,0.807s-0.009,0.472-0.016,0.646
		c-0.014,0.222-0.074,0.465-0.182,0.729c-0.108,0.264-0.249,0.51-0.422,0.739c0.097,0.014,0.175,0.047,0.234,0.099
		c0.059,0.052,0.126,0.13,0.203,0.234c0.076,0.104,0.117,0.207,0.125,0.308c0.007,0.101-0.008,0.241-0.042,0.421
		c-0.014,0.174-0.028,0.311-0.042,0.411s-0.034,0.217-0.063,0.35c-0.041,0.222-0.097,0.403-0.166,0.546s-0.143,0.268-0.219,0.375
		s-0.153,0.212-0.229,0.313s-0.139,0.22-0.188,0.359c-0.048-0.049-0.104-0.116-0.166-0.203s-0.125-0.183-0.188-0.286
		c-0.063-0.104-0.118-0.214-0.167-0.328c-0.048-0.115-0.079-0.221-0.094-0.317c-0.027-0.194-0.045-0.368-0.052-0.521
		c-0.007-0.153-0.007-0.319,0-0.5c-0.118,0.014-0.297,0.022-0.536,0.025c-0.239,0.004-0.496,0.006-0.771,0.006s-0.547,0-0.817,0
		s-0.492-0.004-0.666-0.011c-0.223-0.007-0.427-0.025-0.614-0.057s-0.385-0.106-0.594-0.225c-0.09-0.055-0.149-0.114-0.177-0.177
		s-0.024-0.163,0.011-0.302c0.014-0.056,0.04-0.123,0.078-0.203s0.074-0.154,0.109-0.224c0.048-0.09,0.099-0.141,0.15-0.151
		c0.053-0.01,0.127-0.001,0.224,0.026c0.077,0.021,0.172,0.038,0.287,0.052c0.114,0.015,0.232,0.024,0.354,0.031
		s0.245,0.013,0.37,0.016c0.124,0.004,0.235,0.006,0.333,0.006c0.208,0,0.44-0.002,0.697-0.006c0.257-0.003,0.516-0.007,0.775-0.01
		c0.261-0.004,0.514-0.009,0.76-0.016c0.247-0.007,0.46-0.018,0.641-0.031c-0.063-0.14-0.129-0.271-0.197-0.396
		c-0.07-0.124-0.122-0.267-0.156-0.427c-0.015-0.076-0.026-0.17-0.037-0.28c-0.01-0.111-0.019-0.226-0.025-0.344
		c-0.035,0.007-0.077,0.01-0.125,0.01c-0.181,0.015-0.339-0.005-0.474-0.057c-0.136-0.053-0.263-0.116-0.38-0.192
		c-0.14-0.091-0.25-0.194-0.334-0.313c-0.083-0.118-0.125-0.232-0.125-0.344c0-0.063,0.038-0.113,0.115-0.151
		c0.076-0.038,0.166-0.067,0.271-0.088c0.104-0.021,0.212-0.035,0.322-0.042c0.111-0.007,0.198-0.011,0.261-0.011
		c0.056,0,0.123-0.001,0.203-0.005c0.079-0.003,0.165-0.005,0.255-0.005c0-0.076,0.002-0.156,0.005-0.239
		c0.004-0.084,0.006-0.167,0.006-0.25h-0.333c-0.174-0.007-0.339-0.054-0.495-0.141s-0.297-0.189-0.422-0.308
		c-0.056-0.056-0.104-0.114-0.146-0.177s-0.056-0.132-0.042-0.208c0.015-0.125,0.075-0.207,0.183-0.245s0.241-0.063,0.4-0.078
		l0.896-0.052c0.007-0.034,0.011-0.064,0.011-0.089c0-0.023,0-0.054,0-0.088c0.007-0.111,0.009-0.203,0.005-0.276
		c-0.003-0.072-0.016-0.141-0.036-0.203s-0.049-0.125-0.083-0.188c-0.035-0.062-0.084-0.139-0.146-0.229
		c-0.076-0.118-0.119-0.203-0.13-0.255c-0.01-0.053,0.016-0.116,0.078-0.192c0.021-0.021,0.049-0.051,0.083-0.089
		c0.035-0.038,0.073-0.074,0.115-0.109c0.041-0.034,0.081-0.067,0.119-0.099s0.068-0.054,0.089-0.068
		c0.118-0.063,0.203-0.095,0.255-0.099c0.052-0.003,0.13,0.033,0.234,0.109c0.146,0.104,0.26,0.194,0.344,0.271
		c0.083,0.077,0.163,0.167,0.239,0.271c0.111,0.14,0.184,0.294,0.219,0.464C267.553,74.156,267.57,74.366,267.57,74.616z"/>
</g>
</svg>
