<?xml version="1.0" encoding="utf-8"?>
<!-- Generator: Adobe Illustrator 16.0.0, SVG Export Plug-In . SVG Version: 6.00 Build 0)  -->
<!DOCTYPE svg PUBLIC "-//W3C//DTD SVG 1.1//EN" "http://www.w3.org/Graphics/SVG/1.1/DTD/svg11.dtd">
<svg version="1.1" id="Layer_1" xmlns="http://www.w3.org/2000/svg" xmlns:xlink="http://www.w3.org/1999/xlink" x="0px" y="0px"
	 width="357.17px" height="119.06px" viewBox="0 0 357.17 119.06" enable-background="new 0 0 357.17 119.06" xml:space="preserve">
<g>
	<path fill-rule="evenodd" clip-rule="evenodd" fill="none" stroke="#050505" stroke-width="3" stroke-miterlimit="10" d="
		M79.34,83.707c0,16.193-10.315,29.321-23.04,29.321H40.065c-12.725,0-23.04-13.128-23.04-29.321v-47.93
		c0-16.193,10.315-29.321,23.04-29.321H56.3c12.725,0,23.04,13.128,23.04,29.321V83.707z"/>
	<g>
		<path fill-rule="evenodd" clip-rule="evenodd" d="M24.267,38.52c0.113-5.625,2.732-11.656,8.051-16.479
			c0.15-0.137,0.314-0.258,0.466-0.393c0.405-0.361,0.844-0.486,1.331-0.173c0.484,0.312,0.526,0.778,0.419,1.292
			c-0.227,1.092-0.506,2.176-0.665,3.277c-1.68,11.669,5.647,23.009,16.915,26.16c4.776,1.334,9.479,1.018,14.089-0.791
			c0.114-0.044,0.225-0.092,0.338-0.138c0.479-0.187,0.927-0.159,1.277,0.253c0.359,0.426,0.373,0.923,0.045,1.35
			c-1.103,1.426-2.113,2.951-3.382,4.217c-4.714,4.705-10.451,6.999-17.118,6.639c-7.104-0.384-12.763-3.613-17.018-9.26
			C25.786,50.189,24.265,45.367,24.267,38.52z M31.776,25.584c-0.234,0.27-0.343,0.387-0.446,0.51
			c-5.631,6.764-6.6,16.623-2.398,24.4c6.382,11.816,21.243,14.775,31.509,6.258c0.816-0.676,1.513-1.496,2.356-2.34
			c-8.834,1.947-16.558-0.008-23.033-6.132C33.314,42.178,30.849,34.533,31.776,25.584z"/>
	</g>
	<g>
		<path fill-rule="evenodd" clip-rule="evenodd" d="M57.412,25.215c3.612-0.007,6.461,2.829,6.491,6.458
			c0.03,3.637-3.025,6.704-6.652,6.679c-3.556-0.025-6.464-2.977-6.447-6.539C50.823,28.166,53.773,25.221,57.412,25.215z"/>
		<path fill-rule="evenodd" clip-rule="evenodd" d="M71.551,26.339c-0.15,0.14-0.379,0.484-0.697,0.628
			c-1.54,0.695-3.106,1.327-4.655,2c-0.542,0.234-0.999,0.158-1.244-0.377c-0.254-0.559-0.065-1.021,0.528-1.271
			c1.556-0.66,3.103-1.338,4.669-1.969C70.941,25.032,71.563,25.398,71.551,26.339z"/>
		<path fill-rule="evenodd" clip-rule="evenodd" d="M63.85,18.18c-0.126,0.379-0.184,0.586-0.265,0.783
			c-0.6,1.455-1.213,2.904-1.804,4.362c-0.255,0.633-0.65,1.03-1.342,0.722c-0.662-0.296-0.571-0.854-0.331-1.418
			c0.639-1.506,1.23-3.033,1.935-4.508c0.151-0.316,0.685-0.588,1.061-0.611C63.348,17.494,63.624,17.963,63.85,18.18z"/>
		<path fill-rule="evenodd" clip-rule="evenodd" d="M65.696,33.857c0.458,0.143,0.726,0.215,0.986,0.307
			c1.427,0.5,2.852,1.006,4.278,1.508c0.605,0.215,0.983,0.617,0.729,1.268c-0.238,0.607-0.773,0.624-1.331,0.426
			c-1.57-0.558-3.158-1.074-4.7-1.7c-0.327-0.132-0.659-0.659-0.674-1.017C64.973,34.382,65.469,34.093,65.696,33.857z"/>
		<path fill-rule="evenodd" clip-rule="evenodd" d="M43.712,25.92c1.493,0.529,2.801,0.992,4.108,1.458
			c0.464,0.166,1.001,0.249,1.365,0.542c0.267,0.215,0.491,0.771,0.395,1.064c-0.088,0.263-0.707,0.598-0.971,0.516
			c-1.764-0.551-3.509-1.17-5.225-1.859c-0.248-0.1-0.449-0.72-0.391-1.051C43.043,26.312,43.5,26.104,43.712,25.92z"/>
		<path fill-rule="evenodd" clip-rule="evenodd" d="M54.746,40.009c-0.126,0.361-0.176,0.538-0.247,0.708
			c-0.612,1.482-1.234,2.965-1.842,4.449c-0.239,0.585-0.598,0.975-1.27,0.693c-0.626-0.262-0.626-0.785-0.405-1.324
			c0.644-1.572,1.266-3.151,1.982-4.689c0.139-0.299,0.674-0.607,0.989-0.572C54.257,39.307,54.514,39.775,54.746,40.009z"/>
		<path fill-rule="evenodd" clip-rule="evenodd" d="M50.559,18.375c0.286-0.285,0.504-0.689,0.771-0.727
			c0.324-0.043,0.893,0.129,1.006,0.372c0.794,1.702,1.528,3.435,2.197,5.191c0.086,0.229-0.234,0.773-0.507,0.932
			c-0.222,0.128-0.867,0.001-0.958-0.188C52.204,22.154,51.418,20.315,50.559,18.375z"/>
		<path fill-rule="evenodd" clip-rule="evenodd" d="M63.855,45.117c-0.136,0.158-0.339,0.608-0.583,0.633
			c-0.357,0.034-0.959-0.136-1.082-0.396c-0.771-1.641-1.474-3.315-2.108-5.015c-0.105-0.281,0.146-0.913,0.404-1.049
			c0.259-0.133,0.973,0.043,1.081,0.274c0.798,1.695,1.494,3.438,2.221,5.167C63.813,44.787,63.811,44.854,63.855,45.117z"/>
		<path fill-rule="evenodd" clip-rule="evenodd" d="M43.88,38.309c-0.17-0.158-0.603-0.375-0.658-0.664
			c-0.058-0.305,0.155-0.873,0.404-0.989c1.647-0.761,3.322-1.464,5.023-2.095c0.286-0.106,0.918,0.134,1.061,0.394
			c0.138,0.255-0.036,0.978-0.264,1.085c-1.697,0.793-3.442,1.484-5.173,2.205C44.219,38.269,44.153,38.266,43.88,38.309z"/>
	</g>
	<path fill-rule="evenodd" clip-rule="evenodd" fill="none" stroke="#050505" stroke-width="3" stroke-miterlimit="10" d="
		M17.629,79.682c0,0,23.174-2.994,29.924,5.99c0,0,13.5-11.062,31.724-3.234"/>
	<path fill-rule="evenodd" clip-rule="evenodd" fill="none" stroke="#050505" stroke-width="3" stroke-miterlimit="10" d="
		M48.197,85.672c0,0-0.771,21.494,0,27.356"/>
	<g>
		<g>
			<path fill="#050505" d="M55.433,91.752c4.762-3.427,10.985-3.976,16.423-2.06c1.83,0.645,2.609-2.254,0.798-2.893
				c-6.113-2.154-13.375-1.495-18.735,2.362C52.364,90.281,53.859,92.885,55.433,91.752L55.433,91.752z"/>
		</g>
	</g>
	<g>
		<g>
			<path fill="#050505" d="M55.736,100.529c3.513-2.794,9.593-3.728,14.461-1.825c1.805,0.705,2.579-2.196,0.798-2.893
				c-5.8-2.267-12.481-1.301-17.38,2.597C52.101,99.612,54.239,101.721,55.736,100.529L55.736,100.529z"/>
		</g>
	</g>
	<g>
		<g>
			<path fill="#050505" d="M41.743,89.131c-5.323-3.831-12.537-4.486-18.608-2.347c-1.812,0.639-1.032,3.537,0.798,2.893
				c5.396-1.901,11.571-1.356,16.296,2.044C41.802,92.854,43.298,90.249,41.743,89.131L41.743,89.131z"/>
		</g>
	</g>
	<g>
		<g>
			<path fill="#050505" d="M42.046,98.313c-4.867-3.872-11.504-4.833-17.266-2.581c-1.781,0.696-1.006,3.598,0.798,2.893
				c4.831-1.888,10.87-0.957,14.347,1.81C41.422,101.625,43.56,99.517,42.046,98.313L42.046,98.313z"/>
		</g>
	</g>
</g>
<path d="M129.069,56.07c1.04,0.986,1.693,1.882,1.965,2.674c0.272,0.792,0.333,1.833,0.188,3.121
	c-0.103,0.841-0.423,1.633-0.968,2.377c-0.544,0.744-1.137,1.167-1.784,1.264c-0.743,0.104-1.396,0.14-1.965,0.115
	c-0.575-0.03-1.132-0.151-1.676-0.375s-1.089-0.557-1.633-1.004c-0.545-0.447-1.119-1.04-1.712-1.784
	c-0.496-0.642-1.149-1.47-1.966-2.486c-0.822-1.016-1.603-2.02-2.347-3.012c-0.792,1.24-1.536,2.353-2.226,3.345
	c-0.695,0.992-1.313,1.784-1.857,2.377c-1.294,1.488-2.564,2.455-3.828,2.897c-1.264,0.447-2.764,0.599-4.5,0.447
	c-0.544-0.049-1.186-0.188-1.929-0.405c-0.744-0.224-1.488-0.484-2.232-0.78c-0.744-0.303-1.421-0.611-2.044-0.932
	c-0.617-0.32-1.052-0.58-1.3-0.78c0.744-0.048,1.536-0.345,2.377-0.895c0.847-0.545,1.591-1.138,2.232-1.778
	c1.04-0.992,2.117-2.196,3.236-3.605c1.113-1.415,2.189-2.976,3.229-4.688c1.04-1.705,2.021-3.514,2.939-5.425
	c0.913-1.905,1.693-3.822,2.341-5.758c0.394-1.138,0.617-2.021,0.665-2.638c0.049-0.623-0.199-1.155-0.743-1.597
	c-0.545-0.496-0.89-0.871-1.041-1.119c-0.145-0.247-0.175-0.592-0.072-1.04c0.097-0.441,0.381-1.052,0.853-1.82
	s0.883-1.349,1.229-1.748c0.398-0.441,0.779-0.689,1.154-0.737c0.369-0.049,0.901,0.048,1.598,0.296
	c0.345,0.097,0.779,0.248,1.3,0.441c0.521,0.199,1.077,0.436,1.669,0.708c0.6,0.271,1.168,0.568,1.712,0.895
	c0.545,0.321,1.017,0.653,1.409,1.004c1.089,0.992,1.585,2.189,1.488,3.605c-0.097,1.409-0.399,3.055-0.889,4.941
	c-0.6,2.28-1.513,4.705-2.753,7.282c0.496,0.399,1.125,0.901,1.894,1.524c0.769,0.616,1.549,1.264,2.341,1.929
	c0.792,0.672,1.524,1.288,2.195,1.857C128.282,55.339,128.767,55.769,129.069,56.07z M152.034,16.823
	c1.089,0.847,2.002,1.651,2.746,2.419c0.744,0.769,1.324,1.573,1.748,2.414c0.417,0.847,0.708,1.771,0.853,2.788
	c0.151,1.016,0.224,2.22,0.224,3.604c-0.048,1.688-0.072,3.593-0.072,5.722s0,4.337,0,6.617s-0.012,4.584-0.036,6.913
	c-0.03,2.328-0.036,4.53-0.036,6.61c0,2.081-0.019,4.004-0.043,5.759c-0.023,1.76-0.036,3.211-0.036,4.349
	c-0.097,3.864-0.78,7.36-2.044,10.481c-1.265,3.121-3.23,6.145-5.909,9.066c-0.193-1.984-0.666-4.21-1.409-6.689
	c-0.345-1.137-0.593-2.365-0.744-3.678c-0.146-1.313-0.272-2.588-0.369-3.828c-0.103-1.881-0.151-4.113-0.151-6.689
	c0-2.577,0.049-5.274,0.151-8.099c-1.391-0.103-2.752-0.103-4.089,0c0,1.186-0.012,2.28-0.036,3.266
	c-0.03,0.992-0.066,1.863-0.115,2.607c-0.097,1.584-0.271,3.278-0.52,5.086c-0.248,1.809-0.72,3.333-1.409,4.573
	c-0.896,1.633-1.833,3.241-2.825,4.832c-0.991,1.585-1.832,2.97-2.527,4.161c-0.346-0.991-0.684-2.068-1.005-3.235
	c-0.32-1.161-0.604-2.365-0.853-3.604c-0.248-1.234-0.447-2.475-0.599-3.714c-0.146-1.24-0.218-2.401-0.218-3.496
	c0-2.274,0.036-4.706,0.109-7.282c0.072-2.576,0.139-5.189,0.188-7.839c0.048-2.648,0.084-5.226,0.108-7.729s0.012-4.82-0.036-6.949
	c-0.049-0.943-0.121-1.748-0.224-2.413c-0.097-0.672-0.236-1.265-0.405-1.785c-0.176-0.52-0.388-0.991-0.636-1.415
	c-0.248-0.417-0.544-0.853-0.889-1.3c-0.551-0.696-0.78-1.434-0.708-2.232c0.073-0.786,0.605-1.657,1.597-2.601
	c1.192-1.089,2.142-1.706,2.861-1.856c0.72-0.146,1.651,0.248,2.788,1.191c1.089,0.889,1.984,1.724,2.674,2.485
	c0.695,0.774,1.239,1.579,1.639,2.42c0.394,0.841,0.665,1.771,0.816,2.788c0.151,1.016,0.224,2.189,0.224,3.526
	c0.049,1.688,0.073,3.472,0.073,5.353s0,3.768,0,5.649c0.695,0,1.421,0,2.195,0c0.762,0,1.494,0.023,2.189,0.072
	c0.097-3.072,0.188-5.97,0.26-8.697c0.073-2.722,0.061-5.026-0.036-6.907c-0.103-1.888-0.284-3.333-0.557-4.349
	c-0.271-1.017-0.756-1.948-1.451-2.789c-0.793-0.938-1.089-1.76-0.89-2.449c0.194-0.695,0.816-1.536,1.857-2.528
	c1.089-1.04,2.02-1.608,2.788-1.712C150.015,15.613,150.939,15.982,152.034,16.823z"/>
<path d="M217.139,47.634c0,1.735,0,3.532,0,5.389s-0.013,3.684-0.036,5.462c-0.024,1.784-0.049,3.483-0.073,5.093
	c-0.03,1.608-0.066,3.036-0.114,4.275c-0.098,1.682-0.581,3.515-1.446,5.498c-0.871,1.984-1.972,3.841-3.309,5.577
	c0.841,0.048,1.494,0.248,1.966,0.592c0.472,0.346,1.004,0.944,1.604,1.785c0.544,0.743,0.853,1.476,0.925,2.189
	c0.073,0.72-0.036,1.724-0.333,3.012c-0.103,1.24-0.199,2.443-0.296,3.604c-0.103,1.168-0.248,2.214-0.447,3.157
	c-0.297,1.585-0.72,2.886-1.265,3.901c-0.544,1.017-1.112,1.924-1.705,2.716c-0.599,0.792-1.191,1.536-1.784,2.226
	c-0.599,0.695-1.071,1.536-1.416,2.528c-0.345-0.345-0.731-0.828-1.148-1.445c-0.424-0.623-0.835-1.301-1.229-2.045
	c-0.398-0.743-0.743-1.523-1.04-2.34c-0.296-0.823-0.472-1.579-0.521-2.269c-0.103-1.488-0.175-2.765-0.224-3.829
	c-0.048-1.064-0.103-2.413-0.151-4.052c-0.84,0.103-2.129,0.163-3.864,0.188c-1.73,0.024-3.617,0.036-5.644,0.036
	c-2.032,0-4.028,0-5.987,0c-1.954,0-3.557-0.024-4.79-0.072c-1.585-0.049-3.049-0.321-4.386-0.816
	c-1.336-0.496-2.752-1.24-4.239-2.232c-0.642-0.393-1.064-0.816-1.265-1.264c-0.193-0.448-0.169-1.161,0.079-2.153
	c0.097-0.399,0.284-0.877,0.557-1.452c0.271-0.568,0.532-1.101,0.78-1.597c0.345-0.641,0.707-1.004,1.076-1.076
	c0.375-0.072,0.907-0.012,1.597,0.188c0.544,0.146,1.228,0.284,2.044,0.405c0.817,0.127,1.664,0.235,2.528,0.332
	c0.865,0.104,1.748,0.176,2.638,0.225c0.895,0.054,1.688,0.078,2.377,0.078c1.536,0,3.248-0.012,5.129-0.042
	c1.887-0.024,3.792-0.049,5.728-0.073c1.93-0.023,3.798-0.06,5.606-0.108c1.809-0.048,3.357-0.127,4.646-0.224
	c-0.441-1.137-0.956-2.195-1.524-3.157c-0.568-0.968-0.974-2.068-1.222-3.309c-0.103-0.399-0.163-0.769-0.188-1.113
	c-0.024-0.351-0.061-0.72-0.115-1.118l-3.338,0.224c-1.295,0.103-2.371-0.049-3.236-0.448c-0.865-0.393-1.724-0.864-2.564-1.409
	l-0.224-0.15v0.375c-0.097,0.841-0.357,1.548-0.78,2.116c-0.424,0.568-0.901,1.125-1.445,1.67c-0.551,0.55-1.083,0.991-1.604,1.343
	c-0.52,0.345-1.052,0.544-1.597,0.593c-0.248,0-0.593-0.073-1.04-0.225c-0.447-0.15-0.889-0.368-1.337-0.671
	c-0.943,0-2.02,0-3.235,0c-1.21,0-2.45,0-3.714,0s-2.528,0.03-3.792,0.079c-1.265,0.048-2.413,0.097-3.454,0.145
	c-0.792,0.793-1.561,1.191-2.304,1.191c-0.399,0-0.854-0.114-1.373-0.332c-0.521-0.225-1.005-0.521-1.452-0.896
	c-0.447-0.369-0.828-0.792-1.149-1.264c-0.326-0.466-0.514-0.975-0.563-1.524c-0.048-0.248-0.072-0.769-0.072-1.561
	c0-0.793,0-1.729,0-2.824c0-1.089,0.012-2.263,0.036-3.526c0.024-1.265,0.049-2.492,0.079-3.684
	c0.024-1.186,0.036-2.274,0.036-3.267c0-0.991,0-1.76,0-2.304c0-0.841-0.036-1.439-0.115-1.784
	c-0.072-0.345-0.284-0.744-0.629-1.191c-0.351-0.442-0.61-0.854-0.78-1.223c-0.175-0.375-0.139-0.779,0.109-1.228
	c0.151-0.296,0.411-0.604,0.78-0.932c0.375-0.32,0.768-0.641,1.191-0.968c0.417-0.32,0.828-0.604,1.228-0.853
	c0.394-0.248,0.689-0.417,0.889-0.52c0.841-0.448,1.748-0.369,2.716,0.224c0.962,0.593,1.791,1.288,2.486,2.08
	c0.345,0.399,0.695,0.896,1.04,1.488s0.568,1.313,0.672,2.153c0,0.199,0.012,0.423,0.036,0.671c0.023,0.248,0.036,0.545,0.036,0.89
	l4.089-0.225c1.487-0.097,2.625,0.176,3.417,0.823c0.792,0.641,1.488,1.457,2.081,2.449c0-0.992,0-1.893,0-2.71
	c0-0.822-0.024-1.476-0.073-1.972c-0.097-1.735-0.544-3.145-1.337-4.239c-0.199-0.242-0.362-0.557-0.483-0.926
	c-0.127-0.375-0.061-0.828,0.188-1.373c0.146-0.248,0.394-0.52,0.744-0.822c0.345-0.297,0.737-0.593,1.186-0.89
	c0.447-0.296,0.883-0.568,1.3-0.816c0.424-0.248,0.78-0.447,1.077-0.599c0.544-0.296,1.04-0.345,1.487-0.145
	c0.448,0.199,0.841,0.423,1.191,0.665c0.793,0.647,1.488,1.24,2.081,1.784c0.593,0.551,1.076,1.131,1.445,1.748
	c0.375,0.623,0.659,1.313,0.859,2.08c0.193,0.769,0.296,1.7,0.296,2.789c0.146-0.049,0.394-0.073,0.744-0.073l8.322-0.447
	c0-0.297,0.013-0.593,0.036-0.889c0.024-0.303,0.036-0.6,0.036-0.896c0.049-0.792,0.067-1.452,0.037-1.972
	c-0.024-0.521-0.109-0.998-0.261-1.445c-0.145-0.448-0.345-0.896-0.593-1.337c-0.248-0.448-0.593-0.992-1.04-1.64
	c-0.544-0.841-0.853-1.445-0.925-1.82c-0.079-0.369,0.108-0.828,0.556-1.373c0.146-0.151,0.345-0.356,0.593-0.635
	c0.248-0.267,0.521-0.526,0.816-0.78c0.297-0.242,0.581-0.478,0.854-0.702c0.271-0.224,0.483-0.387,0.635-0.483
	c0.841-0.447,1.451-0.684,1.82-0.708c0.369-0.023,0.932,0.236,1.67,0.78c1.04,0.744,1.862,1.392,2.455,1.936
	c0.593,0.545,1.161,1.186,1.712,1.93c0.792,0.992,1.313,2.093,1.561,3.309S217.139,45.849,217.139,47.634z M178.345,65.621
	c1.434,0,3.03,0.012,4.79,0.036s3.284-0.012,4.572-0.108c0-1.144,0.013-2.341,0.036-3.605c0.024-1.264,0.037-2.491,0.037-3.677
	c-0.545,0.544-1.373,1.052-2.486,1.518c-1.119,0.472-2.147,0.756-3.085,0.859c-0.351,0-0.87,0-1.561,0
	c-0.695,0-1.463-0.024-2.304-0.079C178.441,62.549,178.441,64.236,178.345,65.621z M200.862,61.907
	c0.641-0.048,1.476-0.091,2.492-0.115c1.01-0.023,2.044-0.036,3.084-0.036c0-0.496,0.013-0.991,0.037-1.487
	c0.023-0.49,0.036-1.011,0.036-1.561c-0.593,0.055-1.216,0.078-1.857,0.078c-0.646,0-1.288,0-1.936,0
	c-0.841-0.048-1.705-0.26-2.601-0.635c-0.889-0.369-1.735-0.829-2.528-1.373c0,0.89-0.012,1.797-0.036,2.71
	c-0.024,0.919-0.036,1.82-0.036,2.716c0.642-0.104,1.265-0.176,1.856-0.225C199.974,61.932,200.463,61.907,200.862,61.907z"/>
<path fill="#7D7D7D" d="M243.067,50.222c-0.889,0.345-2.057,0.399-3.49,0.146c-3.671-0.544-6.429-1.93-8.292-4.161
	c-1.856-2.226-2.782-5.026-2.782-8.396c0-1.439,0.309-2.86,0.926-4.275c0.623-1.41,1.451-2.723,2.492-3.938
	c1.04-1.216,2.213-2.257,3.531-3.121c1.313-0.865,2.638-1.452,3.975-1.748c0.248-0.545,0.652-0.938,1.228-1.186
	c0.568-0.248,1.101-0.424,1.597-0.526c0.447-0.048,0.955-0.048,1.524,0c0.568,0.055,1.148,0.14,1.748,0.267
	c0.593,0.121,1.173,0.284,1.741,0.478c0.568,0.199,1.053,0.375,1.452,0.521c1.487,0.599,2.86,1.318,4.125,2.159
	c1.264,0.841,2.364,1.832,3.308,2.97c0.938,1.143,1.67,2.468,2.19,3.979c0.52,1.512,0.756,3.254,0.707,5.237
	c-0.048,1.634-0.46,3.146-1.228,4.537c-0.769,1.385-1.772,2.588-3.006,3.604c-1.24,1.016-2.668,1.82-4.276,2.413
	s-3.26,0.943-4.941,1.04c-0.447,0.049-0.883,0.061-1.301,0.037C243.872,50.234,243.467,50.222,243.067,50.222z M279.636,76.46
	c0.841,0.841,1.089,1.548,0.744,2.116c-0.352,0.568-0.896,1.174-1.64,1.821c-0.841,0.743-1.646,1.313-2.413,1.705
	c-0.769,0.399-1.549,0.695-2.341,0.896c-0.792,0.199-1.651,0.32-2.564,0.369c-0.919,0.048-1.947,0.078-3.085,0.078
	c-0.544,0-1.572-0.012-3.084-0.042c-1.513-0.024-3.133-0.049-4.869-0.073c-1.736-0.023-3.381-0.061-4.941-0.108
	c-1.561-0.049-2.661-0.079-3.309-0.079c-0.992-0.048-1.856-0.108-2.601-0.181c-0.744-0.079-1.409-0.225-2.008-0.448
	c-0.593-0.224-1.161-0.557-1.706-1.004c-0.544-0.447-1.119-1.064-1.712-1.856c-1.137-1.439-2.08-2.825-2.824-4.161
	c-0.744-1.337-1.488-2.528-2.226-3.568c-0.399-0.545-0.932-0.968-1.604-1.265c-0.665-0.296-1.349-0.665-2.044-1.112
	c-0.593-0.399-0.992-0.817-1.186-1.265c-0.248-0.544-0.362-1.089-0.332-1.633c0.023-0.545,0.229-1.017,0.629-1.415
	c0.393-0.394,0.979-0.757,1.748-1.077c0.768-0.32,1.548-0.604,2.34-0.853c0.938-0.303,1.73-0.521,2.378-0.672
	c0.641-0.15,1.191-0.224,1.633-0.224c0.447,0,0.847,0.115,1.191,0.333c0.345,0.224,0.671,0.587,0.968,1.082l0.072,0.073
	c1.089,0.048,2.492,0.061,4.197,0.036c1.712-0.024,3.496-0.049,5.354-0.072c1.856-0.024,3.652-0.061,5.389-0.115
	c1.735-0.049,3.193-0.072,4.385-0.072l0.146-3.121c-1.585-0.049-3.303-0.097-5.165-0.151c-1.857-0.049-3.714-0.072-5.571-0.072
	c-1.856,0-3.652,0-5.389,0c-1.735,0-3.272,0-4.608,0c-0.496,0-0.92-0.013-1.265-0.037c-0.345-0.023-0.695-0.084-1.04-0.188
	c-0.345-0.097-0.708-0.247-1.076-0.447c-0.369-0.193-0.829-0.489-1.373-0.889c-0.551-0.394-1.017-0.793-1.416-1.191
	c-0.393-0.394-0.616-0.817-0.665-1.259c-0.055-0.447-0.012-0.895,0.109-1.343c0.12-0.441,0.436-0.938,0.931-1.481
	c0.345-0.399,0.666-0.671,0.962-0.822c0.303-0.146,0.611-0.218,0.932-0.218s0.684,0.061,1.076,0.182
	c0.399,0.127,0.92,0.26,1.561,0.411c1.386,0.296,2.928,0.52,4.609,0.665c2.177,0.199,4.324,0.26,6.429,0.188
	c2.105-0.072,3.998-0.133,5.686-0.188c0.593,0,1.337-0.024,2.232-0.072c0.889-0.049,1.808-0.109,2.745-0.188
	c0.944-0.073,1.863-0.146,2.752-0.218c0.89-0.079,1.657-0.14,2.305-0.188c-0.744-1.386-1.439-2.897-2.08-4.536
	c-0.647-1.634-0.871-3.617-0.672-5.946c0.049-0.938,0.103-2.056,0.151-3.345c0.048-1.288,0.097-2.588,0.146-3.9
	c0.048-1.313,0.09-2.564,0.114-3.75c0.024-1.191,0.061-2.159,0.109-2.903c0.048-0.793,0.078-1.458,0.078-2.002
	c0-0.545-0.066-1.04-0.188-1.488c-0.127-0.447-0.309-0.907-0.556-1.373c-0.248-0.472-0.575-1.004-0.969-1.603
	c-0.544-0.841-0.84-1.445-0.895-1.82c-0.049-0.369,0.127-0.829,0.526-1.373c0.145-0.151,0.368-0.357,0.665-0.635
	c0.297-0.267,0.617-0.545,0.968-0.817c0.345-0.271,0.665-0.508,0.968-0.701c0.296-0.199,0.521-0.351,0.665-0.447
	c0.841-0.448,1.452-0.684,1.82-0.708c0.375-0.024,0.932,0.236,1.676,0.78c1.04,0.744,1.772,1.391,2.189,1.936
	c0.424,0.544,0.907,1.186,1.452,1.93c0.792,0.991,1.349,2.093,1.669,3.308c0.32,1.216,0.436,2.71,0.339,4.494
	c-0.104,2.335-0.14,4.797-0.115,7.397s-0.061,5.165-0.26,7.693c-0.097,1.585-0.557,3.345-1.373,5.274
	c-0.816,1.935-1.869,3.72-3.157,5.353c1.137,0.647,2.05,1.409,2.746,2.305c0.248,0.345,0.52,0.72,0.816,1.112
	c0.302,0.399,0.447,0.769,0.447,1.119c0,0.544-0.32,1.337-0.968,2.377c-0.097,0.248-0.272,0.744-0.52,1.488
	c-0.248,0.737-0.509,1.518-0.78,2.34c-0.272,0.817-0.521,1.573-0.744,2.263c-0.218,0.695-0.357,1.119-0.405,1.264
	c-0.297,0.943-0.92,1.524-1.857,1.748c-0.943,0.224-1.832,0.363-2.679,0.411c-0.248,0-0.854,0-1.821,0
	c-0.961,0-2.044-0.012-3.229-0.036c-1.191-0.03-2.377-0.066-3.568-0.115c-1.191-0.048-2.104-0.097-2.752-0.145
	c-0.744-0.055-1.869-0.079-3.381-0.079c-1.513,0-3.206-0.024-5.093-0.072l1.639,2.305c0.744,0.889,1.524,1.421,2.341,1.597
	c0.816,0.175,1.718,0.309,2.71,0.411c0.447,0.048,1.216,0.097,2.305,0.146c1.088,0.048,2.268,0.084,3.532,0.114
	c1.264,0.024,2.504,0.036,3.713,0.036c1.216,0,2.196,0,2.939,0c0.793,0,1.682-0.072,2.674-0.224s1.881-0.32,2.673-0.52
	c0.793-0.2,1.464-0.272,2.009-0.225c0.544,0.049,1.052,0.2,1.523,0.448s0.944,0.58,1.416,1.004
	C278.505,75.353,279.043,75.86,279.636,76.46z M238.017,37.587c0,1.688,0.418,2.922,1.259,3.714
	c0.847,0.792,1.936,1.313,3.271,1.561c0.793,0,1.634-0.146,2.528-0.441c1.138-0.399,2.105-1.089,2.897-2.081
	c0.792-0.991,1.167-2.057,1.113-3.199c-0.049-1.138-0.593-2.117-1.634-2.934c-1.04-0.816-2.129-1.428-3.271-1.82
	c-0.345-0.103-0.653-0.212-0.926-0.339c-0.272-0.121-0.508-0.309-0.708-0.557c-0.593,0.151-1.179,0.472-1.747,0.968
	c-0.569,0.496-1.053,1.04-1.446,1.633c-0.399,0.6-0.72,1.204-0.968,1.821C238.138,36.535,238.017,37.091,238.017,37.587z"/>
<path fill="#7D7D7D" d="M282.236,79.828c2.129-0.544,4.173-1.313,6.127-2.304c1.96-0.992,3.731-2.208,5.316-3.642
	c3.272-2.976,6.146-6.218,8.619-9.737c2.479-3.521,4.433-7.21,5.873-11.075c-0.793,0.049-1.634,0.104-2.528,0.151
	c-0.89,0.049-1.784,0.085-2.674,0.109c-0.889,0.024-1.748,0.036-2.564,0.036s-1.524,0-2.117,0c-0.695-0.049-1.324-0.121-1.893-0.224
	c-0.574-0.097-1.18-0.297-1.827-0.593c-0.489-0.248-1.016-0.581-1.56-1.004c-0.545-0.418-1.065-0.865-1.561-1.337
	c-0.496-0.472-0.914-0.943-1.265-1.415c-0.345-0.466-0.593-0.877-0.737-1.222c-0.2-0.448-0.127-0.896,0.217-1.337
	c0.399-0.496,1.017-1.053,1.863-1.676c0.841-0.616,1.458-0.979,1.857-1.076c0.393-0.097,0.779-0.085,1.148,0.036
	c0.375,0.127,0.78,0.284,1.229,0.483c0.398,0.146,0.853,0.248,1.372,0.297c0.521,0.049,0.98,0.072,1.38,0.072
	c0.743,0,1.717-0.036,2.933-0.108c1.216-0.073,2.456-0.151,3.72-0.224c1.259-0.073,2.45-0.151,3.563-0.225
	c1.119-0.072,1.972-0.133,2.564-0.188c0.696-0.097,1.392-0.26,2.081-0.478c0.695-0.224,1.391-0.284,2.081-0.188
	c0.695,0.097,1.354,0.333,1.972,0.708c0.616,0.369,1.155,0.756,1.597,1.149c1.191,1.04,1.832,2.104,1.936,3.193
	c0.048,0.744-0.079,1.343-0.375,1.784c-0.297,0.447-0.521,0.943-0.666,1.487c-0.744,2.528-1.639,5.069-2.679,7.621
	c-1.041,2.553-2.214,5.026-3.526,7.428c-1.318,2.407-2.752,4.699-4.313,6.877c-1.561,2.184-3.236,4.161-5.015,5.945
	c-1.487,1.487-2.976,2.516-4.463,3.085c-1.488,0.568-3,0.955-4.53,1.154c-0.847,0.098-1.591,0.109-2.232,0.037
	c-0.646-0.079-1.239-0.212-1.784-0.411c-0.544-0.2-1.064-0.448-1.561-0.744c-0.495-0.297-1.04-0.642-1.633-1.041
	c-0.599-0.345-1.167-0.604-1.712-0.78c-0.544-0.169-1.064-0.284-1.561-0.332c-0.495-0.049-0.967-0.085-1.409-0.115
	C283.053,79.985,282.63,79.926,282.236,79.828z M331.784,107.79c-0.521-0.405-0.968-1.089-1.343-2.051
	c-0.388-0.962-0.678-2.08-0.877-3.356c-0.206-1.282-0.381-2.691-0.526-4.228c-0.146-1.543-0.248-3.151-0.303-4.845
	c-0.169-3.659-0.235-7.742-0.169-12.248c0.055-4.506,0.169-9.072,0.345-13.688c0.169-4.627,0.32-9.163,0.43-13.608
	c0.114-4.452,0.114-8.413,0-11.903c0-0.871-0.055-1.561-0.164-2.044c-0.127-0.502-0.284-0.938-0.489-1.319
	c-0.206-0.368-0.43-0.75-0.689-1.125c-0.261-0.387-0.545-0.828-0.829-1.36c-0.411-0.689-0.701-1.204-0.871-1.519
	c-0.181-0.326-0.181-0.743,0-1.264c0.17-0.581,0.532-1.113,1.089-1.572c0.551-0.466,1.18-0.871,1.875-1.222
	c0.695-0.357,1.439-0.623,2.22-0.829c0.786-0.206,1.524-0.333,2.226-0.387c1.276-0.121,2.269,0.169,2.958,0.858
	c0.762,0.762,1.506,1.53,2.231,2.322c0.727,0.787,1.295,1.549,1.694,2.311c0.404,0.757,0.683,1.47,0.834,2.136
	c0.14,0.671,0.224,1.439,0.224,2.311c0.055,2.558,0.079,5.389,0.079,8.497c0,3.115,0,6.309,0,9.593c0,3.29-0.012,6.574-0.042,9.859
	c-0.024,3.284-0.055,6.338-0.085,9.156c-0.036,2.819-0.079,5.335-0.133,7.543c-0.061,2.207-0.115,3.9-0.17,5.063
	c-0.066,0.811-0.248,1.959-0.568,3.441c-0.32,1.481-0.956,2.885-1.881,4.228c-1.682,2.208-3.254,4.258-4.706,6.146
	C332.691,104.572,331.899,106.277,331.784,107.79z"/>
<g>
	<path fill="#939393" d="M245.751,100.438c0.123,0.165,0.202,0.298,0.235,0.396c0.032,0.1,0.008,0.248-0.075,0.446
		c-0.065,0.141-0.146,0.25-0.241,0.328s-0.217,0.105-0.365,0.08c-0.182-0.032-0.38-0.058-0.595-0.074s-0.413-0.024-0.595-0.024
		l-0.037,0.161c-0.05,0.189-0.143,0.425-0.278,0.706c-0.137,0.28-0.3,0.532-0.489,0.755c0.33,0.224,0.586,0.515,0.768,0.874
		s0.265,0.766,0.248,1.22c-0.017,0.33-0.102,0.626-0.254,0.886c-0.153,0.26-0.361,0.477-0.626,0.65
		c-0.264,0.174-0.571,0.306-0.923,0.396c-0.351,0.091-0.729,0.136-1.133,0.136c-0.389,0-0.771-0.052-1.146-0.154
		c-0.375-0.104-0.708-0.25-0.997-0.439c-0.156-0.05-0.297-0.131-0.421-0.242s-0.231-0.235-0.322-0.371
		c-0.091-0.137-0.163-0.285-0.217-0.446s-0.085-0.315-0.093-0.465c-0.033-0.354,0.031-0.673,0.192-0.953
		c0.161-0.281,0.388-0.521,0.681-0.719s0.639-0.357,1.035-0.477c0.396-0.12,0.813-0.2,1.251-0.242
		c0.065-0.041,0.143-0.067,0.229-0.08c0.087-0.013,0.159-0.019,0.217-0.019c0.339,0,0.645,0.05,0.917,0.148
		c-0.083-0.189-0.146-0.38-0.192-0.569c-0.045-0.19-0.08-0.389-0.105-0.595c-0.107,0.058-0.237,0.113-0.39,0.167
		c-0.153,0.054-0.312,0.104-0.477,0.148c-0.166,0.046-0.333,0.083-0.502,0.111c-0.17,0.029-0.328,0.052-0.477,0.068
		c-0.166,0.017-0.393,0.037-0.682,0.063c-0.289,0.024-0.595,0.045-0.917,0.062s-0.632,0.022-0.929,0.019s-0.528-0.026-0.693-0.068
		c-0.19-0.041-0.328-0.117-0.415-0.229c-0.087-0.112-0.139-0.283-0.155-0.515c-0.008-0.289,0.063-0.479,0.211-0.569
		c0-0.272-0.007-0.572-0.019-0.898c-0.013-0.326-0.027-0.613-0.044-0.86c-0.115-0.075-0.178-0.161-0.186-0.261
		c-0.024-0.189-0.024-0.382,0-0.576c0.024-0.193,0.091-0.353,0.198-0.477c0.141-0.165,0.293-0.223,0.458-0.174
		c0.207,0.059,0.487,0.087,0.843,0.087c0.107,0,0.254-0.002,0.439-0.006s0.382-0.011,0.589-0.019
		c0.206-0.008,0.408-0.021,0.606-0.037s0.363-0.037,0.496-0.063c0.173-0.032,0.323-0.03,0.452,0.007
		c0.128,0.037,0.249,0.126,0.365,0.266c0.032,0.042,0.069,0.096,0.111,0.161c0.041,0.066,0.08,0.137,0.117,0.211
		s0.068,0.146,0.094,0.217c0.024,0.07,0.041,0.13,0.049,0.18c0.009,0.066-0.008,0.132-0.049,0.198
		c-0.042,0.066-0.098,0.124-0.168,0.173c-0.07,0.05-0.146,0.089-0.229,0.118c-0.083,0.029-0.161,0.043-0.235,0.043
		c-0.281-0.017-0.615-0.024-1.004-0.024c-0.388,0-0.772,0.004-1.151,0.013c0.008,0.239,0.014,0.503,0.019,0.792
		c0.004,0.289-0.003,0.554-0.019,0.793c0.338-0.017,0.677-0.031,1.016-0.043c0.338-0.013,0.644-0.027,0.916-0.044
		c0.265-0.016,0.554-0.032,0.867-0.049s0.595-0.046,0.843-0.087c0-0.157,0.004-0.339,0.012-0.545
		c0.009-0.207,0.019-0.417,0.031-0.632s0.025-0.43,0.037-0.645c0.013-0.215,0.022-0.408,0.031-0.582
		c0.008-0.132,0.01-0.241,0.006-0.328s-0.019-0.167-0.043-0.241c-0.025-0.074-0.058-0.149-0.1-0.224
		c-0.041-0.074-0.099-0.165-0.173-0.272c-0.091-0.14-0.143-0.241-0.155-0.304c-0.012-0.062,0.019-0.138,0.093-0.229
		c0.025-0.025,0.063-0.06,0.112-0.105c0.049-0.045,0.103-0.089,0.16-0.13s0.112-0.081,0.161-0.118
		c0.05-0.037,0.087-0.063,0.111-0.08c0.141-0.074,0.242-0.113,0.304-0.118c0.063-0.004,0.155,0.04,0.279,0.131
		c0.173,0.123,0.312,0.23,0.415,0.321c0.103,0.092,0.199,0.198,0.291,0.322c0.132,0.165,0.223,0.349,0.272,0.552
		c0.049,0.202,0.069,0.452,0.062,0.749c-0.008,0.272-0.015,0.558-0.019,0.854c-0.004,0.298-0.015,0.591-0.031,0.88
		c0.009,0,0.013-0.002,0.013-0.007c0-0.004,0.004-0.006,0.013-0.006c0.115-0.074,0.245-0.105,0.39-0.093s0.285,0.048,0.422,0.105
		c0.136,0.058,0.266,0.136,0.39,0.235C245.577,100.24,245.676,100.34,245.751,100.438z M241.365,105.864
		c0.157,0,0.31-0.013,0.459-0.037c0.148-0.025,0.282-0.066,0.402-0.124c0.119-0.058,0.215-0.132,0.285-0.223
		c0.069-0.091,0.104-0.207,0.104-0.347c0-0.289-0.104-0.509-0.315-0.657s-0.465-0.28-0.762-0.396
		c-0.165,0.009-0.341,0.04-0.526,0.093c-0.186,0.055-0.357,0.122-0.515,0.205c-0.156,0.082-0.286,0.178-0.39,0.285
		s-0.159,0.219-0.167,0.334c-0.017,0.223,0.069,0.43,0.26,0.619c0.141,0.083,0.32,0.143,0.539,0.18S241.167,105.855,241.365,105.864
		z"/>
	<path fill="#939393" d="M249.715,101.393c-0.281,0.446-0.537,0.784-0.769,1.016c-0.28,0.265-0.578,0.436-0.892,0.514
		c-0.314,0.079-0.645,0.102-0.991,0.068c-0.404-0.033-0.825-0.202-1.264-0.508c0.19-0.008,0.37-0.063,0.539-0.167
		s0.32-0.213,0.452-0.328c0.215-0.19,0.426-0.396,0.632-0.619c0.206-0.224,0.4-0.454,0.582-0.694
		c0.182-0.239,0.345-0.48,0.489-0.725c0.145-0.243,0.258-0.484,0.341-0.725c0.066-0.173,0.097-0.301,0.093-0.384
		c-0.004-0.082-0.048-0.174-0.13-0.272c-0.066-0.091-0.107-0.161-0.124-0.211c-0.017-0.049-0.017-0.111,0-0.186
		c0.025-0.091,0.085-0.194,0.18-0.31s0.188-0.206,0.278-0.272c0.083-0.066,0.155-0.102,0.217-0.105
		c0.063-0.004,0.151,0.015,0.267,0.056c0.132,0.05,0.269,0.113,0.409,0.192c0.14,0.078,0.28,0.18,0.421,0.303
		c0.33,0.306,0.409,0.748,0.235,1.326c-0.033,0.107-0.07,0.217-0.111,0.328c-0.042,0.111-0.087,0.225-0.137,0.341
		c0.116,0.074,0.25,0.163,0.403,0.266c0.152,0.104,0.303,0.209,0.452,0.316c0.148,0.107,0.282,0.208,0.402,0.304
		c0.119,0.095,0.208,0.171,0.266,0.229c0.198,0.198,0.316,0.389,0.354,0.57s0.035,0.384-0.006,0.606
		c-0.05,0.248-0.147,0.415-0.291,0.502c-0.145,0.087-0.337,0.109-0.576,0.068c-0.256-0.042-0.469-0.116-0.638-0.224
		c-0.17-0.106-0.329-0.256-0.478-0.445c-0.074-0.091-0.165-0.211-0.272-0.359S249.83,101.558,249.715,101.393z M255.016,105.765
		c0.141,0.19,0.166,0.361,0.075,0.515c-0.092,0.152-0.277,0.315-0.558,0.489c-0.1,0.065-0.207,0.119-0.322,0.161
		c-0.116,0.041-0.244,0.065-0.384,0.074c-0.157,0.008-0.357,0.015-0.601,0.019c-0.244,0.004-0.502,0.008-0.774,0.013
		c-0.272,0.004-0.543,0.006-0.812,0.006s-0.506-0.009-0.712-0.024c-0.207-0.009-0.38-0.027-0.521-0.057
		c-0.141-0.028-0.265-0.067-0.372-0.117s-0.204-0.116-0.291-0.198c-0.086-0.083-0.18-0.186-0.278-0.31
		c-0.165-0.207-0.355-0.45-0.57-0.73c-0.215-0.281-0.412-0.533-0.594-0.756c-0.042-0.05-0.089-0.093-0.143-0.13
		s-0.109-0.076-0.167-0.118c-0.059-0.041-0.112-0.085-0.161-0.13c-0.05-0.045-0.087-0.097-0.112-0.155
		c-0.032-0.074-0.035-0.154-0.006-0.241s0.076-0.159,0.143-0.217c0.124-0.115,0.274-0.208,0.452-0.278s0.349-0.113,0.514-0.131
		c0.141-0.016,0.261-0.016,0.359,0c0.1,0.018,0.194,0.079,0.285,0.187c0.05,0.058,0.122,0.145,0.217,0.26
		c0.095,0.116,0.198,0.237,0.31,0.365s0.223,0.259,0.335,0.391c0.111,0.132,0.208,0.239,0.291,0.322
		c0.123,0.141,0.241,0.23,0.353,0.272c0.111,0.041,0.262,0.07,0.452,0.086c0.115,0.009,0.256,0.015,0.421,0.019
		c0.165,0.005,0.335,0.005,0.508,0c0.174-0.004,0.345-0.014,0.515-0.03c0.169-0.017,0.319-0.046,0.452-0.087
		c0.239-0.066,0.423-0.111,0.551-0.137c0.128-0.024,0.25-0.016,0.365,0.025c0.058,0.017,0.124,0.052,0.198,0.105
		s0.149,0.111,0.224,0.173c0.074,0.063,0.144,0.126,0.21,0.192C254.934,105.657,254.983,105.716,255.016,105.765z M253.071,98.246
		c0-0.132-0.002-0.241-0.006-0.328c-0.005-0.087-0.017-0.167-0.037-0.241c-0.021-0.074-0.052-0.149-0.093-0.224
		c-0.042-0.074-0.1-0.165-0.174-0.272c-0.124-0.182-0.169-0.322-0.137-0.421c0.033-0.099,0.137-0.219,0.311-0.359
		c0.165-0.141,0.303-0.233,0.414-0.278c0.112-0.046,0.25-0.011,0.415,0.105c0.174,0.123,0.31,0.23,0.409,0.321
		c0.099,0.092,0.194,0.198,0.285,0.322c0.132,0.165,0.219,0.349,0.26,0.552c0.041,0.202,0.062,0.452,0.062,0.749
		c0,0.322,0,0.682,0,1.078c0,0.396-0.002,0.792-0.006,1.188s-0.008,0.769-0.013,1.115c-0.004,0.347-0.01,0.623-0.019,0.83
		c-0.008,0.173-0.043,0.358-0.104,0.557c-0.063,0.198-0.143,0.395-0.242,0.589c-0.099,0.194-0.215,0.382-0.347,0.563
		s-0.272,0.347-0.421,0.495c-0.017-0.132-0.052-0.256-0.105-0.371s-0.111-0.229-0.174-0.341c-0.062-0.111-0.121-0.225-0.179-0.341
		c-0.059-0.115-0.1-0.239-0.124-0.371c-0.042-0.215-0.07-0.44-0.087-0.676s-0.021-0.473-0.013-0.712
		c0.009-0.165,0.019-0.396,0.031-0.693c0.013-0.298,0.024-0.615,0.037-0.954s0.024-0.675,0.037-1.01
		C253.065,98.785,253.071,98.494,253.071,98.246z"/>
	<path fill="#939393" d="M257.592,102.966c-0.115,0.017-0.221-0.011-0.315-0.081c-0.096-0.069-0.182-0.163-0.261-0.278
		c-0.078-0.115-0.142-0.243-0.191-0.384s-0.079-0.272-0.087-0.396c-0.017-0.132-0.031-0.308-0.043-0.526
		c-0.013-0.219-0.025-0.442-0.037-0.669c-0.013-0.228-0.027-0.444-0.044-0.65s-0.033-0.367-0.05-0.483
		c-0.017-0.099-0.03-0.204-0.043-0.315s-0.043-0.192-0.093-0.242c-0.024-0.024-0.048-0.051-0.068-0.08s-0.031-0.063-0.031-0.105
		c0-0.091,0.031-0.186,0.094-0.285c0.062-0.099,0.125-0.189,0.191-0.272c0.1-0.115,0.217-0.206,0.354-0.272
		c0.136-0.065,0.286-0.086,0.452-0.062c0.106,0.017,0.198,0.043,0.272,0.08s0.14,0.089,0.198,0.155
		c0.33-0.024,0.681-0.041,1.053-0.05c0.371-0.008,0.714-0.004,1.028,0.013c0.099-0.041,0.23-0.07,0.396-0.087
		c0.1-0.008,0.213-0.006,0.341,0.006c0.128,0.013,0.25,0.04,0.365,0.081c0.116,0.041,0.217,0.095,0.304,0.161
		s0.139,0.145,0.155,0.235c0.017,0.107,0.01,0.21-0.019,0.31c-0.029,0.099-0.064,0.182-0.105,0.248
		c-0.009,0.032-0.022,0.158-0.043,0.377c-0.021,0.22-0.044,0.471-0.068,0.756c-0.025,0.285-0.05,0.574-0.074,0.867
		c-0.025,0.293-0.046,0.526-0.063,0.7c0.066,0.065,0.1,0.145,0.1,0.235c0.008,0.247-0.07,0.458-0.235,0.632
		c-0.166,0.173-0.38,0.26-0.645,0.26c-0.099,0-0.256,0-0.471,0s-0.445,0-0.693,0s-0.498,0.002-0.75,0.006
		c-0.252,0.005-0.469,0.011-0.649,0.019C257.732,102.925,257.658,102.957,257.592,102.966z M264.517,105.257
		c0.091,0.083,0.175,0.18,0.254,0.291c0.078,0.112,0.143,0.222,0.191,0.329c0.083,0.173,0.105,0.305,0.068,0.396
		s-0.117,0.19-0.241,0.298c-0.148,0.124-0.285,0.219-0.409,0.285c-0.124,0.065-0.25,0.115-0.378,0.148s-0.266,0.054-0.415,0.062
		c-0.148,0.009-0.317,0.017-0.508,0.025c-0.091,0-0.241,0-0.452,0c-0.21,0-0.436-0.005-0.675-0.013
		c-0.239-0.009-0.471-0.015-0.693-0.019c-0.224-0.004-0.389-0.011-0.496-0.019c-0.165-0.009-0.308-0.022-0.427-0.043
		c-0.12-0.021-0.229-0.055-0.328-0.1c-0.1-0.046-0.194-0.105-0.285-0.18s-0.19-0.169-0.298-0.285
		c-0.197-0.215-0.398-0.432-0.601-0.65s-0.361-0.394-0.477-0.526c-0.091-0.091-0.188-0.184-0.291-0.278s-0.209-0.167-0.316-0.217
		c-0.091-0.041-0.165-0.097-0.223-0.167s-0.087-0.163-0.087-0.279c0-0.14,0.042-0.245,0.124-0.315
		c0.083-0.07,0.219-0.139,0.409-0.204c0.14-0.05,0.289-0.094,0.445-0.131c0.157-0.037,0.285-0.063,0.385-0.08
		c0.288-0.041,0.499,0.017,0.631,0.174c0.19,0.223,0.374,0.441,0.552,0.656s0.353,0.408,0.526,0.582
		c0.141,0.141,0.267,0.229,0.378,0.267s0.25,0.063,0.415,0.08c0.074,0.009,0.18,0.015,0.315,0.019
		c0.137,0.005,0.281,0.007,0.434,0.007c0.153,0,0.308,0,0.465,0c0.156,0,0.297-0.005,0.421-0.013
		c0.132-0.008,0.285-0.025,0.458-0.05c0.174-0.024,0.318-0.062,0.434-0.111c0.107-0.041,0.192-0.07,0.254-0.087
		c0.063-0.017,0.118-0.022,0.168-0.019c0.049,0.004,0.093,0.021,0.13,0.05S264.458,105.208,264.517,105.257z M259.747,99.447
		c-0.239,0-0.504,0.005-0.793,0.013c-0.289,0.009-0.545,0.021-0.768,0.037l0.062,1.945c0.248,0,0.509,0,0.781,0
		s0.512-0.005,0.718-0.013V99.447z M265.297,100.277c0.065,0.059,0.14,0.126,0.223,0.205c0.083,0.078,0.159,0.159,0.229,0.241
		c0.07,0.083,0.128,0.163,0.173,0.241c0.046,0.079,0.068,0.147,0.068,0.205c0,0.198-0.113,0.354-0.341,0.471
		c-0.227,0.115-0.48,0.178-0.762,0.186c-0.091,0.008-0.196,0.013-0.315,0.013c-0.12,0-0.237,0-0.354,0l-0.037,0.408
		c-0.017,0.165-0.056,0.343-0.117,0.533c-0.063,0.189-0.143,0.38-0.242,0.569c-0.099,0.19-0.212,0.376-0.34,0.558
		c-0.129,0.182-0.267,0.347-0.415,0.495c-0.272-0.371-0.45-0.79-0.533-1.257c-0.082-0.467-0.132-0.969-0.148-1.505
		c0-0.157,0.002-0.389,0.006-0.694c0.005-0.305,0.013-0.627,0.025-0.966c0.012-0.339,0.026-0.665,0.043-0.979
		s0.029-0.565,0.037-0.756c0.008-0.132,0.011-0.241,0.007-0.328c-0.005-0.087-0.02-0.167-0.044-0.241s-0.058-0.149-0.099-0.224
		c-0.042-0.074-0.1-0.165-0.174-0.272c-0.091-0.14-0.143-0.241-0.154-0.304c-0.013-0.062,0.019-0.138,0.093-0.229
		c0.024-0.025,0.062-0.06,0.111-0.105c0.05-0.045,0.103-0.089,0.161-0.13c0.058-0.041,0.111-0.081,0.161-0.118
		c0.049-0.037,0.086-0.063,0.111-0.08c0.14-0.074,0.241-0.113,0.304-0.118c0.062-0.004,0.154,0.04,0.278,0.131
		c0.173,0.123,0.312,0.23,0.415,0.321c0.103,0.092,0.2,0.198,0.291,0.322c0.132,0.165,0.223,0.349,0.272,0.552
		c0.05,0.202,0.07,0.452,0.062,0.749l-0.024,1.944c0.05-0.016,0.097-0.026,0.143-0.03c0.045-0.004,0.089-0.015,0.13-0.031
		c0.165-0.041,0.31-0.033,0.434,0.024C265.099,100.138,265.206,100.203,265.297,100.277z"/>
	<path fill="#939393" d="M275.058,100.811c0.165,0.082,0.295,0.165,0.391,0.247c0.095,0.083,0.163,0.161,0.204,0.235
		c0.041,0.075,0.063,0.141,0.068,0.198c0.004,0.059,0.002,0.1-0.007,0.124c-0.024,0.05-0.078,0.105-0.16,0.167
		c-0.083,0.063-0.176,0.12-0.279,0.174s-0.204,0.098-0.304,0.13c-0.099,0.033-0.178,0.046-0.235,0.037
		c-0.099-0.017-0.254-0.032-0.464-0.049c-0.211-0.017-0.402-0.025-0.576-0.025c-0.148,0-0.386,0.006-0.712,0.019
		c-0.327,0.013-0.7,0.025-1.121,0.037c-0.422,0.013-0.865,0.029-1.332,0.05s-0.915,0.037-1.344,0.05
		c-0.43,0.012-0.819,0.024-1.171,0.037c-0.351,0.012-0.613,0.019-0.786,0.019c-0.281,0-0.517-0.063-0.706-0.186
		c-0.19-0.124-0.318-0.281-0.384-0.471c-0.025-0.075-0.031-0.151-0.019-0.229c0.012-0.078,0.039-0.155,0.08-0.229
		c0.091-0.165,0.202-0.301,0.334-0.408c0.133-0.1,0.261-0.128,0.385-0.087c0.115,0.041,0.219,0.076,0.31,0.105
		c0.091,0.028,0.235,0.035,0.434,0.019c0.099-0.009,0.282-0.017,0.551-0.025c0.269-0.008,0.58-0.017,0.936-0.024
		c0.354-0.008,0.732-0.019,1.133-0.031c0.401-0.012,0.781-0.024,1.14-0.037c0.359-0.013,0.68-0.024,0.96-0.037
		c0.281-0.013,0.483-0.022,0.607-0.031c0.446-0.032,0.825-0.043,1.14-0.03C274.442,100.568,274.752,100.653,275.058,100.811z
		 M273.732,105.827c0.132,0.074,0.265,0.167,0.396,0.278s0.189,0.25,0.173,0.415c-0.017,0.1-0.045,0.2-0.086,0.304
		c-0.042,0.104-0.107,0.188-0.198,0.254c-0.091,0.074-0.17,0.132-0.235,0.174c-0.066,0.041-0.135,0.074-0.205,0.099
		c-0.069,0.024-0.145,0.041-0.223,0.05c-0.078,0.008-0.176,0.017-0.291,0.024c-0.141,0.008-0.31,0.015-0.508,0.019
		s-0.404,0.006-0.619,0.006s-0.426-0.004-0.632-0.012c-0.207-0.009-0.389-0.021-0.545-0.037c-0.396-0.042-0.762-0.114-1.097-0.217
		c-0.334-0.104-0.638-0.308-0.91-0.613c-0.1-0.116-0.204-0.237-0.315-0.365c-0.112-0.128-0.22-0.256-0.322-0.384
		c-0.104-0.129-0.196-0.25-0.279-0.366c-0.082-0.115-0.145-0.219-0.186-0.31c-0.05-0.099-0.076-0.191-0.08-0.278
		c-0.005-0.087,0.047-0.184,0.154-0.291c0.041-0.041,0.097-0.085,0.167-0.13c0.07-0.046,0.159-0.089,0.267-0.131
		c0.165-0.058,0.295-0.076,0.391-0.056c0.095,0.021,0.188,0.077,0.278,0.168l1.375-0.112c0.413-0.032,0.812-0.054,1.195-0.062
		s0.717-0.017,0.997-0.024c0.008-0.075,0.015-0.153,0.019-0.235c0.004-0.083,0.006-0.161,0.006-0.235
		c-0.471,0.008-0.977,0.021-1.517,0.037c-0.541,0.017-1.076,0.049-1.604,0.099c-0.265,0.024-0.528,0.033-0.793,0.024
		c-0.264-0.008-0.475-0.058-0.632-0.148c-0.065-0.041-0.136-0.082-0.21-0.124c-0.074-0.041-0.12-0.099-0.137-0.173
		c-0.024-0.107-0.015-0.204,0.031-0.291c0.045-0.087,0.105-0.188,0.18-0.304c0.041-0.066,0.093-0.111,0.154-0.137
		c0.063-0.024,0.118-0.032,0.168-0.024c0.074,0.009,0.136,0.017,0.186,0.024c0.05,0.009,0.099,0.013,0.148,0.013
		s0.104-0.002,0.161-0.006s0.132-0.011,0.223-0.019c0.314-0.033,0.667-0.063,1.06-0.087c0.392-0.024,0.79-0.045,1.195-0.062
		c0.404-0.017,0.799-0.029,1.183-0.037c0.384-0.009,0.725-0.013,1.022-0.013l0.049-0.013c0.265-0.05,0.444-0.058,0.539-0.024
		s0.167,0.087,0.217,0.161c0.05,0.065,0.078,0.126,0.087,0.18c0.008,0.054,0.008,0.138,0,0.254c0,0.049-0.004,0.134-0.013,0.254
		c-0.008,0.119-0.021,0.25-0.037,0.39c-0.017,0.141-0.043,0.287-0.08,0.439c-0.037,0.153-0.089,0.283-0.155,0.391
		c0.025,0.066,0.025,0.145,0,0.235c-0.017,0.074-0.058,0.178-0.124,0.31c-0.065,0.133-0.141,0.219-0.223,0.261
		c-0.083,0.041-0.239,0.056-0.471,0.043s-0.491-0.022-0.78-0.031c-0.091,0-0.235,0.002-0.434,0.007
		c-0.198,0.004-0.421,0.012-0.669,0.024s-0.504,0.024-0.768,0.037c-0.265,0.013-0.508,0.022-0.731,0.031
		c0.1,0.082,0.215,0.165,0.347,0.247c0.215,0.133,0.426,0.215,0.632,0.248c0.207,0.033,0.467,0.041,0.78,0.024
		c0.157-0.008,0.32-0.014,0.489-0.019c0.17-0.004,0.329-0.012,0.478-0.024s0.278-0.024,0.39-0.037s0.192-0.027,0.242-0.043
		c0.091-0.042,0.202-0.079,0.334-0.112C273.468,105.732,273.601,105.753,273.732,105.827z M271.045,100.327
		c-0.364,0-0.721-0.048-1.072-0.143c-0.351-0.095-0.667-0.229-0.947-0.402c-0.281-0.174-0.51-0.386-0.688-0.638
		s-0.271-0.531-0.278-0.836c-0.009-0.273,0.069-0.522,0.235-0.75c0.165-0.227,0.378-0.425,0.638-0.595
		c0.26-0.169,0.553-0.31,0.879-0.421s0.646-0.184,0.96-0.217c0.059-0.058,0.137-0.091,0.235-0.099
		c0.348-0.033,0.688-0.002,1.022,0.093c0.334,0.095,0.632,0.237,0.892,0.427c0.261,0.19,0.467,0.42,0.619,0.688
		c0.153,0.269,0.226,0.556,0.217,0.861c-0.008,0.289-0.095,0.558-0.26,0.805c-0.165,0.248-0.376,0.463-0.632,0.645
		s-0.543,0.324-0.86,0.427C271.687,100.275,271.366,100.327,271.045,100.327z M270.945,97.466c-0.107,0.017-0.231,0.041-0.371,0.074
		c-0.141,0.033-0.275,0.079-0.403,0.137s-0.235,0.132-0.321,0.223c-0.087,0.091-0.131,0.202-0.131,0.334
		c0,0.124,0.048,0.228,0.143,0.311c0.095,0.082,0.206,0.146,0.335,0.191c0.128,0.046,0.26,0.081,0.396,0.105
		c0.136,0.024,0.245,0.041,0.328,0.05c0.106,0,0.227-0.013,0.359-0.037c0.132-0.025,0.256-0.066,0.371-0.124
		s0.213-0.132,0.291-0.224c0.078-0.09,0.118-0.197,0.118-0.321c0-0.132-0.035-0.239-0.105-0.322s-0.159-0.146-0.267-0.192
		c-0.107-0.045-0.228-0.082-0.359-0.111C271.197,97.53,271.069,97.499,270.945,97.466z"/>
	<path fill="#939393" d="M285.141,102.271c0.091-0.008,0.192-0.002,0.304,0.019c0.111,0.021,0.217,0.052,0.315,0.094
		c0.1,0.041,0.184,0.089,0.254,0.142c0.07,0.055,0.109,0.11,0.118,0.168c0.017,0.141-0.027,0.28-0.13,0.421
		c-0.104,0.141-0.201,0.256-0.291,0.347c-0.066,0.066-0.124,0.12-0.174,0.161s-0.104,0.072-0.161,0.093s-0.122,0.035-0.192,0.044
		c-0.069,0.008-0.163,0.012-0.278,0.012h-0.917c-0.074,0.306-0.16,0.609-0.26,0.911c-0.099,0.301-0.211,0.588-0.334,0.86
		c-0.157,0.339-0.348,0.617-0.57,0.836s-0.554,0.345-0.991,0.378c-0.264,0.017-0.524-0.006-0.78-0.068
		c-0.256-0.062-0.504-0.146-0.743-0.254c0.215-0.065,0.402-0.165,0.563-0.297s0.32-0.306,0.478-0.521
		c0.173-0.239,0.33-0.514,0.471-0.823c0.14-0.31,0.268-0.63,0.384-0.96c-0.182,0.017-0.402,0.037-0.663,0.062
		c-0.26,0.024-0.53,0.046-0.812,0.063c-0.28,0.017-0.545-0.059-0.792-0.224c-0.248-0.165-0.438-0.354-0.57-0.569
		c-0.082-0.132-0.074-0.272,0.025-0.422c0.024-0.041,0.067-0.093,0.13-0.154c0.062-0.063,0.113-0.109,0.154-0.143
		c0.05-0.041,0.1-0.06,0.149-0.056c0.049,0.004,0.095,0.011,0.136,0.019c0.132,0.024,0.267,0.041,0.402,0.05
		c0.137,0.008,0.271,0.012,0.403,0.012c0.115,0,0.278-0.004,0.489-0.012c0.21-0.009,0.443-0.017,0.699-0.025
		c0.256-0.008,0.53-0.019,0.824-0.03c0.293-0.013,0.582-0.027,0.867-0.044c0.284-0.017,0.555-0.03,0.811-0.043
		S284.942,102.289,285.141,102.271z M281.028,101.107c-0.157-0.082-0.302-0.25-0.434-0.502c-0.132-0.251-0.202-0.51-0.211-0.773
		c-0.008-0.231,0.044-0.465,0.155-0.7s0.267-0.454,0.465-0.656c0.197-0.202,0.431-0.378,0.699-0.526
		c0.269-0.149,0.552-0.252,0.849-0.31c0.082-0.1,0.219-0.149,0.409-0.149c0.338,0,0.658,0.064,0.96,0.192
		c0.301,0.128,0.567,0.297,0.799,0.508c0.23,0.211,0.417,0.45,0.558,0.719c0.14,0.269,0.214,0.547,0.223,0.836
		c0.008,0.313-0.052,0.599-0.18,0.854s-0.3,0.477-0.514,0.663c-0.215,0.186-0.465,0.33-0.75,0.434
		c-0.285,0.103-0.58,0.159-0.886,0.167c-0.43,0.017-0.834-0.045-1.214-0.186S281.268,101.348,281.028,101.107z M282.837,98.816
		c-0.116,0.024-0.228,0.065-0.335,0.123c-0.107,0.059-0.202,0.135-0.284,0.229c-0.083,0.095-0.147,0.2-0.192,0.316
		c-0.046,0.115-0.06,0.239-0.043,0.371c0.074,0.148,0.198,0.278,0.371,0.391c0.174,0.111,0.376,0.167,0.607,0.167
		c0.264,0,0.489-0.07,0.675-0.211c0.186-0.14,0.278-0.317,0.278-0.532c0-0.091-0.021-0.186-0.062-0.285
		c-0.042-0.099-0.102-0.188-0.18-0.267c-0.078-0.078-0.172-0.143-0.278-0.191c-0.107-0.05-0.228-0.074-0.359-0.074
		C282.952,98.854,282.887,98.841,282.837,98.816z M288.361,98.147c-0.009,0.289-0.011,0.611-0.006,0.966
		c0.004,0.355,0.008,0.725,0.012,1.108s0.011,0.772,0.019,1.165c0.009,0.392,0.013,0.764,0.013,1.114
		c0,0.352-0.002,0.673-0.006,0.966c-0.005,0.294-0.015,0.535-0.031,0.726c-0.024,0.338-0.08,0.668-0.167,0.99
		s-0.205,0.607-0.354,0.854c-0.189,0.306-0.363,0.583-0.521,0.83c-0.156,0.248-0.293,0.442-0.408,0.582
		c-0.1-0.338-0.192-0.729-0.278-1.17c-0.087-0.442-0.135-0.878-0.143-1.307c-0.009-0.422-0.007-0.925,0.006-1.512
		c0.013-0.586,0.024-1.189,0.037-1.809s0.021-1.216,0.024-1.79c0.005-0.573-0.006-1.055-0.03-1.442
		c-0.017-0.322-0.056-0.563-0.118-0.725c-0.062-0.161-0.15-0.308-0.267-0.44c-0.148-0.173-0.195-0.313-0.142-0.421
		s0.188-0.248,0.402-0.421c0.107-0.083,0.2-0.15,0.278-0.204c0.079-0.054,0.153-0.085,0.224-0.094
		c0.069-0.008,0.142,0.005,0.217,0.037c0.074,0.033,0.165,0.087,0.272,0.161c0.198,0.149,0.358,0.283,0.482,0.403
		c0.124,0.119,0.224,0.247,0.298,0.384c0.074,0.136,0.124,0.287,0.148,0.452S288.361,97.916,288.361,98.147z"/>
	<path fill="#939393" d="M295.087,99.497c-0.156,0.009-0.377,0.015-0.662,0.019c-0.285,0.005-0.599,0.011-0.941,0.019
		c-0.343,0.009-0.698,0.015-1.065,0.019c-0.367,0.005-0.715,0.007-1.041,0.007s-0.61-0.002-0.854-0.007
		c-0.243-0.004-0.411-0.01-0.501-0.019c-0.141-0.017-0.231-0.056-0.273-0.117c-0.041-0.063-0.065-0.126-0.074-0.192
		c-0.008-0.065,0-0.163,0.025-0.291c0.024-0.128,0.065-0.241,0.124-0.341c0.091-0.156,0.264-0.247,0.52-0.272
		c0.116-0.017,0.293-0.031,0.533-0.043c0.239-0.013,0.508-0.027,0.805-0.044c0-0.041-0.002-0.082-0.006-0.123
		c-0.004-0.042-0.006-0.075-0.006-0.1c-0.018-0.124-0.083-0.243-0.198-0.359c-0.066-0.065-0.112-0.13-0.137-0.191
		c-0.024-0.063-0.004-0.139,0.062-0.229c0.025-0.033,0.064-0.076,0.118-0.13s0.111-0.107,0.174-0.161
		c0.062-0.054,0.123-0.104,0.186-0.148c0.062-0.046,0.113-0.081,0.154-0.105c0.083-0.041,0.17-0.058,0.261-0.05
		c0.091,0.009,0.169,0.033,0.235,0.074c0.065,0.042,0.146,0.098,0.241,0.167c0.095,0.07,0.188,0.149,0.278,0.235
		c0.091,0.087,0.17,0.18,0.235,0.279c0.066,0.099,0.104,0.194,0.112,0.285c0.008,0.091,0.014,0.175,0.019,0.254
		c0.004,0.078,0.006,0.154,0.006,0.229l0.78-0.037c0.157-0.008,0.287-0.008,0.391,0c0.103,0.009,0.191,0.025,0.266,0.05
		s0.143,0.064,0.205,0.117c0.062,0.055,0.134,0.122,0.217,0.205c0.156,0.165,0.256,0.302,0.297,0.408
		c0.041,0.107,0.045,0.194,0.013,0.261c-0.042,0.082-0.093,0.156-0.155,0.223C295.366,99.452,295.252,99.489,295.087,99.497z
		 M293.143,103.498c-0.107,0.042-0.219,0.063-0.335,0.063c-0.256,0-0.524-0.039-0.805-0.118c-0.281-0.078-0.541-0.189-0.78-0.334
		s-0.442-0.322-0.607-0.533c-0.165-0.21-0.26-0.447-0.284-0.712c-0.025-0.256,0.012-0.495,0.111-0.719
		c0.099-0.223,0.243-0.421,0.434-0.595c0.189-0.173,0.412-0.315,0.669-0.427c0.256-0.111,0.524-0.184,0.805-0.217
		c0.066-0.033,0.141-0.058,0.223-0.074c0.083-0.017,0.157-0.025,0.224-0.025c0.28,0,0.553,0.037,0.817,0.111
		c0.264,0.075,0.499,0.185,0.706,0.329c0.206,0.145,0.373,0.324,0.502,0.538c0.128,0.215,0.195,0.467,0.204,0.756
		c0.008,0.289-0.037,0.545-0.137,0.769c-0.099,0.223-0.233,0.414-0.402,0.575s-0.369,0.294-0.601,0.396
		C293.654,103.385,293.406,103.457,293.143,103.498z M298.159,105.307c0.091,0.083,0.174,0.172,0.248,0.267s0.136,0.196,0.186,0.304
		c0.082,0.173,0.105,0.305,0.068,0.396s-0.118,0.19-0.242,0.298c-0.148,0.124-0.284,0.219-0.408,0.285
		c-0.124,0.065-0.25,0.115-0.378,0.148s-0.267,0.054-0.415,0.062c-0.148,0.009-0.318,0.017-0.508,0.025c-0.091,0-0.254,0-0.489,0
		s-0.489-0.003-0.762-0.007s-0.533-0.01-0.78-0.019c-0.248-0.008-0.426-0.017-0.533-0.024c-0.272-0.024-0.506-0.076-0.699-0.155
		c-0.194-0.078-0.407-0.229-0.639-0.452c-0.189-0.182-0.351-0.332-0.482-0.452c-0.133-0.119-0.256-0.245-0.372-0.377
		c-0.066-0.066-0.148-0.145-0.247-0.235c-0.1-0.091-0.203-0.161-0.311-0.211c-0.091-0.041-0.165-0.097-0.223-0.167
		s-0.087-0.163-0.087-0.279c0-0.14,0.042-0.245,0.124-0.315c0.083-0.07,0.219-0.139,0.409-0.204c0.14-0.05,0.289-0.094,0.445-0.131
		c0.157-0.037,0.285-0.063,0.385-0.08c0.289-0.041,0.499,0.017,0.632,0.173c0.082,0.1,0.156,0.187,0.223,0.261
		c0.065,0.074,0.13,0.145,0.191,0.21c0.063,0.066,0.124,0.133,0.187,0.198c0.062,0.066,0.134,0.141,0.217,0.224
		c0.132,0.132,0.26,0.221,0.384,0.266c0.124,0.046,0.26,0.077,0.408,0.094c0.075,0.008,0.192,0.014,0.354,0.019
		c0.161,0.004,0.334,0.006,0.521,0.006c0.186,0,0.369-0.002,0.551-0.006c0.182-0.005,0.335-0.011,0.458-0.019
		c0.133-0.009,0.285-0.025,0.459-0.05c0.173-0.025,0.317-0.063,0.434-0.111c0.107-0.042,0.191-0.07,0.254-0.087
		c0.062-0.017,0.117-0.022,0.167-0.019s0.093,0.021,0.13,0.05C298.054,105.218,298.102,105.257,298.159,105.307z M291.879,101.615
		c0.008,0.215,0.085,0.384,0.229,0.508s0.304,0.207,0.477,0.248c0.289-0.017,0.502-0.1,0.638-0.248
		c0.137-0.148,0.205-0.343,0.205-0.582c0-0.124-0.027-0.227-0.081-0.31c-0.054-0.082-0.122-0.15-0.204-0.204
		c-0.083-0.054-0.174-0.093-0.272-0.118c-0.1-0.024-0.19-0.037-0.272-0.037l-0.174,0.05c-0.058,0.017-0.117,0.045-0.18,0.087
		c-0.062,0.041-0.122,0.093-0.18,0.154c-0.058,0.063-0.103,0.133-0.136,0.211S291.879,101.533,291.879,101.615z M299.596,100.563
		c0.149,0.148,0.24,0.274,0.272,0.378c0.033,0.104,0.009,0.258-0.074,0.465c-0.058,0.14-0.132,0.252-0.223,0.334
		c-0.091,0.083-0.215,0.116-0.371,0.1c-0.183-0.025-0.381-0.042-0.595-0.05c-0.215-0.009-0.413-0.009-0.595,0
		c-0.009,0.157-0.015,0.299-0.019,0.427c-0.005,0.129-0.015,0.238-0.031,0.329c-0.017,0.165-0.056,0.343-0.117,0.532
		c-0.063,0.19-0.143,0.38-0.242,0.569c-0.099,0.19-0.213,0.376-0.341,0.558s-0.266,0.347-0.414,0.496
		c-0.273-0.372-0.455-0.791-0.546-1.258s-0.136-0.968-0.136-1.505c0-0.157,0.004-0.402,0.013-0.737
		c0.008-0.334,0.019-0.689,0.03-1.065c0.013-0.375,0.025-0.736,0.037-1.083c0.013-0.348,0.023-0.615,0.031-0.806
		c0.008-0.132,0.011-0.241,0.006-0.328c-0.004-0.087-0.019-0.167-0.043-0.241s-0.058-0.149-0.099-0.224
		c-0.042-0.074-0.1-0.165-0.174-0.272c-0.091-0.14-0.143-0.241-0.155-0.304c-0.012-0.062,0.019-0.138,0.094-0.229
		c0.024-0.025,0.062-0.06,0.111-0.105c0.049-0.045,0.103-0.089,0.161-0.13c0.058-0.041,0.111-0.081,0.16-0.118
		c0.05-0.037,0.087-0.063,0.112-0.08c0.14-0.074,0.241-0.113,0.303-0.118c0.063-0.004,0.155,0.04,0.279,0.131
		c0.173,0.123,0.312,0.23,0.415,0.321c0.103,0.092,0.2,0.198,0.291,0.322c0.132,0.165,0.223,0.349,0.272,0.552
		c0.05,0.202,0.07,0.452,0.062,0.749c-0.008,0.256-0.012,0.563-0.012,0.923s-0.005,0.733-0.013,1.121l0.173-0.063
		c0.231-0.09,0.471-0.093,0.719-0.006S299.406,100.373,299.596,100.563z"/>
	<path fill="#939393" d="M311.871,101.17c-0.107,0.008-0.228,0.012-0.359,0.012s-0.265,0-0.396,0
		c-0.033,0.24-0.091,0.479-0.173,0.719c-0.083,0.239-0.182,0.454-0.298,0.645c0.058,0.041,0.113,0.086,0.167,0.136
		s0.102,0.104,0.143,0.161c0.042,0.058,0.087,0.12,0.137,0.186c0.05,0.066,0.074,0.128,0.074,0.186c0,0.092-0.054,0.224-0.161,0.396
		c-0.017,0.042-0.046,0.124-0.087,0.248s-0.085,0.254-0.13,0.391c-0.045,0.136-0.087,0.262-0.124,0.377
		c-0.037,0.116-0.06,0.187-0.068,0.211c-0.049,0.157-0.146,0.252-0.291,0.285s-0.299,0.058-0.464,0.074
		c-0.107,0.008-0.219,0.006-0.335-0.006c-0.115-0.013-0.235-0.027-0.359-0.044c-0.23,0.009-0.469,0.013-0.712,0.013
		s-0.444-0.004-0.601-0.013l-1.201-0.062c0.074,0.082,0.144,0.159,0.21,0.229c0.066,0.07,0.132,0.135,0.198,0.192
		c0.148,0.141,0.285,0.223,0.409,0.248c0.124,0.024,0.268,0.045,0.434,0.062c0.074,0.008,0.2,0.017,0.378,0.025
		c0.177,0.008,0.369,0.014,0.575,0.019c0.207,0.004,0.409,0.006,0.607,0.006s0.359,0,0.483,0c0.132-0.009,0.284-0.021,0.458-0.037
		c0.173-0.017,0.317-0.058,0.434-0.124c0.099-0.05,0.18-0.087,0.241-0.111c0.063-0.025,0.115-0.035,0.161-0.031
		c0.045,0.004,0.089,0.022,0.13,0.056s0.091,0.074,0.148,0.124c0.091,0.091,0.165,0.174,0.224,0.248
		c0.058,0.074,0.119,0.152,0.186,0.235c0.115,0.156,0.15,0.278,0.105,0.365c-0.046,0.087-0.13,0.184-0.254,0.291
		c-0.141,0.124-0.274,0.219-0.402,0.285c-0.129,0.065-0.259,0.115-0.391,0.148s-0.274,0.054-0.428,0.062
		c-0.152,0.009-0.324,0.013-0.514,0.013c-0.091,0-0.26-0.002-0.508-0.006c-0.248-0.005-0.514-0.009-0.799-0.013
		s-0.556-0.011-0.812-0.019c-0.256-0.009-0.438-0.013-0.545-0.013c-0.165-0.008-0.308-0.021-0.428-0.037
		c-0.119-0.017-0.229-0.045-0.328-0.087c-0.099-0.041-0.194-0.099-0.285-0.173s-0.189-0.17-0.297-0.285
		c-0.231-0.239-0.444-0.473-0.638-0.699c-0.194-0.228-0.361-0.424-0.502-0.589c-0.066-0.082-0.148-0.152-0.248-0.211
		c-0.099-0.058-0.219-0.119-0.358-0.186c-0.141-0.058-0.22-0.178-0.235-0.359c-0.018-0.124,0.045-0.245,0.186-0.365
		c0.14-0.119,0.334-0.225,0.582-0.315c0.479-0.165,0.81-0.149,0.991,0.049c0.206,0,0.462,0.003,0.768,0.007s0.617,0.006,0.936,0.006
		c0.317,0,0.621,0,0.91,0s0.528,0,0.719,0l0.024-0.521c-0.265-0.008-0.549-0.017-0.854-0.024s-0.611-0.013-0.917-0.013
		s-0.603,0-0.892,0s-0.545,0-0.768,0c-0.231,0.009-0.45-0.045-0.657-0.161c-0.206-0.115-0.388-0.251-0.545-0.408
		c-0.058-0.058-0.087-0.12-0.087-0.186c0-0.066,0.017-0.124,0.05-0.174c0.017-0.033,0.046-0.076,0.087-0.13s0.087-0.105,0.136-0.155
		c0.1-0.091,0.194-0.138,0.285-0.143c0.091-0.004,0.228,0.027,0.409,0.093c0.115,0.042,0.235,0.077,0.359,0.105
		c0.123,0.029,0.26,0.048,0.408,0.056c0.496,0.017,1.045,0.017,1.647,0c0.603-0.016,1.214-0.045,1.833-0.086
		c-0.049-0.1-0.095-0.2-0.136-0.304s-0.074-0.213-0.1-0.328c-0.032-0.116-0.056-0.231-0.067-0.347
		c-0.013-0.116-0.027-0.231-0.044-0.348c-0.107,0.092-0.237,0.182-0.39,0.272c-0.153,0.092-0.318,0.172-0.496,0.242
		s-0.354,0.128-0.532,0.173c-0.178,0.046-0.345,0.064-0.502,0.056c-0.091,0-0.208,0.003-0.353,0.007s-0.304,0.012-0.478,0.024
		c-0.173,0.013-0.353,0.023-0.538,0.031c-0.187,0.008-0.357,0.017-0.515,0.024c-0.206,0.009-0.404-0.008-0.595-0.05
		c-0.189-0.041-0.334-0.082-0.434-0.123c-0.173-0.074-0.308-0.145-0.402-0.211s-0.15-0.206-0.167-0.421
		c-0.009-0.281,0.058-0.471,0.198-0.57c-0.009-0.371-0.019-0.706-0.031-1.003c-0.012-0.298-0.03-0.562-0.056-0.793
		c-0.041-0.05-0.082-0.101-0.124-0.155c-0.041-0.053-0.078-0.108-0.111-0.167c-0.033-0.049-0.054-0.103-0.062-0.161
		c-0.009-0.058,0.008-0.115,0.049-0.173c0.05-0.074,0.105-0.139,0.168-0.192c0.062-0.054,0.126-0.113,0.191-0.18
		c0.066-0.049,0.137-0.074,0.211-0.074s0.156,0.009,0.248,0.025c0.099,0.017,0.221,0.035,0.365,0.056s0.308,0.022,0.489,0.006
		c0.215-0.017,0.458-0.037,0.73-0.062c0.272-0.025,0.541-0.059,0.806-0.1c0.214-0.033,0.392-0.008,0.532,0.074
		c0.141,0.083,0.289,0.194,0.446,0.335c0.091,0.091,0.177,0.188,0.26,0.291s0.115,0.188,0.1,0.254
		c-0.009,0.058-0.048,0.115-0.118,0.173c-0.07,0.059-0.148,0.109-0.235,0.155c-0.087,0.045-0.173,0.082-0.26,0.111
		s-0.151,0.048-0.192,0.056c-0.347,0.042-0.65,0.064-0.91,0.068c-0.261,0.004-0.515,0.002-0.762-0.006
		c0.008,0.206,0.012,0.431,0.012,0.675c0,0.243-0.004,0.456-0.012,0.638c0.223-0.008,0.45-0.021,0.681-0.037
		c0.231-0.017,0.467-0.033,0.706-0.05c0.141-0.008,0.304-0.017,0.489-0.024c0.187-0.008,0.376-0.013,0.57-0.013
		c0.193,0,0.382,0.005,0.563,0.013s0.334,0.024,0.458,0.05c0.009-0.025,0.013-0.058,0.013-0.1c0.033-0.396,0.056-0.76,0.068-1.09
		c0.012-0.33,0.019-0.648,0.019-0.954c0-0.156-0.002-0.286-0.007-0.39c-0.004-0.104-0.026-0.221-0.067-0.354
		c-0.017-0.065-0.07-0.143-0.161-0.229c-0.091-0.087-0.157-0.159-0.198-0.217c-0.033-0.042-0.042-0.098-0.025-0.168
		c0.017-0.069,0.05-0.143,0.1-0.217c0.041-0.058,0.113-0.128,0.217-0.21c0.104-0.083,0.196-0.145,0.278-0.187
		c0.157-0.074,0.298-0.086,0.422-0.037c0.091,0.042,0.206,0.107,0.347,0.198c0.14,0.092,0.256,0.178,0.347,0.261
		c0.148,0.124,0.258,0.269,0.328,0.434s0.118,0.334,0.143,0.508c0.017,0.115,0.031,0.258,0.043,0.427
		c0.013,0.17,0.015,0.328,0.007,0.478c-0.009,0.189-0.015,0.371-0.019,0.545c-0.005,0.173-0.007,0.343-0.007,0.508l0.372-0.074
		c0.165-0.041,0.31-0.033,0.434,0.024s0.23,0.124,0.322,0.198c0.065,0.058,0.14,0.126,0.223,0.204
		c0.082,0.079,0.159,0.159,0.229,0.242c0.069,0.082,0.128,0.163,0.173,0.241s0.068,0.146,0.068,0.204
		c0,0.198-0.113,0.355-0.341,0.471C312.405,101.1,312.151,101.161,311.871,101.17z"/>
	<path fill="#939393" d="M316.813,103.04c-0.503,0.017-0.995,0.026-1.474,0.031c-0.479,0.004-0.871-0.019-1.177-0.068
		c-0.19-0.033-0.328-0.081-0.415-0.143s-0.139-0.184-0.154-0.365c-0.017-0.174-0.009-0.312,0.024-0.415s0.082-0.184,0.148-0.241
		c0.008-0.149,0.015-0.313,0.019-0.49c0.004-0.177,0.002-0.349-0.006-0.514c-0.107-0.107-0.192-0.252-0.254-0.434
		c-0.063-0.182-0.072-0.322-0.031-0.421c0.017-0.041,0.045-0.087,0.087-0.137c0.041-0.049,0.107-0.095,0.198-0.136
		s0.184-0.07,0.278-0.087s0.2-0.021,0.316-0.013c0.115,0.009,0.26,0.021,0.434,0.037c0.173,0.017,0.347,0.021,0.52,0.013
		l1.065-0.062l0.037-0.719c-0.215,0.017-0.408,0.027-0.582,0.031c-0.173,0.004-0.293,0.006-0.359,0.006
		c-0.264,0-0.545-0.035-0.842-0.105c-0.298-0.07-0.537-0.18-0.719-0.328c-0.099-0.082-0.18-0.167-0.241-0.254
		c-0.063-0.087-0.085-0.171-0.068-0.254c0.024-0.115,0.078-0.233,0.161-0.353c0.082-0.12,0.178-0.205,0.285-0.254
		c0.049-0.025,0.103-0.04,0.16-0.044c0.059-0.004,0.133,0.011,0.224,0.044c0.074,0.024,0.188,0.058,0.341,0.099
		c0.152,0.041,0.295,0.07,0.427,0.087c0.066,0.008,0.188,0.008,0.365,0c0.178-0.009,0.368-0.019,0.57-0.031s0.392-0.024,0.569-0.037
		s0.304-0.022,0.378-0.031c0.141-0.017,0.298-0.021,0.471-0.012c0.174,0.008,0.31,0.074,0.409,0.198
		c0.082,0.099,0.136,0.186,0.161,0.26c0.024,0.074,0.017,0.174-0.025,0.297c-0.024,0.107-0.062,0.203-0.111,0.285
		c-0.033,0.174-0.063,0.363-0.093,0.57c-0.029,0.206-0.052,0.4-0.068,0.582c0.083,0.033,0.132,0.078,0.148,0.136
		c0.042,0.141,0.052,0.272,0.031,0.396s-0.043,0.215-0.068,0.272c-0.041,0.083-0.109,0.18-0.204,0.291s-0.221,0.168-0.378,0.168
		c-0.033,0-0.117,0.002-0.254,0.006c-0.136,0.004-0.302,0.008-0.495,0.013c-0.194,0.004-0.409,0.008-0.645,0.012
		c-0.235,0.005-0.464,0.007-0.688,0.007l-0.024,0.792c0.289-0.008,0.584-0.016,0.886-0.024c0.301-0.008,0.563-0.021,0.786-0.037
		c0.289-0.017,0.56-0.041,0.812-0.074s0.432-0.058,0.539-0.074c0.065-0.017,0.122-0.002,0.167,0.043
		c0.046,0.046,0.081,0.102,0.105,0.167c0.058,0.141,0.07,0.265,0.037,0.372s-0.137,0.248-0.31,0.421
		c-0.182,0.182-0.393,0.31-0.632,0.384S317.135,103.023,316.813,103.04z M321.743,98.172c0,0.289,0,0.605,0,0.947
		c0,0.343-0.002,0.682-0.007,1.016c-0.004,0.335-0.008,0.655-0.012,0.96c-0.005,0.306-0.011,0.563-0.019,0.769
		c-0.017,0.265-0.089,0.554-0.217,0.867s-0.296,0.606-0.502,0.879c0.115,0.017,0.209,0.056,0.278,0.118
		c0.07,0.062,0.151,0.154,0.242,0.278s0.14,0.246,0.148,0.365c0.008,0.12-0.009,0.287-0.05,0.502
		c-0.017,0.207-0.033,0.37-0.049,0.489c-0.018,0.12-0.042,0.258-0.075,0.415c-0.049,0.265-0.115,0.481-0.198,0.65
		c-0.082,0.169-0.169,0.317-0.26,0.446c-0.091,0.128-0.182,0.252-0.272,0.371c-0.091,0.12-0.165,0.263-0.223,0.428
		c-0.059-0.058-0.124-0.139-0.198-0.242c-0.074-0.103-0.148-0.217-0.224-0.34c-0.074-0.124-0.14-0.254-0.197-0.391
		c-0.059-0.136-0.096-0.262-0.112-0.378c-0.033-0.231-0.054-0.438-0.062-0.619c-0.009-0.182-0.009-0.38,0-0.595
		c-0.141,0.017-0.354,0.027-0.638,0.031c-0.285,0.004-0.591,0.006-0.917,0.006s-0.65,0-0.973,0c-0.321,0-0.586-0.004-0.792-0.012
		c-0.265-0.009-0.508-0.031-0.731-0.068c-0.223-0.037-0.458-0.126-0.706-0.267c-0.107-0.066-0.178-0.136-0.21-0.211
		c-0.033-0.074-0.029-0.193,0.012-0.358c0.017-0.066,0.048-0.146,0.093-0.242c0.046-0.095,0.089-0.184,0.131-0.266
		c0.058-0.107,0.117-0.168,0.18-0.18c0.062-0.013,0.15-0.002,0.266,0.03c0.091,0.025,0.205,0.046,0.341,0.063
		c0.137,0.017,0.276,0.028,0.421,0.037c0.145,0.008,0.291,0.015,0.44,0.019c0.148,0.004,0.28,0.006,0.396,0.006
		c0.248,0,0.524-0.002,0.83-0.006s0.613-0.009,0.923-0.013s0.611-0.01,0.904-0.019c0.293-0.008,0.547-0.021,0.762-0.037
		c-0.074-0.165-0.152-0.322-0.235-0.471c-0.082-0.148-0.145-0.317-0.186-0.508c-0.017-0.091-0.031-0.202-0.043-0.334
		c-0.013-0.133-0.023-0.269-0.031-0.409c-0.041,0.008-0.091,0.013-0.148,0.013c-0.215,0.017-0.402-0.007-0.563-0.068
		c-0.161-0.063-0.313-0.139-0.452-0.229c-0.166-0.107-0.298-0.23-0.396-0.371c-0.1-0.141-0.148-0.277-0.148-0.409
		c0-0.074,0.045-0.134,0.136-0.18c0.091-0.045,0.198-0.08,0.322-0.105c0.124-0.024,0.252-0.041,0.384-0.049
		c0.132-0.009,0.235-0.013,0.31-0.013c0.066,0,0.146-0.002,0.242-0.006c0.095-0.005,0.195-0.007,0.303-0.007
		c0-0.091,0.002-0.186,0.007-0.284c0.004-0.1,0.006-0.198,0.006-0.298h-0.396c-0.206-0.008-0.402-0.063-0.588-0.167
		c-0.187-0.104-0.354-0.225-0.502-0.365c-0.066-0.066-0.124-0.137-0.174-0.211c-0.049-0.074-0.066-0.156-0.049-0.248
		c0.016-0.148,0.088-0.245,0.217-0.291c0.128-0.045,0.286-0.076,0.477-0.093l1.065-0.062c0.008-0.041,0.012-0.076,0.012-0.105
		s0-0.063,0-0.105c0.009-0.132,0.011-0.241,0.007-0.328c-0.005-0.087-0.019-0.167-0.044-0.241c-0.024-0.074-0.058-0.149-0.099-0.224
		c-0.042-0.074-0.1-0.165-0.174-0.272c-0.091-0.14-0.143-0.241-0.154-0.304c-0.013-0.062,0.019-0.138,0.093-0.229
		c0.024-0.025,0.058-0.06,0.099-0.105c0.042-0.045,0.087-0.089,0.137-0.13s0.097-0.081,0.143-0.118
		c0.045-0.037,0.08-0.063,0.105-0.08c0.14-0.074,0.241-0.113,0.303-0.118c0.063-0.004,0.155,0.04,0.279,0.131
		c0.173,0.123,0.31,0.23,0.408,0.321c0.1,0.092,0.194,0.198,0.285,0.322c0.132,0.165,0.219,0.349,0.26,0.552
		C321.723,97.625,321.743,97.875,321.743,98.172z"/>
</g>
</svg>
