<?xml version="1.0" encoding="utf-8"?>
<!-- Generator: Adobe Illustrator 16.0.0, SVG Export Plug-In . SVG Version: 6.00 Build 0)  -->
<!DOCTYPE svg PUBLIC "-//W3C//DTD SVG 1.1//EN" "http://www.w3.org/Graphics/SVG/1.1/DTD/svg11.dtd">
<svg version="1.1" id="Layer_1" xmlns="http://www.w3.org/2000/svg" xmlns:xlink="http://www.w3.org/1999/xlink" x="0px" y="0px"
	 width="357.17px" height="119.061px" viewBox="0 0 357.17 119.061" enable-background="new 0 0 357.17 119.061"
	 xml:space="preserve">
<path fill="none" stroke="#FFFFFF" stroke-width="3" stroke-miterlimit="10" d="M79.34,83.707c0,16.193-10.315,29.321-23.04,29.321
	H40.065c-12.725,0-23.04-13.128-23.04-29.321v-47.93c0-16.193,10.315-29.321,23.04-29.321H56.3c12.725,0,23.04,13.128,23.04,29.321
	V83.707z"/>
<g>
	<path fill="#FFFFFF" d="M24.267,38.52c0.113-5.625,2.732-11.656,8.051-16.479c0.15-0.137,0.314-0.258,0.466-0.393
		c0.405-0.361,0.844-0.486,1.331-0.173c0.484,0.312,0.526,0.777,0.419,1.292c-0.227,1.092-0.506,2.176-0.665,3.276
		c-1.68,11.669,5.647,23.01,16.915,26.16c4.776,1.334,9.479,1.019,14.089-0.791c0.114-0.044,0.225-0.092,0.338-0.138
		c0.479-0.188,0.927-0.159,1.277,0.253c0.359,0.426,0.373,0.923,0.045,1.35c-1.103,1.427-2.113,2.951-3.382,4.218
		C58.437,61.8,52.7,64.094,46.033,63.734c-7.104-0.384-12.763-3.613-17.018-9.26C25.786,50.189,24.265,45.367,24.267,38.52z
		 M31.776,25.584c-0.234,0.271-0.343,0.388-0.446,0.511c-5.631,6.764-6.6,16.622-2.398,24.399
		c6.382,11.816,21.243,14.775,31.509,6.258c0.816-0.676,1.513-1.496,2.356-2.34c-8.834,1.947-16.558-0.008-23.033-6.132
		C33.314,42.178,30.849,34.533,31.776,25.584z"/>
</g>
<g>
	<path fill="#FFFFFF" d="M57.412,25.215c3.612-0.007,6.461,2.829,6.491,6.458c0.03,3.638-3.025,6.704-6.652,6.68
		c-3.556-0.025-6.464-2.978-6.447-6.539C50.823,28.166,53.773,25.221,57.412,25.215z"/>
	<path fill="#FFFFFF" d="M71.551,26.339c-0.15,0.141-0.379,0.484-0.697,0.628c-1.54,0.695-3.106,1.327-4.655,2
		c-0.542,0.234-0.999,0.158-1.244-0.377c-0.254-0.559-0.065-1.021,0.528-1.271c1.556-0.66,3.103-1.338,4.669-1.969
		C70.941,25.032,71.563,25.398,71.551,26.339z"/>
	<path fill="#FFFFFF" d="M63.85,18.18c-0.126,0.379-0.184,0.586-0.265,0.782c-0.6,1.455-1.213,2.904-1.804,4.362
		c-0.255,0.633-0.65,1.03-1.342,0.722c-0.662-0.296-0.571-0.854-0.331-1.418c0.639-1.506,1.23-3.032,1.935-4.508
		c0.151-0.315,0.685-0.588,1.061-0.61C63.348,17.494,63.624,17.963,63.85,18.18z"/>
	<path fill="#FFFFFF" d="M65.696,33.857c0.458,0.143,0.726,0.215,0.986,0.307c1.427,0.5,2.852,1.006,4.278,1.508
		c0.605,0.216,0.983,0.617,0.729,1.269c-0.238,0.606-0.773,0.624-1.331,0.426c-1.57-0.558-3.158-1.074-4.7-1.7
		c-0.327-0.132-0.659-0.659-0.674-1.017C64.973,34.382,65.469,34.093,65.696,33.857z"/>
	<path fill="#FFFFFF" d="M43.712,25.92c1.493,0.529,2.801,0.992,4.108,1.458c0.464,0.166,1.001,0.249,1.365,0.542
		c0.267,0.216,0.491,0.771,0.395,1.064c-0.088,0.263-0.707,0.598-0.971,0.516c-1.764-0.551-3.509-1.17-5.225-1.858
		c-0.248-0.101-0.449-0.721-0.391-1.052C43.043,26.312,43.5,26.104,43.712,25.92z"/>
	<path fill="#FFFFFF" d="M54.746,40.009c-0.126,0.361-0.176,0.538-0.247,0.708c-0.612,1.482-1.234,2.966-1.842,4.449
		c-0.239,0.585-0.598,0.976-1.27,0.693c-0.626-0.262-0.626-0.785-0.405-1.324c0.644-1.572,1.266-3.151,1.982-4.688
		c0.139-0.3,0.674-0.607,0.989-0.572C54.257,39.307,54.514,39.775,54.746,40.009z"/>
	<path fill="#FFFFFF" d="M50.559,18.375c0.286-0.285,0.504-0.688,0.771-0.727c0.324-0.043,0.893,0.129,1.006,0.372
		c0.794,1.702,1.528,3.435,2.197,5.19c0.086,0.229-0.234,0.773-0.507,0.933c-0.222,0.128-0.867,0.001-0.958-0.188
		C52.204,22.154,51.418,20.315,50.559,18.375z"/>
	<path fill="#FFFFFF" d="M63.855,45.117c-0.136,0.158-0.339,0.608-0.583,0.633c-0.357,0.034-0.959-0.136-1.082-0.396
		c-0.771-1.642-1.474-3.315-2.108-5.016c-0.105-0.28,0.146-0.913,0.404-1.049c0.259-0.133,0.973,0.043,1.081,0.274
		c0.798,1.694,1.494,3.438,2.221,5.167C63.813,44.787,63.811,44.854,63.855,45.117z"/>
	<path fill="#FFFFFF" d="M43.88,38.309c-0.17-0.158-0.603-0.375-0.658-0.664c-0.058-0.306,0.155-0.873,0.404-0.989
		c1.647-0.761,3.322-1.464,5.023-2.095c0.286-0.106,0.918,0.134,1.061,0.394c0.138,0.255-0.036,0.979-0.264,1.085
		c-1.697,0.793-3.442,1.484-5.173,2.205C44.219,38.269,44.153,38.266,43.88,38.309z"/>
</g>
<path fill="none" stroke="#FFFFFF" stroke-width="3" stroke-miterlimit="10" d="M17.629,79.682c0,0,23.174-2.994,29.924,5.989
	c0,0,13.5-11.062,31.724-3.233"/>
<path fill="none" stroke="#FFFFFF" stroke-width="3" stroke-miterlimit="10" d="M48.197,85.672c0,0-0.771,21.494,0,27.356"/>
<g>
	<g>
		<path fill="#FFFFFF" stroke="#FFFFFF" stroke-miterlimit="10" d="M55.433,91.752c4.762-3.427,10.985-3.976,16.423-2.06
			c1.83,0.645,2.609-2.254,0.798-2.894c-6.113-2.153-13.375-1.494-18.735,2.362C52.364,90.281,53.859,92.885,55.433,91.752
			L55.433,91.752z"/>
	</g>
</g>
<g>
	<g>
		<path fill="#FFFFFF" stroke="#FFFFFF" stroke-miterlimit="10" d="M55.736,100.529c3.513-2.794,9.593-3.729,14.461-1.825
			c1.805,0.705,2.579-2.196,0.798-2.893c-5.8-2.268-12.481-1.301-17.38,2.597C52.101,99.612,54.239,101.721,55.736,100.529
			L55.736,100.529z"/>
	</g>
</g>
<g>
	<g>
		<path fill="#FFFFFF" stroke="#FFFFFF" stroke-miterlimit="10" d="M41.743,89.131c-5.323-3.831-12.537-4.485-18.608-2.347
			c-1.812,0.639-1.032,3.537,0.798,2.894c5.396-1.901,11.571-1.356,16.296,2.044C41.802,92.854,43.298,90.249,41.743,89.131
			L41.743,89.131z"/>
	</g>
</g>
<g>
	<g>
		<path fill="#FFFFFF" stroke="#FFFFFF" stroke-miterlimit="10" d="M42.046,98.313c-4.867-3.872-11.504-4.833-17.266-2.581
			c-1.781,0.696-1.006,3.598,0.798,2.893c4.831-1.888,10.87-0.957,14.347,1.811C41.422,101.625,43.56,99.517,42.046,98.313
			L42.046,98.313z"/>
	</g>
</g>
<path fill="#FFFFFF" d="M129.069,56.07c1.04,0.986,1.693,1.882,1.965,2.674s0.333,1.833,0.188,3.121
	c-0.103,0.841-0.423,1.633-0.968,2.377c-0.544,0.744-1.137,1.167-1.784,1.264c-0.743,0.104-1.396,0.141-1.965,0.115
	c-0.575-0.03-1.132-0.15-1.676-0.375c-0.544-0.224-1.089-0.557-1.633-1.004c-0.545-0.447-1.119-1.04-1.712-1.784
	c-0.496-0.642-1.149-1.47-1.966-2.485c-0.822-1.017-1.603-2.021-2.347-3.013c-0.792,1.24-1.536,2.354-2.226,3.346
	c-0.695,0.991-1.313,1.783-1.857,2.377c-1.294,1.487-2.564,2.455-3.828,2.896c-1.264,0.447-2.764,0.6-4.5,0.447
	c-0.544-0.049-1.186-0.188-1.929-0.405c-0.744-0.224-1.488-0.483-2.232-0.78c-0.744-0.303-1.421-0.61-2.044-0.932
	c-0.617-0.32-1.052-0.58-1.3-0.78c0.744-0.048,1.536-0.345,2.377-0.895c0.847-0.545,1.591-1.138,2.232-1.778
	c1.04-0.992,2.117-2.195,3.236-3.604c1.113-1.415,2.189-2.977,3.229-4.688c1.04-1.705,2.021-3.514,2.939-5.425
	c0.913-1.905,1.693-3.822,2.341-5.758c0.394-1.139,0.617-2.021,0.665-2.639c0.049-0.622-0.199-1.154-0.743-1.597
	c-0.545-0.496-0.89-0.871-1.041-1.119c-0.145-0.247-0.175-0.592-0.072-1.04c0.097-0.44,0.381-1.052,0.853-1.819
	c0.472-0.769,0.883-1.35,1.229-1.748c0.398-0.441,0.779-0.689,1.154-0.737c0.369-0.049,0.901,0.048,1.598,0.296
	c0.345,0.097,0.779,0.248,1.3,0.441c0.521,0.198,1.077,0.436,1.669,0.708c0.6,0.271,1.168,0.567,1.712,0.895
	c0.545,0.321,1.017,0.653,1.409,1.004c1.089,0.992,1.585,2.189,1.488,3.605c-0.097,1.409-0.399,3.055-0.889,4.94
	c-0.6,2.28-1.513,4.705-2.753,7.282c0.496,0.399,1.125,0.901,1.894,1.524c0.769,0.615,1.549,1.264,2.341,1.929
	c0.792,0.672,1.524,1.288,2.195,1.857C128.282,55.339,128.767,55.769,129.069,56.07z M152.034,16.823
	c1.089,0.847,2.002,1.651,2.746,2.419c0.744,0.77,1.324,1.573,1.748,2.414c0.417,0.847,0.708,1.771,0.853,2.788
	c0.151,1.016,0.224,2.22,0.224,3.604c-0.048,1.688-0.072,3.594-0.072,5.723s0,4.337,0,6.617c0,2.279-0.012,4.584-0.036,6.912
	c-0.03,2.328-0.036,4.53-0.036,6.61c0,2.081-0.019,4.004-0.043,5.759c-0.023,1.761-0.036,3.211-0.036,4.35
	c-0.097,3.863-0.78,7.359-2.044,10.48c-1.265,3.121-3.23,6.146-5.909,9.066c-0.193-1.984-0.666-4.21-1.409-6.689
	c-0.345-1.137-0.593-2.364-0.744-3.678c-0.146-1.313-0.272-2.588-0.369-3.828c-0.103-1.881-0.151-4.113-0.151-6.688
	c0-2.577,0.049-5.274,0.151-8.1c-1.391-0.103-2.752-0.103-4.089,0c0,1.187-0.012,2.28-0.036,3.267
	c-0.03,0.991-0.066,1.862-0.115,2.606c-0.097,1.584-0.271,3.278-0.52,5.086c-0.248,1.81-0.72,3.333-1.409,4.573
	c-0.896,1.633-1.833,3.241-2.825,4.832c-0.991,1.585-1.832,2.97-2.527,4.161c-0.346-0.991-0.684-2.068-1.005-3.235
	c-0.32-1.161-0.604-2.365-0.853-3.604c-0.248-1.234-0.447-2.476-0.599-3.714c-0.146-1.24-0.218-2.401-0.218-3.496
	c0-2.274,0.036-4.706,0.109-7.282c0.072-2.576,0.139-5.189,0.188-7.839c0.048-2.648,0.084-5.227,0.108-7.729
	c0.024-2.503,0.012-4.819-0.036-6.949c-0.049-0.942-0.121-1.747-0.224-2.412c-0.097-0.673-0.236-1.266-0.405-1.785
	c-0.176-0.521-0.388-0.991-0.636-1.415c-0.248-0.417-0.544-0.854-0.889-1.3c-0.551-0.696-0.78-1.435-0.708-2.232
	c0.073-0.786,0.605-1.657,1.597-2.601c1.192-1.09,2.142-1.706,2.861-1.856c0.72-0.146,1.651,0.248,2.788,1.191
	c1.089,0.889,1.984,1.724,2.674,2.484c0.695,0.774,1.239,1.579,1.639,2.42c0.394,0.842,0.665,1.771,0.816,2.788
	c0.151,1.017,0.224,2.189,0.224,3.526c0.049,1.688,0.073,3.472,0.073,5.353s0,3.769,0,5.649c0.695,0,1.421,0,2.195,0
	c0.762,0,1.494,0.022,2.189,0.072c0.097-3.072,0.188-5.971,0.26-8.697c0.073-2.722,0.061-5.026-0.036-6.907
	c-0.103-1.888-0.284-3.333-0.557-4.349c-0.271-1.018-0.756-1.948-1.451-2.789c-0.793-0.938-1.089-1.76-0.89-2.449
	c0.194-0.695,0.816-1.536,1.857-2.528c1.089-1.04,2.02-1.607,2.788-1.712C150.015,15.613,150.939,15.982,152.034,16.823z"/>
<path fill="#FFFFFF" d="M217.14,47.634c0,1.735,0,3.532,0,5.39c0,1.856-0.014,3.684-0.037,5.462
	c-0.023,1.784-0.049,3.483-0.072,5.093c-0.03,1.608-0.066,3.036-0.114,4.275c-0.099,1.682-0.581,3.515-1.446,5.498
	c-0.871,1.983-1.972,3.841-3.309,5.577c0.841,0.048,1.494,0.247,1.966,0.592c0.472,0.346,1.004,0.943,1.604,1.785
	c0.543,0.742,0.853,1.476,0.925,2.188c0.073,0.72-0.036,1.725-0.333,3.012c-0.104,1.24-0.199,2.443-0.297,3.604
	c-0.103,1.168-0.248,2.214-0.446,3.157c-0.297,1.585-0.72,2.886-1.265,3.9c-0.545,1.018-1.112,1.924-1.705,2.717
	c-0.6,0.792-1.191,1.535-1.784,2.226c-0.599,0.695-1.071,1.536-1.416,2.528c-0.345-0.346-0.731-0.828-1.147-1.445
	c-0.425-0.623-0.836-1.301-1.229-2.045c-0.397-0.743-0.743-1.523-1.04-2.34c-0.296-0.823-0.473-1.579-0.521-2.27
	c-0.103-1.487-0.175-2.765-0.224-3.829c-0.048-1.063-0.103-2.413-0.151-4.052c-0.84,0.104-2.129,0.163-3.863,0.188
	c-1.73,0.023-3.617,0.035-5.645,0.035c-2.031,0-4.027,0-5.986,0c-1.955,0-3.558-0.023-4.791-0.071
	c-1.584-0.049-3.049-0.321-4.385-0.816c-1.337-0.496-2.753-1.24-4.24-2.231c-0.642-0.394-1.064-0.816-1.265-1.265
	c-0.193-0.448-0.169-1.161,0.079-2.152c0.097-0.399,0.284-0.877,0.557-1.452c0.271-0.568,0.532-1.102,0.78-1.598
	c0.345-0.641,0.707-1.004,1.076-1.075c0.375-0.072,0.907-0.013,1.597,0.188c0.544,0.146,1.228,0.284,2.044,0.405
	c0.816,0.127,1.664,0.234,2.527,0.332c0.865,0.104,1.748,0.176,2.639,0.225c0.895,0.054,1.688,0.078,2.377,0.078
	c1.535,0,3.248-0.012,5.129-0.042c1.887-0.024,3.791-0.049,5.728-0.073c1.931-0.022,3.798-0.06,5.606-0.107s3.356-0.127,4.646-0.225
	c-0.44-1.137-0.956-2.194-1.524-3.156c-0.567-0.969-0.974-2.068-1.222-3.31c-0.103-0.398-0.163-0.769-0.188-1.113
	c-0.023-0.351-0.061-0.72-0.114-1.117l-3.339,0.224c-1.295,0.103-2.37-0.049-3.235-0.448c-0.864-0.393-1.724-0.864-2.563-1.409
	l-0.225-0.149v0.375c-0.097,0.841-0.357,1.548-0.779,2.116c-0.424,0.567-0.901,1.125-1.445,1.67c-0.551,0.55-1.083,0.99-1.604,1.343
	c-0.52,0.345-1.052,0.544-1.597,0.593c-0.248,0-0.594-0.073-1.04-0.225c-0.447-0.15-0.89-0.368-1.337-0.671c-0.943,0-2.02,0-3.235,0
	c-1.21,0-2.45,0-3.714,0s-2.527,0.029-3.792,0.079c-1.265,0.048-2.413,0.097-3.454,0.145c-0.792,0.793-1.561,1.191-2.304,1.191
	c-0.399,0-0.854-0.114-1.373-0.332c-0.521-0.226-1.005-0.521-1.452-0.896c-0.447-0.369-0.828-0.792-1.149-1.264
	c-0.326-0.466-0.514-0.976-0.563-1.524c-0.048-0.248-0.072-0.769-0.072-1.561c0-0.793,0-1.729,0-2.824
	c0-1.089,0.012-2.263,0.036-3.526c0.024-1.265,0.049-2.491,0.079-3.684c0.024-1.187,0.036-2.274,0.036-3.267
	c0-0.991,0-1.761,0-2.305c0-0.841-0.036-1.438-0.115-1.784c-0.072-0.345-0.284-0.743-0.629-1.19c-0.351-0.442-0.61-0.854-0.78-1.224
	c-0.175-0.375-0.139-0.778,0.109-1.228c0.151-0.296,0.411-0.604,0.78-0.932c0.375-0.32,0.768-0.642,1.191-0.969
	c0.417-0.319,0.828-0.604,1.228-0.853c0.394-0.248,0.689-0.417,0.889-0.521c0.841-0.447,1.748-0.368,2.716,0.225
	c0.962,0.593,1.791,1.288,2.486,2.08c0.345,0.398,0.695,0.896,1.04,1.487c0.345,0.593,0.568,1.313,0.672,2.153
	c0,0.199,0.012,0.423,0.036,0.671c0.023,0.248,0.036,0.545,0.036,0.891l4.089-0.226c1.486-0.097,2.625,0.176,3.417,0.823
	c0.792,0.641,1.487,1.457,2.081,2.449c0-0.992,0-1.894,0-2.71c0-0.822-0.024-1.477-0.073-1.973
	c-0.097-1.734-0.544-3.145-1.337-4.238c-0.199-0.242-0.362-0.558-0.482-0.927c-0.127-0.375-0.062-0.827,0.188-1.373
	c0.146-0.247,0.395-0.52,0.744-0.821c0.345-0.297,0.736-0.594,1.186-0.891c0.447-0.296,0.883-0.567,1.301-0.815
	c0.424-0.248,0.779-0.447,1.076-0.6c0.545-0.296,1.04-0.345,1.487-0.145c0.448,0.199,0.841,0.423,1.19,0.665
	c0.793,0.646,1.488,1.24,2.082,1.784c0.592,0.551,1.075,1.131,1.444,1.748c0.375,0.623,0.659,1.313,0.858,2.08
	c0.193,0.769,0.297,1.699,0.297,2.789c0.146-0.05,0.395-0.073,0.744-0.073l8.322-0.447c0-0.297,0.012-0.593,0.035-0.889
	c0.024-0.304,0.036-0.601,0.036-0.896c0.05-0.792,0.067-1.452,0.037-1.972c-0.024-0.521-0.108-0.998-0.261-1.445
	c-0.145-0.448-0.346-0.896-0.594-1.337c-0.248-0.448-0.592-0.992-1.039-1.64c-0.545-0.841-0.854-1.445-0.926-1.82
	c-0.078-0.369,0.108-0.828,0.557-1.373c0.146-0.151,0.345-0.355,0.593-0.635c0.248-0.268,0.521-0.526,0.815-0.78
	c0.297-0.242,0.582-0.478,0.854-0.702c0.271-0.224,0.483-0.387,0.636-0.482c0.84-0.447,1.45-0.685,1.819-0.708
	s0.933,0.235,1.67,0.779c1.04,0.744,1.862,1.393,2.455,1.937c0.593,0.545,1.161,1.186,1.712,1.93
	c0.792,0.992,1.313,2.093,1.561,3.31C217.019,44.354,217.14,45.849,217.14,47.634z M178.345,65.621c1.433,0,3.03,0.012,4.79,0.036
	c1.761,0.024,3.284-0.012,4.572-0.108c0-1.144,0.013-2.341,0.036-3.604s0.037-2.491,0.037-3.677
	c-0.545,0.544-1.373,1.052-2.486,1.518c-1.119,0.472-2.146,0.756-3.085,0.859c-0.351,0-0.87,0-1.562,0
	c-0.694,0-1.463-0.024-2.304-0.079C178.441,62.549,178.441,64.236,178.345,65.621z M200.862,61.907
	c0.641-0.048,1.476-0.091,2.492-0.115c1.01-0.022,2.043-0.036,3.084-0.036c0-0.495,0.013-0.99,0.037-1.486
	c0.022-0.49,0.035-1.012,0.035-1.562c-0.593,0.056-1.216,0.078-1.857,0.078c-0.646,0-1.287,0-1.936,0
	c-0.841-0.048-1.705-0.26-2.601-0.635c-0.89-0.369-1.735-0.829-2.528-1.373c0,0.89-0.012,1.797-0.035,2.71
	c-0.025,0.919-0.037,1.82-0.037,2.716c0.643-0.104,1.266-0.176,1.856-0.225C199.974,61.932,200.463,61.907,200.862,61.907z"/>
<path fill="#DDDDDD" d="M243.067,50.222c-0.889,0.345-2.058,0.398-3.49,0.146c-3.672-0.544-6.43-1.93-8.292-4.161
	c-1.856-2.226-2.782-5.025-2.782-8.396c0-1.439,0.309-2.86,0.926-4.275c0.623-1.41,1.451-2.723,2.492-3.938
	c1.04-1.217,2.213-2.258,3.531-3.121c1.313-0.865,2.638-1.452,3.975-1.748c0.248-0.545,0.652-0.938,1.229-1.187
	c0.568-0.248,1.101-0.424,1.597-0.525c0.447-0.048,0.955-0.048,1.524,0c0.568,0.055,1.147,0.14,1.748,0.267
	c0.593,0.121,1.173,0.284,1.74,0.479c0.568,0.198,1.053,0.375,1.452,0.521c1.487,0.599,2.86,1.318,4.125,2.159
	s2.364,1.832,3.308,2.97c0.938,1.144,1.67,2.468,2.19,3.979s0.757,3.254,0.707,5.236c-0.048,1.635-0.46,3.146-1.228,4.537
	c-0.77,1.385-1.772,2.588-3.006,3.604c-1.24,1.016-2.668,1.819-4.276,2.413c-1.608,0.593-3.261,0.942-4.94,1.04
	c-0.447,0.049-0.884,0.061-1.302,0.036C243.872,50.234,243.467,50.222,243.067,50.222z M279.636,76.46
	c0.842,0.841,1.09,1.548,0.744,2.116c-0.352,0.568-0.896,1.174-1.641,1.821c-0.84,0.743-1.646,1.313-2.412,1.705
	c-0.77,0.398-1.549,0.694-2.342,0.896c-0.791,0.199-1.65,0.32-2.563,0.369c-0.919,0.048-1.946,0.078-3.085,0.078
	c-0.544,0-1.572-0.012-3.084-0.042c-1.514-0.024-3.133-0.049-4.869-0.073c-1.736-0.022-3.381-0.061-4.941-0.107
	c-1.561-0.05-2.66-0.079-3.309-0.079c-0.992-0.048-1.855-0.108-2.601-0.182c-0.744-0.079-1.409-0.225-2.009-0.447
	c-0.592-0.225-1.16-0.558-1.705-1.004c-0.545-0.447-1.119-1.064-1.713-1.856c-1.137-1.439-2.08-2.825-2.823-4.161
	c-0.744-1.337-1.488-2.528-2.226-3.568c-0.399-0.545-0.933-0.968-1.604-1.265c-0.665-0.296-1.349-0.665-2.044-1.112
	c-0.594-0.398-0.992-0.816-1.186-1.265c-0.248-0.544-0.363-1.089-0.332-1.633c0.022-0.545,0.229-1.018,0.629-1.415
	c0.393-0.395,0.979-0.757,1.748-1.077c0.768-0.32,1.547-0.604,2.34-0.853c0.938-0.304,1.729-0.521,2.377-0.673
	c0.642-0.149,1.191-0.224,1.634-0.224c0.446,0,0.847,0.115,1.19,0.333c0.346,0.224,0.672,0.587,0.969,1.082l0.072,0.073
	c1.088,0.048,2.491,0.061,4.196,0.036c1.712-0.024,3.496-0.05,5.354-0.072c1.855-0.024,3.651-0.062,5.389-0.115
	c1.734-0.049,3.193-0.072,4.385-0.072l0.146-3.12c-1.586-0.05-3.303-0.098-5.166-0.151c-1.856-0.049-3.713-0.072-5.57-0.072
	c-1.855,0-3.652,0-5.389,0c-1.735,0-3.272,0-4.608,0c-0.496,0-0.92-0.013-1.265-0.037c-0.346-0.022-0.695-0.084-1.04-0.188
	c-0.345-0.098-0.708-0.247-1.076-0.447c-0.369-0.193-0.829-0.489-1.373-0.889c-0.551-0.395-1.017-0.793-1.416-1.191
	c-0.394-0.394-0.616-0.816-0.665-1.259c-0.055-0.447-0.012-0.896,0.109-1.343c0.119-0.441,0.436-0.938,0.931-1.481
	c0.345-0.398,0.666-0.671,0.962-0.822c0.303-0.146,0.611-0.218,0.932-0.218c0.321,0,0.685,0.062,1.076,0.183
	c0.399,0.127,0.92,0.26,1.562,0.41c1.386,0.297,2.928,0.521,4.608,0.665c2.178,0.199,4.324,0.261,6.43,0.188
	c2.104-0.072,3.998-0.133,5.686-0.188c0.594,0,1.337-0.023,2.232-0.071c0.889-0.05,1.808-0.109,2.744-0.188
	c0.944-0.073,1.863-0.146,2.752-0.218c0.891-0.079,1.658-0.14,2.306-0.188c-0.744-1.386-1.438-2.896-2.08-4.535
	c-0.647-1.635-0.871-3.617-0.672-5.946c0.049-0.938,0.103-2.057,0.151-3.345c0.047-1.288,0.097-2.589,0.146-3.9
	c0.048-1.313,0.09-2.564,0.114-3.75c0.023-1.191,0.061-2.159,0.109-2.903c0.047-0.793,0.078-1.458,0.078-2.002
	c0-0.545-0.066-1.04-0.188-1.487c-0.127-0.447-0.31-0.907-0.556-1.373c-0.248-0.473-0.576-1.005-0.97-1.604
	c-0.544-0.841-0.84-1.445-0.895-1.82c-0.05-0.368,0.127-0.828,0.526-1.373c0.145-0.15,0.367-0.356,0.664-0.635
	c0.297-0.267,0.617-0.545,0.969-0.816c0.345-0.271,0.664-0.509,0.968-0.701c0.296-0.199,0.521-0.352,0.665-0.447
	c0.841-0.448,1.451-0.684,1.82-0.708c0.375-0.023,0.932,0.236,1.676,0.78c1.039,0.744,1.771,1.391,2.188,1.936
	c0.425,0.544,0.907,1.187,1.452,1.931c0.792,0.99,1.35,2.093,1.669,3.308c0.32,1.216,0.437,2.71,0.339,4.494
	c-0.104,2.335-0.14,4.797-0.115,7.396c0.025,2.601-0.061,5.165-0.26,7.693c-0.097,1.585-0.557,3.345-1.373,5.274
	c-0.816,1.935-1.869,3.72-3.156,5.353c1.137,0.647,2.049,1.409,2.746,2.305c0.248,0.346,0.52,0.721,0.815,1.112
	c0.302,0.399,0.446,0.77,0.446,1.119c0,0.544-0.319,1.337-0.967,2.377c-0.098,0.248-0.272,0.744-0.521,1.488
	c-0.248,0.736-0.509,1.518-0.78,2.34c-0.271,0.816-0.521,1.573-0.744,2.263c-0.218,0.695-0.356,1.119-0.404,1.264
	c-0.297,0.943-0.92,1.524-1.857,1.748c-0.943,0.225-1.832,0.363-2.679,0.411c-0.248,0-0.854,0-1.821,0
	c-0.961,0-2.044-0.012-3.229-0.036c-1.191-0.029-2.377-0.065-3.568-0.114c-1.191-0.048-2.104-0.098-2.752-0.146
	c-0.744-0.055-1.869-0.079-3.381-0.079c-1.514,0-3.206-0.023-5.094-0.071l1.64,2.305c0.744,0.889,1.524,1.421,2.341,1.597
	c0.816,0.175,1.719,0.31,2.71,0.411c0.447,0.048,1.216,0.097,2.306,0.146c1.088,0.048,2.268,0.084,3.531,0.113
	c1.264,0.024,2.504,0.036,3.713,0.036c1.217,0,2.196,0,2.939,0c0.793,0,1.682-0.072,2.674-0.224c0.992-0.152,1.881-0.32,2.674-0.521
	c0.793-0.199,1.463-0.271,2.008-0.225c0.545,0.049,1.053,0.2,1.523,0.448s0.944,0.58,1.416,1.004
	C278.505,75.353,279.043,75.86,279.636,76.46z M238.017,37.587c0,1.688,0.418,2.922,1.26,3.714c0.847,0.793,1.936,1.313,3.271,1.562
	c0.793,0,1.634-0.146,2.528-0.441c1.138-0.398,2.105-1.089,2.896-2.081c0.793-0.99,1.168-2.057,1.113-3.198
	c-0.049-1.139-0.593-2.117-1.634-2.935c-1.04-0.815-2.13-1.428-3.271-1.819c-0.346-0.104-0.654-0.213-0.927-0.34
	c-0.272-0.12-0.508-0.309-0.708-0.557c-0.593,0.151-1.179,0.472-1.747,0.968c-0.569,0.496-1.053,1.04-1.446,1.633
	c-0.398,0.601-0.72,1.204-0.967,1.821C238.138,36.535,238.017,37.091,238.017,37.587z"/>
<path fill="#DDDDDD" d="M282.235,79.828c2.13-0.544,4.174-1.313,6.127-2.304c1.961-0.992,3.731-2.208,5.316-3.643
	c3.272-2.976,6.146-6.218,8.619-9.736c2.479-3.521,4.434-7.21,5.873-11.075c-0.793,0.049-1.634,0.104-2.527,0.151
	c-0.891,0.049-1.785,0.085-2.675,0.108c-0.889,0.024-1.747,0.036-2.563,0.036s-1.524,0-2.117,0
	c-0.695-0.049-1.324-0.121-1.893-0.224c-0.574-0.098-1.181-0.297-1.828-0.594c-0.488-0.248-1.016-0.58-1.56-1.004
	c-0.545-0.418-1.065-0.864-1.562-1.337c-0.495-0.472-0.913-0.942-1.264-1.415c-0.346-0.466-0.594-0.877-0.738-1.222
	c-0.199-0.448-0.127-0.896,0.218-1.337c0.399-0.496,1.017-1.053,1.862-1.676c0.842-0.616,1.459-0.979,1.857-1.076
	c0.393-0.097,0.779-0.085,1.148,0.036c0.375,0.127,0.779,0.284,1.229,0.482c0.398,0.146,0.854,0.248,1.372,0.297
	c0.521,0.05,0.979,0.072,1.38,0.072c0.743,0,1.717-0.036,2.934-0.107c1.216-0.073,2.455-0.151,3.72-0.225
	c1.259-0.073,2.45-0.15,3.563-0.225c1.119-0.072,1.972-0.133,2.563-0.188c0.696-0.097,1.392-0.26,2.081-0.478
	c0.695-0.225,1.391-0.284,2.081-0.188c0.694,0.098,1.354,0.333,1.972,0.708c0.616,0.369,1.155,0.756,1.598,1.149
	c1.19,1.04,1.832,2.104,1.936,3.192c0.048,0.744-0.079,1.344-0.375,1.784c-0.297,0.447-0.521,0.943-0.666,1.487
	c-0.744,2.528-1.639,5.069-2.68,7.621c-1.041,2.553-2.213,5.026-3.525,7.428c-1.318,2.407-2.752,4.699-4.313,6.877
	c-1.562,2.185-3.236,4.161-5.016,5.945c-1.486,1.487-2.976,2.516-4.463,3.085c-1.488,0.568-3,0.955-4.529,1.154
	c-0.848,0.098-1.592,0.108-2.232,0.037c-0.646-0.079-1.239-0.213-1.784-0.411c-0.544-0.2-1.063-0.448-1.562-0.744
	c-0.494-0.297-1.039-0.643-1.633-1.041c-0.599-0.345-1.166-0.604-1.712-0.78c-0.544-0.169-1.063-0.284-1.561-0.332
	c-0.495-0.049-0.968-0.085-1.409-0.115C283.054,79.985,282.63,79.926,282.235,79.828z M331.784,107.79
	c-0.521-0.404-0.969-1.089-1.344-2.051c-0.387-0.962-0.678-2.08-0.877-3.356c-0.205-1.281-0.381-2.69-0.525-4.228
	c-0.146-1.543-0.248-3.151-0.303-4.845c-0.17-3.659-0.235-7.742-0.17-12.248c0.056-4.506,0.17-9.072,0.346-13.688
	c0.169-4.627,0.32-9.163,0.43-13.607c0.114-4.452,0.114-8.413,0-11.903c0-0.871-0.055-1.561-0.164-2.044
	c-0.127-0.502-0.283-0.938-0.488-1.319c-0.207-0.368-0.431-0.75-0.689-1.125c-0.262-0.387-0.545-0.828-0.829-1.359
	c-0.411-0.689-0.701-1.204-0.871-1.52c-0.181-0.326-0.181-0.743,0-1.264c0.17-0.581,0.532-1.113,1.089-1.572
	c0.551-0.466,1.18-0.871,1.875-1.222c0.695-0.357,1.439-0.623,2.221-0.829c0.785-0.206,1.523-0.333,2.226-0.387
	c1.276-0.121,2.269,0.169,2.958,0.857c0.762,0.762,1.506,1.53,2.23,2.322c0.728,0.787,1.295,1.549,1.694,2.311
	c0.404,0.758,0.683,1.471,0.834,2.137c0.14,0.671,0.224,1.438,0.224,2.311c0.056,2.558,0.08,5.389,0.08,8.497
	c0,3.115,0,6.309,0,9.593c0,3.29-0.013,6.574-0.043,9.859c-0.023,3.284-0.055,6.338-0.084,9.156
	c-0.037,2.818-0.08,5.335-0.134,7.543c-0.061,2.207-0.114,3.899-0.17,5.063c-0.065,0.812-0.248,1.959-0.567,3.441
	c-0.32,1.48-0.957,2.885-1.881,4.228c-1.683,2.208-3.254,4.258-4.707,6.146C332.69,104.572,331.899,106.277,331.784,107.79z"/>
<g>
	<path fill="#DDDDDD" d="M245.751,100.438c0.123,0.165,0.202,0.298,0.234,0.396c0.033,0.101,0.009,0.248-0.074,0.446
		c-0.064,0.141-0.146,0.25-0.241,0.328s-0.217,0.104-0.364,0.08c-0.183-0.032-0.381-0.059-0.596-0.074s-0.413-0.024-0.595-0.024
		l-0.037,0.161c-0.05,0.189-0.144,0.426-0.278,0.706c-0.137,0.28-0.3,0.532-0.488,0.755c0.33,0.225,0.586,0.516,0.768,0.874
		c0.182,0.359,0.266,0.767,0.248,1.221c-0.018,0.33-0.102,0.626-0.254,0.886c-0.153,0.26-0.361,0.477-0.627,0.649
		c-0.264,0.175-0.57,0.307-0.922,0.396c-0.352,0.091-0.729,0.136-1.133,0.136c-0.39,0-0.771-0.052-1.146-0.153
		c-0.375-0.104-0.708-0.25-0.997-0.439c-0.156-0.05-0.297-0.131-0.421-0.242c-0.124-0.11-0.23-0.234-0.322-0.371
		c-0.091-0.137-0.163-0.285-0.217-0.445c-0.055-0.161-0.085-0.315-0.094-0.466c-0.032-0.354,0.031-0.673,0.193-0.952
		c0.16-0.281,0.387-0.521,0.68-0.72c0.293-0.197,0.64-0.356,1.035-0.477c0.396-0.12,0.813-0.2,1.252-0.242
		c0.064-0.041,0.143-0.067,0.229-0.08c0.087-0.013,0.159-0.019,0.217-0.019c0.34,0,0.645,0.05,0.917,0.147
		c-0.083-0.188-0.146-0.38-0.192-0.568c-0.045-0.19-0.08-0.39-0.104-0.596c-0.106,0.059-0.237,0.113-0.39,0.167
		c-0.153,0.055-0.313,0.104-0.477,0.148c-0.166,0.046-0.334,0.083-0.503,0.111c-0.17,0.028-0.327,0.052-0.477,0.067
		c-0.166,0.018-0.394,0.037-0.683,0.063c-0.289,0.023-0.595,0.045-0.916,0.062c-0.322,0.018-0.633,0.022-0.93,0.02
		s-0.527-0.026-0.693-0.068c-0.189-0.041-0.328-0.117-0.414-0.229c-0.088-0.112-0.14-0.283-0.155-0.516
		c-0.009-0.289,0.063-0.479,0.211-0.569c0-0.271-0.007-0.571-0.019-0.897c-0.014-0.326-0.027-0.613-0.045-0.86
		c-0.115-0.074-0.178-0.161-0.186-0.261c-0.023-0.189-0.023-0.382,0-0.576c0.023-0.192,0.091-0.353,0.197-0.477
		c0.142-0.165,0.293-0.224,0.459-0.174c0.207,0.059,0.486,0.087,0.843,0.087c0.106,0,0.254-0.002,0.438-0.006
		c0.186-0.005,0.383-0.012,0.59-0.02c0.205-0.008,0.408-0.021,0.605-0.037c0.198-0.016,0.363-0.037,0.496-0.063
		c0.173-0.032,0.322-0.03,0.452,0.007c0.128,0.037,0.249,0.126,0.364,0.266c0.033,0.042,0.069,0.097,0.111,0.161
		c0.041,0.066,0.08,0.137,0.117,0.211s0.068,0.146,0.094,0.217c0.024,0.07,0.041,0.13,0.049,0.181
		c0.01,0.065-0.008,0.132-0.049,0.197c-0.041,0.066-0.098,0.124-0.168,0.174s-0.146,0.089-0.229,0.117
		c-0.083,0.029-0.161,0.043-0.235,0.043c-0.28-0.017-0.614-0.023-1.004-0.023c-0.388,0-0.772,0.004-1.151,0.013
		c0.008,0.239,0.015,0.503,0.02,0.792c0.004,0.289-0.003,0.554-0.02,0.793c0.338-0.017,0.678-0.031,1.017-0.043
		c0.338-0.013,0.644-0.026,0.916-0.044c0.265-0.016,0.554-0.032,0.866-0.049c0.313-0.017,0.596-0.046,0.844-0.087
		c0-0.157,0.004-0.339,0.012-0.545c0.01-0.207,0.02-0.417,0.031-0.632c0.012-0.216,0.025-0.431,0.037-0.646
		c0.013-0.215,0.021-0.408,0.031-0.582c0.008-0.132,0.01-0.241,0.006-0.328s-0.02-0.167-0.043-0.24
		c-0.025-0.074-0.059-0.149-0.101-0.225c-0.041-0.074-0.099-0.165-0.173-0.271c-0.091-0.141-0.143-0.241-0.154-0.305
		c-0.013-0.062,0.019-0.138,0.092-0.229c0.025-0.025,0.063-0.061,0.113-0.105c0.049-0.045,0.102-0.089,0.159-0.13
		s0.112-0.081,0.161-0.118c0.05-0.037,0.087-0.063,0.111-0.08c0.141-0.073,0.242-0.112,0.304-0.117
		c0.063-0.004,0.155,0.04,0.278,0.131c0.174,0.123,0.313,0.229,0.416,0.32c0.103,0.093,0.199,0.198,0.291,0.322
		c0.131,0.165,0.223,0.35,0.271,0.552s0.069,0.452,0.063,0.749c-0.008,0.272-0.016,0.559-0.02,0.854
		c-0.004,0.298-0.015,0.591-0.031,0.88c0.01,0,0.014-0.002,0.014-0.007c0-0.004,0.004-0.006,0.013-0.006
		c0.115-0.074,0.245-0.105,0.39-0.094c0.146,0.013,0.285,0.049,0.422,0.105c0.137,0.058,0.267,0.136,0.391,0.235
		C245.577,100.24,245.676,100.34,245.751,100.438z M241.365,105.864c0.157,0,0.31-0.013,0.459-0.037
		c0.147-0.024,0.282-0.065,0.401-0.124c0.119-0.058,0.215-0.132,0.285-0.223c0.069-0.091,0.104-0.207,0.104-0.348
		c0-0.288-0.104-0.509-0.315-0.656c-0.211-0.148-0.465-0.28-0.762-0.396c-0.165,0.009-0.342,0.04-0.525,0.093
		c-0.187,0.056-0.357,0.122-0.516,0.205c-0.156,0.082-0.286,0.179-0.391,0.285c-0.104,0.107-0.158,0.219-0.166,0.334
		c-0.018,0.224,0.068,0.431,0.26,0.619c0.141,0.083,0.32,0.143,0.539,0.18S241.167,105.855,241.365,105.864z"/>
	<path fill="#DDDDDD" d="M249.715,101.393c-0.28,0.445-0.536,0.784-0.769,1.016c-0.28,0.265-0.578,0.437-0.893,0.514
		c-0.313,0.079-0.645,0.103-0.99,0.068c-0.404-0.033-0.826-0.202-1.265-0.508c0.19-0.008,0.37-0.063,0.539-0.167
		c0.169-0.104,0.32-0.213,0.452-0.328c0.215-0.19,0.426-0.396,0.632-0.619c0.206-0.224,0.399-0.454,0.582-0.694
		c0.183-0.238,0.345-0.479,0.489-0.725c0.145-0.243,0.258-0.484,0.341-0.725c0.065-0.173,0.097-0.302,0.093-0.385
		c-0.004-0.082-0.048-0.174-0.13-0.271c-0.065-0.091-0.106-0.161-0.124-0.211c-0.017-0.049-0.017-0.111,0-0.187
		c0.025-0.091,0.085-0.193,0.18-0.31c0.096-0.116,0.188-0.206,0.278-0.272c0.083-0.065,0.155-0.102,0.218-0.104
		c0.063-0.004,0.15,0.015,0.267,0.056c0.132,0.05,0.269,0.113,0.409,0.192c0.14,0.078,0.279,0.18,0.42,0.303
		c0.33,0.306,0.41,0.748,0.236,1.326c-0.033,0.107-0.07,0.217-0.111,0.328c-0.043,0.11-0.088,0.225-0.137,0.341
		c0.115,0.074,0.25,0.163,0.402,0.266c0.152,0.104,0.303,0.209,0.452,0.316c0.147,0.107,0.282,0.208,0.401,0.304
		s0.209,0.171,0.267,0.229c0.198,0.198,0.315,0.389,0.354,0.569c0.037,0.182,0.035,0.385-0.006,0.606
		c-0.051,0.248-0.147,0.415-0.291,0.502c-0.146,0.087-0.338,0.109-0.576,0.068c-0.256-0.042-0.47-0.116-0.639-0.225
		c-0.17-0.105-0.328-0.256-0.479-0.444c-0.073-0.092-0.164-0.211-0.271-0.359S249.83,101.558,249.715,101.393z M255.017,105.765
		c0.141,0.189,0.166,0.36,0.074,0.515c-0.092,0.152-0.277,0.315-0.558,0.489c-0.101,0.064-0.207,0.119-0.322,0.161
		c-0.116,0.041-0.244,0.064-0.384,0.073c-0.157,0.009-0.357,0.016-0.602,0.02s-0.502,0.008-0.773,0.013
		c-0.271,0.004-0.543,0.006-0.813,0.006c-0.269,0-0.506-0.009-0.711-0.023c-0.207-0.01-0.381-0.027-0.521-0.058
		c-0.141-0.027-0.266-0.066-0.372-0.116c-0.106-0.051-0.204-0.116-0.291-0.198c-0.086-0.083-0.181-0.187-0.278-0.311
		c-0.165-0.207-0.355-0.449-0.57-0.729c-0.215-0.281-0.412-0.533-0.594-0.756c-0.042-0.051-0.089-0.094-0.143-0.13
		c-0.055-0.037-0.109-0.076-0.167-0.118c-0.06-0.041-0.112-0.085-0.161-0.13c-0.051-0.045-0.087-0.098-0.112-0.155
		c-0.032-0.074-0.034-0.154-0.006-0.241c0.029-0.087,0.076-0.159,0.144-0.217c0.123-0.115,0.273-0.208,0.451-0.278
		c0.178-0.069,0.35-0.112,0.514-0.131c0.142-0.016,0.262-0.016,0.359,0c0.101,0.019,0.194,0.079,0.285,0.188
		c0.051,0.058,0.122,0.145,0.217,0.26c0.096,0.116,0.198,0.236,0.311,0.365c0.111,0.128,0.223,0.259,0.335,0.391
		c0.11,0.132,0.208,0.239,0.291,0.322c0.123,0.141,0.241,0.229,0.353,0.271c0.111,0.041,0.262,0.07,0.452,0.086
		c0.115,0.009,0.257,0.016,0.421,0.02c0.165,0.005,0.336,0.005,0.508,0c0.174-0.004,0.346-0.015,0.516-0.03
		c0.169-0.017,0.318-0.046,0.451-0.087c0.24-0.066,0.424-0.111,0.552-0.137c0.128-0.024,0.25-0.017,0.364,0.024
		c0.059,0.018,0.125,0.052,0.199,0.105c0.073,0.053,0.148,0.11,0.224,0.173c0.073,0.063,0.144,0.126,0.21,0.192
		C254.935,105.657,254.983,105.716,255.017,105.765z M253.071,98.246c0-0.132-0.002-0.241-0.006-0.328
		c-0.006-0.087-0.018-0.167-0.037-0.24c-0.021-0.074-0.053-0.149-0.094-0.225c-0.041-0.074-0.1-0.165-0.174-0.271
		c-0.123-0.183-0.169-0.322-0.137-0.421c0.033-0.1,0.137-0.22,0.311-0.359c0.166-0.141,0.303-0.233,0.414-0.278
		c0.112-0.046,0.25-0.011,0.416,0.105c0.174,0.123,0.31,0.229,0.408,0.32c0.1,0.093,0.194,0.198,0.285,0.322
		c0.132,0.165,0.219,0.35,0.26,0.552s0.063,0.452,0.063,0.749c0,0.322,0,0.683,0,1.078c0,0.396-0.002,0.792-0.006,1.188
		c-0.004,0.396-0.008,0.769-0.014,1.115c-0.004,0.347-0.01,0.622-0.019,0.829c-0.009,0.174-0.043,0.358-0.104,0.558
		c-0.063,0.198-0.143,0.395-0.242,0.589c-0.099,0.194-0.215,0.382-0.347,0.563c-0.132,0.182-0.272,0.348-0.421,0.495
		c-0.018-0.132-0.052-0.256-0.105-0.371c-0.053-0.114-0.11-0.229-0.174-0.341c-0.062-0.11-0.121-0.225-0.179-0.341
		c-0.06-0.115-0.101-0.239-0.124-0.371c-0.042-0.215-0.07-0.439-0.087-0.676s-0.021-0.473-0.013-0.712
		c0.009-0.165,0.019-0.396,0.031-0.693c0.013-0.298,0.023-0.615,0.037-0.954c0.012-0.339,0.023-0.675,0.036-1.01
		C253.065,98.785,253.071,98.494,253.071,98.246z"/>
	<path fill="#DDDDDD" d="M257.592,102.966c-0.114,0.018-0.221-0.011-0.315-0.08c-0.096-0.069-0.182-0.163-0.26-0.278
		s-0.143-0.243-0.191-0.384c-0.049-0.142-0.079-0.272-0.088-0.396c-0.016-0.132-0.03-0.308-0.043-0.526
		c-0.012-0.219-0.024-0.441-0.036-0.669c-0.013-0.228-0.027-0.443-0.044-0.649c-0.018-0.206-0.033-0.367-0.051-0.483
		c-0.017-0.099-0.029-0.204-0.043-0.314c-0.013-0.111-0.043-0.192-0.092-0.242c-0.024-0.024-0.049-0.051-0.068-0.08
		c-0.021-0.029-0.031-0.063-0.031-0.105c0-0.091,0.031-0.186,0.094-0.284c0.063-0.1,0.125-0.189,0.191-0.272
		c0.1-0.115,0.217-0.206,0.354-0.271s0.286-0.087,0.452-0.063c0.106,0.017,0.198,0.043,0.272,0.08s0.14,0.089,0.197,0.155
		c0.33-0.024,0.682-0.041,1.053-0.051c0.371-0.008,0.715-0.004,1.029,0.014c0.099-0.041,0.229-0.07,0.396-0.087
		c0.101-0.008,0.213-0.006,0.341,0.006c0.128,0.013,0.25,0.04,0.365,0.081s0.217,0.095,0.304,0.161
		c0.087,0.065,0.14,0.145,0.155,0.234c0.017,0.107,0.01,0.21-0.02,0.311c-0.029,0.099-0.063,0.182-0.104,0.248
		c-0.009,0.031-0.022,0.157-0.043,0.377s-0.044,0.471-0.068,0.756s-0.05,0.574-0.073,0.867c-0.025,0.293-0.047,0.525-0.063,0.699
		c0.065,0.065,0.101,0.146,0.101,0.235c0.008,0.247-0.07,0.458-0.236,0.632c-0.166,0.173-0.379,0.261-0.645,0.261
		c-0.099,0-0.256,0-0.471,0s-0.445,0-0.693,0s-0.498,0.002-0.75,0.006c-0.252,0.005-0.469,0.011-0.648,0.019
		C257.731,102.925,257.658,102.957,257.592,102.966z M264.517,105.257c0.092,0.083,0.176,0.181,0.254,0.291
		c0.078,0.112,0.144,0.223,0.191,0.329c0.083,0.173,0.105,0.306,0.068,0.396s-0.117,0.189-0.241,0.298
		c-0.147,0.124-0.285,0.219-0.409,0.285c-0.124,0.064-0.25,0.115-0.378,0.147c-0.128,0.033-0.267,0.055-0.415,0.063
		c-0.148,0.009-0.316,0.017-0.508,0.024c-0.092,0-0.241,0-0.452,0c-0.21,0-0.437-0.005-0.675-0.013
		c-0.239-0.009-0.471-0.015-0.693-0.019c-0.224-0.004-0.389-0.012-0.496-0.02c-0.164-0.009-0.308-0.021-0.427-0.043
		c-0.12-0.021-0.229-0.055-0.328-0.1c-0.1-0.046-0.194-0.105-0.284-0.181c-0.092-0.074-0.19-0.169-0.299-0.284
		c-0.197-0.216-0.398-0.433-0.601-0.65c-0.203-0.218-0.361-0.394-0.478-0.526c-0.091-0.091-0.188-0.184-0.291-0.277
		c-0.103-0.095-0.209-0.167-0.315-0.217c-0.091-0.041-0.165-0.098-0.224-0.167c-0.058-0.07-0.086-0.163-0.086-0.279
		c0-0.141,0.041-0.245,0.123-0.315c0.084-0.069,0.219-0.139,0.409-0.204c0.14-0.05,0.289-0.094,0.445-0.131
		c0.157-0.037,0.284-0.063,0.385-0.08c0.288-0.041,0.499,0.018,0.631,0.174c0.19,0.224,0.374,0.441,0.552,0.656
		c0.179,0.215,0.354,0.408,0.526,0.582c0.142,0.142,0.267,0.229,0.378,0.268s0.25,0.063,0.415,0.08
		c0.074,0.009,0.181,0.015,0.315,0.019c0.137,0.005,0.281,0.007,0.434,0.007c0.153,0,0.309,0,0.465,0s0.297-0.005,0.422-0.013
		c0.131-0.008,0.284-0.025,0.457-0.05c0.174-0.024,0.318-0.063,0.435-0.111c0.106-0.041,0.192-0.07,0.254-0.087
		c0.063-0.018,0.118-0.022,0.168-0.02c0.049,0.005,0.093,0.021,0.13,0.051C264.411,105.169,264.458,105.208,264.517,105.257z
		 M259.747,99.447c-0.239,0-0.504,0.005-0.793,0.013c-0.289,0.01-0.545,0.021-0.768,0.037l0.062,1.945c0.248,0,0.509,0,0.78,0
		c0.272,0,0.513-0.005,0.719-0.013V99.447z M265.297,100.277c0.065,0.059,0.14,0.126,0.224,0.205
		c0.082,0.078,0.158,0.159,0.229,0.241c0.07,0.083,0.128,0.163,0.173,0.24c0.046,0.079,0.068,0.147,0.068,0.205
		c0,0.198-0.113,0.354-0.341,0.472c-0.228,0.114-0.48,0.178-0.762,0.186c-0.092,0.008-0.197,0.013-0.316,0.013s-0.236,0-0.354,0
		l-0.037,0.408c-0.017,0.165-0.056,0.343-0.117,0.533c-0.063,0.189-0.143,0.38-0.242,0.569c-0.098,0.189-0.211,0.376-0.34,0.558
		s-0.267,0.347-0.414,0.495c-0.272-0.371-0.45-0.79-0.533-1.257c-0.082-0.467-0.133-0.97-0.148-1.505
		c0-0.157,0.002-0.39,0.006-0.694c0.006-0.305,0.014-0.627,0.025-0.966s0.025-0.665,0.043-0.979
		c0.018-0.313,0.029-0.564,0.037-0.756c0.008-0.132,0.011-0.241,0.007-0.328c-0.005-0.087-0.021-0.167-0.044-0.241
		c-0.023-0.073-0.059-0.148-0.1-0.224c-0.041-0.074-0.1-0.165-0.174-0.271c-0.091-0.141-0.143-0.241-0.153-0.305
		c-0.013-0.062,0.019-0.138,0.093-0.229c0.023-0.025,0.063-0.061,0.111-0.105c0.05-0.045,0.103-0.089,0.16-0.13
		c0.059-0.041,0.111-0.081,0.162-0.118c0.049-0.037,0.086-0.063,0.11-0.08c0.14-0.073,0.241-0.112,0.304-0.117
		s0.154,0.04,0.278,0.131c0.173,0.123,0.312,0.229,0.415,0.32c0.104,0.093,0.2,0.198,0.291,0.322
		c0.132,0.165,0.223,0.35,0.271,0.552c0.051,0.202,0.07,0.452,0.063,0.749l-0.023,1.944c0.049-0.016,0.096-0.026,0.143-0.03
		c0.045-0.004,0.089-0.015,0.13-0.03c0.165-0.041,0.31-0.033,0.435,0.023C265.099,100.138,265.206,100.203,265.297,100.277z"/>
	<path fill="#DDDDDD" d="M275.058,100.811c0.166,0.082,0.295,0.165,0.392,0.247c0.095,0.083,0.163,0.161,0.204,0.234
		c0.041,0.075,0.063,0.142,0.068,0.198c0.004,0.059,0.002,0.1-0.008,0.124c-0.023,0.05-0.078,0.105-0.16,0.167
		c-0.082,0.063-0.176,0.12-0.279,0.174c-0.103,0.055-0.203,0.099-0.303,0.13c-0.1,0.033-0.179,0.046-0.236,0.037
		c-0.098-0.017-0.254-0.032-0.463-0.049c-0.211-0.017-0.402-0.025-0.576-0.025c-0.148,0-0.387,0.007-0.713,0.02
		s-0.699,0.024-1.12,0.037c-0.423,0.013-0.865,0.028-1.332,0.05c-0.468,0.021-0.915,0.037-1.345,0.05
		c-0.43,0.012-0.818,0.024-1.17,0.037c-0.352,0.012-0.613,0.02-0.787,0.02c-0.28,0-0.517-0.063-0.705-0.187
		c-0.19-0.124-0.318-0.281-0.385-0.471c-0.024-0.075-0.031-0.151-0.019-0.229c0.012-0.078,0.039-0.154,0.08-0.229
		c0.091-0.165,0.202-0.301,0.334-0.408c0.133-0.1,0.261-0.128,0.385-0.087c0.115,0.041,0.22,0.076,0.31,0.104
		c0.092,0.028,0.235,0.035,0.435,0.02c0.099-0.009,0.282-0.018,0.551-0.025s0.58-0.017,0.937-0.023
		c0.354-0.008,0.731-0.02,1.133-0.031c0.4-0.012,0.781-0.024,1.14-0.037c0.359-0.013,0.681-0.024,0.96-0.037
		c0.281-0.013,0.483-0.021,0.607-0.031c0.445-0.031,0.824-0.043,1.14-0.029C274.442,100.568,274.752,100.653,275.058,100.811z
		 M273.731,105.827c0.133,0.074,0.266,0.167,0.396,0.278c0.131,0.11,0.189,0.25,0.173,0.415c-0.017,0.1-0.045,0.2-0.086,0.304
		c-0.042,0.104-0.106,0.188-0.198,0.254c-0.091,0.074-0.17,0.132-0.234,0.174c-0.066,0.041-0.135,0.074-0.205,0.1
		c-0.069,0.023-0.145,0.041-0.223,0.05c-0.078,0.008-0.176,0.017-0.291,0.023c-0.142,0.009-0.311,0.016-0.508,0.02
		c-0.199,0.004-0.404,0.006-0.619,0.006s-0.426-0.004-0.633-0.012c-0.207-0.009-0.389-0.021-0.545-0.037
		c-0.396-0.042-0.762-0.114-1.097-0.217c-0.334-0.104-0.638-0.309-0.91-0.613c-0.101-0.116-0.204-0.237-0.315-0.365
		s-0.219-0.256-0.321-0.384c-0.104-0.129-0.196-0.25-0.279-0.366c-0.082-0.115-0.146-0.219-0.187-0.31
		c-0.049-0.1-0.075-0.191-0.079-0.278c-0.005-0.087,0.047-0.184,0.153-0.291c0.041-0.041,0.098-0.085,0.168-0.13
		c0.069-0.046,0.158-0.089,0.267-0.131c0.165-0.059,0.295-0.076,0.391-0.056c0.095,0.021,0.188,0.076,0.278,0.168l1.375-0.112
		c0.413-0.032,0.813-0.054,1.195-0.063c0.383-0.008,0.717-0.017,0.996-0.023c0.009-0.075,0.016-0.153,0.02-0.235
		c0.004-0.083,0.006-0.161,0.006-0.234c-0.471,0.008-0.977,0.021-1.517,0.036c-0.541,0.018-1.076,0.05-1.604,0.1
		c-0.265,0.023-0.527,0.033-0.793,0.023c-0.264-0.008-0.475-0.058-0.632-0.147c-0.065-0.041-0.136-0.082-0.21-0.124
		c-0.074-0.041-0.12-0.1-0.137-0.173c-0.024-0.107-0.016-0.204,0.031-0.291c0.045-0.087,0.104-0.188,0.18-0.305
		c0.041-0.065,0.093-0.11,0.154-0.137c0.063-0.023,0.117-0.032,0.168-0.023c0.074,0.009,0.136,0.017,0.186,0.023
		c0.05,0.009,0.1,0.013,0.148,0.013s0.104-0.002,0.16-0.006c0.058-0.004,0.133-0.011,0.224-0.019
		c0.313-0.033,0.667-0.063,1.06-0.087c0.393-0.024,0.79-0.045,1.195-0.063c0.404-0.017,0.799-0.028,1.184-0.037
		c0.383-0.009,0.725-0.013,1.021-0.013l0.049-0.013c0.266-0.05,0.443-0.059,0.539-0.024s0.167,0.087,0.217,0.161
		c0.051,0.065,0.078,0.126,0.088,0.18c0.008,0.055,0.008,0.139,0,0.254c0,0.05-0.005,0.135-0.014,0.255
		c-0.008,0.118-0.021,0.25-0.037,0.39c-0.018,0.141-0.043,0.287-0.08,0.438c-0.037,0.153-0.089,0.283-0.154,0.392
		c0.024,0.065,0.024,0.145,0,0.234c-0.018,0.074-0.059,0.179-0.125,0.311c-0.064,0.133-0.141,0.219-0.223,0.261
		c-0.083,0.041-0.238,0.057-0.471,0.043c-0.232-0.013-0.491-0.021-0.78-0.031c-0.091,0-0.235,0.002-0.434,0.008
		c-0.198,0.004-0.421,0.012-0.669,0.023s-0.504,0.024-0.769,0.037s-0.508,0.022-0.731,0.031c0.101,0.082,0.216,0.165,0.348,0.247
		c0.215,0.133,0.426,0.215,0.632,0.248c0.207,0.033,0.468,0.041,0.78,0.023c0.156-0.008,0.32-0.014,0.488-0.019
		c0.171-0.004,0.33-0.012,0.479-0.024c0.148-0.012,0.278-0.023,0.391-0.037c0.111-0.013,0.191-0.026,0.242-0.043
		c0.09-0.042,0.201-0.079,0.334-0.111C273.468,105.732,273.601,105.753,273.731,105.827z M271.045,100.327
		c-0.364,0-0.721-0.048-1.071-0.143c-0.352-0.096-0.668-0.229-0.947-0.402c-0.281-0.174-0.51-0.386-0.688-0.638
		c-0.178-0.252-0.271-0.531-0.278-0.836c-0.009-0.273,0.069-0.522,0.235-0.75c0.165-0.228,0.378-0.426,0.638-0.596
		c0.26-0.169,0.553-0.31,0.879-0.421c0.326-0.11,0.646-0.184,0.961-0.217c0.059-0.058,0.137-0.091,0.234-0.099
		c0.348-0.033,0.688-0.002,1.021,0.093s0.633,0.237,0.893,0.427c0.262,0.19,0.467,0.42,0.619,0.688s0.227,0.556,0.217,0.86
		c-0.008,0.289-0.095,0.559-0.26,0.806c-0.165,0.248-0.376,0.463-0.632,0.645c-0.257,0.183-0.544,0.324-0.86,0.427
		C271.687,100.275,271.366,100.327,271.045,100.327z M270.944,97.466c-0.106,0.018-0.23,0.041-0.37,0.074
		c-0.142,0.033-0.275,0.079-0.403,0.138c-0.128,0.058-0.234,0.132-0.32,0.223c-0.088,0.091-0.132,0.202-0.132,0.334
		c0,0.124,0.048,0.228,0.144,0.311c0.095,0.082,0.205,0.146,0.334,0.191c0.129,0.046,0.261,0.081,0.396,0.104
		c0.137,0.024,0.245,0.041,0.328,0.051c0.105,0,0.227-0.014,0.359-0.037c0.132-0.025,0.256-0.066,0.371-0.124
		c0.115-0.059,0.213-0.132,0.291-0.225c0.078-0.09,0.117-0.196,0.117-0.32c0-0.132-0.035-0.239-0.104-0.322
		c-0.07-0.083-0.159-0.146-0.267-0.192c-0.107-0.045-0.229-0.082-0.359-0.11C271.196,97.53,271.069,97.499,270.944,97.466z"/>
	<path fill="#DDDDDD" d="M285.142,102.271c0.09-0.008,0.191-0.002,0.303,0.019c0.111,0.021,0.218,0.052,0.315,0.094
		c0.101,0.041,0.185,0.09,0.255,0.143c0.069,0.055,0.108,0.11,0.117,0.168c0.018,0.141-0.027,0.28-0.13,0.421
		c-0.104,0.141-0.201,0.256-0.291,0.347c-0.065,0.066-0.124,0.12-0.174,0.161s-0.104,0.072-0.161,0.093
		c-0.057,0.021-0.122,0.035-0.191,0.045c-0.069,0.008-0.164,0.012-0.279,0.012h-0.916c-0.074,0.306-0.16,0.608-0.26,0.911
		c-0.1,0.301-0.211,0.588-0.334,0.859c-0.158,0.339-0.349,0.617-0.57,0.836c-0.223,0.22-0.555,0.346-0.991,0.378
		c-0.265,0.018-0.524-0.006-0.78-0.067c-0.256-0.063-0.504-0.146-0.742-0.254c0.215-0.065,0.401-0.165,0.563-0.297
		c0.161-0.133,0.32-0.307,0.479-0.521c0.172-0.239,0.33-0.514,0.471-0.823c0.14-0.31,0.268-0.63,0.384-0.96
		c-0.183,0.018-0.402,0.037-0.663,0.063c-0.26,0.023-0.529,0.046-0.813,0.063c-0.279,0.018-0.545-0.059-0.791-0.224
		c-0.248-0.165-0.438-0.354-0.57-0.569c-0.082-0.132-0.074-0.271,0.025-0.422c0.023-0.041,0.066-0.093,0.129-0.154
		c0.063-0.063,0.113-0.108,0.154-0.143c0.051-0.041,0.1-0.06,0.149-0.056c0.049,0.004,0.095,0.011,0.136,0.019
		c0.132,0.024,0.268,0.041,0.402,0.05c0.137,0.009,0.271,0.013,0.402,0.013c0.115,0,0.278-0.004,0.489-0.013
		c0.21-0.009,0.443-0.017,0.699-0.024s0.53-0.02,0.823-0.03c0.293-0.013,0.582-0.027,0.867-0.044s0.556-0.03,0.812-0.043
		S284.942,102.289,285.142,102.271z M281.028,101.107c-0.157-0.082-0.303-0.25-0.434-0.502c-0.133-0.251-0.203-0.51-0.212-0.773
		c-0.008-0.23,0.044-0.465,0.155-0.7c0.111-0.234,0.268-0.453,0.465-0.655s0.432-0.378,0.699-0.526
		c0.27-0.149,0.552-0.252,0.849-0.31c0.082-0.101,0.22-0.149,0.409-0.149c0.338,0,0.658,0.064,0.96,0.192s0.567,0.297,0.8,0.508
		c0.229,0.211,0.416,0.45,0.557,0.719c0.141,0.27,0.215,0.547,0.224,0.836c0.008,0.313-0.052,0.6-0.181,0.854
		c-0.127,0.255-0.299,0.477-0.514,0.663c-0.215,0.186-0.465,0.33-0.75,0.434c-0.285,0.103-0.58,0.159-0.886,0.167
		c-0.43,0.017-0.834-0.045-1.214-0.186C281.576,101.537,281.269,101.348,281.028,101.107z M282.837,98.816
		c-0.115,0.023-0.229,0.064-0.335,0.123s-0.202,0.135-0.284,0.229c-0.083,0.096-0.146,0.2-0.191,0.316
		c-0.047,0.115-0.061,0.239-0.043,0.371c0.074,0.147,0.197,0.277,0.371,0.391c0.174,0.111,0.375,0.167,0.606,0.167
		c0.265,0,0.489-0.069,0.675-0.211c0.187-0.14,0.278-0.316,0.278-0.532c0-0.091-0.021-0.186-0.062-0.284
		c-0.043-0.1-0.103-0.188-0.181-0.268c-0.077-0.078-0.172-0.143-0.278-0.19c-0.106-0.051-0.228-0.074-0.358-0.074
		C282.952,98.854,282.888,98.841,282.837,98.816z M288.36,98.147c-0.008,0.289-0.01,0.61-0.006,0.966s0.008,0.725,0.013,1.108
		c0.004,0.383,0.011,0.771,0.019,1.165c0.01,0.392,0.014,0.764,0.014,1.113c0,0.353-0.002,0.673-0.006,0.966
		c-0.006,0.295-0.016,0.535-0.031,0.727c-0.024,0.338-0.08,0.668-0.168,0.99c-0.086,0.321-0.204,0.606-0.354,0.854
		c-0.189,0.306-0.363,0.583-0.521,0.83c-0.155,0.248-0.293,0.442-0.407,0.582c-0.101-0.338-0.192-0.729-0.278-1.17
		c-0.087-0.442-0.135-0.878-0.143-1.307c-0.01-0.423-0.008-0.926,0.006-1.513c0.013-0.586,0.023-1.188,0.037-1.809
		c0.013-0.62,0.021-1.216,0.023-1.79c0.006-0.573-0.006-1.055-0.029-1.442c-0.018-0.321-0.057-0.563-0.118-0.725
		c-0.062-0.161-0.15-0.308-0.267-0.44c-0.148-0.173-0.195-0.313-0.143-0.421c0.053-0.107,0.188-0.248,0.402-0.421
		c0.106-0.083,0.199-0.149,0.277-0.204c0.079-0.054,0.153-0.085,0.225-0.094c0.068-0.008,0.142,0.005,0.217,0.037
		c0.074,0.033,0.165,0.087,0.271,0.161c0.198,0.148,0.358,0.283,0.482,0.402s0.225,0.247,0.298,0.385
		c0.074,0.136,0.124,0.287,0.147,0.451C288.347,97.715,288.36,97.916,288.36,98.147z"/>
	<path fill="#DDDDDD" d="M295.087,99.497c-0.156,0.009-0.377,0.016-0.662,0.02c-0.285,0.005-0.599,0.011-0.941,0.019
		c-0.342,0.009-0.697,0.015-1.064,0.02s-0.715,0.007-1.041,0.007s-0.609-0.002-0.854-0.007c-0.243-0.005-0.412-0.011-0.502-0.02
		c-0.141-0.017-0.23-0.056-0.272-0.117c-0.041-0.063-0.065-0.126-0.074-0.191c-0.008-0.065,0-0.163,0.025-0.291
		c0.024-0.128,0.065-0.241,0.124-0.341c0.091-0.156,0.264-0.247,0.52-0.272c0.116-0.017,0.293-0.031,0.533-0.043
		c0.239-0.013,0.508-0.027,0.805-0.044c0-0.041-0.002-0.082-0.006-0.123c-0.004-0.042-0.006-0.075-0.006-0.1
		c-0.018-0.124-0.083-0.243-0.197-0.359c-0.066-0.065-0.113-0.13-0.138-0.191c-0.024-0.063-0.004-0.139,0.062-0.229
		c0.025-0.033,0.064-0.076,0.119-0.13c0.053-0.055,0.11-0.107,0.174-0.161c0.062-0.054,0.123-0.104,0.186-0.148
		c0.063-0.046,0.113-0.081,0.154-0.104c0.082-0.041,0.17-0.059,0.261-0.05s0.169,0.032,0.235,0.073
		c0.064,0.042,0.146,0.099,0.24,0.167c0.096,0.07,0.188,0.149,0.278,0.235c0.091,0.087,0.17,0.18,0.235,0.279
		c0.065,0.099,0.104,0.193,0.111,0.285c0.008,0.091,0.014,0.175,0.02,0.254c0.004,0.078,0.006,0.153,0.006,0.229l0.779-0.037
		c0.158-0.008,0.287-0.008,0.392,0c0.103,0.009,0.19,0.025,0.267,0.05c0.074,0.025,0.143,0.064,0.205,0.117
		c0.062,0.056,0.133,0.122,0.217,0.205c0.156,0.165,0.256,0.302,0.297,0.408c0.041,0.107,0.045,0.194,0.013,0.261
		c-0.042,0.082-0.093,0.156-0.155,0.224C295.366,99.452,295.252,99.489,295.087,99.497z M293.144,103.498
		c-0.107,0.042-0.22,0.063-0.336,0.063c-0.256,0-0.523-0.039-0.805-0.118c-0.281-0.078-0.541-0.189-0.779-0.334
		c-0.24-0.146-0.442-0.322-0.607-0.533c-0.165-0.21-0.26-0.447-0.284-0.712c-0.024-0.256,0.013-0.495,0.11-0.719
		c0.1-0.224,0.244-0.421,0.435-0.596c0.188-0.173,0.412-0.314,0.669-0.427c0.256-0.11,0.523-0.184,0.805-0.217
		c0.066-0.033,0.142-0.058,0.224-0.074c0.083-0.017,0.157-0.024,0.224-0.024c0.28,0,0.553,0.037,0.817,0.11
		c0.264,0.075,0.499,0.186,0.706,0.329c0.205,0.146,0.373,0.324,0.502,0.538c0.128,0.215,0.195,0.467,0.203,0.756
		c0.009,0.289-0.036,0.545-0.137,0.77c-0.099,0.223-0.232,0.414-0.402,0.575c-0.168,0.16-0.368,0.294-0.6,0.396
		C293.653,103.385,293.406,103.457,293.144,103.498z M298.159,105.307c0.091,0.083,0.174,0.172,0.248,0.267s0.136,0.196,0.186,0.304
		c0.082,0.173,0.105,0.306,0.068,0.396s-0.118,0.189-0.242,0.298c-0.148,0.124-0.284,0.219-0.408,0.285
		c-0.123,0.064-0.25,0.115-0.378,0.147c-0.128,0.033-0.267,0.055-0.415,0.063c-0.148,0.009-0.318,0.017-0.508,0.024
		c-0.091,0-0.254,0-0.488,0c-0.236,0-0.49-0.003-0.763-0.007s-0.533-0.01-0.78-0.019c-0.248-0.008-0.426-0.018-0.533-0.024
		c-0.271-0.023-0.506-0.076-0.699-0.154s-0.406-0.229-0.639-0.452c-0.188-0.183-0.351-0.332-0.481-0.452
		c-0.134-0.119-0.257-0.245-0.372-0.377c-0.066-0.066-0.148-0.146-0.247-0.235c-0.101-0.091-0.203-0.161-0.312-0.211
		c-0.09-0.041-0.164-0.097-0.223-0.167c-0.058-0.07-0.087-0.163-0.087-0.279c0-0.14,0.042-0.244,0.124-0.314
		c0.083-0.07,0.219-0.14,0.409-0.204c0.14-0.05,0.289-0.094,0.444-0.131c0.158-0.037,0.285-0.063,0.386-0.08
		c0.288-0.041,0.499,0.017,0.632,0.173c0.082,0.1,0.156,0.188,0.223,0.261c0.065,0.074,0.131,0.146,0.191,0.21
		c0.063,0.066,0.124,0.134,0.188,0.198c0.062,0.066,0.133,0.141,0.217,0.224c0.131,0.133,0.26,0.222,0.384,0.267
		c0.124,0.046,0.26,0.077,0.407,0.094c0.076,0.008,0.192,0.014,0.354,0.02c0.161,0.004,0.334,0.006,0.521,0.006
		s0.369-0.002,0.552-0.006c0.182-0.006,0.335-0.012,0.458-0.02c0.133-0.009,0.285-0.025,0.459-0.05
		c0.173-0.025,0.316-0.063,0.434-0.111c0.107-0.042,0.191-0.069,0.254-0.087c0.063-0.017,0.117-0.021,0.168-0.019
		c0.049,0.003,0.092,0.021,0.129,0.05C298.054,105.218,298.103,105.257,298.159,105.307z M291.879,101.615
		c0.009,0.215,0.085,0.384,0.229,0.508c0.144,0.124,0.304,0.207,0.477,0.248c0.289-0.017,0.502-0.1,0.639-0.248
		c0.137-0.147,0.204-0.343,0.204-0.582c0-0.124-0.026-0.227-0.081-0.31c-0.054-0.082-0.121-0.15-0.203-0.204
		c-0.084-0.054-0.175-0.093-0.272-0.118c-0.101-0.023-0.19-0.037-0.272-0.037l-0.174,0.05c-0.058,0.018-0.117,0.045-0.18,0.087
		c-0.063,0.041-0.122,0.094-0.18,0.154c-0.059,0.063-0.104,0.133-0.137,0.211S291.879,101.533,291.879,101.615z M299.597,100.563
		c0.148,0.147,0.239,0.273,0.271,0.378c0.033,0.104,0.009,0.258-0.074,0.465c-0.059,0.14-0.132,0.252-0.223,0.334
		c-0.092,0.083-0.215,0.116-0.371,0.1c-0.184-0.024-0.381-0.042-0.596-0.05c-0.215-0.009-0.412-0.009-0.595,0
		c-0.009,0.157-0.015,0.299-0.019,0.427c-0.006,0.13-0.016,0.238-0.031,0.329c-0.018,0.165-0.057,0.344-0.117,0.532
		c-0.063,0.19-0.143,0.38-0.242,0.569c-0.099,0.189-0.213,0.376-0.341,0.558c-0.128,0.183-0.266,0.348-0.413,0.496
		c-0.273-0.372-0.455-0.791-0.547-1.258c-0.091-0.467-0.136-0.968-0.136-1.505c0-0.157,0.004-0.402,0.013-0.737
		c0.008-0.334,0.02-0.688,0.03-1.064c0.013-0.375,0.024-0.736,0.037-1.083c0.013-0.349,0.022-0.615,0.03-0.807
		c0.009-0.132,0.012-0.241,0.007-0.328s-0.019-0.167-0.044-0.24c-0.023-0.074-0.057-0.149-0.098-0.225
		c-0.043-0.074-0.101-0.165-0.175-0.271c-0.091-0.141-0.144-0.241-0.155-0.305c-0.012-0.062,0.02-0.138,0.094-0.229
		c0.024-0.025,0.063-0.061,0.111-0.105s0.104-0.089,0.161-0.13s0.111-0.081,0.16-0.118c0.05-0.037,0.087-0.063,0.112-0.08
		c0.14-0.073,0.24-0.112,0.303-0.117c0.063-0.004,0.155,0.04,0.279,0.131c0.173,0.123,0.312,0.229,0.414,0.32
		c0.104,0.093,0.201,0.198,0.291,0.322c0.133,0.165,0.224,0.35,0.272,0.552c0.05,0.202,0.07,0.452,0.062,0.749
		c-0.008,0.257-0.012,0.563-0.012,0.924c0,0.359-0.004,0.732-0.013,1.12l0.173-0.063c0.231-0.09,0.471-0.093,0.719-0.006
		S299.406,100.373,299.597,100.563z"/>
	<path fill="#DDDDDD" d="M311.871,101.17c-0.106,0.009-0.228,0.013-0.358,0.013c-0.132,0-0.266,0-0.396,0
		c-0.033,0.239-0.092,0.479-0.174,0.719c-0.082,0.239-0.182,0.454-0.297,0.645c0.058,0.041,0.112,0.086,0.166,0.137
		c0.055,0.05,0.103,0.104,0.144,0.16c0.042,0.059,0.087,0.12,0.137,0.187s0.074,0.128,0.074,0.186c0,0.093-0.054,0.225-0.161,0.396
		c-0.018,0.042-0.046,0.124-0.087,0.248s-0.085,0.254-0.13,0.391s-0.087,0.263-0.124,0.377c-0.037,0.116-0.06,0.188-0.067,0.211
		c-0.05,0.157-0.146,0.252-0.291,0.285c-0.146,0.033-0.3,0.059-0.465,0.074c-0.107,0.008-0.219,0.006-0.335-0.006
		c-0.114-0.013-0.235-0.027-0.358-0.044c-0.23,0.009-0.469,0.013-0.713,0.013c-0.242,0-0.443-0.004-0.601-0.013l-1.201-0.063
		c0.074,0.082,0.144,0.159,0.21,0.229c0.066,0.069,0.133,0.135,0.198,0.191c0.147,0.142,0.285,0.224,0.409,0.248
		s0.268,0.045,0.434,0.063c0.074,0.008,0.2,0.017,0.378,0.024c0.177,0.009,0.369,0.015,0.575,0.02
		c0.207,0.004,0.409,0.006,0.607,0.006c0.197,0,0.358,0,0.482,0c0.133-0.009,0.284-0.021,0.458-0.037
		c0.173-0.017,0.317-0.058,0.435-0.124c0.099-0.05,0.18-0.087,0.24-0.11c0.063-0.025,0.115-0.035,0.162-0.031
		c0.045,0.004,0.088,0.021,0.129,0.056s0.092,0.074,0.148,0.124c0.091,0.091,0.165,0.174,0.225,0.248
		c0.058,0.074,0.118,0.152,0.186,0.235c0.115,0.155,0.15,0.277,0.105,0.364c-0.047,0.088-0.131,0.185-0.255,0.291
		c-0.141,0.124-0.274,0.22-0.401,0.285c-0.129,0.065-0.26,0.115-0.392,0.148s-0.274,0.054-0.428,0.062
		c-0.151,0.01-0.324,0.014-0.515,0.014c-0.09,0-0.26-0.002-0.508-0.007s-0.514-0.009-0.799-0.013s-0.556-0.011-0.813-0.019
		c-0.256-0.01-0.438-0.014-0.545-0.014c-0.164-0.008-0.308-0.021-0.428-0.036c-0.119-0.018-0.229-0.046-0.328-0.088
		c-0.099-0.041-0.193-0.099-0.285-0.173c-0.09-0.073-0.188-0.17-0.297-0.285c-0.23-0.238-0.443-0.473-0.638-0.698
		c-0.194-0.229-0.36-0.425-0.502-0.589c-0.065-0.082-0.147-0.152-0.248-0.212c-0.099-0.058-0.219-0.118-0.358-0.186
		c-0.141-0.058-0.219-0.178-0.234-0.359c-0.018-0.124,0.045-0.244,0.186-0.364c0.141-0.119,0.334-0.226,0.582-0.315
		c0.479-0.165,0.811-0.149,0.991,0.049c0.206,0,0.462,0.003,0.769,0.007c0.306,0.005,0.617,0.007,0.936,0.007
		c0.316,0,0.621,0,0.91,0s0.527,0,0.719,0l0.024-0.521c-0.265-0.008-0.55-0.017-0.854-0.024c-0.305-0.007-0.611-0.013-0.917-0.013
		s-0.603,0-0.892,0s-0.545,0-0.768,0c-0.231,0.009-0.451-0.045-0.658-0.161c-0.205-0.114-0.387-0.251-0.545-0.407
		c-0.058-0.059-0.086-0.12-0.086-0.187s0.017-0.124,0.049-0.174c0.018-0.033,0.047-0.076,0.088-0.13
		c0.041-0.055,0.087-0.105,0.136-0.155c0.101-0.091,0.194-0.138,0.285-0.143c0.091-0.004,0.228,0.026,0.409,0.093
		c0.115,0.042,0.234,0.077,0.358,0.104c0.123,0.029,0.261,0.049,0.408,0.057c0.496,0.017,1.045,0.017,1.647,0
		s1.213-0.045,1.832-0.086c-0.049-0.101-0.094-0.2-0.135-0.305c-0.041-0.104-0.074-0.213-0.101-0.328
		c-0.032-0.115-0.056-0.23-0.067-0.347c-0.013-0.116-0.027-0.23-0.044-0.348c-0.106,0.092-0.237,0.182-0.39,0.271
		c-0.153,0.093-0.318,0.172-0.496,0.242s-0.354,0.128-0.532,0.173c-0.178,0.046-0.345,0.064-0.502,0.057
		c-0.091,0-0.208,0.003-0.353,0.007c-0.146,0.004-0.305,0.012-0.479,0.023c-0.173,0.014-0.354,0.023-0.537,0.031
		c-0.188,0.008-0.357,0.018-0.516,0.024c-0.206,0.009-0.404-0.009-0.596-0.051c-0.188-0.041-0.334-0.081-0.434-0.122
		c-0.173-0.074-0.308-0.146-0.402-0.212c-0.094-0.065-0.149-0.205-0.166-0.421c-0.01-0.28,0.058-0.471,0.197-0.569
		c-0.009-0.371-0.019-0.706-0.031-1.003c-0.012-0.299-0.029-0.563-0.056-0.793c-0.041-0.051-0.082-0.102-0.124-0.155
		c-0.041-0.053-0.078-0.108-0.111-0.167c-0.032-0.049-0.053-0.104-0.062-0.161s0.009-0.115,0.05-0.173
		c0.049-0.074,0.104-0.139,0.168-0.192c0.062-0.054,0.125-0.112,0.19-0.18c0.065-0.049,0.137-0.074,0.211-0.074
		s0.155,0.009,0.248,0.025c0.099,0.017,0.221,0.035,0.364,0.056c0.145,0.021,0.309,0.022,0.49,0.006
		c0.215-0.017,0.457-0.037,0.729-0.062c0.272-0.025,0.541-0.06,0.806-0.101c0.215-0.032,0.393-0.008,0.532,0.074
		c0.142,0.083,0.289,0.194,0.446,0.335c0.091,0.091,0.177,0.188,0.26,0.291c0.083,0.104,0.115,0.188,0.1,0.254
		c-0.009,0.059-0.047,0.115-0.117,0.173c-0.07,0.06-0.148,0.109-0.235,0.155c-0.087,0.045-0.173,0.082-0.261,0.111
		c-0.086,0.028-0.15,0.048-0.191,0.056c-0.347,0.042-0.65,0.064-0.91,0.068c-0.261,0.004-0.515,0.002-0.762-0.006
		c0.008,0.206,0.012,0.431,0.012,0.675c0,0.243-0.004,0.456-0.012,0.638c0.223-0.008,0.45-0.021,0.682-0.037
		c0.23-0.017,0.467-0.033,0.705-0.05c0.141-0.008,0.305-0.017,0.489-0.024c0.187-0.008,0.376-0.013,0.569-0.013
		s0.383,0.005,0.563,0.013c0.181,0.009,0.334,0.024,0.458,0.051c0.01-0.025,0.014-0.059,0.014-0.101
		c0.033-0.396,0.056-0.76,0.067-1.09c0.013-0.33,0.019-0.647,0.019-0.954c0-0.156-0.002-0.286-0.006-0.39
		c-0.004-0.104-0.026-0.221-0.067-0.354c-0.017-0.064-0.07-0.143-0.161-0.229c-0.091-0.087-0.157-0.159-0.198-0.217
		c-0.032-0.042-0.042-0.099-0.024-0.168c0.017-0.069,0.05-0.144,0.1-0.218c0.041-0.058,0.113-0.128,0.217-0.21
		c0.104-0.083,0.196-0.145,0.278-0.187c0.157-0.074,0.298-0.086,0.422-0.037c0.091,0.042,0.206,0.107,0.347,0.198
		c0.141,0.092,0.256,0.178,0.348,0.261c0.148,0.124,0.258,0.269,0.328,0.434s0.117,0.334,0.143,0.509
		c0.018,0.114,0.031,0.258,0.043,0.427c0.014,0.17,0.016,0.328,0.007,0.478c-0.009,0.189-0.015,0.371-0.019,0.545
		c-0.006,0.174-0.008,0.344-0.008,0.509l0.373-0.074c0.164-0.041,0.31-0.033,0.434,0.023c0.124,0.058,0.23,0.124,0.322,0.198
		c0.064,0.059,0.14,0.126,0.223,0.204c0.082,0.079,0.159,0.159,0.229,0.242c0.069,0.082,0.129,0.163,0.174,0.241
		s0.068,0.146,0.068,0.204c0,0.197-0.113,0.354-0.342,0.471C312.405,101.1,312.151,101.161,311.871,101.17z"/>
	<path fill="#DDDDDD" d="M316.813,103.04c-0.504,0.018-0.996,0.026-1.475,0.031c-0.479,0.004-0.871-0.019-1.177-0.068
		c-0.19-0.032-0.328-0.081-0.415-0.143c-0.087-0.063-0.139-0.185-0.154-0.365c-0.017-0.174-0.009-0.312,0.024-0.415
		c0.032-0.103,0.082-0.184,0.147-0.241c0.008-0.148,0.016-0.313,0.02-0.489c0.004-0.178,0.002-0.35-0.006-0.515
		c-0.107-0.106-0.192-0.252-0.254-0.434c-0.063-0.182-0.072-0.322-0.031-0.421c0.017-0.041,0.045-0.087,0.087-0.137
		c0.041-0.05,0.106-0.096,0.198-0.137c0.091-0.041,0.184-0.069,0.277-0.087c0.094-0.017,0.2-0.021,0.316-0.013
		c0.115,0.009,0.26,0.021,0.434,0.037s0.348,0.021,0.521,0.013l1.065-0.062l0.036-0.72c-0.215,0.018-0.407,0.027-0.581,0.031
		s-0.294,0.006-0.359,0.006c-0.264,0-0.545-0.035-0.842-0.104c-0.299-0.07-0.537-0.181-0.72-0.328
		c-0.099-0.082-0.18-0.167-0.241-0.254c-0.063-0.087-0.084-0.171-0.067-0.254c0.024-0.115,0.077-0.233,0.161-0.354
		c0.082-0.12,0.178-0.205,0.285-0.254c0.049-0.025,0.103-0.04,0.16-0.044c0.059-0.004,0.133,0.011,0.223,0.044
		c0.074,0.024,0.188,0.058,0.342,0.099c0.152,0.041,0.295,0.07,0.427,0.088c0.066,0.008,0.188,0.008,0.365,0
		c0.178-0.01,0.368-0.02,0.569-0.031c0.203-0.013,0.393-0.024,0.569-0.037s0.304-0.022,0.378-0.031
		c0.141-0.017,0.299-0.021,0.471-0.012c0.175,0.008,0.311,0.074,0.41,0.198c0.082,0.099,0.135,0.186,0.16,0.26
		c0.024,0.074,0.018,0.174-0.025,0.297c-0.023,0.107-0.062,0.203-0.11,0.285c-0.032,0.174-0.063,0.363-0.093,0.569
		s-0.053,0.4-0.068,0.582c0.083,0.033,0.133,0.078,0.148,0.137c0.042,0.141,0.052,0.271,0.031,0.396
		c-0.021,0.124-0.043,0.215-0.068,0.272c-0.041,0.083-0.109,0.18-0.204,0.291c-0.095,0.11-0.222,0.168-0.378,0.168
		c-0.033,0-0.117,0.002-0.254,0.006s-0.303,0.008-0.495,0.013c-0.194,0.004-0.409,0.008-0.646,0.013
		c-0.234,0.005-0.463,0.007-0.688,0.007l-0.023,0.792c0.289-0.009,0.584-0.017,0.885-0.024c0.302-0.008,0.563-0.021,0.787-0.037
		c0.289-0.017,0.56-0.041,0.812-0.074c0.252-0.032,0.433-0.058,0.539-0.073c0.065-0.018,0.122-0.002,0.167,0.043
		c0.046,0.046,0.081,0.102,0.105,0.167c0.058,0.141,0.069,0.265,0.037,0.372c-0.033,0.106-0.138,0.248-0.311,0.421
		c-0.182,0.182-0.393,0.31-0.632,0.384S317.135,103.023,316.813,103.04z M321.743,98.172c0,0.289,0,0.605,0,0.947
		c0,0.343-0.002,0.682-0.008,1.017c-0.004,0.335-0.008,0.654-0.012,0.96s-0.011,0.563-0.019,0.769
		c-0.017,0.265-0.089,0.554-0.218,0.867c-0.127,0.313-0.295,0.605-0.502,0.879c0.115,0.017,0.209,0.056,0.279,0.118
		c0.069,0.062,0.15,0.153,0.241,0.277s0.14,0.246,0.147,0.365c0.009,0.12-0.008,0.287-0.049,0.502
		c-0.018,0.207-0.033,0.37-0.049,0.489c-0.019,0.12-0.043,0.258-0.076,0.415c-0.049,0.265-0.114,0.48-0.197,0.649
		c-0.082,0.17-0.17,0.317-0.26,0.446c-0.092,0.128-0.183,0.252-0.272,0.371c-0.091,0.12-0.165,0.263-0.224,0.428
		c-0.059-0.058-0.123-0.139-0.197-0.241c-0.074-0.104-0.148-0.218-0.225-0.341c-0.073-0.124-0.14-0.254-0.196-0.391
		c-0.06-0.136-0.097-0.262-0.112-0.378c-0.033-0.231-0.054-0.438-0.063-0.619c-0.008-0.182-0.008-0.38,0-0.595
		c-0.141,0.017-0.354,0.026-0.637,0.031c-0.285,0.004-0.592,0.006-0.918,0.006s-0.65,0-0.973,0c-0.321,0-0.586-0.004-0.792-0.013
		c-0.265-0.009-0.508-0.03-0.731-0.067c-0.223-0.037-0.457-0.126-0.705-0.268c-0.107-0.065-0.179-0.136-0.211-0.211
		c-0.033-0.073-0.028-0.192,0.013-0.357c0.017-0.066,0.048-0.146,0.093-0.242c0.046-0.095,0.089-0.185,0.131-0.266
		c0.059-0.107,0.117-0.169,0.18-0.181c0.063-0.013,0.15-0.002,0.267,0.03c0.091,0.025,0.204,0.046,0.341,0.063
		c0.137,0.018,0.275,0.028,0.421,0.037s0.291,0.016,0.44,0.02c0.147,0.004,0.279,0.006,0.396,0.006c0.248,0,0.524-0.002,0.83-0.006
		s0.613-0.009,0.923-0.014c0.311-0.004,0.611-0.01,0.904-0.019c0.293-0.008,0.547-0.021,0.762-0.037
		c-0.074-0.165-0.152-0.322-0.234-0.471s-0.146-0.317-0.187-0.508c-0.017-0.092-0.03-0.202-0.043-0.334
		c-0.013-0.134-0.022-0.27-0.03-0.409c-0.041,0.008-0.092,0.013-0.148,0.013c-0.215,0.018-0.402-0.007-0.563-0.068
		c-0.161-0.063-0.313-0.139-0.452-0.229c-0.166-0.107-0.298-0.23-0.396-0.371c-0.101-0.141-0.147-0.277-0.147-0.409
		c0-0.073,0.045-0.134,0.135-0.18c0.092-0.045,0.199-0.08,0.322-0.105c0.125-0.023,0.252-0.041,0.385-0.049
		c0.131-0.009,0.234-0.013,0.31-0.013c0.065,0,0.146-0.002,0.242-0.006c0.095-0.005,0.194-0.007,0.303-0.007
		c0-0.092,0.002-0.187,0.007-0.284c0.004-0.101,0.006-0.198,0.006-0.298h-0.396c-0.206-0.009-0.402-0.063-0.588-0.167
		c-0.188-0.104-0.354-0.226-0.503-0.365c-0.065-0.066-0.123-0.137-0.174-0.211c-0.049-0.074-0.065-0.156-0.049-0.248
		c0.016-0.148,0.088-0.245,0.217-0.291c0.129-0.045,0.287-0.076,0.478-0.093l1.065-0.063c0.008-0.041,0.012-0.076,0.012-0.104
		c0-0.029,0-0.063,0-0.105c0.009-0.132,0.011-0.241,0.007-0.328c-0.005-0.087-0.019-0.167-0.044-0.241
		c-0.023-0.073-0.059-0.148-0.1-0.224c-0.041-0.074-0.1-0.165-0.174-0.271c-0.091-0.141-0.143-0.241-0.154-0.305
		c-0.012-0.062,0.02-0.138,0.094-0.229c0.023-0.025,0.059-0.061,0.099-0.105c0.042-0.045,0.087-0.089,0.138-0.13
		c0.049-0.041,0.097-0.081,0.143-0.118c0.045-0.037,0.08-0.063,0.105-0.08c0.14-0.073,0.24-0.112,0.303-0.117
		s0.154,0.04,0.279,0.131c0.172,0.123,0.31,0.229,0.407,0.32c0.101,0.093,0.194,0.198,0.285,0.322
		c0.132,0.165,0.22,0.35,0.261,0.552C321.724,97.625,321.743,97.875,321.743,98.172z"/>
</g>
<!-- Code injected by live-server -->
<script type="text/javascript">
	// <![CDATA[  <-- For SVG support
	if ('WebSocket' in window) {
		(function () {
			function refreshCSS() {
				var sheets = [].slice.call(document.getElementsByTagName("link"));
				var head = document.getElementsByTagName("head")[0];
				for (var i = 0; i < sheets.length; ++i) {
					var elem = sheets[i];
					var parent = elem.parentElement || head;
					parent.removeChild(elem);
					var rel = elem.rel;
					if (elem.href && typeof rel != "string" || rel.length == 0 || rel.toLowerCase() == "stylesheet") {
						var url = elem.href.replace(/(&|\?)_cacheOverride=\d+/, '');
						elem.href = url + (url.indexOf('?') >= 0 ? '&' : '?') + '_cacheOverride=' + (new Date().valueOf());
					}
					parent.appendChild(elem);
				}
			}
			var protocol = window.location.protocol === 'http:' ? 'ws://' : 'wss://';
			var address = protocol + window.location.host + window.location.pathname + '/ws';
			var socket = new WebSocket(address);
			socket.onmessage = function (msg) {
				if (msg.data == 'reload') window.location.reload();
				else if (msg.data == 'refreshcss') refreshCSS();
			};
			if (sessionStorage && !sessionStorage.getItem('IsThisFirstTime_Log_From_LiveServer')) {
				console.log('Live reload enabled.');
				sessionStorage.setItem('IsThisFirstTime_Log_From_LiveServer', true);
			}
		})();
	}
	else {
		console.error('Upgrade your browser. This Browser is NOT supported WebSocket for Live-Reloading.');
	}
	// ]]>
</script></svg>
